<svg xmlns="http://www.w3.org/2000/svg" viewBox="0 0 1700.8 530.1"><circle fill="#C9DEF3" cx="321.4" cy="267.9" r="233.9"/><g fill="#FFF"><circle cx="320.4" cy="194.9" r="85"/><circle cx="320.4" cy="375.9" r="134.6"/></g><path fill="#5282B8" d="M400.5,287c-23.5,10.1-43.1,17-68.5,17.5c-28.9,0.6-56.2-7.9-82.4-20.9c-6.9-3.4-19.6-13.8-12.1-23.4 c7.3-9.3,23.2-6.3,31.9-1.9c4.9,2.4,9.9,4.8,15,6.9c2.7,1.1,2.5,1-0.5-0.1c1.3,0.5,2.5,0.9,3.8,1.4c2.5,0.9,5.1,1.7,7.7,2.4 c1.2,0.3,9.7,2.2,3.3,0.9c2.6,0.5,5.3,0.8,7.9,1.1c2.6,0.3,5.3,0.5,7.9,0.6c-5.6-0.3,2.9-0.1,3.8-0.2c5.3-0.2,10.6-0.8,15.9-1.6 c-4,0.6,3.7-0.8,4.5-1c2.6-0.6,5.3-1.3,7.9-2c10.6-2.8,20.9-6.8,31-11.1c10.4-4.5,26.2,1.7,33.7,9.9c3,3.2,5.6,7.9,4.4,12.7 c-1.3,5.2-5.5,6.9-9.6,8.6L400.5,287z"/><path fill="#5282B8" d="M402,348.4c6.2-6.8,16-10.2,25.5-7.9c2.9,0.7,5.6,1.9,8,3.5c0.3-1.3,0.1-2.8-0.5-4.4 c-8.4-22.7-22.1-43.5-40.2-59.6c-6.4-5.7-17-6-24.7-3.2c-5.7,2.1-12.5,8.6-6.2,14.3c16.8,14.9,28.7,33.7,36.5,54.7 C400.8,346.8,401.3,347.7,402,348.4z"/><circle fill="none" stroke="#5282B8" stroke-width="70" stroke-miterlimit="10" cx="320.4" cy="266.9" r="212.6"/><path fill="#4F7CAE" stroke="#5282B8" stroke-width="18" stroke-linecap="square" stroke-miterlimit="10" d="M795.8 392.3c-9.1 3.3-19.8 4.9-32.2 4.9-38.3 0-62.9-18.1-73.9-54.3l14.4-4.9c8.2 29.9 28 44.8 59.5 44.8 18 0 32.1-4.4 42.4-13.3 10.5-9.1 15.8-22.4 15.8-39.9 0-16.6-6.2-30.3-18.5-41.3-3.3-3-8.3-6.4-15.1-10.2-6.8-3.7-15.4-7.9-25.9-12.6-19.8-8.9-33.4-16.6-40.6-23.1-12.1-10.5-18.2-24.4-18.2-41.6 0-17.3 6.2-31.2 18.6-41.7 12.1-10.7 27.1-16.1 44.8-16.1 29.4 0 50.2 11 62.3 32.9l-13.6 5.9c-4.7-7.7-10.3-13.4-16.8-17.1-8.2-5.1-18.8-7.7-31.8-7.7-13.8 0-25.2 3.8-34.3 11.5-9.8 8.2-14.7 18.9-14.7 32.2 0 11.9 5.1 22.3 15.4 31.1 5.8 4.7 17.5 11 35 18.9 11 4.9 20.4 9.7 28.3 14.5 7.9 4.8 14.3 9.6 19.3 14.5 13.5 13.3 20.3 29.9 20.3 49.7C836.1 361.4 822.6 382.3 795.8 392.3zM1012.4 394.4V308c0-30.6-13.8-45.9-41.3-45.9-13.5 0-23.8 4-30.8 11.9-7.2 7.9-10.8 18.8-10.8 32.5v87.9h-14.4V249.9h14.4v17.5c6.5-12.8 20.4-19.3 41.6-19.3 18 0 31.7 5.1 41.3 15.4 9.6 10.3 14.3 24.6 14.3 43v87.9H1012.4zM1231.9 375.2c-14.5 14.5-32.2 21.7-53.2 21.7s-38.6-7.1-52.8-21.4c-14.5-14.5-21.7-32.2-21.7-53.2 0-20.8 7.2-38.4 21.7-52.8 14.2-14.7 31.8-22.1 52.8-22.1 20.8 0 38.4 7.2 52.9 21.7 14.5 14.5 21.7 32.2 21.7 53.2S1246.1 360.9 1231.9 375.2zM1221.7 279.3c-11.7-11.9-26-17.9-43-17.9-16.3 0-30.5 6.1-42.3 18.2-12.1 12.1-18.2 26.4-18.2 42.7 0 16.6 6 30.8 17.8 42.7 11.9 11.9 26.1 17.9 42.7 17.9 16.8 0 31-5.8 42.7-17.5 11.9-11.9 17.8-26.3 17.8-43.1C1239.2 305.3 1233.4 290.9 1221.7 279.3zM1341.1 224c-2.6 0-5.3-1-8.1-3.1-2.1-2.1-3.3-4.9-3.5-8.4 0-6.3 3.9-10.1 11.6-11.5 5.8 0 9.7 3.8 11.5 11.5C1352.6 220.1 1348.8 224 1341.1 224zM1333.7 394.4V249.9h14.4v144.6H1333.7zM1518.2 394.4V308c0-30.6-13.8-45.9-41.3-45.9-13.5 0-23.8 4-30.8 11.9-7.2 7.9-10.8 18.8-10.8 32.5v87.9h-14.4V249.9h14.4v17.5c6.5-12.8 20.4-19.3 41.6-19.3 18 0 31.7 5.1 41.3 15.4 9.6 10.3 14.3 24.6 14.3 43v87.9H1518.2z"/></svg>