<?xml version="1.0" standalone="no"?>
<!DOCTYPE svg PUBLIC "-//W3C//DTD SVG 1.1//EN" "http://www.w3.org/Graphics/SVG/1.1/DTD/svg11.dtd" >
<svg xmlns="http://www.w3.org/2000/svg">
<metadata></metadata>
<defs>
<font id="nanumbarungothicotfregular" horiz-adv-x="892" >
<font-face units-per-em="1000" ascent="800" descent="-200" />
<missing-glyph horiz-adv-x="224" />
<glyph unicode=" "  horiz-adv-x="224" />
<glyph unicode="&#x09;" horiz-adv-x="224" />
<glyph unicode="&#xa0;" horiz-adv-x="224" />
<glyph unicode="!" horiz-adv-x="446" d="M125 11q0 -29 19 -48t49 -19t49 19t19 48t-19 48t-49 19t-49 -19t-19 -48zM140 738l16 -560h71l20 560h-107z" />
<glyph unicode="&#x22;" horiz-adv-x="297" d="M34 799l28 -234h59l9 234h-96zM167 799l9 -234h59l28 234h-96z" />
<glyph unicode="#" horiz-adv-x="583" d="M23 204h106l-33 -234h78l33 234h115l-33 -234h78l33 234h113l8 64h-112l29 210h113l10 64h-114l24 170h-78l-24 -170h-115l24 170h-78l-24 -170h-105l-10 -64h106l-29 -210h-107zM211 264l31 218h123l-31 -218h-123z" />
<glyph unicode="$" horiz-adv-x="583" d="M66 41q72 -62 198 -62v-107h78v112q90 13 140 63t50 137q0 68 -44 114t-137 87l-11 4v263q69 -8 143 -60q5 -5 8.5 -3t3.5 9v70q-57 41 -153 50v81h-78v-81q-86 -9 -139 -54t-53 -121q0 -73 40.5 -114t124.5 -77l29 -11v-295q-103 4 -189 92q-11 9 -11 -3v-94zM157 546 q0 44 32 71.5t88 34.5v-237h-1q-119 45 -119 131zM329 48v266h1q113 -60 113 -135q0 -108 -114 -131z" />
<glyph unicode="%" d="M76 530q0 -83 42.5 -140t119.5 -57t119.5 57t42.5 140t-42.5 140.5t-119.5 57.5t-119.5 -57.5t-42.5 -140.5zM153 529q0 59 20 99.5t65 40.5t65 -40.5t20 -99.5q0 -58 -20 -97.5t-65 -39.5t-65 39.5t-20 97.5zM187 -50h85l419 784h-85zM491 156q0 -83 42.5 -140 t119.5 -57t119.5 57t42.5 140t-42.5 140.5t-119.5 57.5t-119.5 -57.5t-42.5 -140.5zM568 155q0 59 20 99.5t65 40.5t65 -40.5t20 -99.5q0 -58 -20 -97.5t-65 -39.5t-65 39.5t-20 97.5z" />
<glyph unicode="&#x26;" d="M127 155q0 -103 77 -161q40 -28 81.5 -38t103.5 -10q68 0 128 30t99 80h2l81 -90h111l-145 154v2q58 109 37 255h-80q-13 0 -7 -12q29 -101 -9 -178h-2l-187 209v2q41 32 65 55.5t46 63t22 82.5q0 62 -45 99t-128 37q-77 0 -119.5 -43t-42.5 -110q0 -33 13.5 -65.5 t28 -52t45.5 -55.5v-2q-175 -138 -175 -252zM217 159q0 54 32.5 95.5t103.5 97.5h2l209 -236v-2q-69 -95 -185 -95q-68 0 -115 38.5t-47 101.5zM295 587q0 37 23 60t59 23q46 0 68 -21t22 -55q0 -45 -24.5 -75.5t-78.5 -69.5h-2q-37 44 -52 72t-15 66z" />
<glyph unicode="'" horiz-adv-x="297" d="M99 799l18 -234h62l19 234h-99z" />
<glyph unicode="(" horiz-adv-x="446" d="M152 317q0 -123 55 -249.5t142 -217.5h66q-170 236 -170 467t170 467h-66q-87 -91 -142 -217.5t-55 -249.5z" />
<glyph unicode=")" horiz-adv-x="446" d="M40 -150h66q87 91 142 217.5t55 249.5t-55 249.5t-142 217.5h-66q170 -236 170 -467t-170 -467z" />
<glyph unicode="*" horiz-adv-x="446" d="M41 321l133 16v-2l-81 -124l72 -39l56 133h2l56 -133l72 39l-81 124v2l133 -16v81l-133 -16v2l81 124l-72 39l-56 -133h-2l-56 133l-72 -39l81 -124v-2l-133 16v-81z" />
<glyph unicode="+" horiz-adv-x="583" d="M58 330h196v-206h75v206h196v71h-196v208h-75v-208h-196v-71z" />
<glyph unicode="," horiz-adv-x="297" d="M59 -129l18 -38q56 20 93 67.5t37 108.5q0 36 -20.5 59.5t-52.5 23.5t-51 -18t-19 -45q0 -24 17.5 -41t42.5 -17q18 0 12 -22q-16 -56 -77 -78z" />
<glyph unicode="-" horiz-adv-x="583" d="M81 328h421v75h-421v-75z" />
<glyph unicode="." horiz-adv-x="297" d="M62 16q0 -29 19 -48t49 -19t49 19t19 48t-19 48t-49 19t-49 -19t-19 -48z" />
<glyph unicode="/" horiz-adv-x="446" d="M43 -149h83l278 934h-78z" />
<glyph unicode="0" horiz-adv-x="583" d="M46 336q0 -384 246 -384t246 384q0 198 -63 298.5t-183 100.5t-183 -100.5t-63 -298.5zM133 334q0 331 159 331t159 -331q0 -163 -39 -238t-120 -75t-120 75t-39 238z" />
<glyph unicode="1" horiz-adv-x="583" d="M122 554q0 -9 10 -5q73 27 138 79h1v-664h86v758h-90q-61 -69 -145 -106v-62z" />
<glyph unicode="2" horiz-adv-x="583" d="M55 -36h467v70h-364v1l204 232q46 55 62.5 76.5t42.5 60t35 68t9 62.5q0 201 -222 201q-110 0 -209 -79v-75q0 -15 11 -4q107 88 200 88q132 0 132 -129q0 -47 -23.5 -85t-111.5 -150l-233 -262v-75z" />
<glyph unicode="3" horiz-adv-x="583" d="M59 32q38 -36 99.5 -56.5t128.5 -20.5q116 0 180.5 63.5t64.5 153.5q0 155 -154 189v2q61 13 98.5 61.5t37.5 117.5q0 94 -63 144t-167 50q-58 0 -112.5 -19.5t-90.5 -50.5v-72q0 -6 3.5 -7t7.5 2q86 77 194 77q63 0 101 -32.5t38 -96.5q0 -78 -48.5 -108t-133.5 -34h-12 v-71h27q186 0 186 -155q0 -62 -44.5 -103t-110.5 -41q-117 0 -218 84q-5 5 -8.5 3.5t-3.5 -8.5v-72z" />
<glyph unicode="4" horiz-adv-x="583" d="M21 137h350v-173h85v173h113v70h-113v515h-103l-332 -503v-82zM96 205v1l252 385l29 56l-1 -56v-386h-280z" />
<glyph unicode="5" horiz-adv-x="583" d="M57 13q85 -58 213 -58q122 0 195.5 72t73.5 181q0 101 -73.5 158.5t-193.5 57.5q-40 0 -107 -7h-2l15 232h320v69h-392l-21 -377q86 18 151 18q99 0 158 -38.5t59 -121.5q0 -75 -50.5 -124t-129.5 -51q-115 0 -205 63q-4 4 -7.5 2.5t-3.5 -7.5v-69z" />
<glyph unicode="6" horiz-adv-x="583" d="M53 309q0 -353 246 -353q108 0 175.5 71.5t67.5 188.5q0 109 -59.5 177.5t-164.5 68.5q-62 0 -111 -32.5t-70 -79.5h-2q4 133 66 224.5t165 91.5q70 0 132 -37q9 -7 9 4v74q-63 29 -143 29q-79 0 -141 -37.5t-98 -100t-54 -136t-18 -153.5zM143 208q6 81 46.5 132.5 t116.5 51.5q73 0 110.5 -51t37.5 -130q0 -75 -40 -130.5t-115 -55.5q-70 0 -113 53.5t-43 129.5z" />
<glyph unicode="7" horiz-adv-x="583" d="M41 648h403l-302 -684h89l293 671v83h-483v-70z" />
<glyph unicode="8" horiz-adv-x="583" d="M37 161q0 -92 65.5 -149t188.5 -57t188.5 57t65.5 149q0 75 -39 128.5t-117 73.5v2q64 20 101.5 64.5t37.5 105.5q0 86 -61.5 143t-175.5 57t-175.5 -57t-61.5 -143q0 -61 37.5 -105.5t101.5 -64.5v-2q-78 -20 -117 -73.5t-39 -128.5zM124 174q0 67 48.5 111.5 t118.5 44.5t118.5 -44.5t48.5 -111.5t-48 -108t-119 -41t-119 41t-48 108zM141 536q0 60 43.5 98t106.5 38t106.5 -38t43.5 -98q0 -61 -45 -97.5t-105 -36.5t-105 36.5t-45 97.5z" />
<glyph unicode="9" horiz-adv-x="583" d="M49 475q0 -110 58 -177.5t166 -67.5q62 0 111 32.5t70 78.5h2q-4 -144 -65 -229.5t-166 -85.5q-70 0 -132 36q-9 7 -9 -5v-72q59 -29 143 -29q80 0 141.5 36t97.5 97t54 135t18 158q0 354 -247 354q-108 0 -175 -72t-67 -189zM137 480q0 76 40 131.5t114 55.5 q71 0 114 -53.5t43 -129.5q-6 -81 -47 -133t-116 -52q-76 0 -112 50.5t-36 130.5z" />
<glyph unicode=":" horiz-adv-x="297" d="M86 139q0 -29 19 -48t49 -19t49 19t19 48t-19 48t-49 19t-49 -19t-19 -48zM86 545q0 -29 19 -48t49 -19t49 19t19 48t-19 48t-49 19t-49 -19t-19 -48z" />
<glyph unicode=";" horiz-adv-x="297" d="M78 -10l18 -38q56 20 93 67.5t37 108.5q0 36 -20.5 59.5t-52.5 23.5t-51 -18t-19 -45q0 -23 18.5 -40.5t41.5 -17.5q10 0 12.5 -5t-0.5 -17q-16 -56 -77 -78zM86 545q0 -29 19 -48t49 -19t49 19t19 48t-19 48t-49 19t-49 -19t-19 -48z" />
<glyph unicode="&#x3c;" horiz-adv-x="446" d="M88 326l244 -475h84l-238 476l228 457h-84z" />
<glyph unicode="=" horiz-adv-x="583" d="M83 216h417v70h-417v-70zM83 416h417v70h-417v-70z" />
<glyph unicode="&#x3e;" horiz-adv-x="446" d="M30 -149h84l244 475l-234 458h-84l228 -457z" />
<glyph unicode="?" horiz-adv-x="669" d="M81 613q0 -7 3.5 -9t8.5 3q71 69 154 69q63 0 99.5 -26.5t36.5 -79.5q0 -42 -24 -76t-67 -74q-41 -41 -60.5 -78t-19.5 -86q0 -42 9 -79h79q-9 45 -9 77q0 29 11 53.5t22 37t40 40.5q107 103 107 195q0 79 -58.5 124.5t-155.5 45.5q-85 0 -176 -57v-80zM191 11 q0 -29 19 -48t49 -19t49 19t19 48t-19 48t-49 19t-49 -19t-19 -48z" />
<glyph unicode="@" horiz-adv-x="1052" d="M79 290q0 -100 25.5 -178t79.5 -138t146 -92t217 -32q195 0 305 78v77q0 12 -11 6q-124 -96 -292 -96q-188 0 -285 96t-97 281q0 179 106 293.5t272 114.5q167 0 264 -92.5t97 -261.5q0 -97 -42.5 -163.5t-96.5 -66.5q-40 0 -53 17.5t-12 52.5l31 363h-74l-8 -56h-1 q-38 65 -111 65q-92 0 -164.5 -83t-72.5 -216q0 -95 44 -150t125 -55q61 0 99 27t65 82h1q0 -48 28.5 -79t95.5 -31q93 0 163.5 81.5t70.5 223.5q0 182 -122 295t-331 113q-202 0 -332 -134.5t-130 -341.5zM391 256q0 94 42.5 164t106.5 70q54 0 76 -28.5t22 -95.5 q0 -111 -42 -177.5t-109 -66.5q-46 0 -71 34.5t-25 99.5z" />
<glyph unicode="A" horiz-adv-x="644" d="M6 -36h91l69 216h309l68 -216h91l-259 757h-111zM192 252l108 336l20 70l20 -70l108 -336h-256z" />
<glyph unicode="B" horiz-adv-x="627" d="M85 -36h256q121 0 186.5 66t65.5 156q0 78 -47 129.5t-125 61.5v2q63 18 99 63.5t36 108.5q0 73 -58 121.5t-160 48.5h-253v-757zM172 39v298h139q184 0 184 -150q0 -68 -43.5 -108t-122.5 -40h-157zM172 410v237h142q75 0 111.5 -27t36.5 -85q0 -125 -158 -125h-132z " />
<glyph unicode="C" horiz-adv-x="639" d="M35 342q0 -176 91.5 -281.5t251.5 -105.5q145 0 236 78v88q0 14 -13 4q-88 -93 -208 -93q-128 0 -196.5 80.5t-68.5 234.5q0 145 75.5 226.5t192.5 81.5q121 0 199 -86q5 -5 9 -4t4 8v92q-83 65 -218 65q-157 0 -256 -105t-99 -283z" />
<glyph unicode="D" horiz-adv-x="721" d="M85 -36h178h4q180 0 296 96q117 97 118 286q0 375 -410 375h-186v-757zM172 39v608h97q316 0 316 -303q0 -150 -84 -227.5t-237 -77.5h-92z" />
<glyph unicode="E" horiz-adv-x="596" d="M85 -36h468v76h-381v300h354v74h-354v232h381v75h-468v-757z" />
<glyph unicode="F" horiz-adv-x="554" d="M85 -36h88v372h344v74h-344v236h358v75h-446v-757z" />
<glyph unicode="G" horiz-adv-x="710" d="M43 345q0 -178 95.5 -284t272.5 -106q119 0 239 66v329h-264v-75h174v-201q-38 -47 -134 -47q-144 0 -217.5 84t-73.5 236q0 143 81 226.5t207 83.5q130 0 209 -87q5 -5 9 -4t4 8v92q-87 64 -229 64q-165 0 -269 -104t-104 -281z" />
<glyph unicode="H" horiz-adv-x="718" d="M85 -36h88v379h369v-379h88v757h-88v-303h-369v303h-88v-757z" />
<glyph unicode="I" horiz-adv-x="247" d="M85 -36h88v757h-88v-757z" />
<glyph unicode="J" horiz-adv-x="410" d="M16 37v-78q49 -13 96 -13q142 0 189 101q24 52 24 150v524h-88v-527q0 -97 -30 -133q-32 -39 -108 -39q-43 0 -83 15z" />
<glyph unicode="K" horiz-adv-x="626" d="M85 -36h88v300l88 93h1l255 -393h108l-304 448v1l282 308h-106l-323 -353h-1v353h-88v-757z" />
<glyph unicode="L" horiz-adv-x="529" d="M85 -36h433v76h-345v681h-88v-757z" />
<glyph unicode="M" horiz-adv-x="884" d="M85 -36h82v606l-2 74l20 -74l219 -606h73l220 606l20 74l-2 -74v-606h82v757h-128l-211 -579l-17 -60l-16 60l-211 579h-129v-757z" />
<glyph unicode="N" horiz-adv-x="710" d="M85 -36h85v609l-1 70l28 -70l292 -609h134v757h-85v-609l1 -70l-28 70l-292 609h-134v-757z" />
<glyph unicode="O" horiz-adv-x="752" d="M42 341q0 -170 89 -278t243 -108t243 108t89 278t-89 279.5t-243 109.5t-243 -109.5t-89 -279.5zM136 342q0 139 62 225.5t176 86.5t176 -86.5t62 -225.5t-62 -225t-176 -86t-176 86t-62 225z" />
<glyph unicode="P" horiz-adv-x="586" d="M85 -36h88v287h94q134 0 212 63.5t78 180.5q0 113 -79 169.5t-207 56.5h-186v-757zM172 323v324h93q200 0 200 -154q0 -170 -215 -170h-78z" />
<glyph unicode="Q" horiz-adv-x="752" d="M42 341q0 -170 89 -278t243 -108q101 0 175 48h1l62 -74h109l-116 119v1q101 109 101 292q0 170 -89 279.5t-243 109.5t-243 -109.5t-89 -279.5zM136 342q0 139 62 225.5t176 86.5t176 -86.5t62 -225.5q0 -153 -62 -233h-1l-54 59h-86l89 -104v-1q-52 -32 -124 -32 q-114 0 -176 86t-62 225z" />
<glyph unicode="R" horiz-adv-x="610" d="M85 -36h88v307h147l157 -307h112l-187 322v1q161 45 161 219q0 99 -68.5 157t-194.5 58h-215v-757zM172 341v306h137q73 0 118.5 -35.5t45.5 -107.5q0 -91 -47 -127t-149 -36h-105z" />
<glyph unicode="S" horiz-adv-x="592" d="M58 21q74 -66 212 -66q122 0 192.5 54t70.5 162q0 72 -45.5 123.5t-139.5 93.5l-72 32q-119 44 -119 129q0 106 151 106q96 0 175 -57q5 -5 8.5 -3.5t3.5 9.5v74q-75 54 -191 54q-105 0 -172.5 -48t-67.5 -138q0 -77 42 -123t126 -83l71 -31q65 -31 99 -64.5t34 -79.5 q0 -68 -40.5 -99.5t-123.5 -31.5q-119 0 -203 88q-3 3 -5.5 3.5t-4 -1.5t-1.5 -6v-97z" />
<glyph unicode="T" horiz-adv-x="621" d="M7 646h259v-682h88v682h257v75h-604v-75z" />
<glyph unicode="U" horiz-adv-x="696" d="M76 273q0 -144 47 -213q72 -105 224 -105h2q75 0 132.5 28t90.5 77q47 67 47 213v449h-88v-442q0 -136 -38 -183q-46 -65 -145 -65t-146 65q-38 49 -38 183v442h-88v-449z" />
<glyph unicode="V" horiz-adv-x="635" d="M7 721l256 -757h107l256 757h-94l-198 -603l-18 -70l-17 70l-198 603h-94z" />
<glyph unicode="W" horiz-adv-x="961" d="M23 721l194 -757h103l145 584l14 70l14 -70l145 -584h103l194 757h-91l-142 -589l-15 -70l-15 70l-144 589h-98l-144 -589l-15 -70l-15 70l-142 589h-91z" />
<glyph unicode="X" horiz-adv-x="617" d="M19 -36h98l190 317h2l190 -317h98l-239 382v2l233 373h-97l-184 -312h-2l-187 312h-97l235 -378v-2z" />
<glyph unicode="Y" horiz-adv-x="611" d="M9 721l252 -431v-326h91v337l251 420h-94l-200 -351h-2l-204 351h-94z" />
<glyph unicode="Z" horiz-adv-x="594" d="M39 -36h523v76h-430v1l418 598v82h-493v-75h396v-1l-414 -597v-84z" />
<glyph unicode="[" horiz-adv-x="446" d="M213 -150h193v55h-106v824h106v55h-193v-934z" />
<glyph unicode="^" horiz-adv-x="434" d="M6 589h93l117 157h2l117 -157h93l-165 210h-92z" />
<glyph unicode="_" horiz-adv-x="446" d="M10 -84v-66h426v66h-426z" />
<glyph unicode="`" horiz-adv-x="297" d="M60 799l108 -238h68l-69 238h-107z" />
<glyph unicode="a" horiz-adv-x="560" d="M29 110q0 -76 49.5 -117t131.5 -41q52 0 101 24t74 67h1l4 -79h83v375q0 102 -45.5 147.5t-143.5 45.5q-110 0 -201 -60v-73q0 -8 4 -9.5t9 3.5q89 64 178 64q61 0 87.5 -26t26.5 -96v-9l-172 -25q-91 -14 -139 -64t-48 -127zM120 117q0 104 126 123l145 18v-72 q0 -62 -49 -112t-113 -50q-49 0 -79 24.5t-30 68.5z" />
<glyph unicode="b" horiz-adv-x="588" d="M75 -36h90l3 67h1q57 -76 151 -76q117 0 176.5 81t59.5 216q0 125 -55.5 198t-167.5 73q-113 0 -170 -96h-2v350h-86v-813zM163 189v77q0 76 47.5 132.5t114.5 56.5q66 0 104.5 -54.5t38.5 -149.5q0 -108 -40 -166.5t-114 -58.5q-65 0 -108 45t-43 118z" />
<glyph unicode="c" horiz-adv-x="490" d="M37 233q0 -138 75 -210.5t204 -72.5q102 0 160 55v67q0 15 -11 4q-59 -55 -142 -55q-95 0 -144.5 58t-49.5 155q0 93 49 155t138 62q87 0 145 -51q11 -13 11 4v69q-60 50 -158 50q-128 0 -202.5 -79t-74.5 -211z" />
<glyph unicode="d" horiz-adv-x="588" d="M29 225q0 -124 57 -197t170 -73q114 0 164 76h1l3 -67h90v813h-86v-331h-1q-61 77 -161 77q-116 0 -176.5 -84.5t-60.5 -213.5zM118 226q0 108 42 167t116 59q64 0 107 -48.5t43 -115.5v-86q0 -77 -43 -128t-117 -51q-67 0 -107.5 54.5t-40.5 148.5z" />
<glyph unicode="e" horiz-adv-x="559" d="M37 235q0 -133 72.5 -208t193.5 -75q130 0 200 55v69q0 13 -11 4q-82 -58 -177 -58q-85 0 -134.5 49.5t-51.5 144.5v9h401v41q0 123 -61 190t-171 67q-116 0 -188.5 -79.5t-72.5 -208.5zM130 290v5q12 74 57.5 118.5t108.5 44.5q67 0 105 -42t38 -122v-4h-309z" />
<glyph unicode="f" horiz-adv-x="340" d="M15 445h96v-481h85v481h131v65h-131v92q0 65 22.5 90.5t71.5 25.5q24 0 50 -8q10 -4 10 7v58q-24 14 -66 14q-81 0 -127 -42.5t-46 -131.5v-105h-96v-65z" />
<glyph unicode="g" horiz-adv-x="588" d="M24 235q0 -121 59 -191.5t171 -70.5q120 0 171 85h1v-55q0 -113 -42.5 -164.5t-142.5 -51.5q-77 0 -161 49q-11 8 -11 -5v-76q82 -40 173 -40q142 0 205.5 71.5t63.5 227.5v496h-86l-3 -74h-1q-49 87 -166 87q-111 0 -171 -75.5t-60 -212.5zM114 236q0 105 39.5 160.5 t111.5 55.5q67 0 114 -49.5t47 -122.5v-68q0 -77 -43.5 -124t-118.5 -47q-68 0 -109 52t-41 143z" />
<glyph unicode="h" horiz-adv-x="592" d="M75 -36h86v301q0 80 50 135t117 55q63 0 88.5 -40t25.5 -126v-325h85v323q0 119 -44 177.5t-145 58.5q-54 0 -102.5 -26t-73.5 -72h-1v352h-86v-813z" />
<glyph unicode="i" horiz-adv-x="244" d="M60 684q0 -26 17.5 -43.5t44.5 -17.5q26 0 44 18t18 43q0 27 -18 45t-44 18q-27 0 -44.5 -18t-17.5 -45zM78 -36h87v546h-87v-546z" />
<glyph unicode="j" horiz-adv-x="301" d="M9 -209v-78h21q96 0 140 41q49 47 49 171v585h-87v-573q0 -94 -26 -121q-24 -25 -87 -25h-10zM112 684q0 -26 18 -43.5t44 -17.5t44 17.5t18 43.5q0 27 -18 45t-44 18t-44 -18t-18 -45z" />
<glyph unicode="k" horiz-adv-x="530" d="M75 -36h86v228l52 45h1l212 -273h111l-264 321v1l232 224h-106l-237 -231h-1v498h-86v-813z" />
<glyph unicode="l" horiz-adv-x="244" d="M75 -36h86v813h-86v-813z" />
<glyph unicode="m" d="M75 -36h83v301q0 80 46.5 135t106.5 55q55 0 78 -40t23 -126v-325h83l1 301q0 80 46 135t105 55q55 0 77.5 -40t22.5 -126v-325h85v322q0 120 -39 178t-134 58q-115 0 -177 -122h-1q-18 63 -54.5 92.5t-103.5 29.5q-48 0 -92.5 -25.5t-67.5 -68.5h-1l-3 82h-84v-546z" />
<glyph unicode="n" horiz-adv-x="592" d="M75 -36h85v301q0 80 51.5 135t117.5 55q63 0 88 -40t25 -126v-325h86v323q0 119 -44 177.5t-145 58.5q-52 0 -100.5 -25t-72.5 -67h-1l-4 79h-86v-546z" />
<glyph unicode="o" horiz-adv-x="577" d="M34 239q0 -124 64.5 -204t189.5 -80t189.5 80t64.5 204q0 127 -66 205.5t-188 78.5t-188 -78.5t-66 -205.5zM125 239q0 216 163 216t163 -216q0 -106 -41.5 -160.5t-121.5 -54.5t-121.5 54.5t-41.5 160.5z" />
<glyph unicode="p" horiz-adv-x="588" d="M75 -281h86v308h2q58 -72 157 -72q120 0 181 80.5t61 216.5q0 129 -58.5 200t-171.5 71q-100 0 -168 -89h-1l-2 76h-86v-791zM159 179v81q0 79 45 137.5t118 58.5q68 0 109 -55t41 -149q0 -108 -42.5 -166.5t-117.5 -58.5q-66 0 -109.5 43.5t-43.5 108.5z" />
<glyph unicode="q" horiz-adv-x="588" d="M23 225q0 -124 59 -196.5t171 -73.5q119 0 170 87h1v-323h86v791h-86l-3 -64h-1q-56 77 -157 77q-116 0 -178 -83t-62 -215zM113 226q0 108 42.5 167t117.5 59q65 0 109 -48.5t44 -115.5v-86q0 -77 -44 -128t-119 -51q-68 0 -109 54.5t-41 148.5z" />
<glyph unicode="r" horiz-adv-x="383" d="M75 -36h86v308q0 75 42.5 124.5t97.5 49.5q38 0 64 -15q12 -9 12 5v74q-24 13 -67 13q-44 0 -83.5 -24.5t-60.5 -67.5h-1l-3 79h-87v-546z" />
<glyph unicode="s" horiz-adv-x="475" d="M40 4q80 -54 193 -54q92 0 149.5 44t57.5 118q0 60 -37 93t-113 65l-66 29q-37 14 -57 34t-20 55q0 69 95 69q85 0 165 -61q9 -9 9 5v73q-77 49 -170 49q-89 0 -139.5 -39t-50.5 -102q0 -55 35.5 -92.5t111.5 -70.5l61 -26q84 -36 84 -82q0 -91 -117 -91q-78 0 -181 60 q-10 6 -10 -7v-69z" />
<glyph unicode="t" horiz-adv-x="357" d="M3 445h95v-354q0 -75 34 -107q32 -31 105 -31h5q68 0 104 27v61q0 14 -11 6q-39 -21 -82 -21q-45 0 -57 15.5t-12 62.5v341h142v65h-142v135h-86v-135h-95v-65z" />
<glyph unicode="u" horiz-adv-x="592" d="M65 187q0 -235 195 -235q52 0 97 24t71 67h1l4 -79h86v546h-85v-306q0 -80 -48.5 -132t-115.5 -52q-63 0 -91 40.5t-28 124.5v325h-86v-323z" />
<glyph unicode="v" horiz-adv-x="530" d="M12 510l213 -546h79l213 546h-90l-145 -396l-17 -60l-18 60l-145 396h-90z" />
<glyph unicode="w" horiz-adv-x="788" d="M24 510l146 -546h89l117 401l18 70l18 -70l117 -401h89l147 546h-86l-96 -393l-12 -67l-16 67l-115 393h-92l-115 -393l-16 -67l-12 67l-95 393h-86z" />
<glyph unicode="x" horiz-adv-x="528" d="M16 -36h97l149 219h2l150 -219h98l-199 276v2l195 268h-96l-148 -212h-2l-145 212h-98l195 -268v-2z" />
<glyph unicode="y" horiz-adv-x="530" d="M7 510l223 -545v-4l-38 -94q-30 -83 -109 -83q-23 0 -42 5q-10 1 -10 -7v-60q20 -7 57 -7q76 0 120 46t79 139l230 610h-90l-142 -417l-12 -44l-13 44l-157 417h-96z" />
<glyph unicode="z" horiz-adv-x="473" d="M30 30v-66h414v70h-320v1l315 414v61h-396v-69h301v-1z" />
<glyph unicode="|" horiz-adv-x="446" d="M185 -150h76v934h-76v-934z" />
<glyph unicode="~" horiz-adv-x="669" d="M116 293q0 -5 2 -7t4.5 -1t4.5 5q17 33 43.5 52.5t56.5 19.5q29 0 50 -10.5t51 -34.5q47 -38 106 -38q36 0 68 17t50 46v88q0 5 -2 7t-4.5 1t-4.5 -5q-17 -33 -43.5 -52.5t-56.5 -19.5q-29 0 -50 10.5t-51 34.5q-47 38 -106 38q-36 0 -68 -17t-50 -46v-88z" />
<glyph unicode="&#xa1;" d="M385 658q0 -28 18 -46.5t43 -18.5t42.5 18.5t17.5 46.5t-17.5 47t-41.5 19q-25 0 -43.5 -19.5t-18.5 -46.5zM390 -138h113q-9 45 -11 111l-15 493h-60l-15 -493q-2 -67 -12 -111z" />
<glyph unicode="&#xa7;" horiz-adv-x="446" d="M45 332q-6 -47 30 -100q38 -47 144 -127q86 -64 102 -89q5 -6 8 -17.5t0 -26t-12 -27.5t-30 -22.5t-51 -10.5q-34 0 -58 17t-24 38q0 6 3.5 20t3.5 23q0 30 -23 43.5t-47 1t-27 -47.5q0 -54 55.5 -93.5t128.5 -39.5q64 0 109.5 34t45.5 85q0 45 -40 89q-23 25 -88 74 q51 -3 83.5 31.5t32.5 84.5q0 43 -28.5 81t-107.5 101q-77 61 -106.5 96t-29.5 67q0 35 24 55t66 20q33 0 57 -16.5t24 -37.5q0 -8 -4.5 -21t-4.5 -21q0 -32 22.5 -47.5t46.5 -3t26 50.5q0 58 -48.5 99t-116.5 41q-63 0 -109.5 -41.5t-46.5 -98.5q0 -73 111 -167 q-42 9 -78.5 -20.5t-42.5 -76.5zM109 331q0 28 22.5 46.5t61.5 16.5q31 -9 79.5 -57t47.5 -91q0 -27 -14.5 -42.5t-40.5 -15.5q-36 0 -84 38q-72 56 -72 105z" />
<glyph unicode="&#xa8;" d="M212 741q0 -29 18.5 -48t46.5 -19q31 0 50 18.5t19 48.5q0 28 -18.5 46.5t-46.5 18.5q-31 0 -50 -18t-19 -47zM544 741q0 -29 18.5 -48t46.5 -19q31 0 50 18.5t19 48.5q0 28 -18.5 46.5t-46.5 18.5q-31 0 -50 -18t-19 -47z" />
<glyph unicode="&#xad;" horiz-adv-x="583" d="M81 328h421v75h-421v-75z" />
<glyph unicode="&#xb0;" horiz-adv-x="446" d="M98 668q0 -49 34 -82.5t82 -33.5t81.5 34t33.5 82t-34 81.5t-81 33.5q-48 0 -82 -33.5t-34 -81.5zM150 668q0 26 19 46t45 20q25 0 44 -20t19 -46q0 -27 -19 -47t-44 -20q-26 0 -45 20t-19 47z" />
<glyph unicode="&#xb1;" d="M212 44h467v73h-467v-73zM212 380h196v-206h75v206h196v71h-196v208h-75v-208h-196v-71z" />
<glyph unicode="&#xb4;" d="M333 636q31 0 114.5 40.5t107.5 63.5q19 26 1 50q-22 28 -63 -1q-22 -15 -160 -153z" />
<glyph unicode="&#xb6;" d="M122 527q0 -106 79 -165t238 -44l1 -475h69v894q-87 3 -159 -3q-111 -7 -169.5 -60.5t-58.5 -146.5zM196 529q0 72 59 111.5t184 33.5v-288q-121 -13 -182 28.5t-61 114.5zM629 -157h70v896h-70v-896z" />
<glyph unicode="&#xbf;" d="M260 53q0 -83 56 -137q47 -46 116 -51.5t127 17.5t94 59l-37 54q-24 -23 -63.5 -41.5t-90.5 -18t-84 33.5q-35 42 -29.5 90.5t30.5 89t65 73.5q35 28 62 75q23 39 25 89t-4 85h-77v-28.5v-28.5t-1 -23t-3 -25.5t-6 -21.5t-10 -25q-19 -40 -62 -74q-104 -84 -108 -192z M411 662q0 -28 19 -47t42 -19q26 0 45 18.5t19 47.5q0 28 -18.5 48.5t-44.5 20.5t-44 -20t-18 -49z" />
<glyph unicode="&#xd7;" d="M190 560l204 -204l-203 -203l51 -52l204 204l204 -204l51 52l-203 203l204 204l-52 52l-204 -204l-204 204z" />
<glyph unicode="&#xf7;" d="M173 328h545v75h-545v-75zM375 157q0 -31 21 -50.5t51 -19.5q27 0 48.5 21t21.5 49q-1 29 -21.5 50t-51.5 21q-28 0 -48.5 -21t-20.5 -50zM375 574q0 -30 20.5 -49t50.5 -19q28 0 49 19.5t21 48.5q0 30 -20.5 51t-51.5 21q-28 0 -48.5 -21.5t-20.5 -50.5z" />
<glyph unicode="&#x2000;" horiz-adv-x="408" />
<glyph unicode="&#x2001;" horiz-adv-x="816" />
<glyph unicode="&#x2002;" horiz-adv-x="408" />
<glyph unicode="&#x2003;" horiz-adv-x="816" />
<glyph unicode="&#x2004;" horiz-adv-x="272" />
<glyph unicode="&#x2005;" horiz-adv-x="204" />
<glyph unicode="&#x2006;" horiz-adv-x="136" />
<glyph unicode="&#x2007;" horiz-adv-x="136" />
<glyph unicode="&#x2008;" horiz-adv-x="102" />
<glyph unicode="&#x2009;" horiz-adv-x="163" />
<glyph unicode="&#x200a;" horiz-adv-x="45" />
<glyph unicode="&#x2010;" horiz-adv-x="583" d="M81 328h421v75h-421v-75z" />
<glyph unicode="&#x2011;" horiz-adv-x="583" d="M81 328h421v75h-421v-75z" />
<glyph unicode="&#x2012;" horiz-adv-x="583" d="M81 328h421v75h-421v-75z" />
<glyph unicode="&#x2013;" horiz-adv-x="662" d="M81 328h500v75h-500v-75z" />
<glyph unicode="&#x2014;" horiz-adv-x="1162" d="M81 328h1000v75h-1000v-75z" />
<glyph unicode="&#x2018;" horiz-adv-x="303" d="M126 638q0 -36 20 -60t52 -24t51 18t19 46q0 24 -17.5 41t-41.5 17q-12 0 -14.5 4t1.5 18q14 54 77 80l-18 38q-56 -21 -92.5 -69.5t-36.5 -108.5z" />
<glyph unicode="&#x2019;" horiz-adv-x="303" d="M27 564l18 -38q55 19 92 68t37 110q0 36 -20 60t-52 24t-51 -18t-19 -46q0 -23 18 -40.5t41 -17.5q19 0 13 -22q-8 -26 -28.5 -48t-48.5 -32z" />
<glyph unicode="&#x201c;" horiz-adv-x="446" d="M113 637q0 -35 19.5 -59t51.5 -24q31 0 49.5 18t18.5 45q0 24 -17 40.5t-41 16.5q-11 0 -13.5 4t1.5 18q12 52 75 78l-18 37q-54 -20 -90 -67.5t-36 -106.5zM276 637q0 -35 19.5 -59t50.5 -24t50 18t19 45q0 24 -17.5 40.5t-40.5 16.5q-12 0 -14.5 4t1.5 18q14 52 76 78 l-18 37q-54 -20 -90 -67.5t-36 -106.5z" />
<glyph unicode="&#x201d;" horiz-adv-x="446" d="M27 567l18 -37q54 20 90 67.5t36 106.5q0 35 -19.5 59t-51.5 24q-31 0 -49.5 -18t-18.5 -45q0 -23 17.5 -40t40.5 -17q11 0 13.5 -3.5t-1.5 -17.5q-12 -52 -75 -79zM190 567l17 -37q55 20 91 67.5t36 106.5q0 35 -20 59t-51 24t-49.5 -18t-18.5 -45q0 -23 17 -40t40 -17 q12 0 14.5 -3.5t-1.5 -17.5q-14 -53 -75 -79z" />
<glyph unicode="&#x2020;" d="M189 428h221v-572h73v572h221v68h-221v246h-73v-246h-221v-68z" />
<glyph unicode="&#x2021;" d="M187 546h223v-99h-203v-68h203v-520h72v520h207v68h-207v99h226v68h-226v131h-72v-131h-223v-68z" />
<glyph unicode="&#x2025;" d="M196 367q0 -30 19.5 -49.5t50.5 -19.5t50.5 19.5t19.5 49.5t-19.5 49.5t-50.5 19.5t-50.5 -19.5t-19.5 -49.5zM555 367q0 -30 19.5 -49.5t50.5 -19.5t50.5 19.5t19.5 49.5t-19.5 49.5t-50.5 19.5t-50.5 -19.5t-19.5 -49.5z" />
<glyph unicode="&#x202f;" horiz-adv-x="163" />
<glyph unicode="&#x2030;" d="M7 -82h64l570 763h-63zM43 436q-1 -67 44 -100q46 -31 110 -8t107 86t44 130t-44 100q-46 31 -108.5 7.5t-106.5 -85.5q-45 -63 -46 -130zM99 439q5 44 38 92q34 47 73.5 66.5t61.5 2.5q24 -16 20 -59t-37 -91q-34 -49 -73.5 -68.5t-62.5 -2.5q-25 16 -20 60zM273 40.5 q0 -67.5 45 -100.5q45 -30 108.5 -6.5t106.5 85.5q43 63 44 129.5t-44 99.5q-47 31 -109 8t-106 -85q-45 -63 -45 -130.5zM329 44q5 45 38 92q34 48 72.5 67t62.5 3q24 -17 19 -60.5t-37 -90.5q-34 -49 -73 -68.5t-62 -3.5q-25 16 -20 61zM583.5 40q-0.5 -67 43.5 -100 q47 -31 110 -7.5t108 86.5q43 63 44 129.5t-44 99.5q-48 31 -110 8t-107 -86q-44 -63 -44.5 -130zM639 42q5 45 39 93q35 48 73 67t62 3t19 -60t-38 -91q-34 -49 -73 -68.5t-63 -3.5q-24 15 -19 60z" />
<glyph unicode="&#x2032;" horiz-adv-x="446" d="M138 588q-7 -17 6 -24.5t24 7.5t36 45t39 49t27 42.5t11 40t-20 27.5q-15 9 -33.5 0t-25.5 -27z" />
<glyph unicode="&#x2033;" horiz-adv-x="446" d="M71 583q-6 -16 7.5 -23.5t24.5 7.5l109 144q13 15 11 36t-20 31q-17 10 -36.5 1.5t-27.5 -27.5zM207 564q-6 -17 7 -24t24 7l113 144q12 15 8.5 36t-21.5 31q-15 10 -34.5 1.5t-27.5 -26.5z" />
<glyph unicode="&#x203b;" d="M68 320q0 -27 19 -44t46 -17t45 17.5t18 44.5t-18.5 44.5t-44.5 17.5q-28 0 -46.5 -18.5t-18.5 -44.5zM80 -2l42 -42l324 321l322 -321l42 42l-322 323l322 323l-42 42l-322 -321l-324 321l-42 -42l322 -323zM381 8q0 -27 19 -45.5t46 -18.5q28 0 45.5 18t17.5 47 q0 25 -19 43t-44 18q-28 0 -46.5 -18t-18.5 -44zM381 634q0 -26 19.5 -44.5t45.5 -18.5q27 0 45 18t18 45t-19 45.5t-44 18.5q-29 0 -47 -18.5t-18 -45.5zM694 320q0 -26 19 -43.5t44 -17.5q28 0 46.5 17.5t18.5 44.5t-19 44.5t-46 17.5q-26 0 -44.5 -18.5t-18.5 -44.5z" />
<glyph unicode="&#x205f;" horiz-adv-x="204" />
<glyph unicode="&#x2103;" d="M50 662q0 -48 34.5 -81.5t83.5 -33.5q48 0 83 33.5t35 81.5t-35 81.5t-83 33.5q-49 0 -83.5 -33.5t-34.5 -81.5zM102 662q0 28 18.5 46.5t47.5 18.5q28 0 47 -18.5t19 -46.5q0 -29 -19 -47t-47 -18q-29 0 -47.5 18t-18.5 47zM242 317q0 -162 84 -259.5t231 -97.5 q135 0 220 72v81q0 14 -16 5q-81 -86 -190 -86q-116 0 -178 73.5t-62 214.5q0 133 69 208t174 75q109 0 182 -79q5 -5 10.5 -4t5.5 7v86q-77 61 -204 61q-143 0 -234.5 -97t-91.5 -260z" />
<glyph unicode="&#x2109;" d="M50 662q0 -48 34.5 -81.5t83.5 -33.5q48 0 83 33.5t35 81.5t-35 81.5t-83 33.5q-49 0 -83.5 -33.5t-34.5 -81.5zM102 662q0 28 18.5 46.5t47.5 18.5q28 0 47 -18.5t19 -46.5q0 -29 -19 -47t-47 -18q-29 0 -47.5 18t-18.5 47zM351 -36h85v342h316v69h-316v215h329v71h-414 v-697z" />
<glyph unicode="&#x2116;" d="M23 -36h60v565l-1 66l22 -66l214 -565h92v703h-60v-565l1 -65l-22 65l-214 565h-92v-703zM447 199q0 -104 47 -173.5t131 -69.5t131 69.5t47 173.5q0 105 -47 175t-131 70t-131 -69.5t-47 -175.5zM509 199q0 80 31 132t85 52q53 0 84.5 -52t31.5 -132t-31 -131t-85 -51 q-55 0 -85.5 50.5t-30.5 131.5zM782 1q0 -22 15.5 -38t35.5 -16q21 0 36.5 16t15.5 38t-15.5 38.5t-36.5 16.5q-20 0 -35.5 -16.5t-15.5 -38.5z" />
<glyph unicode="&#x2121;" d="M20 605h188v-641h66v641h190v62h-444v-62zM335 214q0 -123 54.5 -192.5t142.5 -69.5q98 0 151 52v64q0 6 -4.5 7t-9.5 -4q-58 -53 -127 -53q-61 0 -98.5 46t-38.5 132v8h301v38q0 114 -47 175t-130 61q-85 0 -139.5 -73t-54.5 -191zM406 265v4q8 67 43 108t80 41 q47 0 77.5 -39t30.5 -111v-3h-231zM772 -36h64v755h-64v-755z" />
<glyph unicode="&#x2122;" d="M63 665h120v-309h65v309h115v56h-300v-56zM400 356h56v269l-1 37l10 -37l97 -269h52l97 269l10 37l-1 -37v-269h56v365h-88l-92 -249l-8 -30l-8 30l-91 249h-89v-365z" />
<glyph unicode="&#x2190;" d="M2 304l338 -132l-30 96h560v66h-560l30 96z" />
<glyph unicode="&#x2191;" d="M316 451l97 31v-644h65v644l96 -31l-128 339z" />
<glyph unicode="&#x2192;" d="M22 267h561l-31 -95l338 132l-338 126l31 -97h-561v-66z" />
<glyph unicode="&#x2193;" d="M316 151l130 -339l128 340l-96 -31v644h-66v-645z" />
<glyph unicode="&#x2194;" d="M2 301l293 -169l-31 135h361l-30 -135l295 169l-295 167l30 -134h-361l31 134z" />
<glyph unicode="&#x2195;" d="M277 95l166 -293l170 293l-135 -30v470l135 -30l-170 293l-166 -293l135 30v-470z" />
<glyph unicode="&#x2196;" d="M-1 749l155 -324l29 92l653 -653l46 47l-652 653l92 29z" />
<glyph unicode="&#x2197;" d="M11 -89l47 -47l652 653l29 -92l155 324l-323 -156l92 -29z" />
<glyph unicode="&#x2198;" d="M6 694l651 -652l-90 -29l322 -156l-154 323l-31 -91l-651 652z" />
<glyph unicode="&#x2199;" d="M4 -143l323 156l-92 29l652 652l-47 47l-652 -652l-29 91z" />
<glyph unicode="&#x21d2;" d="M32 175h643l-115 -112l46 -43l281 279l-281 280l-46 -43l115 -112h-643v-59h702l68 -66l-68 -65h-702v-59z" />
<glyph unicode="&#x21d4;" d="M4 299l283 -279l45 43l-115 112h459l-115 -112l44 -43l283 279l-283 280l-44 -43l115 -112h-459l115 112l-45 43zM90 299l69 66h575l68 -66l-68 -65h-575z" />
<glyph unicode="&#x2200;" d="M128 681l275 -752h94l274 750h-78l-73 -194h-342l-72 196h-78zM304 413h291l-146 -396z" />
<glyph unicode="&#x2202;" horiz-adv-x="446" d="M5 158q0 -75 41 -115.5t109 -42.5q44 0 85.5 30.5t71.5 87.5q43 84 74 202t31 198q0 94 -45.5 152t-116.5 58q-59 -5 -98.5 -36t-71.5 -98l69 -37q40 97 103 97q43 0 68.5 -36t25.5 -89q0 -46 -27 -174q-41 89 -119 86q-79 -2 -139.5 -84.5t-60.5 -198.5zM71 170 q0 76 41 140t90 64q35 0 55.5 -31.5t20.5 -74.5q-2 -69 -39.5 -135t-87.5 -64q-37 0 -58.5 28.5t-21.5 72.5z" />
<glyph unicode="&#x2203;" d="M226 605h405v-277h-379v-71h379v-255h-394v-72h470v749h-481v-74z" />
<glyph unicode="&#x2207;" d="M-3 683l449 -776l447 776h-896zM87 633h716l-357 -621z" />
<glyph unicode="&#x2208;" d="M66 301q0 -127 84.5 -208.5t228.5 -81.5h425v59h-440q-55 0 -100.5 19.5t-73 50t-43.5 64.5t-18 66h674v61h-674q2 32 18 65.5t43.5 64.5t73 50.5t100.5 19.5h440v59h-425q-144 0 -228.5 -81.5t-84.5 -207.5z" />
<glyph unicode="&#x220b;" d="M86 11h425q144 0 228.5 81.5t84.5 208.5q0 126 -84.5 207.5t-228.5 81.5h-425v-59h439q56 0 102 -19.5t73.5 -50.5t43 -64.5t17.5 -65.5h-674v-61h674q-2 -32 -17.5 -65.5t-43 -64.5t-73.5 -50.5t-102 -19.5h-439v-59z" />
<glyph unicode="&#x221a;" d="M30 284l21 -32l55 59l161 -414l268 842h305v46h-342l-222 -714l-129 335z" />
<glyph unicode="&#x221d;" d="M89 301q0 -84 60 -142.5t146 -58.5q39 0 73 13.5t58 35t38.5 40.5t25.5 38q74 -127 199 -127q63 0 125 40l-38 50q-41 -27 -87 -27q-39 0 -71 17t-51 44.5t-27.5 44t-14.5 32.5q6 16 14 32t27.5 43.5t51.5 44.5t71 17q50 0 88 -28l35 51q-55 40 -123 40q-123 0 -199 -128 q-24 46 -73.5 87t-121.5 41q-86 0 -146 -58.5t-60 -141.5zM152 301q0 57 42 97t101 40q36 0 66.5 -17t50.5 -44t29.5 -44t15.5 -32q-4 -11 -10.5 -24t-21 -34.5t-31.5 -38t-43.5 -29t-55.5 -12.5q-59 0 -101 40t-42 98z" />
<glyph unicode="&#x221e;" d="M71 301q0 -76 56 -130.5t134 -54.5q37 0 70.5 14t56 36.5t35.5 39t23 34.5q14 -25 32.5 -48.5t60.5 -49.5t90 -26q79 0 134.5 54t55.5 131q0 76 -55.5 130t-134.5 54q-48 0 -90 -26t-60.5 -49.5t-32.5 -48.5q-10 18 -23 34.5t-35.5 39t-56 36.5t-70.5 14q-78 0 -134 -54 t-56 -130zM132 301q0 53 37.5 89.5t91.5 36.5q26 0 50 -12t39 -27t28 -35.5t18 -31t9 -20.5q-4 -10 -9 -21t-18 -31.5t-28 -35.5t-39 -27t-50 -12q-54 0 -91.5 37t-37.5 90zM485 301q4 10 9 20.5t18 31t28 35.5t39 27t50 12q54 0 92 -37t38 -89q0 -53 -38 -90t-92 -37 q-26 0 -50 12t-39 27t-28 35.5t-18 31.5t-9 21z" />
<glyph unicode="&#x2220;" d="M78 -17q4 -17 28 -17h711v57h-631l574 576l-44 42l-616 -621l-7 -7t-8.5 -10t-5 -9.5t-1.5 -10.5z" />
<glyph unicode="&#x2225;" horiz-adv-x="0" />
<glyph unicode="&#x2227;" d="M85 -34l59 -33l302 618l300 -618l60 33l-328 672q-18 29 -32 29q-9 0 -19 -10.5t-14 -18.5z" />
<glyph unicode="&#x2228;" d="M85 637l328 -672q4 -8 14 -18.5t19 -10.5q14 0 32 29l328 672l-60 33l-300 -618l-302 618z" />
<glyph unicode="&#x2229;" d="M144 -74h68v454q0 119 70.5 182t157.5 63q43 1 84.5 -13t77 -43t57 -78t21.5 -111v-454h66v443q0 147 -85.5 236.5t-214.5 89.5q-131 0 -216.5 -89.5t-85.5 -236.5v-443z" />
<glyph unicode="&#x222a;" d="M129 232q0 -147 86 -236.5t216 -89.5t216 90t86 236v443h-69v-454q0 -62 -21.5 -111.5t-57 -78t-76.5 -43t-84 -12.5q-39 0 -78 14.5t-73 42.5t-55.5 77t-21.5 111v454h-68v-443z" />
<glyph unicode="&#x222b;" d="M199 -32q0 -31 22.5 -49.5t62.5 -18.5q65 0 117 38t71 101q19 56 21.5 141.5t-5.5 213t-8 149.5q0 73 25 123q19 47 49 47q20 1 23 -19v-5q-4 -68 48 -68q23 0 38 15t15 38q0 29 -27 47.5t-73 18.5q-79 0 -124 -64q-44 -64 -44 -224q1 -70 8.5 -185t8.5 -137 q0 -74 -31.5 -135.5t-73.5 -61.5q-12 0 -15.5 5.5t-4.5 21.5q-3 55 -52 55q-23 0 -37 -13t-14 -34z" />
<glyph unicode="&#x222c;" d="M148 -52q0 -21 15 -35t39 -14q36 0 76 27t60 66q45 87 45 240q-1 75 -6 319q1 55 17.5 95.5t32.5 55.5q6 -3 11.5 -18t17.5 -28.5t36 -15.5q19 0 31 12t12 32q0 23 -16.5 39t-41.5 16q-36 0 -72 -26.5t-58 -70.5q-19 -36 -26 -76.5t-5 -115.5l6 -254q0 -135 -39 -227 q-16 -38 -35 -38q-16 0 -22 26q-4 24 -23 31.5t-36.5 -4t-18.5 -36.5zM367 -52q0 -22 15.5 -36t42.5 -14q37 0 74.5 26t58.5 67q44 91 44 234q0 19 -6 325q1 47 12.5 84.5t20.5 50.5t15 17q1 0 4 -2.5t7 -9t7 -13.5q7 -20 23 -29.5t32 -8t28.5 13.5t13.5 31q0 23 -18.5 39 t-44.5 16q-65 0 -114.5 -69.5t-48.5 -161.5q0 -31 3.5 -136t3 -179t-6.5 -110q-28 -150 -67 -151q-13 0 -20 25q-6 17 -19.5 25t-26.5 6t-23 -12.5t-10 -27.5z" />
<glyph unicode="&#x2234;" d="M94 79q0 -30 21.5 -50.5t51.5 -20.5t51 20.5t21 50.5h-1q0 30 -21 51.5t-51 21.5t-51 -21.5t-21 -51.5zM375 525q0 -30 22 -50.5t52 -20.5q29 0 50.5 20.5t21.5 50.5t-21.5 51t-51.5 21t-51.5 -21t-21.5 -51zM647 80q0 -30 21.5 -50.5t51.5 -20.5q31 0 51.5 20.5 t20.5 50.5t-21 51.5t-52 21.5q-29 0 -50.5 -21.5t-21.5 -51.5z" />
<glyph unicode="&#x2235;" d="M99 532q0 -30 21 -51t51 -21t51.5 21t21.5 51t-21.5 50.5t-51.5 20.5t-51 -20.5t-21 -50.5zM379 80q0 -30 21.5 -51t51.5 -21t51 21t21 51t-21 51t-51 21t-51.5 -21t-21.5 -51zM646 532q0 -30 21.5 -51t51.5 -21t51 21t21 51t-21 50.5t-51 20.5t-51.5 -20.5t-21.5 -50.5z " />
<glyph unicode="&#x223d;" d="M50 308q-2 -91 56 -144.5t136 -58.5q147 -8 236 173q18 35 30.5 56t35 47t51 38t62.5 10q60 -3 95.5 -43.5t34.5 -103.5q-1 -46 -37.5 -81t-88.5 -35q-23 0 -48.5 8t-38.5 15.5t-16 10.5l-30 -57q57 -40 128 -40q86 0 139 53t56 132q3 93 -55.5 147t-136.5 56 q-73 2 -123 -34.5t-90 -104.5q-4 -6 -22.5 -38.5t-26.5 -45.5t-28 -38.5t-35.5 -36.5t-39 -20.5t-48.5 -8.5q-52 3 -86 31.5t-42 67.5t0.5 77.5t42 65t81.5 26.5q24 0 49 -7.5t37.5 -14.5t15.5 -10l29 52q-51 41 -127 41q-85 0 -139.5 -56t-56.5 -129z" />
<glyph unicode="&#x2252;" d="M84 183h723v63h-723v-63zM84 355h723v63h-723v-63zM168 570q0 -30 21 -51.5t50 -21.5q31 0 52.5 21.5t21.5 51.5q0 31 -21.5 52t-52.5 21q-29 0 -50 -21t-21 -52zM579 32q0 -30 21 -51.5t52 -21.5q29 0 50.5 21.5t21.5 51.5q0 29 -21.5 51t-50.5 22q-30 0 -51.5 -21.5 t-21.5 -51.5z" />
<glyph unicode="&#x2260;" d="M197 216h135l-73 -126l62 -37l95 163h278v70h-237l75 130h162v70h-121l74 127l-63 36l-95 -163h-292v-70h252l-76 -130h-176v-70z" />
<glyph unicode="&#x2261;" d="M98 101h694v59h-694v-59zM98 271h694v59h-694v-59zM99 441h693v59h-693v-59z" />
<glyph unicode="&#x2264;" d="M136 -9h618v71h-618v-71zM146 432q0 -3 543 -282l36 64l-411 219l394 213l-32 66q-530 -277 -530 -280z" />
<glyph unicode="&#x2265;" d="M135 -9h619v71h-619v-71zM164 214l36 -64q543 279 543 282q0 2 -531 280l-32 -66l393 -213z" />
<glyph unicode="&#x2282;" d="M56 301q0 -131 87 -215t234 -84v1h437v71h-452q-111 0 -172.5 70t-59.5 162q0 37 14 74.5t41 71t73.5 55t103.5 21.5h452v71h-436q-147 0 -234.5 -84t-87.5 -214z" />
<glyph unicode="&#x2283;" d="M76 2h436q147 0 234.5 84t87.5 215q0 130 -87.5 214t-234.5 84h-436v-72h453q57 0 103.5 -21t73.5 -54.5t41 -71t14 -74.5q3 -88 -58.5 -160.5t-173.5 -72.5h-453v-71z" />
<glyph unicode="&#x2286;" d="M56 34v-73h778v73h-778zM56 381q0 -114 82.5 -186t238.5 -72v1h437v71h-452q-116 0 -174.5 55t-58.5 131t58.5 131.5t174.5 55.5h452v72h-436q-157 0 -239.5 -72t-82.5 -187z" />
<glyph unicode="&#x2287;" d="M56 34v-73h778v73h-778zM76 123l436 1q158 0 240 71.5t82 185.5q0 115 -82.5 187t-239.5 72h-436v-73h453q116 0 174.5 -55.5t58.5 -130.5q0 -77 -58.5 -132t-174.5 -55h-453v-71z" />
<glyph unicode="&#x22a5;" d="M98 -25h695v56h-311v578h-73v-578h-311v-56z" />
<glyph unicode="&#x2312;" d="M77 563h65q19 86 102.5 138t193.5 52t194.5 -52.5t102.5 -137.5h64q-20 103 -121.5 170.5t-239.5 67.5q-137 0 -238.5 -67.5t-122.5 -170.5z" />
<glyph unicode="&#x2592;" d="M48 -97h794v795h-794v-795zM87 -58v717h716v-717h-716zM138 -1q0 -26 26 -26q10 0 17 7t7 19q0 11 -7 17.5t-17 6.5q-26 0 -26 -24zM140 401q0 -11 6.5 -18t17.5 -7q25 0 25 25t-25 25q-10 0 -17 -7t-7 -18zM178 602q0 -11 7 -17.5t18 -6.5q26 0 26 24q0 12 -7.5 19 t-18.5 7t-18 -7.5t-7 -18.5zM191 200q0 -11 6.5 -18t17.5 -7t19 7t8 18t-8 18t-19 7q-10 0 -17 -7t-7 -18zM277 -1q0 -26 27 -26q24 0 24 26q0 11 -7 17.5t-17 6.5q-12 0 -19.5 -6.5t-7.5 -17.5zM279 400q0 -24 25 -24q10 0 17 7t7 17q0 11 -6.5 18t-17.5 7q-25 0 -25 -25z M330 199q0 -24 26 -24q10 0 16.5 7t6.5 17q0 11 -6.5 18t-17.5 7q-25 0 -25 -25zM339 601q0 -23 26 -23q10 0 16.5 6.5t6.5 16.5q0 26 -24 26q-11 0 -18 -7t-7 -19zM419 -1q0 -26 24 -26q12 0 19 7.5t7 18.5q0 24 -26 24q-11 0 -17.5 -6.5t-6.5 -17.5zM420 401 q0 -11 6.5 -18t16.5 -7q12 0 19.5 7t7.5 18t-7.5 18t-19.5 7q-10 0 -16.5 -7t-6.5 -18zM489 200q0 -11 7.5 -18t18.5 -7t18.5 6.5t7.5 18.5q0 11 -7.5 18t-18.5 7t-18.5 -7t-7.5 -18zM500 602q0 -10 7 -17t17 -7q12 0 20 6.5t8 17.5t-8.5 18.5t-19.5 7.5q-10 0 -17 -7.5 t-7 -18.5zM562 -1q0 -26 24 -26q11 0 19 7t8 19q0 24 -27 24q-24 0 -24 -24zM562 401q0 -25 24 -25q12 0 19.5 7t7.5 18q0 10 -8 17.5t-19 7.5q-24 0 -24 -25zM642 200q0 -11 6.5 -18t16.5 -7q26 0 26 25q0 11 -7.5 18t-18.5 7q-10 0 -16.5 -7t-6.5 -18zM662 602 q0 -24 23 -24q27 0 27 24q0 11 -8 18.5t-19 7.5q-10 0 -16.5 -7.5t-6.5 -18.5zM703 -1q0 -12 6.5 -19t16.5 -7q12 0 20 7t8 19q0 24 -28 24q-10 0 -16.5 -7t-6.5 -17zM703 401q0 -11 6.5 -18t17.5 -7t18.5 7t7.5 18t-7.5 17.5t-19.5 6.5q-10 0 -16.5 -7t-6.5 -17z" />
<glyph unicode="&#x25a0;" d="M62 -83h766v767h-766v-767z" />
<glyph unicode="&#x25a1;" d="M60 -85h770v771h-770v-771zM111 -34v669h669v-669h-669z" />
<glyph unicode="&#x25a3;" d="M51 -110h790v827h-790v-827zM106 -61v732h684v-732h-684zM239 85h417v437h-417v-437z" />
<glyph unicode="&#x25a4;" d="M48 -97h794v795h-794v-795zM87 -58v142h716v-142h-716zM87 124v156h716v-156h-716zM87 321v156h716v-156h-716zM87 517v142h716v-142h-716z" />
<glyph unicode="&#x25a5;" d="M48 -97h794v795h-794v-795zM87 -58v717h142v-717h-142zM268 -58v717h156v-717h-156zM466 -58v717h156v-717h-156zM662 -58v717h141v-717h-141z" />
<glyph unicode="&#x25a6;" d="M47 -97h795v796h-795v-796zM87 -54v149h148v-149h-148zM87 132v150h148v-150h-148zM87 320v149h148v-149h-148zM87 506v150h148v-150h-148zM271 -54v149h152v-149h-152zM271 132v150h152v-150h-152zM271 320v149h152v-149h-152zM271 506v150h152v-150h-152zM460 -54v149 h153v-149h-153zM460 132v150h153v-150h-153zM460 320v149h153v-149h-153zM460 506v150h153v-150h-153zM647 -54v149h154v-149h-154zM647 132v150h154v-150h-154zM647 320v149h154v-149h-154zM647 506v150h154v-150h-154z" />
<glyph unicode="&#x25a7;" d="M48 -97h794v795h-794v-795zM90 -58v160l158 -160h-158zM90 158v197l414 -413h-200zM90 415v220l691 -693h-220zM123 659h222l458 -459v-222zM401 659h199l203 -203v-200zM657 659h146v-146z" />
<glyph unicode="&#x25a8;" d="M48 -97h794v795h-794v-795zM87 -22v222l458 459h222zM87 256v200l203 203h198zM87 513v146h146zM109 -58l691 693v-220l-470 -473h-221zM386 -58l414 413v-197l-214 -216h-200zM643 -58l157 160v-160h-157z" />
<glyph unicode="&#x25a9;" d="M48 -99h794v795h-794v-795zM87 -38v194l97 -97zM87 202v193l97 -97zM87 441v194l97 -97zM107 179l99 98l98 -98l-98 -99zM107 418l99 99l98 -99l-98 -98zM109 -60l97 97l97 -97h-194zM109 656h194l-97 -96zM227 59l99 99l97 -99l-97 -99zM227 298l99 99l97 -99l-97 -98z M227 538l99 99l97 -99l-97 -99zM347 179l99 98l97 -98l-97 -99zM347 418l99 99l97 -99l-97 -98zM349 -60l97 97l96 -97h-193zM349 656h193l-96 -96zM467 59l97 99l99 -99l-99 -99zM467 298l97 99l99 -99l-99 -98zM467 538l97 99l99 -99l-99 -99zM586 179l98 98l99 -98 l-99 -99zM586 418l98 99l99 -99l-99 -98zM588 -60l96 97l97 -97h-193zM588 656h193l-97 -96zM707 59l96 97v-194zM707 298l96 97v-193zM707 538l96 97v-194z" />
<glyph unicode="&#x25b2;" d="M1 -79h888l-443 769z" />
<glyph unicode="&#x25b3;" d="M-3 -81h896l-447 776zM87 -31l359 621l357 -621h-716z" />
<glyph unicode="&#x25b6;" d="M85 -144l776 448l-776 449v-897z" />
<glyph unicode="&#x25b7;" d="M75 -144l775 448l-775 449v-897zM126 -53v716l619 -359z" />
<glyph unicode="&#x25bc;" d="M1 681l445 -769l443 769h-888z" />
<glyph unicode="&#x25bd;" d="M-3 676l449 -776l447 776h-896zM87 626h716l-357 -621z" />
<glyph unicode="&#x25c0;" d="M29 304l776 -448v897z" />
<glyph unicode="&#x25c1;" d="M29 304l776 -448v897zM134 304l620 359v-716z" />
<glyph unicode="&#x25c6;" d="M7 301l439 -439l437 439l-437 438z" />
<glyph unicode="&#x25c7;" d="M3 301l443 -443l441 443l-441 442zM75 301l371 370l369 -370l-369 -371z" />
<glyph unicode="&#x25c8;" d="M-14 295l457 -483l464 487l-458 483zM56 296l392 413l388 -411l-392 -414zM184 294l259 -273l265 278l-258 276z" />
<glyph unicode="&#x25cb;" d="M38 302q0 -170 119 -289t289 -119q169 0 288.5 119.5t119.5 288.5t-119.5 288.5t-288.5 119.5t-288.5 -119.5t-119.5 -288.5zM87 302q0 148 105.5 253t253.5 105q147 0 252 -105.5t105 -252.5q0 -148 -105 -253t-252 -105q-148 0 -253.5 105t-105.5 253z" />
<glyph unicode="&#x25ce;" d="M38 302q0 -170 119 -289t289 -119q169 0 288.5 119.5t119.5 288.5t-119.5 288.5t-288.5 119.5t-288.5 -119.5t-119.5 -288.5zM87 302q0 148 105.5 253t253.5 105q147 0 252 -105.5t105 -252.5q0 -148 -105 -253t-252 -105q-148 0 -253.5 105t-105.5 253zM203 301 q0 -101 71 -172t172 -71q100 0 171 71t71 172q0 100 -71 171t-171 71q-101 0 -172 -70.5t-71 -171.5zM254 301q0 80 56 135.5t136 55.5q79 0 134.5 -55.5t55.5 -135.5t-55.5 -136t-134.5 -56q-80 0 -136 56t-56 136z" />
<glyph unicode="&#x25cf;" d="M40 302q0 -169 118.5 -287.5t287.5 -118.5q168 0 286 118.5t118 287.5q0 168 -118 286.5t-286 118.5q-169 0 -287.5 -118.5t-118.5 -286.5z" />
<glyph unicode="&#x25d0;" d="M15 302q0 -182 124.5 -307t307.5 -125q182 0 304.5 124t122.5 308q0 182 -122.5 305t-305.5 123q-182 0 -306.5 -123.5t-124.5 -304.5zM448 -82v764q161 -3 267.5 -117t106.5 -264q0 -99 -46 -185.5t-133 -141t-195 -56.5z" />
<glyph unicode="&#x25d1;" d="M15 301q0 -184 124.5 -308t308.5 -124q181 0 303.5 124t122.5 308q0 179 -122.5 303.5t-298.5 124.5q-134 0 -235.5 -61.5t-152 -157.5t-50.5 -209zM70 295q0 153 106 268t270 118v-763q-161 3 -268.5 117t-107.5 260z" />
<glyph unicode="&#x2605;" d="M-13 437l280 -204l-115 -330l290 206l282 -205l-108 328l290 205h-357l-100 306l-109 -306h-353z" />
<glyph unicode="&#x2606;" d="M-20 434l286 -207l-118 -338l295 212l286 -210l-109 334l294 209h-362l-102 312l-111 -312h-359zM147 380h231l71 194l59 -194h239l-193 -132l68 -209l-181 130l-183 -131l74 212z" />
<glyph unicode="&#x260e;" d="M19 380q0 -25 15.5 -32.5t45.5 -6.5l82 3q55 2 62 47q-44 -14 -112 -17q-61 -2 -93 6zM22 400q33 -8 95 -6q56 2 111 18q1 23 23.5 42.5t49.5 24.5v-52q0 -24 -5 -32t-28 -30q-8 -9 -20.5 -19t-19.5 -18.5t-12 -23.5l-78 -226q0 -12 5 -45.5t7 -36.5q0 -4 16 -4h560 q17 0 17 4q1 4 6 37t5 45l-78 226q-5 15 -11.5 23t-19.5 18.5t-21 19.5q-3 2 -8.5 7.5l-7 7t-5 5.5t-4.5 5.5t-3 5t-2.5 6t-1.5 7t-1 8.5v10v52q27 -5 49.5 -24.5t23.5 -42.5q56 -16 111 -18q62 -2 95 6q-8 74 -28 104.5t-85 48.5q-141 40 -310 40q-171 0 -312 -40 q-65 -18 -85 -48.5t-28 -104.5zM316 244q0 54 38.5 91t92.5 37q52 0 89.5 -38.5t37.5 -91.5q0 -56 -38 -94t-94 -38q-54 0 -90 40t-36 94zM341 486q8 1 28 3t39.5 3.5t37.5 1.5q12 0 103 -7l-15 -75l-88 4l-90 -5zM669 391q5 -45 61 -47l82 -3q30 -1 45.5 6.5t15.5 32.5 q-30 -8 -92 -6q-68 3 -112 17z" />
<glyph unicode="&#x260f;" d="M22 400q-3 -20 0.5 -33t13.5 -18.5t19.5 -6.5t24.5 -1l82 3q31 1 45 14t21 54q9 52 73 67v-52q0 -25 -5 -35t-28 -27q-5 -5 -15.5 -13.5t-15.5 -13t-11 -13.5t-10 -21l-78 -226q0 -12 5 -44.5t7 -35.5q0 -3 16 -3h560q17 0 17 3q1 4 6 36t5 44l-78 226q-4 12 -10 21 t-11 13.5t-15.5 13t-15.5 13.5q-22 18 -27.5 27.5t-5.5 34.5v52q64 -15 73 -67q7 -41 21 -54t45 -14l82 -3q15 0 24.5 1t19.5 6.5t13.5 18.5t0.5 33q-9 69 -33 102.5t-80 48.5q-143 42 -310 42q-169 0 -312 -42q-56 -15 -80 -48.5t-33 -102.5zM56 421q8 50 36 73.5t89 39.5 q116 31 266 31q148 0 264 -31q62 -16 90 -39.5t35 -73.5q6 -34 0 -44.5t-31 -9.5l-66 2q-22 1 -31.5 12.5t-16.5 48.5q-11 63 -123 83q-122 20 -243 0q-113 -20 -124 -83q-7 -37 -16.5 -48.5t-31.5 -12.5l-66 -2q-25 -1 -30.5 9.5t-0.5 44.5zM168 71l71 209q4 11 9 20.5 t8.5 15t11 12.5t9.5 9t12 9t12 8q19 13 24.5 30.5t5.5 46.5v56l14 2l11 -73h6q6 1 15 1.5t20 1.5t24.5 1.5t24.5 0.5t24 -0.5t24 -1t20 -1t14 -0.5l6 -1l15 71q1 0 6 -0.5t6 -0.5v-56q0 -29 5.5 -46.5t24.5 -30.5l10.5 -7t10 -7.5t8.5 -7.5t9.5 -9t8 -10.5t8 -14.5t7.5 -18 l72 -209l-8 -46h-542zM316 244q0 -54 36 -94t90 -40q56 0 94 38t38 94q0 53 -37.5 91.5t-89.5 38.5q-54 0 -92.5 -37t-38.5 -91zM344 244q0 42 30 70.5t73 28.5q41 0 69.5 -30t28.5 -71q0 -44 -29 -74t-74 -30q-41 0 -69.5 32t-28.5 74zM370 493q36 4 76 4q38 0 74 -4 l-9 -50q-21 3 -65 3q-43 0 -67 -3z" />
<glyph unicode="&#x261c;" d="M48 433q0 -10 2.5 -18.5t9 -14.5t12 -10.5t15.5 -7.5t16.5 -5t18 -3.5t16.5 -2t16 -1t12 -0.5l107 -6q-28 -35 -6 -57q-26 -11 -32 -36.5t10 -40.5q-25 -12 -25 -40q0 -36 42.5 -56t82.5 -20q45 0 61 25q46 -5 101.5 -1t110.5 30q28 12 81 12v-47h132v333h-132v-44 q-17 0 -33 7q-8 4 -34.5 19t-40 21.5t-36.5 16t-44 13.5t-42 4q-28 0 -49 -16l-254 -3q-118 -3 -118 -51zM74 431q0 31 95 31l229 2l-73 -76l-193 5q-20 1 -39 10t-19 28zM248 187q-1 8 1 15t6 10t8 1q36 -27 109 -38q16 -2 16 -15q0 -27 -43 -27q-25 0 -59.5 16t-37.5 38z M262 261q3 37 46 15q45 -28 92 -40q1 0 5 -1t6 -2t4.5 -3.5t2.5 -5.5q0 -17 -7 -23t-33.5 -3t-77.5 20q-14 5 -26 17t-12 26zM302 354q30 -40 74 -40q16 0 33.5 6t19.5 6q14 0 28 -14.5t14 -28.5q0 -15 -10 -23t-25 -8q-23 0 -96 30q-84 39 -38 72zM338 361q0 10 27 37 q10 10 25.5 27t22.5 23.5t18 15.5t21.5 11.5t23.5 2.5q26 0 58 -13t73 -36t58 -30q7 -3 34 -3v-190q-59 0 -85 -15q-76 -38 -201 -30v15q33 6 33 49q24 4 33.5 15t18.5 39l5 -1q5 0 13.5 -0.5t18.5 -0.5t23.5 0.5t26.5 1.5q11 1 28 6.5t29 10t13 5.5v6l-8 8q-35 -11 -66 -16 q-12 -1 -23.5 -0.5t-23 1.5t-20 2t-14 2t-6.5 1q-14 20 -37 37l42 48l-12 14l-24.5 -21t-24.5 -20.5t-19 -14t-22 -11.5t-20 -3q-13 0 -26 7t-13 20zM727 161v277h40v-277h-40z" />
<glyph unicode="&#x261e;" d="M58 154h131v47q54 0 81 -13q55 -25 111.5 -29t101.5 1q17 -26 60 -26q41 0 84 20.5t43 56.5q0 25 -26 40q15 12 9.5 39.5t-30.5 36.5q20 28 -7 57l106 6q1 0 12.5 0.5t16 1t16.5 2t18.5 3.5t16.5 5t15.5 8t12 11t9 14.5t2.5 18.5q0 16 -11 26.5t-32 15.5t-36.5 6.5 t-39.5 2.5l-253 3q-21 16 -49 16q-21 0 -42 -4.5t-43.5 -14t-37 -16.5t-40 -21t-34.5 -19q-15 -7 -34 -7v44h-131v-332zM122 181v278h40v-278h-40zM189 226v191q28 0 35 3q18 8 58.5 30t72.5 35t59 13q34 0 62 -29q11 -12 26 -26.5t22 -22t14.5 -16t10.5 -14t3 -9.5 q0 -12 -13.5 -19t-26.5 -7q-23 1 -41.5 13t-68.5 56l-12 -13l42 -48q-22 -17 -36 -38q-1 0 -6.5 -1t-14 -2t-20 -1.5t-23.5 -1t-25 0.5q-18 2 -65 15l-8 -8v-6q31 -15 70 -22q13 -1 26.5 -1.5t23.5 -0.5t18 0.5t14 0.5l5 1q7 -20 11 -28t14 -15.5t27 -10.5q0 -42 34 -49v-15 q-125 -8 -201 31q-27 14 -87 14zM416 304q0 13 15 27.5t29 14.5q2 0 20 -6t34 -6q44 0 74 40q14 -9 14 -22q1 -19 -33 -38.5t-69 -30.5t-47 -11q-15 0 -26 8t-11 24zM470 244q0 4 3.5 7t9.5 5l6 1q51 13 92 39q22 11 31.5 7.5t13.5 -22.5q0 -13 -11.5 -25.5t-25.5 -17.5 q-15 -6 -46 -13.5t-46 -7.5q-13 0 -20.5 7.5t-6.5 19.5zM490 484l230 -2q95 0 95 -31q0 -19 -18.5 -27.5t-39.5 -9.5l-193 -5zM500 180q0 13 16 15q76 12 110 38q6 4 11.5 -5t4.5 -20q-3 -23 -38 -38.5t-60 -15.5q-44 0 -44 26z" />
<glyph unicode="&#x2640;" d="M121 152h293v-263h65v263h292v62h-292v91q88 14 145 74t57 140q0 90 -69 153.5t-169 63.5q-97 0 -166 -63.5t-69 -153.5q0 -80 58 -141t148 -74v-90h-293v-62zM275 519q0 64 49.5 110t118.5 46q71 0 121.5 -45.5t50.5 -110.5t-50.5 -110.5t-121.5 -45.5 q-69 0 -118.5 45.5t-49.5 110.5z" />
<glyph unicode="&#x2642;" d="M125 459l47 -47l237 224v-325q-89 -15 -145.5 -74.5t-56.5 -139.5q0 -90 69.5 -154t166.5 -64q99 0 168.5 64t69.5 154q0 80 -57.5 140.5t-147.5 74.5v331l245 -214l45 53l-325 269zM274 97q0 64 49.5 110t119.5 46q71 0 121.5 -45.5t50.5 -110.5t-50.5 -111t-121.5 -46 q-70 0 -119.5 46t-49.5 111z" />
<glyph unicode="&#x2660;" d="M94 215q2 -70 36.5 -110t83.5 -47t97 1t85 27q-2 -62 -15 -100t-43 -59t-64 -29.5t-94 -14.5l-9 -25h548l-9 25q-60 6 -94 14.5t-64 29.5t-42.5 59t-14.5 100q38 -22 87.5 -30t97.5 1.5t81.5 50t34.5 107.5q0 66 -36 119t-98 105q-173 141 -216 353q-46 -214 -217 -353 q-63 -52 -99 -105t-36 -119z" />
<glyph unicode="&#x2661;" d="M74 514q-2 -76 38 -148t106 -150q9 -10 45.5 -51.5t49 -56t40.5 -51t41 -59.5t28.5 -57t23.5 -66q13 52 42 104.5t46.5 76t73 86.5t64.5 74q66 78 106 150t39 148q-2 77 -54.5 127t-128.5 50q-58 0 -108 -30.5t-80 -87.5q-28 58 -78.5 88t-110.5 30q-77 0 -129.5 -50.5 t-53.5 -126.5zM132 499q0 65 36 104.5t103 36.5q57 -3 103.5 -61.5t71.5 -144.5q23 86 68.5 143.5t104.5 61.5q69 4 104 -35.5t35 -104.5q0 -62 -35.5 -122t-93.5 -127q-17 -21 -62.5 -74.5t-73.5 -90.5t-47 -73q-10 21 -22 40t-31.5 43t-33 40t-46 54t-52.5 61 q-38 44 -61.5 76.5t-45.5 81t-22 91.5z" />
<glyph unicode="&#x2663;" d="M48 257q5 -78 48 -125.5t99 -57.5t112.5 4t88.5 48q-2 -70 -16 -115t-43 -71t-65 -37.5t-93 -17.5l-9 -25h549l-9 25q-114 11 -163.5 59t-53.5 181q40 -39 99 -52t113 1t94 62t43 121q0 91 -72 147.5t-157 36.5q21 42 21 90q0 78 -57.5 131.5t-129.5 53.5 q-74 0 -133 -54.5t-59 -131.5q0 -53 20 -88q-26 4 -55 3t-59 -15.5t-54.5 -35.5t-40.5 -56.5t-18 -80.5z" />
<glyph unicode="&#x2664;" d="M94 215q1 -54 23 -90.5t54 -51.5t70 -18t72 6.5t59 25.5q-2 -64 -11 -101.5t-34.5 -59t-56.5 -29.5t-90 -14l-9 -25h548l-9 25q-59 6 -90 14t-56.5 29.5t-34.5 59t-11 101.5q46 -25 94 -31t88 7t67 52.5t29 99.5q0 66 -35.5 118t-98.5 105q-172 139 -216 354 q-47 -217 -217 -354q-63 -52 -99 -104.5t-36 -118.5zM154 205q-1 37 8 67.5t31 56.5t37.5 40.5t46.5 39.5q55 44 100 103.5t69 114.5q53 -124 167 -219q74 -63 98 -100t25 -103q-1 -51 -35 -77t-94 -21q-37 3 -77.5 30.5t-66.5 74.5q0 -141 9.5 -206t41.5 -101h-137 q32 36 41.5 100.5t9.5 206.5q-25 -47 -65.5 -74.5t-77.5 -30.5q-60 -4 -94.5 21.5t-36.5 76.5z" />
<glyph unicode="&#x2665;" d="M74 513q0 -61 32 -129.5t68 -114t95.5 -114.5t82.5 -98q64 -81 94 -182q27 101 92 183q25 29 67 78.5t58 69.5t45 56t39 53t27 45t23 49t12 48t8 57q0 76 -53 126.5t-130 50.5q-65 0 -114.5 -42.5t-73.5 -112.5q-25 69 -75 111.5t-114 42.5q-77 0 -130 -50.5t-53 -126.5z " />
<glyph unicode="&#x2667;" d="M48 257q0 -79 56 -134t138 -55q73 0 133 60q-2 -95 -23 -145.5t-59.5 -70.5t-113.5 -27l-9 -25h549l-9 25q-75 7 -114 27.5t-59.5 70.5t-21.5 144q60 -60 137 -60q80 0 135 56t55 134q0 91 -72 147.5t-157 36.5q21 42 21 90q0 78 -56.5 131.5t-130.5 53.5q-76 0 -134 -54 t-58 -132q0 -53 20 -88q-16 7 -39 5.5t-47.5 -6.5t-49.5 -21t-44.5 -36.5t-32.5 -53.5t-14 -73zM107 258q2 52 25 86t54.5 44.5t63.5 7.5t54 -18l52 52q-44 38 -44 114q0 49 39 86.5t92 37.5q55 0 94.5 -37.5t39.5 -86.5q0 -78 -46 -119l52 -51q28 19 61.5 22t63.5 -10 t51 -46.5t24 -82.5q-1 -56 -32 -90.5t-71 -41t-82 11.5t-65 59h-72q1 -112 14 -182t47 -107h-153q36 35 48 104.5t12 184.5h-72q-22 -39 -64 -57t-82.5 -12.5t-71.5 40t-32 91.5z" />
<glyph unicode="&#x2668;" d="M-6 58q0 -63 71.5 -111t186 -70.5t242.5 -14.5q70 4 140.5 21t131.5 44.5t97 69.5t32 91q-3 46 -47.5 84.5t-86 56t-60.5 18.5q-7 0 -11.5 -2t-2.5 -6t10 -6q36 -10 85.5 -48.5t48.5 -80.5q0 -45 -60 -84t-146 -60.5t-173 -23.5q-154 -2 -268 38t-114 106q0 34 22 65 t55.5 51.5t51.5 29.5t31 14q18 6 14 15q-4 6 -15 3q-26 -8 -49.5 -16.5t-60 -27t-62 -39t-44.5 -51.5t-19 -66zM251.5 63.5q-0.5 -29.5 5 -45.5t10.5 -16q4 0 6 2t3 8.5t3 15t6.5 23.5t12.5 31q65 140 61 188q-4 49 -30.5 145t-17.5 132q13 56 17 99t0.5 62t-10.5 20 q-2 0 -5 -12.5t-8.5 -33.5t-11.5 -34q-73 -144 -23 -283q14 -39 14 -92t-6.5 -88t-15.5 -63q-10 -29 -10.5 -58.5zM389.5 525.5q-5.5 -32.5 1.5 -67t24 -73.5q11 -24 18 -57t5.5 -86.5t-20.5 -102.5q-14 -35 -17.5 -71.5t1 -56.5t11.5 -21q5 0 6.5 8.5t8.5 33t22 52.5 q1 3 15 30t21.5 45t18 45.5t14 51t-0.5 41.5q-5 31 -16 64.5t-20 57t-15.5 50t-6 55t10.5 60.5q15 45 15.5 94t-8.5 77.5t-18 27.5v-16q0 -16 -5 -46.5t-17 -58.5q-3 -6 -18 -38.5t-20 -49t-10.5 -49zM546 18q3 -21 9 -20t8.5 12.5t8 34.5t15.5 43q3 8 30 49.5t40 83t9 91.5 q-5 48 -32 114.5t-19 123.5q7 60 3.5 99t-10 58t-11.5 18q-2 0 -2.5 -15t-3 -38.5t-8.5 -39.5q-17 -49 -24 -79.5t-3 -80t27 -104.5q12 -29 14 -62t-6 -69.5t-15.5 -60.5t-19.5 -58q-18 -47 -10 -100z" />
<glyph unicode="&#x2669;" d="M268 -37q0 -66 82 -66q80 0 132 51t52 131v636h-53l-1 -613h-10q-84 0 -143 -41t-59 -98z" />
<glyph unicode="&#x266a;" d="M189 -38q0 -62 76 -62q82 0 133.5 51.5t51.5 132.5l1 452q60 -31 125 -87q84 -77 84 -153q0 -36 -19 -75t-40.5 -64.5t-41.5 -46t-20 -21.5l4 -7q27 2 78 48t80 95q26 44 26 106q0 61 -36 112q-34 51 -113.5 123.5t-109.5 109.5q-23 25 -33 32.5t-22 9.5l-11 -1v-617 l-16 1q-84 0 -140.5 -40.5t-56.5 -98.5z" />
<glyph unicode="&#x266c;" d="M79 -44q0 -34 28.5 -52t74.5 -11.5t91 36.5q75 50 75 157v305l356 84v-291q-77 0 -122 -20q-38 -17 -65 -53t-27 -69q-1 -33 32 -49t81.5 -7.5t87.5 40.5q34 25 49 58t15 84v559l-459 -101v-534h-21q-77 0 -136.5 -41.5t-59.5 -94.5zM348 476v78l356 81v-78z" />
<glyph unicode="&#x266d;" d="M320 -61q23 1 47.5 4.5t69.5 19t82.5 40t75.5 72.5t59 112q13 46 14 90t-20 82.5t-61 52.5q-115 38 -197 -90v358h-70v-741zM391 -4v251q0 4 6 17.5t18 32.5t30.5 34t42.5 22t55 -3q52 -19 47.5 -112.5t-56.5 -157.5q-24 -33 -62 -55.5t-79 -27.5q-2 0 -2 -1z" />
<glyph unicode="&#x3001;" horiz-adv-x="0" />
<glyph unicode="&#x3002;" horiz-adv-x="0" />
<glyph unicode="&#x3003;" d="M285 230q-12 -26 3 -34q16 -5 31 19l141 206q10 12 3 34.5t-32 25.5q-23 2 -38 -9t-20 -28zM409 217q-11 -27 4 -33q14 -7 29 18l141 206q11 13 4 35t-32 25q-40 5 -58 -36z" />
<glyph unicode="&#x3008;" horiz-adv-x="446" d="M93 301l259 -468l56 36l-241 432l243 435l-58 34z" />
<glyph unicode="&#x3009;" horiz-adv-x="446" d="M28 736l243 -435l-241 -432l56 -36l260 468l-260 469z" />
<glyph unicode="&#x300a;" horiz-adv-x="446" d="M24 295l239 -456h50l-238 456l238 461h-50zM132 295l239 -456h50l-238 456l238 461h-50z" />
<glyph unicode="&#x300b;" horiz-adv-x="446" d="M22 -161h50l239 456l-239 461h-50l239 -461zM129 -161h50l238 456l-238 461h-50l239 -461z" />
<glyph unicode="&#x300c;" horiz-adv-x="446" d="M114 341h51v398h254v51h-305v-449z" />
<glyph unicode="&#x300d;" horiz-adv-x="446" d="M26 -138v-51h306v449h-51v-398h-255z" />
<glyph unicode="&#x300e;" horiz-adv-x="446" d="M114 345h104v337h194v104h-298v-441zM147 378v375h232v-38h-194v-337h-38z" />
<glyph unicode="&#x300f;" horiz-adv-x="446" d="M33 -81v-104h298v441h-104v-337h-194zM66 -114h194v337h38v-375h-232v38z" />
<glyph unicode="&#x3010;" horiz-adv-x="446" d="M83 -189h339q-123 79 -194.5 208.5t-71.5 281.5q0 151 71.5 280.5t193.5 207.5h-338v-978z" />
<glyph unicode="&#x3011;" horiz-adv-x="446" d="M25 -188h337v978h-336q121 -79 193 -208.5t72 -279.5q0 -151 -72 -281t-194 -209z" />
<glyph unicode="&#x3014;" horiz-adv-x="446" d="M76 -73l331 -100v92l-244 72v629l244 66v87l-331 -88v-758z" />
<glyph unicode="&#x3015;" horiz-adv-x="446" d="M34 -81v-92l331 100v758l-331 88v-87l244 -66v-629z" />
<glyph unicode="&#x3131;" d="M146 464h499v-403h86v479h-585v-76z" />
<glyph unicode="&#x3132;" d="M112 463h216v-402h86v479h-302v-77zM457 463h215v-402h86v479h-301v-77z" />
<glyph unicode="&#x3133;" d="M107 463h216v-402h86v479h-302v-77zM412 100l69 -55q103 101 143 215q40 -120 135 -211l67 58q-141 114 -171 292q8 72 7 146h-83q19 -303 -167 -445z" />
<glyph unicode="&#x3134;" d="M161 75h585v75h-498v399h-87v-474z" />
<glyph unicode="&#x3135;" d="M121 70h313l27 -26q111 80 184 181q55 -97 152 -176l64 59q-120 81 -171 187q65 119 67 244q-67 -2 -188 -2h-104v-73h79q81 0 123 3q-6 -77 -64.5 -171t-165.5 -163v12h-229v405h-87v-480z" />
<glyph unicode="&#x3136;" d="M121 70h311v75h-224v405h-87v-480zM401 364h414v67h-414v-67zM455 195q0 -64 43.5 -102t114.5 -38q72 0 115.5 38t43.5 102q0 60 -43 99t-116 39t-115.5 -39t-42.5 -99zM478 486h256v69h-256v-69zM532 194q0 32 21.5 52.5t58.5 20.5q39 0 61 -20.5t22 -52.5t-22.5 -52.5 t-60.5 -20.5q-36 0 -58 20.5t-22 52.5z" />
<glyph unicode="&#x3137;" d="M162 72h583v72h-495v320h489v75h-577v-467z" />
<glyph unicode="&#x3138;" d="M109 71h314v75h-229v319h211v73h-296v-467zM454 71h325v75h-241v319h230v73h-314v-467z" />
<glyph unicode="&#x3139;" d="M150 66h610v76h-524v131h496v272h-581v-74h494v-124h-495v-281z" />
<glyph unicode="&#x313a;" d="M118 66h344v76h-258v131h230v272h-315v-74h228v-124h-229v-281zM480 472h197v-416h86v489h-283v-73z" />
<glyph unicode="&#x313b;" d="M115 66h319v76h-233v131h218v272h-303v-74h216v-124h-217v-281zM471 66h304v479h-304v-479zM551 138v336h142v-336h-142z" />
<glyph unicode="&#x313c;" d="M115 66h316v76h-230v131h215v272h-300v-74h213v-124h-214v-281zM468 66h307v490h-81v-175h-147v170h-79v-485zM547 134v180h147v-180h-147z" />
<glyph unicode="&#x313d;" d="M120 66h313v18l47 -39q104 99 146 221q41 -128 134 -217l66 60q-138 111 -168 298q9 72 8 155h-83q26 -288 -150 -443v23h-227v131h212v272h-297v-74h210v-124h-211v-281z" />
<glyph unicode="&#x313e;" d="M115 66h319v76h-233v131h218v272h-303v-74h216v-124h-217v-281zM477 66h311v70h-231v139h217v71h-217v129h219v70h-299v-479z" />
<glyph unicode="&#x313f;" d="M115 66h315v76h-229v131h214v272h-299v-74h212v-124h-213v-281zM455 472h52l2 -331h-49v-75h341v77h-63l4 327h49v75h-336v-73zM585 473h79l-4 -333h-73z" />
<glyph unicode="&#x3140;" d="M115 66h329v76h-243v131h214v272h-299v-74h212v-124h-213v-281zM443 360h378v67h-378v-67zM469 191q0 -64 43.5 -102t114.5 -38q72 0 115.5 38t43.5 102q0 60 -43 99t-116 39t-115.5 -39t-42.5 -99zM512 482h226v69h-226v-69zM546 190q0 32 21.5 52.5t58.5 20.5 q39 0 61 -20.5t22 -52.5t-22.5 -52.5t-60.5 -20.5q-36 0 -58 20.5t-22 52.5z" />
<glyph unicode="&#x3141;" d="M154 70h584v470h-584v-470zM242 145v319h408v-319h-408z" />
<glyph unicode="&#x3142;" d="M153 65h586v491h-89v-171h-406v171h-91v-491zM242 139v170h408v-170h-408z" />
<glyph unicode="&#x3143;" d="M123 69h299v485h-80v-171h-136v171h-83v-485zM206 141v174h137v-174h-137zM475 69h295v485h-80v-171h-135v171h-80v-485zM554 141v174h136v-174h-136z" />
<glyph unicode="&#x3144;" d="M114 69h305v25l59 -49q104 99 146 221q41 -128 134 -217l66 60q-138 111 -168 298q9 72 8 155h-83q28 -296 -162 -453v445h-80v-171h-142v171h-83v-485zM197 141v174h143v-174h-143z" />
<glyph unicode="&#x3145;" d="M78 112l57 -68q97 35 179 108.5t130 168.5q52 -97 136 -167t184 -105l56 67q-116 37 -205.5 113t-135.5 183q21 78 17 149h-89q4 -161 -85 -278t-244 -171z" />
<glyph unicode="&#x3146;" d="M35 155l52 -62q135 76 196 215q38 -74 112 -136q36 30 59 61q-59 39 -90.5 79t-45.5 103q13 69 10 135h-83q5 -140 -44.5 -237t-165.5 -158zM336 101l52 -59q143 83 211 269q60 -140 196 -217l52 62q-88 47 -141.5 112t-73.5 160h-2q10 58 12 122h-83q6 -152 -50.5 -268 t-172.5 -181z" />
<glyph unicode="&#x3147;" d="M134 305q0 -113 81.5 -182.5t230.5 -69.5t230.5 69.5t81.5 182.5t-81.5 182.5t-230.5 69.5t-230.5 -69.5t-81.5 -182.5zM221 305q0 78 56.5 129t168.5 51q110 0 167.5 -51t57.5 -129t-57.5 -129t-167.5 -51q-112 0 -168.5 51t-56.5 129z" />
<glyph unicode="&#x3148;" d="M82 132l53 -68q193 74 334 176q141 -106 294 -165l56 68q-151 54 -293 143q144 122 179 257q-93 -2 -267 -2h-274v-75h191q147 0 223 4q-46 -89 -187 -186.5t-309 -151.5z" />
<glyph unicode="&#x3149;" d="M49 148l59 -56q125 89 196 179q50 -59 103 -100q30 21 66 56q-79 46 -129 102q59 99 70 215q-57 -2 -165 -2h-128v-73h93q69 0 106 2q-22 -87 -83.5 -165.5t-187.5 -157.5zM331 68l60 -55q140 103 226 221q79 -80 171 -139l57 66q-115 63 -188 134q74 127 80 249 q-56 -2 -171 -2h-108v-73h78q75 0 111 2q-21 -96 -101 -205t-215 -198z" />
<glyph unicode="&#x314a;" d="M101 108l44 -69q183 57 328 142q114 -72 293 -136l41 68q-161 53 -267 111q146 101 177 208q6 23 -16 23q-91 -2 -261 -2h-273v-72h213q148 0 221 4q-39 -68 -174.5 -144.5t-325.5 -132.5zM264 529h352v73h-352v-73z" />
<glyph unicode="&#x314b;" d="M120 228h251q171 0 271 18v-185h86v479h-598v-76h512v-151q-109 -12 -253 -12h-269v-73z" />
<glyph unicode="&#x314c;" d="M146 66h621v73h-535v136h505v73h-505v122h521v75h-607v-479z" />
<glyph unicode="&#x314d;" d="M114 66h667v76h-136l7 284h-86l-5 -284h-229l-2 284h-86l6 -284h-136v-76zM125 466h646v74h-646v-74z" />
<glyph unicode="&#x314e;" d="M100 395h691v72h-691v-72zM171 193q0 -70 71 -117t204 -47t204 47t71 117t-70.5 116t-204.5 46t-204.5 -46t-70.5 -116zM257 191q0 39 45.5 66t142.5 27q98 0 144 -27t46 -66q0 -37 -46.5 -64t-143.5 -27t-142.5 27t-45.5 64zM264 533h364v75h-364v-75z" />
<glyph unicode="&#x314f;" d="M375 -153h86v467h237v76h-237v370h-86v-913z" />
<glyph unicode="&#x3150;" d="M280 -130h84v434h163v-457h86v913h-86v-382h-163v372h-84v-880z" />
<glyph unicode="&#x3151;" d="M379 -153h86v332h228v75h-228v201h228v75h-228v230h-86v-913z" />
<glyph unicode="&#x3152;" d="M279 -130h83v293h167v-316h85v913h-85v-246h-167v236h-83v-880zM361 235v207h169v-207h-169z" />
<glyph unicode="&#x3153;" d="M276 314h237v-467h86v913h-86v-370h-237v-76z" />
<glyph unicode="&#x3154;" d="M179 304h181v-434h86v880h-86v-371h-181v-75zM538 -153h86v913h-86v-913z" />
<glyph unicode="&#x3155;" d="M279 179h228v-332h86v913h-86v-230h-228v-75h228v-201h-228v-75z" />
<glyph unicode="&#x3156;" d="M189 181h172v-311h86v880h-86v-218h-172v-73h173v-205h-173v-73zM538 -153h86v913h-86v-913z" />
<glyph unicode="&#x3157;" d="M21 85h850v73h-383v387h-90v-387h-377v-73z" />
<glyph unicode="&#x3158;" d="M11 74h151q258 0 457 28v71q-107 -14 -269 -21v314h-87v-317q-36 -1 -102 -1h-150v-74zM662 -153h83v469h145v74h-145v370h-83v-913z" />
<glyph unicode="&#x3159;" d="M26 74h106q203 0 351 23v71q-65 -10 -192 -17v315h-84v-318q-27 -1 -75 -1h-106v-73zM532 -130h82v434h108v-457h84v913h-84v-383h-108v373h-82v-880z" />
<glyph unicode="&#x315a;" d="M36 74h184q258 0 457 28v71q-110 -15 -291 -22v315h-87v-317q-28 -1 -80 -1h-183v-74zM722 -153h83v913h-83v-913z" />
<glyph unicode="&#x315b;" d="M21 90h850v73h-233v377h-90v-377h-210v377h-90v-377h-227v-73z" />
<glyph unicode="&#x315c;" d="M21 402h377v-387h90v387h383v73h-850v-73z" />
<glyph unicode="&#x315d;" d="M36 283h233v-416h88v419q180 7 315 25v73q-196 -26 -458 -26h-178v-75zM493 76h228v-229h84v913h-84v-609h-228v-75z" />
<glyph unicode="&#x315e;" d="M17 283h196v-411h84v414q122 5 221 20v69q-140 -20 -351 -20h-150v-72zM384 77h179v-215h82v888h-82v-599h-179v-74zM723 -153h83v913h-83v-913z" />
<glyph unicode="&#x315f;" d="M36 263h179q42 0 64 1v-397h88v399q172 6 305 25v72q-188 -25 -458 -25h-178v-75zM721 -153h84v913h-84v-913z" />
<glyph unicode="&#x3160;" d="M21 397h227v-377h90v377h210v-377h90v377h233v73h-850v-73z" />
<glyph unicode="&#x3161;" d="M21 194h850v73h-850v-73z" />
<glyph unicode="&#x3162;" d="M34 99h184q258 0 457 28v72q-188 -25 -458 -25h-183v-75zM722 -153h83v913h-83v-913z" />
<glyph unicode="&#x3163;" d="M401 -153h90v913h-90v-913z" />
<glyph unicode="&#x321c;" d="M10 301q0 -245 137 -431h38q-116 183 -116 431q0 253 116 429h-38q-137 -190 -137 -429zM141 211h273v-239h66v239h263v54h-602v-54zM177 365l31 -53q146 35 244 91q98 -57 225 -88l32 54q-110 24 -203 68q85 61 118 135q4 7 0 14t-14 6q-66 -1 -188 -1h-182v-55h133 q104 0 151 3q-38 -51 -128.5 -98.5t-218.5 -75.5zM706 -130h38q137 186 137 431q0 239 -137 429h-38q117 -178 117 -433q0 -243 -117 -427z" />
<glyph unicode="&#x327f;" d="M36 240q21 -159 135 -269.5t272 -110.5q112 0 208.5 59t152 163t50.5 226h-192v-49h141q-13 -152 -116.5 -250.5t-243.5 -98.5q-137 0 -236 96t-120 234h-51zM39 261h190v49h-138q9 150 113 249.5t243 99.5t238 -95t120 -237h49q-18 160 -132.5 271t-274.5 111 q-112 0 -207 -58t-150 -161.5t-51 -228.5zM259 31h58v151q1 1 2.5 20t1.5 20q8 7 36 33t48 43l218 -267h66l-247 307q94 86 198 218h-68q-78 -99 -255 -266v266h-58v-525z" />
<glyph unicode="&#x33c2;" d="M18 99q0 -70 29.5 -108t79.5 -38q30 0 58.5 20t43.5 55l2 -64h55v344q0 94 -27.5 136t-87.5 42q-68 0 -121 -55v-68q0 -7 4.5 -8.5t8.5 3.5q56 62 102 62q34 0 49.5 -25.5t15.5 -89.5v-9l-101 -23q-54 -13 -82.5 -58.5t-28.5 -115.5zM78 105q0 96 72 113l81 16v-66 q0 -57 -28.5 -103t-64.5 -46q-27 0 -43.5 23t-16.5 63zM300 7q0 -20 13.5 -35.5t32.5 -15.5t32 15.5t13 35.5t-13.5 35t-31.5 15q-19 0 -32.5 -15t-13.5 -35zM408 -36h55v282q0 75 18.5 123t46.5 48q24 0 31.5 -33t7.5 -116v-304h55v282q0 76 15 123.5t41 47.5 q24 0 31.5 -33.5t7.5 -115.5v-304h55v313q0 109 -19 154.5t-62 45.5q-61 0 -84 -76h-1q-14 76 -68 76q-22 0 -41.5 -17.5t-30.5 -47.5h-1l-2 54h-55v-502zM786 7q0 -20 14.5 -35.5t33.5 -15.5t33 15.5t14 35.5t-14 35t-33 15t-33.5 -15t-14.5 -35z" />
<glyph unicode="&#x33c7;" d="M24 313q0 -163 67.5 -261.5t186.5 -98.5q106 0 174 72v81q0 11 -10 4q-67 -89 -153 -89q-94 0 -146 76.5t-52 218.5q0 135 57 212.5t143 77.5q87 0 147 -82q4 -5 7 -4t3 7v85q-60 60 -162 60q-115 0 -188.5 -97.5t-73.5 -261.5zM469 201q0 -104 44 -173t122 -69t121 69 t43 173t-43 173t-121 69t-122 -69t-44 -173zM528 201q0 79 28.5 130.5t78.5 51.5q51 0 78.5 -51t27.5 -131q0 -81 -27.5 -131t-78.5 -50q-50 0 -78.5 50.5t-28.5 130.5zM782 1q0 -22 15.5 -38t35.5 -16q21 0 36.5 16t15.5 38t-15.5 38.5t-36.5 16.5q-20 0 -35.5 -16.5 t-15.5 -38.5z" />
<glyph unicode="&#x33d8;" d="M27 -156h55v178h1q34 -66 93 -66q70 0 106 74t36 198q0 120 -34 185t-101 65q-57 0 -99 -82h-1l-1 70h-55v-622zM81 162v74q0 73 25.5 126.5t68.5 53.5q40 0 63 -50t23 -138q0 -99 -24 -152.5t-68 -53.5q-39 0 -63.5 40t-24.5 100zM300 7q0 -20 13.5 -35.5t32.5 -15.5 t32 15.5t13 35.5t-13.5 35t-31.5 15q-19 0 -32.5 -15t-13.5 -35zM408 -36h55v282q0 75 18.5 123t46.5 48q24 0 31.5 -33t7.5 -116v-304h55v282q0 76 15 123.5t41 47.5q24 0 31.5 -33.5t7.5 -115.5v-304h55v313q0 109 -19 154.5t-62 45.5q-61 0 -84 -76h-1q-14 76 -68 76 q-22 0 -41.5 -17.5t-30.5 -47.5h-1l-2 54h-55v-502zM786 7q0 -20 14.5 -35.5t33.5 -15.5t33 15.5t14 35.5t-14 35t-33 15t-33.5 -15t-14.5 -35z" />
<glyph unicode="&#xac00;" d="M24 126l58 -63q387 207 417 640q-94 -2 -281 -2h-157v-74h103q160 0 241 3q-21 -157 -116 -288t-265 -216zM647 -133h86v484h157v76h-157v353h-86v-913z" />
<glyph unicode="&#xac01;" d="M33 322l51 -67q191 59 303.5 190t123.5 297q-94 -2 -281 -2h-145v-74h86q159 0 238 3q-22 -122 -118.5 -210t-257.5 -137zM158 123h494v-259h86v334h-580v-75zM652 250h86v222h144v76h-144v232h-86v-530z" />
<glyph unicode="&#xac04;" d="M32 270l52 -65q198 70 307 206t120 317q-94 -2 -281 -2h-145v-74h84q160 0 239 3q-18 -136 -115.5 -234.5t-260.5 -150.5zM188 -115h570v75h-483v202h-87v-277zM652 116h86v294h144v76h-144v294h-86v-664z" />
<glyph unicode="&#xac07;" d="M32 329l50 -68q191 59 303.5 187.5t123.5 291.5q-94 -2 -281 -2h-145v-74h86q159 0 238 3q-45 -239 -375 -338zM178 -119h578v75h-492v175h476v74h-562v-324zM652 257h86v202h144v76h-144v245h-86v-523z" />
<glyph unicode="&#xac08;" d="M41 377l48 -69q188 56 301.5 171t124.5 261q-94 -2 -281 -2h-151v-73h92q159 0 238 3q-57 -203 -372 -291zM171 110v-233h587v73h-502v91h482v225h-567v-73h482v-83h-482zM652 318h86v188h144v76h-144v198h-86v-462z" />
<glyph unicode="&#xac09;" d="M41 378l48 -69q188 56 301.5 171t124.5 261q-94 -2 -281 -2h-151v-73h92q159 0 238 3q-57 -203 -372 -291zM150 112v-235h177q110 0 178 20v72q-66 -18 -150 -18h-122v90h205v230h-288v-73h201v-86h-201zM475 198h177v-331h86v404h-263v-73zM652 323h86v183h144v76h-144 v198h-86v-457z" />
<glyph unicode="&#xac0a;" d="M41 379l48 -69q188 56 301.5 171t124.5 261q-94 -2 -281 -2h-151v-73h92q159 0 238 3q-57 -203 -372 -291zM142 109v-232h116q113 0 178 19v72q-66 -18 -150 -18h-64v94h191v227h-271v-73h192v-89h-192zM466 -123h272v394h-272v-394zM542 -54v257h114v-257h-114zM652 323 h86v183h144v76h-144v198h-86v-457z" />
<glyph unicode="&#xac10;" d="M33 336l50 -68q190 58 303 185.5t124 288.5q-94 -2 -281 -2h-146v-74h87q159 0 238 3q-47 -235 -375 -333zM178 -119h560v342h-560v-342zM264 -44v191h388v-191h-388zM652 275h86v218h144v76h-144v211h-86v-505z" />
<glyph unicode="&#xac11;" d="M36 361l49 -68q191 58 303.5 176.5t123.5 272.5q-94 -2 -281 -2h-148v-74h89q159 0 238 3q-50 -212 -374 -308zM176 -119h562v379h-85v-113h-391v108h-86v-374zM261 -44v120h392v-120h-392zM652 312h86v190h144v76h-144v202h-86v-468z" />
<glyph unicode="&#xac12;" d="M38 359l49 -68q191 58 303.5 177.5t123.5 273.5q-94 -2 -281 -2h-148v-74h89q159 0 238 3q-50 -214 -374 -310zM145 -121h316v26l46 -39q99 74 141 170q41 -96 135 -166l62 62q-62 40 -104.5 98t-57.5 124q8 60 7 116h-83q18 -224 -146 -334v323h-80v-117h-155v107h-81 v-370zM225 -48v122h156v-122h-156zM652 314h86v188h144v76h-144v202h-86v-466z" />
<glyph unicode="&#xac13;" d="M30 291l52 -65q192 60 304 198t123 318q-94 -2 -281 -2h-145v-74h84q160 0 239 3q-18 -135 -115 -230.5t-261 -147.5zM104 -64l52 -69q91 22 171.5 76.5t129.5 127.5q52 -77 132 -130.5t169 -73.5l49 70q-102 21 -184 76.5t-126 133.5q21 52 22 105h-94 q-6 -120 -91.5 -200t-229.5 -116zM652 159h86v285h144v76h-144v260h-86v-621z" />
<glyph unicode="&#xac14;" d="M34 325l50 -68q189 58 301.5 190t124.5 295q-94 -2 -281 -2h-146v-74h87q159 0 238 3q-24 -120 -121 -208.5t-253 -135.5zM78 -70l60 -62q118 62 178 171q59 -108 143 -171q101 67 152 169q62 -108 174 -165l55 62q-161 83 -195 196q11 46 11 92h-88q7 -83 -20.5 -142 t-81.5 -111q-79 65 -114 162q9 37 11 87h-90q10 -189 -195 -288zM652 269h86v202h144v76h-144v233h-86v-511z" />
<glyph unicode="&#xac15;" d="M31 322l51 -67q191 59 303.5 190t123.5 297q-94 -2 -281 -2h-145v-74h86q159 0 238 3q-22 -122 -118.5 -210t-257.5 -137zM156 45q0 -83 77 -134.5t219 -51.5t219 51t77 134t-77 134.5t-219 51.5t-219 -51t-77 -134zM245 44q0 48 53.5 80.5t153.5 32.5q101 0 153.5 -32.5 t52.5 -80.5q0 -47 -52.5 -79t-153.5 -32q-100 0 -153.5 32t-53.5 79zM652 242h86v227h144v76h-144v235h-86v-538z" />
<glyph unicode="&#xac16;" d="M33 346l50 -68q192 59 304 181.5t123 282.5q-94 -2 -281 -2h-146v-74h87q159 0 238 3q-45 -225 -375 -323zM111 -65l45 -68q173 43 317 116q164 -74 311 -114l47 68q-136 35 -277 91q135 85 178 175q9 22 -13 22q-87 -2 -243 -2h-286v-73h194q138 0 214 4 q-53 -59 -183 -118.5t-304 -100.5zM652 275h86v214h144v76h-144v215h-86v-505z" />
<glyph unicode="&#xac17;" d="M33 346l50 -68q192 59 304 181.5t123 282.5q-94 -2 -281 -2h-146v-74h87q159 0 238 3q-45 -225 -375 -323zM125 -62l44 -71q192 39 317 92q124 -53 308 -90l41 70q-142 19 -265 60q125 70 157 155q4 10 -0.5 16.5t-12.5 6.5q-83 -2 -256 -2h-255v-70h183q112 0 208 4 q-54 -53 -176.5 -98t-292.5 -73zM319 234h282v71h-282v-71zM652 295h86v200h144v76h-144v209h-86v-485z" />
<glyph unicode="&#xac19;" d="M36 359l49 -68q191 58 303.5 177.5t123.5 273.5q-94 -2 -281 -2h-148v-74h89q159 0 238 3q-50 -214 -374 -310zM178 -123h580v72h-495v88h475v69h-475v81h477v72h-562v-382zM652 311h86v189h144v76h-144v204h-86v-469z" />
<glyph unicode="&#xac1a;" d="M36 353l49 -68q190 58 303 180t124 277q-94 -2 -281 -2h-148v-74h89q159 0 238 3q-52 -221 -374 -316zM142 -47v-72h635v72h-126l3 195h109v73h-611v-73h106l3 -195h-119zM344 148h224l-3 -195h-218zM652 273h86v198h144v76h-144v233h-86v-507z" />
<glyph unicode="&#xac1b;" d="M41 371l48 -69q187 56 301 174.5t125 265.5q-94 -2 -281 -2h-151v-73h92q159 0 238 3q-30 -105 -126 -181t-246 -118zM124 135h657v66h-657v-66zM186 -19q0 -56 68.5 -89t198.5 -33t198.5 33t68.5 89q0 55 -68.5 87t-198.5 32t-198.5 -32t-68.5 -87zM277 -19 q0 15 15.5 28t56.5 22t104 9t104 -9t56.5 -22t15.5 -28q0 -58 -176 -58t-176 58zM299 251h307v67h-307v-67zM652 308h86v188h144v76h-144v208h-86v-472z" />
<glyph unicode="&#xac1c;" d="M23 123l62 -58q329 217 341 637q-80 -2 -238 -2h-121v-72h65q135 0 203 3q-8 -155 -86.5 -285t-225.5 -223zM511 -110h84v474h115v-497h86v913h-86v-342h-115v332h-84v-880z" />
<glyph unicode="&#xac1d;" d="M24 322l54 -67q164 65 261.5 191t99.5 287q-81 -2 -228 -2h-126v-72h67q125 0 195 3q-17 -113 -103.5 -205t-219.5 -135zM195 118h523v-254h86v328h-609v-74zM525 244h82v224h114v-224h83v536h-83v-240h-114v230h-82v-526z" />
<glyph unicode="&#xac20;" d="M26 275l52 -66q162 70 256.5 205.5t96.5 310.5q-80 -2 -225 -2h-121v-72h65q122 0 190 3q-10 -124 -96.5 -227.5t-217.5 -151.5zM230 -115h589v75h-502v208h-87v-283zM525 121h82v310h114v-330h83v679h-83v-275h-114v265h-82v-649z" />
<glyph unicode="&#xac24;" d="M24 349l56 -67q166 62 264 181.5t100 273.5q-82 -2 -230 -2h-129v-72h70q126 0 196 3q-17 -106 -105.5 -191.5t-221.5 -125.5zM211 188h508v-82h-504v-229h609v73h-524v85h504v226h-593v-73zM525 313h82v183h114v-183h83v467h-83v-211h-114v201h-82v-457z" />
<glyph unicode="&#xac2c;" d="M25 315l52 -67q163 66 259 195.5t98 296.5q-81 -2 -226 -2h-123v-72h66q123 0 191 3q-14 -118 -98 -213t-219 -141zM219 -119h585v332h-585v-332zM305 -45v183h413v-183h-413zM525 265h82v216h114v-216h83v515h-83v-225h-114v215h-82v-505z" />
<glyph unicode="&#xac2d;" d="M24 334l54 -67q165 65 262 189t99 284q-81 -2 -228 -2h-126v-72h67q125 0 195 3q-17 -112 -103 -202t-220 -133zM217 -119h587v369h-85v-108h-416v103h-86v-364zM302 -45v116h417v-116h-417zM525 302h82v201h114v-201h83v478h-83v-203h-114v193h-82v-468z" />
<glyph unicode="&#xac2f;" d="M26 290l52 -66q162 70 256.5 205.5t96.5 310.5q-80 -2 -225 -2h-121v-72h65q122 0 190 3q-10 -124 -96.5 -227.5t-217.5 -151.5zM112 -64l53 -69q96 23 180.5 76.5t134.5 126.5q51 -76 135 -129.5t176 -73.5l49 70q-106 20 -191 74t-130 131q17 51 17 91h-94 q-6 -115 -93 -188.5t-237 -108.5zM525 270h82v202h114v-305h83v613h-83v-234h-114v224h-82v-500z" />
<glyph unicode="&#xac30;" d="M25 315l52 -67q163 66 259 195.5t98 296.5q-81 -2 -226 -2h-123v-72h66q123 0 191 3q-14 -118 -98 -213t-219 -141zM101 -70l61 -62q123 62 184 168q57 -102 149 -168q104 64 157 167q61 -105 180 -164l55 63q-166 81 -202 191q11 46 11 91h-86q7 -80 -22.5 -138.5 t-85.5 -108.5q-83 59 -121 156q11 42 11 87h-88q10 -183 -203 -282zM525 261h82v227h114v-227h83v519h-83v-218h-114v208h-82v-509z" />
<glyph unicode="&#xac31;" d="M26 313l51 -67q163 69 257.5 196t96.5 298q-80 -2 -224 -2h-122v-72h65q122 0 190 3q-13 -120 -94.5 -213t-219.5 -143zM189 45q0 -83 80.5 -134.5t228.5 -51.5q150 0 230.5 51t80.5 134t-80.5 134.5t-230.5 51.5q-148 0 -228.5 -51t-80.5 -134zM279 45q0 48 55.5 80 t163.5 32t164.5 -32t56.5 -80t-56.5 -80t-164.5 -32t-163.5 32t-55.5 80zM525 271h82v216h114v-254h83v547h-83v-219h-114v209h-82v-499z" />
<glyph unicode="&#xac38;" d="M24 126l58 -63q387 207 417 640q-94 -2 -281 -2h-157v-74h103q160 0 241 3q-21 -157 -116 -288t-265 -216zM647 -133h86v330h147v75h-147v208h147v75h-147v225h-86v-913z" />
<glyph unicode="&#xac39;" d="M33 322l51 -67q191 59 303.5 190t123.5 297q-94 -2 -281 -2h-145v-74h86q159 0 238 3q-22 -122 -118.5 -210t-257.5 -137zM158 123h494v-259h86v334h-580v-75zM652 250h86v129h140v74h-141v113h141v74h-140v140h-86v-530z" />
<glyph unicode="&#xac3c;" d="M32 270l52 -65q198 70 307 206t120 317q-94 -2 -281 -2h-145v-74h84q160 0 239 3q-18 -136 -115.5 -234.5t-260.5 -150.5zM188 -115h570v75h-483v202h-87v-277zM652 117h86v204h140v74h-141v139h141v74h-140v172h-86v-663z" />
<glyph unicode="&#xac40;" d="M43 380l48 -69q188 56 301.5 171t124.5 261q-94 -2 -281 -2h-151v-73h92q159 0 238 3q-57 -203 -372 -291zM171 115v-238h587v73h-502v94h482v227h-567v-73h482v-83h-482zM652 323h86v105h140v74h-141v97h141v74h-140v107h-86v-457z" />
<glyph unicode="&#xac4b;" d="M32 291l57 -65q191 60 301 197.5t121 318.5q-94 -2 -281 -2h-145v-74h84q160 0 239 3q-18 -135 -115 -230.5t-261 -147.5zM104 -64l52 -69q90 22 170.5 77t130.5 129q51 -78 131.5 -132t169.5 -74l49 70q-103 21 -185 76.5t-125 134.5q21 54 22 106h-94q-6 -120 -92 -201 t-229 -117zM652 157h86v206h140v74h-141v137h141v74h-140v132h-86v-623z" />
<glyph unicode="&#xac4d;" d="M33 322l51 -67q191 59 303.5 190t123.5 297q-94 -2 -281 -2h-145v-74h86q159 0 238 3q-22 -122 -118.5 -210t-257.5 -137zM156 46q0 -83 77 -135t219 -52t219 51.5t77 134.5t-77 135t-219 52t-219 -51.5t-77 -134.5zM245 46q0 48 53.5 81t153.5 33q101 0 153.5 -33 t52.5 -81q0 -49 -52 -82t-154 -33q-100 0 -153.5 33t-53.5 82zM652 229h86v164h140v74h-141v117h141v74h-140v122h-86v-551z" />
<glyph unicode="&#xac54;" d="M25 123l62 -58q329 217 341 637q-80 -2 -238 -2h-121v-72h65q135 0 203 3q-8 -155 -86.5 -285t-225.5 -223zM508 -110h83v331h121v-354h85v913h-85v-206h-121v196h-83v-880zM590 292v211h123v-211h-123z" />
<glyph unicode="&#xac58;" d="M26 274l52 -66q162 70 256.5 205.5t96.5 310.5q-80 -2 -225 -2h-121v-72h65q122 0 190 3q-10 -124 -96.5 -227.5t-217.5 -151.5zM230 -115h589v75h-502v208h-87v-283zM520 121h81v201h122v-221h82v679h-82v-189h-122v179h-81v-649zM600 390v133h124v-133h-124z" />
<glyph unicode="&#xac5c;" d="M24 352l56 -67q166 62 264 181.5t100 273.5q-82 -2 -230 -2h-129v-72h70q126 0 196 3q-17 -106 -105.5 -191.5t-221.5 -125.5zM211 188h508v-83h-504v-228h609v73h-524v86h504v225h-593v-73zM520 313h81v107h122v-107h82v467h-82v-117h-122v107h-81v-457zM600 488v107 h124v-107h-124z" />
<glyph unicode="&#xac70;" d="M34 126l58 -63q387 207 417 640q-94 -2 -281 -2h-157v-74h103q160 0 241 3q-21 -157 -116 -288t-265 -216zM490 355h205v-488h86v913h-86v-350h-205v-75z" />
<glyph unicode="&#xac71;" d="M48 322l51 -67q191 59 303.5 190t123.5 297q-94 -2 -281 -2h-145v-74h86q159 0 238 3q-22 -122 -118.5 -210t-257.5 -137zM191 123h504v-259h86v334h-590v-75zM501 447h193v-197h86v530h-86v-257h-193v-76z" />
<glyph unicode="&#xac74;" d="M47 270l52 -65q198 70 307 206t120 317q-94 -2 -281 -2h-145v-74h84q160 0 239 3q-18 -136 -115.5 -234.5t-260.5 -150.5zM211 -115h590v75h-503v202h-87v-277zM510 427h185v-311h86v664h-86v-277h-185v-76z" />
<glyph unicode="&#xac77;" d="M49 329l50 -68q190 59 302 188t123 293q-94 -2 -279 -2h-145v-74h86q157 0 236 3q-46 -242 -373 -340zM214 -119h585v75h-499v185h483v74h-569v-334zM506 454h189v-187h86v513h-86v-250h-189v-76z" />
<glyph unicode="&#xac78;" d="M58 379l48 -69q188 56 300.5 171t123.5 261q-94 -2 -279 -2h-151v-73h92q157 0 236 3q-57 -203 -370 -291zM207 112v-235h594v74h-509v88h489v227h-574v-74h489v-80h-489zM510 469h185v-151h86v462h-86v-235h-185v-76z" />
<glyph unicode="&#xac7a;" d="M58 379l48 -69q188 56 300.5 171t123.5 261q-94 -2 -279 -2h-151v-73h92q157 0 236 3q-57 -203 -370 -291zM174 109v-232h129q113 0 178 19v73q-66 -18 -150 -18h-76v87h193v230h-274v-73h194v-86h-194zM505 -123h276v391h-276v-391zM510 472h185v-152h86v460h-86v-232 h-185v-76zM581 -54v254h118v-254h-118z" />
<glyph unicode="&#xac80;" d="M50 336l50 -68q190 58 302 185.5t123 288.5q-94 -2 -279 -2h-146v-74h87q157 0 236 3q-47 -236 -373 -333zM211 -119h570v335h-570v-335zM297 -45v186h398v-186h-398zM511 449h184v-181h86v512h-86v-256h-184v-75z" />
<glyph unicode="&#xac81;" d="M53 356l49 -68q190 58 302 178.5t123 275.5q-94 -2 -279 -2h-148v-74h89q157 0 236 3q-51 -218 -372 -313zM209 -119h572v377h-85v-107h-402v98h-85v-368zM294 -45v125h402v-125h-402zM516 463h179v-153h86v470h-86v-241h-179v-76z" />
<glyph unicode="&#xac83;" d="M47 291l52 -65q191 60 302.5 197.5t122.5 318.5q-94 -2 -279 -2h-145v-74h84q158 0 237 3q-18 -135 -114 -230.5t-260 -147.5zM124 -64l52 -69q92 22 173.5 77t131.5 130q52 -77 134.5 -132t172.5 -75l49 70q-104 21 -188 77t-128 135q19 49 21 104h-94 q-6 -119 -92.5 -200t-231.5 -117zM512 447h183v-258h86v591h-86v-257h-183v-76z" />
<glyph unicode="&#xac84;" d="M49 329l50 -68q190 59 302 188t123 293q-94 -2 -279 -2h-145v-74h86q157 0 236 3q-46 -242 -373 -340zM103 -70l60 -62q120 63 180 174q56 -105 146 -174q100 65 154 171q64 -111 176 -167l55 62q-164 84 -198 198q11 49 11 94h-86q12 -147 -105 -257q-79 62 -118 165 q11 44 11 88h-88q10 -192 -198 -292zM515 454h180v-181h86v507h-86v-250h-180v-76z" />
<glyph unicode="&#xac85;" d="M48 322l51 -67q191 59 302.5 189.5t122.5 297.5q-94 -2 -279 -2h-145v-74h86q157 0 236 3q-22 -123 -118 -211t-256 -136zM184 46q0 -83 78.5 -135t223.5 -52q146 0 224.5 51.5t78.5 134.5q0 84 -74 135t-219 51q-146 0 -229 -51.5t-83 -133.5zM273 46q0 48 54.5 80.5 t157.5 32.5q105 0 159.5 -32.5t54.5 -80.5q0 -49 -54.5 -81.5t-159.5 -32.5q-103 0 -157.5 32.5t-54.5 81.5zM510 453h185v-210h86v537h-86v-251h-185v-76z" />
<glyph unicode="&#xac86;" d="M50 346l50 -68q192 59 304 181.5t123 282.5q-94 -2 -281 -2h-146v-74h87q159 0 238 3q-45 -225 -375 -323zM131 -65l45 -68q173 43 317 116q164 -74 311 -114l47 68q-136 35 -277 91q135 85 178 175q9 22 -13 22q-87 -2 -243 -2h-286v-73h194q138 0 214 4 q-53 -59 -183 -118.5t-304 -100.5zM510 456h185v-181h86v505h-86v-248h-185v-76z" />
<glyph unicode="&#xac89;" d="M53 359l49 -68q191 58 303.5 177.5t123.5 273.5q-94 -2 -281 -2h-148v-74h89q159 0 238 3q-50 -214 -374 -310zM216 -123h585v72h-500v88h480v69h-480v81h482v72h-567v-382zM513 469h182v-158h86v469h-86v-235h-182v-76z" />
<glyph unicode="&#xac8a;" d="M53 353l49 -68q190 58 302 180t123 277q-94 -2 -279 -2h-148v-74h89q157 0 236 3q-52 -221 -372 -316zM170 -47v-72h635v72h-117l3 195h100v73h-611v-73h100l5 -195h-115zM366 148h239l-3 -195h-231zM510 457h185v-184h86v507h-86v-247h-185v-76z" />
<glyph unicode="&#xac8b;" d="M53 359l49 -68q191 58 303.5 177.5t123.5 273.5q-94 -2 -281 -2h-148v-74h89q159 0 238 3q-50 -214 -374 -310zM155 135h661v66h-661v-66zM217 -19q0 -56 69.5 -89t199.5 -33t199.5 33t69.5 89q0 55 -69.5 87t-199.5 32t-199.5 -32t-69.5 -87zM308 -19q0 15 16 28 t57.5 22t104.5 9t104.5 -9t57.5 -22t16 -28q0 -58 -178 -58t-178 58zM330 251h311v67h-311v-67zM517 475h178v-167h86v472h-86v-229h-178v-76z" />
<glyph unicode="&#xac8c;" d="M25 123l62 -58q174 115 261 291h184v-466h86v880h-86v-339h-153q44 123 49 271q-80 -2 -238 -2h-121v-72h65q135 0 203 3q-8 -155 -86.5 -285t-225.5 -223zM710 -133h86v913h-86v-913z" />
<glyph unicode="&#xac90;" d="M46 275l52 -66q175 75 268 225h185v-313h82v649h-82v-261h-146q43 100 44 216q-80 -2 -223 -2h-121v-72h65q120 0 188 3q-10 -124 -95.5 -227.5t-216.5 -151.5zM230 -115h589v75h-502v206h-87v-281zM721 101h83v679h-83v-679z" />
<glyph unicode="&#xac94;" d="M44 352l56 -67q172 65 266 186h185v-158h82v457h-82v-227h-138q47 90 49 197q-82 -2 -228 -2h-129v-72h70q124 0 194 3q-17 -107 -104.5 -192t-220.5 -125zM211 188h508v-82h-504v-229h609v73h-524v85h504v226h-593v-73zM721 313h83v467h-83v-467z" />
<glyph unicode="&#xac9c;" d="M45 315l52 -67q174 71 269 212h185v-195h82v505h-82v-237h-144q44 98 45 207q-81 -2 -224 -2h-123v-72h66q121 0 189 3q-14 -118 -97.5 -213t-217.5 -141zM219 -119h585v332h-585v-332zM305 -45v183h413v-183h-413zM721 265h83v515h-83v-515z" />
<glyph unicode="&#xac9d;" d="M44 334l54 -67q181 70 275 209h178v-174h82v468h-82v-222h-137q42 89 43 192q-81 -2 -226 -2h-126v-72h67q123 0 193 3q-17 -112 -102 -202t-219 -133zM217 -119h587v369h-85v-108h-416v103h-86v-364zM302 -45v116h417v-116h-417zM721 302h83v478h-83v-478z" />
<glyph unicode="&#xac9f;" d="M46 290l52 -66q176 77 269 227h184v-181h82v500h-82v-246h-146q43 100 44 216q-80 -2 -223 -2h-121v-72h65q120 0 188 3q-10 -124 -95.5 -227.5t-216.5 -151.5zM130 -64l53 -69q96 23 180.5 76.5t134.5 126.5q51 -76 135 -129.5t176 -73.5l49 70q-106 20 -191 74 t-130 131q17 51 17 91h-94q-6 -115 -93 -188.5t-237 -108.5zM721 167h83v613h-83v-613z" />
<glyph unicode="&#xaca0;" d="M45 315l52 -67q172 70 267 209h187v-189h82v502h-82v-241h-146q46 97 47 211q-81 -2 -224 -2h-123v-72h66q121 0 189 3q-14 -118 -97.5 -213t-217.5 -141zM97 -70l61 -62q122 61 183 170q56 -102 150 -170q105 65 157 168q61 -105 180 -165l55 63q-166 81 -202 191 q11 47 11 92h-86q12 -142 -108 -248q-82 58 -122 157q12 44 12 90h-88q5 -96 -49.5 -168t-153.5 -118zM721 268h83v512h-83v-512z" />
<glyph unicode="&#xaca1;" d="M46 299l51 -67q176 74 271 225h183v-196h82v509h-82v-240h-145q42 98 43 210q-80 -2 -222 -2h-122v-72h65q120 0 188 3q-13 -123 -95 -221.5t-217 -148.5zM192 41q0 -81 80.5 -131.5t228.5 -50.5q150 0 230.5 50t80.5 131q0 82 -80.5 132.5t-230.5 50.5 q-148 0 -228.5 -50t-80.5 -132zM282 41q0 48 56 79.5t163 31.5q108 0 164.5 -31.5t56.5 -79.5q0 -47 -56.5 -78.5t-164.5 -31.5q-107 0 -163 31.5t-56 78.5zM721 231h83v549h-83v-549z" />
<glyph unicode="&#xaca8;" d="M34 126l58 -63q387 207 417 640q-94 -2 -281 -2h-157v-74h103q160 0 241 3q-21 -157 -116 -288t-265 -216zM503 238h192v-371h86v913h-86v-231h-172v-74h173v-163h-193v-74z" />
<glyph unicode="&#xaca9;" d="M49 322l51 -67q191 59 303.5 190t123.5 297q-94 -2 -281 -2h-145v-74h86q159 0 238 3q-22 -122 -118.5 -210t-257.5 -137zM191 123h504v-259h86v334h-590v-75zM503 360h192v-110h86v530h-86v-164h-167v-72h168v-111h-193v-73z" />
<glyph unicode="&#xacaa;" d="M49 322l51 -67q191 59 303.5 190t123.5 297q-94 -2 -281 -2h-145v-74h86q159 0 238 3q-22 -122 -118.5 -210t-257.5 -137zM165 126h203v-262h86v339h-289v-77zM497 126h198v-262h86v339h-284v-77zM503 363h192v-108h86v525h-86v-164h-167v-72h168v-108h-193v-73z" />
<glyph unicode="&#xacac;" d="M47 270l52 -65q198 70 307 206t120 317q-94 -2 -281 -2h-145v-74h84q160 0 239 3q-18 -136 -115.5 -234.5t-260.5 -150.5zM211 -115h590v75h-503v202h-87v-277zM503 314h192v-198h86v664h-86v-187h-157v-72h158v-134h-193v-73z" />
<glyph unicode="&#xacaf;" d="M48 329l50 -68q190 59 301 188t122 293q-94 -2 -277 -2h-145v-74h88q155 0 234 3q-46 -242 -373 -340zM214 -119h585v75h-499v185h483v74h-569v-334zM493 368h202v-101h86v513h-86v-163h-167v-72h168v-104h-203v-73z" />
<glyph unicode="&#xacb0;" d="M57 379l48 -69q187 56 299 171t123 261q-94 -2 -277 -2h-151v-73h92q155 0 234 3q-57 -204 -368 -291zM207 106v-229h594v74h-509v85h489v225h-574v-72h489v-83h-489zM522 411h173v-98h86v467h-86v-134h-148v-72h149v-90h-174v-73z" />
<glyph unicode="&#xacb8;" d="M49 336l50 -68q190 58 301.5 185t122.5 289q-94 -2 -278 -2h-146v-74h87q156 0 235 3q-47 -236 -372 -333zM211 -119h570v332h-570v-332zM297 -44v181h398v-181h-398zM523 397h172v-132h86v515h-86v-133h-147v-72h148v-105h-173v-73z" />
<glyph unicode="&#xacb9;" d="M52 353l49 -68q189 58 300.5 180t122.5 277q-94 -2 -277 -2h-148v-74h89q155 0 234 3q-52 -222 -370 -316zM209 -119h572v369h-85v-111h-401v106h-86v-364zM294 -44v112h402v-112h-402zM523 385h172v-83h86v478h-86v-138h-147v-72h148v-112h-173v-73z" />
<glyph unicode="&#xacbb;" d="M46 291l52 -65q191 60 301.5 197.5t121.5 318.5q-94 -2 -277 -2h-145v-74h86q156 0 235 3q-18 -135 -114 -230.5t-260 -147.5zM126 -64l52 -69q90 21 170.5 73.5t131.5 123.5q51 -74 132.5 -125.5t171.5 -71.5l49 70q-103 20 -185 72.5t-127 126.5q22 54 23 107h-94 q-6 -116 -93 -195t-231 -112zM523 365h172v-196h86v611h-86v-148h-147v-72h148v-122h-173v-73z" />
<glyph unicode="&#xacbc;" d="M49 336l50 -68q190 58 301.5 185t122.5 289q-94 -2 -278 -2h-146v-74h89q156 0 235 3q-24 -118 -119.5 -202t-254.5 -131zM103 -70l60 -62q120 62 180 169q58 -105 146 -169q100 62 154 166q62 -106 176 -163l55 63q-164 81 -198 191q11 46 11 91h-86q7 -81 -21.5 -139.5 t-83.5 -107.5q-80 60 -118 158q11 42 11 85h-88q10 -184 -198 -282zM523 367h172v-107h86v520h-86v-148h-147v-72h148v-120h-173v-73z" />
<glyph unicode="&#xacbd;" d="M47 322l51 -67q191 59 301.5 189.5t121.5 297.5q-94 -2 -277 -2h-145v-74h88q155 0 234 3q-22 -123 -118 -211t-256 -136zM184 41q0 -81 78 -131.5t223 -50.5q147 0 225.5 50t78.5 131q0 82 -78.5 132.5t-225.5 50.5q-145 0 -223 -50t-78 -132zM273 41q0 47 54.5 78.5 t157.5 31.5q105 0 159.5 -31t54.5 -79q0 -47 -54.5 -78.5t-159.5 -31.5q-103 0 -157.5 31.5t-54.5 78.5zM523 377h172v-149h86v552h-86v-143h-147v-72h148v-115h-173v-73z" />
<glyph unicode="&#xacc1;" d="M52 359l49 -68q191 58 303.5 177.5t123.5 273.5q-94 -2 -281 -2h-148v-74h89q159 0 238 3q-50 -214 -374 -310zM216 -123h585v72h-500v88h480v69h-480v81h482v72h-567v-382zM523 389h172v-78h86v469h-86v-148h-147v-72h148v-98h-173v-73z" />
<glyph unicode="&#xacc4;" d="M25 123l62 -58q229 151 306 407h142v-140h-152v-73h151v-369h86v880h-86v-225h-123q14 69 17 157q-80 -2 -238 -2h-121v-72h65q135 0 203 3q-8 -155 -86.5 -285t-225.5 -223zM710 -133h86v913h-86v-913z" />
<glyph unicode="&#xacc8;" d="M46 274l52 -66q220 95 308 299h147v-116h-144v-73h143v-197h82v649h-82v-190h-121q18 64 20 144q-80 -2 -225 -2h-121v-72h65q122 0 190 3q-10 -124 -96.5 -227.5t-217.5 -151.5zM230 -115h589v75h-502v208h-87v-283zM721 101h83v679h-83v-679z" />
<glyph unicode="&#xaccc;" d="M47 352l54 -67q228 88 313 274h139v-90h-144v-71h143v-90h82v462h-82v-140h-112q13 52 15 110q-80 -2 -222 -2h-127v-72h68q122 0 190 3q-16 -106 -101.5 -191.5t-215.5 -125.5zM215 103v-226h609v73h-524v82h504v224h-589v-73h504v-80h-504zM721 308h83v472h-83v-472z " />
<glyph unicode="&#xacd5;" d="M47 334l52 -67q111 44 191.5 119t121.5 172h141v-82h-144v-73h143v-101h82v468h-82v-139h-116q12 48 14 109q-79 -2 -220 -2h-124v-72h65q121 0 189 3q-15 -112 -98.5 -202t-214.5 -133zM217 -119h587v369h-85v-111h-416v106h-86v-364zM302 -45v113h417v-113h-417z M721 302h83v478h-83v-478z" />
<glyph unicode="&#xacd7;" d="M48 290l51 -66q104 46 181 122.5t119 175.5h154v-99h-144v-73h143v-85h82v505h-82v-175h-128q19 73 19 145q-79 -2 -218 -2h-119v-72h63q118 0 184 3q-9 -124 -92.5 -227.5t-212.5 -151.5zM110 -64l53 -69q97 23 181 76t134 125q52 -75 136 -128t175 -73l49 70 q-106 20 -191 73.5t-130 129.5q17 43 17 89h-94q-11 -219 -330 -293zM721 162h83v618h-83v-618z" />
<glyph unicode="&#xace0;" d="M21 3h850v73h-437v327h-87v-327h-326v-73zM151 624h504q-7 -240 -57 -433h84q24 109 40.5 249.5t17.5 259.5h-589v-76z" />
<glyph unicode="&#xace1;" d="M11 286h870v74h-457v193h-89v-193h-324v-74zM132 680h518q-1 -98 -25 -260h85q24 167 27 335h-605v-75zM137 100h517v-236h86v309h-603v-73z" />
<glyph unicode="&#xace4;" d="M11 254h870v74h-457v215h-89v-215h-324v-74zM132 680h518q-1 -107 -25 -278h85q24 177 27 353h-605v-75zM153 -119h605v75h-519v217h-86v-292z" />
<glyph unicode="&#xace7;" d="M11 303h870v74h-457v184h-89v-184h-324v-74zM132 680h518q-3 -103 -25 -241h85q24 152 27 316h-605v-75zM152 -119h607v75h-521v170h504v74h-590v-319z" />
<glyph unicode="&#xace8;" d="M11 351h870v71h-457v164h-89v-164h-324v-71zM132 680h518q-2 -74 -25 -205h85q25 142 27 280h-605v-75zM151 104v-237h614v71h-529v98h505v234h-590v-71h505v-95h-505z" />
<glyph unicode="&#xacea;" d="M11 351h870v71h-457v164h-89v-164h-324v-71zM132 680h518q-2 -74 -25 -205h85q25 142 27 280h-605v-75zM135 107v-240h134q117 0 178 18v71q-62 -17 -150 -17h-79v99h198v236h-281v-71h199v-96h-199zM469 -133h282v407h-282v-407zM545 -64v270h124v-270h-124z" />
<glyph unicode="&#xacec;" d="M11 351h870v71h-457v164h-89v-164h-324v-71zM132 680h518q-2 -74 -25 -205h85q25 142 27 280h-605v-75zM133 107v-240h135q116 0 178 18v7l47 -40q102 80 147 183q45 -103 141 -179l61 63q-134 89 -167 240q9 60 8 126h-83q19 -243 -154 -363v34q-62 -17 -150 -17h-80v99 h220v238h-303v-71h219v-98h-219z" />
<glyph unicode="&#xacef;" d="M11 351h870v71h-457v164h-89v-164h-324v-71zM125 107v-240h135q116 0 178 18v71q-62 -17 -150 -17h-80v103h205v231h-288v-70h204v-96h-204zM132 680h518q-2 -74 -25 -205h85q25 142 27 280h-605v-75zM443 112h372v62h-372v-62zM471 -30q0 -57 42 -89t113 -32 q72 0 114 32t42 89q1 54 -40.5 86.5t-115.5 32.5t-114.5 -32.5t-40.5 -86.5zM532 212h201v65h-201v-65zM551 -30q0 55 75 55q78 0 78 -55q0 -56 -78 -56q-75 0 -75 56z" />
<glyph unicode="&#xacf0;" d="M11 305h870v74h-457v187h-89v-187h-324v-74zM132 680h518q-2 -97 -25 -236h85q24 153 27 311h-605v-75zM152 -119h588v321h-588v-321zM238 -44v172h416v-172h-416z" />
<glyph unicode="&#xacf1;" d="M11 319h870v74h-457v176h-89v-176h-324v-74zM132 680h518q-2 -92 -25 -224h85q24 145 27 299h-605v-75zM152 -119h588v373h-86v-102h-416v102h-86v-373zM237 -45v125h418v-125h-418z" />
<glyph unicode="&#xacf3;" d="M11 286h870v74h-457v193h-89v-193h-324v-74zM76 -61l47 -72q94 20 179 71t138 121q52 -63 144 -117.5t186 -74.5l47 72q-250 60 -335 193q21 49 22 96h-90q-4 -107 -100.5 -185.5t-237.5 -103.5zM132 680h518q-1 -98 -25 -260h85q24 167 27 335h-605v-75z" />
<glyph unicode="&#xacf5;" d="M11 295h870v74h-457v186h-89v-186h-324v-74zM130 42q0 -80 81.5 -131.5t229.5 -51.5q147 0 228 51.5t81 131.5q0 81 -80 130.5t-229 49.5t-230 -49.5t-81 -130.5zM132 680h518q-3 -109 -25 -254h85q24 158 27 329h-605v-75zM224 42q0 46 51.5 77t165.5 31t165 -31t51 -77 q0 -45 -51.5 -77t-164.5 -32t-165 32t-52 77z" />
<glyph unicode="&#xacf6;" d="M11 313h870v74h-457v180h-89v-180h-324v-74zM69 -66l52 -69q171 39 331 113q166 -72 336 -109l52 68q-176 37 -301 85q146 85 189 168q7 11 3.5 20t-16.5 9q-92 -2 -258 -2h-299v-74h199q148 0 229 3q-58 -56 -200 -116t-317 -96zM132 680h518q-2 -102 -25 -248h85 q24 159 27 323h-605v-75z" />
<glyph unicode="&#xacfc;" d="M11 71h188q238 0 418 27v69q-140 -17 -312 -21v298h-84v-299h-210v-74zM71 622h373q-4 -241 -40 -377h85q36 135 41 451h-459v-74zM662 -133h83v478h145v74h-145v361h-83v-913z" />
<glyph unicode="&#xacfd;" d="M15 264h148q258 0 457 28v71q-120 -17 -311 -22v193h-87v-196h-207v-74zM88 662h366q-5 -129 -31 -253h84q29 137 33 326h-452v-73zM160 91h504v-227h86v303h-590v-76zM664 219h86v203h132v76h-132v282h-86v-561z" />
<glyph unicode="&#xad00;" d="M15 242h148q258 0 457 28v71q-115 -16 -317 -23v199h-87v-201h-201v-74zM88 660h366q-5 -133 -31 -263h84q29 143 33 336h-452v-73zM170 -115h595v75h-508v182h-87v-257zM664 81h86v311h132v76h-132v312h-86v-699z" />
<glyph unicode="&#xad04;" d="M15 331h148q258 0 457 28v70q-120 -17 -311 -22v156h-87v-159h-207v-73zM88 672h366q-4 -95 -31 -204h84q30 123 33 275h-452v-71zM176 105v-228h594v75h-509v80h489v224h-574v-75h489v-76h-489zM664 309h86v192h132v76h-132v203h-86v-471z" />
<glyph unicode="&#xad06;" d="M15 331h148q258 0 457 28v70q-120 -17 -311 -22v156h-87v-159h-207v-73zM88 672h366q-4 -95 -31 -204h84q30 123 33 275h-452v-71zM144 106v-229h130q113 0 178 19v73q-66 -18 -150 -18h-75v84h192v224h-275v-73h193v-80h-193zM474 -123h276v382h-276v-382zM550 -54v245 h118v-245h-118zM664 312h86v181h132v76h-132v211h-86v-468z" />
<glyph unicode="&#xad0c;" d="M15 282h148q258 0 457 28v71q-116 -16 -321 -23v181h-87v-183h-197v-74zM78 665h366q-5 -125 -31 -240h84q29 129 33 312h-452v-72zM180 -119h570v310h-570v-310zM266 -45v161h398v-161h-398zM664 242h86v200h132v76h-132v262h-86v-538z" />
<glyph unicode="&#xad0d;" d="M15 297h148q258 0 457 28v70q-116 -16 -321 -23v177h-87v-179h-197v-73zM78 674h366q-5 -123 -31 -235h84q29 125 33 307h-452v-72zM178 -119h572v347h-85v-98h-401v88h-86v-337zM263 -45v104h402v-104h-402zM664 277h86v192h132v76h-132v235h-86v-503z" />
<glyph unicode="&#xad0f;" d="M15 282h148q258 0 457 28v71q-116 -16 -321 -23v186h-87v-188h-197v-74zM78 670h366q-5 -125 -31 -240h84q29 129 33 312h-452v-72zM101 -60l48 -72q224 61 321 197q91 -133 316 -192l47 72q-250 55 -321 204q11 37 13 65h-90q-5 -97 -95.5 -169t-238.5 -105zM664 188h86 v262h132v76h-132v254h-86v-592z" />
<glyph unicode="&#xad11;" d="M15 275h148q258 0 457 28v71q-116 -16 -321 -23v191h-87v-193h-197v-74zM78 669h366q-4 -117 -31 -243h84q29 138 33 316h-452v-73zM152 33q0 -79 78 -126.5t225 -47.5q146 0 224 47t78 126q0 78 -78.5 126t-223.5 48q-146 0 -224.5 -47.5t-78.5 -125.5zM241 31 q0 43 55 72.5t158 29.5q105 0 159 -29t54 -73q0 -43 -53.5 -70.5t-159.5 -27.5q-104 0 -158.5 27.5t-54.5 70.5zM664 211h86v248h132v76h-132v245h-86v-569z" />
<glyph unicode="&#xad18;" d="M21 76h119q198 0 334 25v71q-112 -18 -231 -21v257h-80v-259h-142v-73zM64 613h283q-7 -220 -33 -374h80q29 175 33 447h-363v-73zM523 -110h81v451h114v-474h83v913h-83v-366h-114v356h-81v-880z" />
<glyph unicode="&#xad1c;" d="M27 231h113q203 0 351 23v71q-90 -13 -226 -18v201h-80v-204h-158v-73zM83 638h286q-3 -136 -25 -267h79q25 157 27 340h-367v-73zM202 -115h618v75h-531v174h-87v-249zM537 110h83v309h101v-329h84v690h-84v-287h-101v277h-83v-660z" />
<glyph unicode="&#xad20;" d="M27 333h118q203 0 351 23v70q-102 -14 -234 -19v161h-84v-163h-151v-72zM81 674h293q-3 -103 -25 -201h80q23 106 27 270h-375v-69zM208 104v-227h617v71h-532v87h512v224h-597v-71h512v-84h-512zM542 312h83v187h96v-187h84v468h-84v-208h-96v198h-83v-458z" />
<glyph unicode="&#xad29;" d="M27 302h118q203 0 351 23v69q-102 -14 -236 -19v179h-84v-181h-149v-71zM81 671h294q-3 -118 -25 -230h79q23 123 27 301h-375v-71zM210 -119h595v347h-85v-98h-424v88h-86v-337zM295 -45v104h425v-104h-425zM542 277h83v212h96v-212h84v503h-84v-218h-96v208h-83v-493z " />
<glyph unicode="&#xad2c;" d="M27 287h119q202 0 350 23v71q-104 -14 -236 -19v180h-84v-182h-149v-73zM81 671h293q-3 -122 -25 -239h79q23 127 27 311h-374v-72zM94 -71l61 -61q122 56 185 160q60 -100 152 -160q102 57 158 160q59 -100 183 -157l55 61q-170 80 -204 182q11 47 11 92h-86 q13 -142 -110 -239q-86 56 -123 147q12 42 12 88h-88q5 -91 -50.5 -160.5t-155.5 -112.5zM542 250h83v229h96v-229h84v530h-84v-227h-96v217h-83v-520z" />
<glyph unicode="&#xad2d;" d="M27 272h119q202 0 350 23v71q-104 -14 -236 -19v189h-84v-191h-149v-73zM81 671h293q-4 -139 -25 -254h79q23 125 27 326h-374v-72zM179 30q0 -76 81.5 -123.5t231.5 -47.5q153 0 234 47t81 124q0 76 -81 123t-234 47q-151 0 -232 -46.5t-81 -123.5zM270 29 q0 43 56.5 71.5t165.5 28.5q110 0 167 -28.5t57 -71.5q0 -42 -57 -69.5t-167 -27.5q-109 0 -165.5 27.5t-56.5 69.5zM542 240h83v230h96v-260h84v570h-84v-236h-96v226h-83v-530z" />
<glyph unicode="&#xad34;" d="M36 71h186q257 0 447 28v70q-161 -20 -340 -23v298h-84v-299h-209v-74zM93 622h390q-4 -241 -40 -377h85q36 135 41 451h-476v-74zM719 -133h86v913h-86v-913z" />
<glyph unicode="&#xad35;" d="M41 264h177q258 0 457 28v72q-138 -18 -337 -23v205h-87v-207h-210v-75zM117 662h386q-5 -129 -31 -253h84q29 137 33 326h-472v-73zM199 91h520v-227h86v303h-606v-76zM719 219h86v561h-86v-561z" />
<glyph unicode="&#xad38;" d="M46 242h172q258 0 457 28v71q-143 -20 -337 -23v199h-87v-201h-205v-74zM117 660h386q-5 -133 -31 -263h84q29 143 33 336h-472v-73zM216 -115h603v75h-516v182h-87v-257zM719 81h86v699h-86v-699z" />
<glyph unicode="&#xad3c;" d="M41 327h177q254 0 457 27v70q-128 -17 -337 -22v163h-87v-165h-210v-73zM117 672h386q-4 -98 -31 -207h84q29 123 33 278h-472v-71zM215 103v-226h609v73h-524v82h504v219h-589v-73h504v-75h-504zM719 303h86v477h-86v-477z" />
<glyph unicode="&#xad44;" d="M41 281h177q258 0 457 28v72q-138 -18 -337 -23v175h-87v-177h-210v-75zM117 665h386q-5 -125 -31 -240h84q29 129 33 312h-472v-72zM220 -119h585v310h-585v-310zM306 -45v161h413v-161h-413zM719 242h86v538h-86v-538z" />
<glyph unicode="&#xad45;" d="M41 297h177q254 0 457 27v70q-128 -17 -337 -22v177h-87v-179h-210v-73zM117 674h386q-5 -123 -31 -235h84q29 125 33 307h-472v-72zM217 -119h587v347h-85v-98h-416v88h-86v-337zM302 -45v104h417v-104h-417zM719 277h86v503h-86v-503z" />
<glyph unicode="&#xad47;" d="M41 276h177q258 0 457 28v72q-138 -18 -337 -23v176h-87v-178h-210v-75zM117 665h386q-5 -125 -31 -240h84q29 129 33 312h-472v-72zM141 -61l47 -72q232 60 328 194q91 -132 322 -188l47 71q-255 52 -327 200q10 26 13 61h-90q-7 -95 -98.5 -165t-241.5 -101zM719 182 h86v598h-86v-598z" />
<glyph unicode="&#xad49;" d="M41 281h177q258 0 457 28v72q-138 -18 -337 -23v175h-87v-177h-210v-75zM117 665h386q-5 -125 -31 -240h84q29 129 33 312h-472v-72zM189 35q0 -79 80.5 -127.5t228.5 -48.5q151 0 231 48.5t80 127.5t-80.5 127.5t-230.5 48.5q-149 0 -229 -48.5t-80 -127.5zM279 34 q0 45 56 75t163 30q108 0 164.5 -30t56.5 -75q0 -44 -56.5 -73t-164.5 -29q-107 0 -163 29t-56 73zM719 222h86v558h-86v-558z" />
<glyph unicode="&#xad50;" d="M21 8h850v73h-337v310h-81v-311h-118v311h-81v-310h-233v-73zM150 631h509q-7 -240 -57 -433h84q24 109 40.5 249.5t17.5 259.5h-594v-76z" />
<glyph unicode="&#xad54;" d="M11 248h870v73h-336v213h-87v-214h-123v214h-87v-213h-237v-73zM132 678h518q-1 -107 -25 -278h85q24 177 27 353h-605v-75zM153 -119h605v75h-519v214h-86v-289z" />
<glyph unicode="&#xad58;" d="M11 340h870v70h-342v166h-87v-167h-117v167h-87v-166h-237v-70zM132 680h518q-2 -78 -25 -208h85q25 141 27 283h-605v-75zM151 98v-231h614v71h-529v92h505v230h-590v-71h505v-91h-505z" />
<glyph unicode="&#xad61;" d="M11 313h870v73h-335v174h-87v-175h-124v175h-87v-174h-237v-73zM132 680h518q-2 -92 -25 -224h85q24 145 27 299h-605v-75zM152 -119h588v366h-86v-98h-416v98h-86v-366zM237 -44v121h418v-121h-418z" />
<glyph unicode="&#xad63;" d="M11 280h870v73h-326v188h-87v-189h-125v189h-87v-188h-245v-73zM80 -62l47 -70q97 20 182.5 69t137.5 118q51 -61 141.5 -113.5t185.5 -73.5l47 72q-247 58 -333 186q19 45 20 90h-90q-4 -105 -100 -179.5t-238 -98.5zM132 680h518q-1 -98 -25 -260h85q24 167 27 335 h-605v-75z" />
<glyph unicode="&#xad6c;" d="M21 263h390v-391h88v391h372v73h-160q35 225 35 404h-595v-74h508q0 -140 -31 -330h-607v-73z" />
<glyph unicode="&#xad6d;" d="M11 363h394v-185h-268v-73h517v-241h86v314h-246v185h387v74h-168q21 162 24 317h-595v-75h508q-1 -94 -21 -242h-618v-74z" />
<glyph unicode="&#xad70;" d="M11 317h410v-246h89v246h371v74h-170q23 182 26 363h-595v-75h508q-1 -118 -24 -288h-615v-74zM153 -119h615v75h-529v215h-86v-290z" />
<glyph unicode="&#xad73;" d="M11 361h394v-159h-253v-321h607v75h-521v172h504v74h-248v159h387v74h-170q23 156 26 319h-595v-75h508q-3 -109 -24 -244h-615v-74z" />
<glyph unicode="&#xad74;" d="M11 397h394v-120h-254v-71h505v-99h-505v-240h614v71h-529v101h505v238h-247v120h387v71h-169q22 145 25 289h-595v-75h508q-2 -91 -23 -214h-616v-71z" />
<glyph unicode="&#xad75;" d="M11 398h394v-120h-269v-71h211v-97h-211v-243h184q116 0 178 18v72q-62 -17 -150 -17h-129v101h215v199h38v-35h191v-358h86v431h-255v120h387v71h-169q22 131 25 288h-595v-75h508q-3 -92 -23 -213h-616v-71z" />
<glyph unicode="&#xad76;" d="M11 398h394v-120h-270v-71h199v-100h-199v-240h134q117 0 178 18v71q-62 -17 -150 -17h-79v99h198v202h53v-373h282v411h-257v120h387v71h-169q22 131 25 288h-595v-75h508q-3 -92 -23 -213h-616v-71zM545 -64v274h124v-274h-124z" />
<glyph unicode="&#xad7b;" d="M11 398h388v-120h-270v-70h204v-104h-204v-237h135q116 0 178 18v71q-62 -17 -150 -17h-80v100h205v211h71v148h393v71h-169q22 131 25 288h-595v-75h508q-3 -92 -23 -213h-616v-71zM447 117h372v62h-372v-62zM475 -30q0 -57 42 -89t113 -32q72 0 114 32t42 89 q1 54 -40.5 86.5t-115.5 32.5t-114.5 -32.5t-40.5 -86.5zM536 217h201v65h-201v-65zM555 -30q0 55 75 55q78 0 78 -55q0 -56 -78 -56q-75 0 -75 56z" />
<glyph unicode="&#xad7c;" d="M11 361h394v-159h-253v-321h588v321h-246v159h387v74h-170q23 156 26 319h-595v-75h508q-3 -109 -24 -244h-615v-74zM238 -44v172h416v-172h-416z" />
<glyph unicode="&#xad7d;" d="M11 367h394v-155h89v155h387v74h-169q22 157 25 315h-595v-75h508q-3 -106 -23 -240h-616v-74zM152 -119h588v377h-86v-106h-416v105h-86v-376zM237 -45v125h418v-125h-418z" />
<glyph unicode="&#xad7f;" d="M11 346h394v-116h89v116h387v74h-168q21 166 24 334h-595v-75h508q-1 -115 -22 -259h-617v-74zM76 -61l47 -71q97 19 182.5 65t136.5 110q52 -58 142.5 -107t185.5 -68l47 71q-247 54 -332 173q18 43 19 84h-90q-4 -99 -99.5 -166.5t-238.5 -90.5z" />
<glyph unicode="&#xad81;" d="M11 346h394v-129q-130 -7 -200 -54.5t-70 -121.5q0 -80 81.5 -131t229.5 -51t228.5 51t80.5 131q0 73 -67.5 120.5t-193.5 55.5v129h387v74h-170q23 159 26 334h-595v-75h508q-1 -111 -24 -259h-615v-74zM229 41q0 45 51.5 76t165.5 31t165 -31t51 -76t-51.5 -76.5 t-164.5 -31.5q-114 0 -165.5 31.5t-51.5 76.5z" />
<glyph unicode="&#xad82;" d="M11 380h394v-128h89v128h387v74h-168q22 155 24 300h-595v-75h508q-1 -89 -22 -225h-617v-74zM68 -66l52 -69q171 39 331 113q166 -72 336 -109l52 68q-176 37 -301 85q146 85 189 168q7 11 3.5 20t-16.5 9q-92 -2 -258 -2h-299v-74h199q148 0 229 3q-58 -56 -200 -116 t-317 -96z" />
<glyph unicode="&#xad88;" d="M36 278h189q47 0 72 1v-392h88v394q184 9 287 25v71q-53 -7 -158 -15q31 133 35 348h-442v-74h356q-3 -150 -35 -279q-87 -4 -189 -4h-203v-75zM513 94h208v-227h84v913h-84v-611h-208v-75z" />
<glyph unicode="&#xad89;" d="M42 375h166q58 0 89 1v-189h88v192q168 8 280 24v70q-68 -8 -141 -14q21 103 25 275h-448v-72h362q-5 -124 -24 -208q-123 -6 -232 -6h-165v-73zM189 70h530v-206h86v282h-616v-76zM507 253h212v-56h86v583h-86v-455h-212v-72z" />
<glyph unicode="&#xad8c;" d="M42 344h166q70 0 107 2v-230h87v233q151 8 263 23v70q-52 -7 -122 -12q22 121 26 299h-448v-72h362q-3 -131 -25 -233q-123 -7 -251 -7h-165v-73zM185 -115h635v74h-550v197h-85v-271zM510 194h209v-113h86v699h-86v-513h-209v-73z" />
<glyph unicode="&#xad90;" d="M37 436h224v-163h88v166q178 6 316 25v67q-72 -9 -137 -13q17 89 21 228h-448v-72h362q-3 -93 -20 -162q-125 -6 -236 -6h-170v-70zM215 94v-217h610v73h-525v73h506v213h-591v-73h505v-69h-505zM475 330h244v-47h86v497h-86v-385h-244v-65z" />
<glyph unicode="&#xad9c;" d="M37 407h223v-188h88v191q180 6 317 25v70q-68 -8 -141 -14q21 99 25 254h-448v-72h362q-5 -108 -24 -187q-123 -6 -232 -6h-170v-73zM107 -71l61 -61q123 51 183 144q53 -87 150 -144q103 51 157 143q57 -89 180 -141l55 64q-167 74 -201 160q10 45 10 83h-86 q13 -126 -108 -208q-84 48 -121 124q11 39 11 81h-88q10 -153 -203 -245zM475 280h244v-63h86v563h-86v-428h-244v-72z" />
<glyph unicode="&#xad9d;" d="M37 407h224v-184h88v187q178 6 316 25v70q-69 -8 -139 -14q19 106 23 254h-448v-72h362q-3 -96 -22 -187q-124 -6 -234 -6h-170v-73zM189 26q0 -76 80 -121.5t229 -45.5q151 0 231 45.5t80 121.5q0 77 -80 123.5t-231 46.5q-149 0 -229 -46.5t-80 -123.5zM279 23 q0 44 55.5 72t163.5 28q109 0 165 -28t56 -72q0 -39 -56 -64.5t-165 -25.5q-108 0 -163.5 25.5t-55.5 64.5zM475 275h244v-76h86v581h-86v-433h-244v-72z" />
<glyph unicode="&#xada4;" d="M7 287h198v-385h82v388q123 5 215 22v68q-36 -6 -110 -14q24 152 27 338h-352v-72h270q-3 -135 -26 -271q-61 -4 -133 -4h-171v-70zM379 113h164v-216h82v873h-82v-585h-164v-72zM713 -133h83v913h-83v-913z" />
<glyph unicode="&#xadb7;" d="M23 370h135q44 0 68 1v-200h84v203q119 7 199 19v67q-55 -8 -96 -10q18 120 22 269h-354v-71h273q-3 -106 -21 -203q-78 -5 -175 -5h-135v-70zM121 -62l44 -71q235 50 332 178q90 -123 324 -172l44 71q-122 20 -207 66t-120 113q10 29 13 55h-90q-10 -90 -100 -151.5 t-240 -88.5zM404 266h145v-55h82v559h-82v-439h-145v-65zM722 142h83v638h-83v-638z" />
<glyph unicode="&#xadc0;" d="M36 246h187q54 0 83 1v-360h88v363q156 7 276 24v71q-53 -7 -158 -15q31 137 35 380h-442v-74h356q-3 -178 -35 -311q-87 -4 -189 -4h-201v-75zM719 -133h86v913h-86v-913z" />
<glyph unicode="&#xadc1;" d="M36 360h172q61 0 93 1v-161h88v164q166 8 276 24v72q-46 -6 -143 -14q23 111 27 290h-448v-72h362q-5 -131 -26 -223q-123 -6 -230 -6h-171v-75zM194 83h525v-219h86v295h-611v-76zM719 210h86v570h-86v-570z" />
<glyph unicode="&#xadc4;" d="M36 325h172q34 0 114 2v-202h86v205q148 8 257 23v72q-41 -6 -125 -13q25 114 29 315h-448v-72h362q-3 -143 -29 -248q-122 -7 -247 -7h-171v-75zM175 -115h645v74h-558v175h-87v-249zM719 91h86v689h-86v-689z" />
<glyph unicode="&#xadc8;" d="M36 405h172q43 0 66 1v-108h88v110q188 9 303 25v70q-47 -6 -146 -14q26 102 30 257h-448v-72h362q-5 -105 -30 -190q-120 -6 -226 -6h-171v-73zM215 102v-225h610v73h-525v83h505v223h-590v-73h504v-81h-504zM719 308h86v472h-86v-472z" />
<glyph unicode="&#xadd0;" d="M36 378h172q58 0 89 1v-158h88v161q168 8 280 24v72q-46 -6 -131 -13q21 100 25 271h-443v-72h357q-5 -125 -24 -204q-119 -7 -242 -7h-171v-75zM219 -119h586v299h-586v-299zM305 -45v150h414v-150h-414zM719 231h86v549h-86v-549z" />
<glyph unicode="&#xadd1;" d="M36 388h172q35 0 119 2v-164h86v168q138 6 252 22v72q-53 -7 -121 -12q21 99 25 270h-443v-72h357q-5 -125 -24 -204q-125 -7 -252 -7h-171v-75zM207 -119h598v347h-85v-89h-427v84h-86v-342zM292 -45v113h428v-113h-428zM719 273h86v507h-86v-507z" />
<glyph unicode="&#xadd3;" d="M36 346h172q55 0 84 1v-206h88v209q173 9 285 24v72q-39 -5 -126 -13q21 115 25 297h-441v-75h355q-3 -130 -25 -227q-120 -7 -246 -7h-171v-75zM141 -60l48 -72q231 61 327 198q92 -134 322 -193l47 72q-255 56 -327 205q10 28 13 64h-90q-5 -97 -97.5 -169t-242.5 -105 zM719 161h86v619h-86v-619z" />
<glyph unicode="&#xaddc;" d="M21 265h237v-393h87v393h225v-393h87v393h214v73h-160q35 225 35 402h-595v-74h508q0 -138 -31 -328h-607v-73z" />
<glyph unicode="&#xade0;" d="M11 324h301v-250h87v251h158v-251h87v250h237v73h-169q23 191 25 357h-595v-75h508q-1 -107 -23 -282h-616v-73zM143 -119h635v75h-549v217h-86v-292z" />
<glyph unicode="&#xade4;" d="M11 404h235v-126h-95v-71h505v-100h-505v-240h614v71h-529v101h505v239h-96v126h236v69h-169q23 144 25 283h-595v-75h508q-2 -84 -23 -208h-616v-69zM333 278v127h225v-127h-225z" />
<glyph unicode="&#xadf8;" d="M21 7h850v73h-196q57 334 63 617h-587v-76h498q-6 -264 -62 -541h-566v-73z" />
<glyph unicode="&#xadf9;" d="M11 336h870v74h-168q21 171 24 340h-595v-75h508q-1 -115 -22 -265h-617v-74zM137 128h517v-264h86v338h-603v-74z" />
<glyph unicode="&#xadfc;" d="M11 293h870v74h-169q22 197 25 383h-595v-75h508q0 -118 -23 -308h-616v-74zM153 -119h605v75h-519v229h-86v-304z" />
<glyph unicode="&#xadff;" d="M11 335h870v74h-169q22 170 25 341h-595v-75h508q-1 -113 -23 -266h-616v-74zM152 -119h607v75h-521v184h504v74h-590v-333z" />
<glyph unicode="&#xae00;" d="M11 387h870v71h-169q22 138 25 292h-595v-75h508q-2 -90 -23 -217h-616v-71zM151 116v-249h614v71h-529v110h505v242h-590v-71h505v-103h-505z" />
<glyph unicode="&#xae01;" d="M11 389h870v71h-168q21 144 24 290h-595v-75h508q-3 -99 -22 -215h-617v-71zM136 114v-247h184q116 0 178 18v71q-62 -17 -150 -17h-129v106h215v243h-298v-71h211v-103h-211zM472 215h191v-368h86v441h-277v-73z" />
<glyph unicode="&#xae08;" d="M11 349h870v74h-169q22 167 25 327h-595v-75h508q-1 -101 -23 -252h-616v-74zM152 -119h588v333h-588v-333zM238 -44v184h416v-184h-416z" />
<glyph unicode="&#xae09;" d="M11 358h870v74h-169q22 148 25 318h-595v-75h508q-3 -105 -23 -243h-616v-74zM152 -119h588v379h-86v-112h-416v112h-86v-379zM237 -46v122h418v-122h-418z" />
<glyph unicode="&#xae0b;" d="M11 319h870v74h-171q25 208 27 357h-595v-75h508q-1 -106 -25 -282h-614v-74zM76 -61l45 -71q96 21 181 72.5t138 122.5q53 -64 145 -119.5t186 -75.5l46 71q-251 62 -334 197q19 46 21 96h-90q-4 -110 -100 -188.5t-238 -104.5z" />
<glyph unicode="&#xae0d;" d="M11 333h870v74h-169q22 175 25 343h-595v-75h508q-1 -110 -23 -268h-616v-74zM137 46q0 -82 81.5 -134.5t229.5 -52.5t228.5 52.5t80.5 134.5t-80 132t-229 50q-150 0 -230.5 -50t-80.5 -132zM231 45q0 48 51.5 80.5t165.5 32.5t165 -32.5t51 -80.5q0 -47 -51.5 -79.5 t-164.5 -32.5q-114 0 -165.5 32.5t-51.5 79.5z" />
<glyph unicode="&#xae14;" d="M36 79h189q257 0 447 28v70q-84 -10 -161 -15q46 228 49 526h-464v-74h378q-3 -244 -49 -457q-85 -4 -186 -4h-203v-74zM722 -128l83 -5v913h-83v-908z" />
<glyph unicode="&#xae30;" d="M37 126l58 -63q390 209 420 640q-94 -2 -281 -2h-160v-74h106q160 0 241 3q-21 -156 -117.5 -287.5t-266.5 -216.5zM695 -133h86v913h-86v-913z" />
<glyph unicode="&#xae31;" d="M49 322l51 -67q191 59 303.5 190t123.5 297q-94 -2 -281 -2h-145v-74h86q159 0 238 3q-22 -122 -118.5 -210t-257.5 -137zM191 123h504v-259h86v334h-590v-75zM695 250h86v530h-86v-530z" />
<glyph unicode="&#xae34;" d="M47 270l52 -65q198 70 307 206t120 317q-94 -2 -281 -2h-145v-74h84q160 0 239 3q-18 -136 -115.5 -234.5t-260.5 -150.5zM211 -115h590v75h-503v202h-87v-277zM695 116h86v664h-86v-664z" />
<glyph unicode="&#xae37;" d="M38 329l50 -68q192 60 309 189.5t128 291.5q-94 -2 -281 -2h-155v-74h96q159 0 238 3q-23 -119 -123 -205t-262 -135zM214 -119h585v75h-499v185h483v74h-569v-334zM695 267h86v513h-86v-513z" />
<glyph unicode="&#xae38;" d="M47 377l48 -69q190 57 307.5 172.5t128.5 259.5q-94 -2 -281 -2h-161v-72h102q159 0 238 3q-57 -201 -382 -292zM207 114v-237h594v74h-509v90h489v235h-574v-74h489v-88h-489zM695 328h86v452h-86v-452z" />
<glyph unicode="&#xae3a;" d="M47 379l48 -69q190 57 307.5 172.5t128.5 259.5q-94 -2 -281 -2h-161v-72h102q159 0 238 3q-57 -201 -382 -292zM175 116v-239h129q113 0 178 19v73q-66 -18 -150 -18h-74v93h191v235h-274v-73h192v-90h-192zM506 -123h275v402h-275v-402zM582 -54v265h117v-265h-117z M695 331h86v449h-86v-449z" />
<glyph unicode="&#xae40;" d="M39 336l50 -68q192 59 309 186.5t128 287.5q-94 -2 -281 -2h-156v-74h97q159 0 238 3q-23 -117 -123.5 -201t-261.5 -132zM211 -119h570v335h-570v-335zM297 -44v184h398v-184h-398zM695 268h86v512h-86v-512z" />
<glyph unicode="&#xae41;" d="M42 353l49 -68q191 59 308.5 181t128.5 276q-94 -2 -281 -2h-158v-74h99q159 0 238 3q-26 -111 -126 -190t-258 -126zM209 -119h572v379h-85v-112h-402v107h-85v-374zM294 -44v121h402v-121h-402zM695 312h86v468h-86v-468z" />
<glyph unicode="&#xae43;" d="M36 291l52 -65q193 60 309.5 198.5t127.5 317.5q-94 -2 -281 -2h-155v-74h94q160 0 239 3q-18 -134 -119 -229.5t-267 -148.5zM122 -63l52 -69q94 23 176 76.5t132 126.5q51 -76 132.5 -129.5t171.5 -73.5l49 70q-104 21 -187 75.5t-127 131.5q17 45 19 98h-94 q-6 -118 -91.5 -194t-232.5 -112zM695 169h86v611h-86v-611z" />
<glyph unicode="&#xae45;" d="M37 322l51 -67q193 59 309.5 190.5t127.5 296.5q-94 -2 -281 -2h-155v-74h96q159 0 238 3q-22 -121 -122.5 -209.5t-263.5 -137.5zM184 45q0 -83 78.5 -134.5t223.5 -51.5q146 0 224.5 51.5t78.5 134.5t-78.5 134.5t-224.5 51.5q-145 0 -223.5 -51.5t-78.5 -134.5z M273 45q0 49 54.5 83t157.5 34q105 0 159.5 -34t54.5 -83q0 -50 -54.5 -83t-159.5 -33q-103 0 -157.5 33t-54.5 83zM695 243h86v537h-86v-537z" />
<glyph unicode="&#xae46;" d="M37 322l51 -67q193 59 309.5 190.5t127.5 296.5q-94 -2 -281 -2h-155v-74h96q159 0 238 3q-22 -121 -122.5 -209.5t-263.5 -137.5zM131 -65l45 -68q173 43 317 116q164 -74 311 -114l47 68q-136 35 -277 91q135 85 178 175q9 22 -13 22q-87 -2 -243 -2h-286v-73h194 q138 0 214 4q-53 -59 -183 -118.5t-304 -100.5zM695 275h86v505h-86v-505z" />
<glyph unicode="&#xae4a;" d="M42 353l49 -68q191 59 308.5 181t128.5 276q-94 -2 -281 -2h-158v-74h99q159 0 238 3q-26 -111 -126 -190t-258 -126zM170 -47v-72h635v72h-117l3 196h100v72h-611v-72h100l5 -196h-115zM366 149h239l-3 -196h-231zM695 273h86v507h-86v-507z" />
<glyph unicode="&#xae4c;" d="M6 182l70 -42q111 103 159 231t49 293v39q-56 -2 -167 -2h-73v-73h45q74 0 113 2q8 -273 -196 -448zM260 86l73 -39q217 255 214 613v43q-51 -2 -150 -2h-75v-73h50q59 0 89 2q3 -156 -46.5 -287.5t-154.5 -256.5zM659 -133h84v467h147v76h-147v370h-84v-913z" />
<glyph unicode="&#xae4d;" d="M-3 359l64 -51q112 77 174.5 187.5t66.5 243.5q-57 -2 -171 -2h-67v-73h37q76 0 116 2q-31 -196 -220 -307zM158 123h504v-259h86v334h-590v-75zM251 300l66 -49q243 191 244 488q-53 -2 -154 -2h-72v-73h50q60 0 91 2q-5 -98 -66 -198.5t-159 -167.5zM664 250h84v225 h134v76h-134v229h-84v-530z" />
<glyph unicode="&#xae4e;" d="M-4 370l63 -51q113 75 176 183t67 237q-57 -2 -171 -2h-67v-73h37q76 0 116 2q-32 -189 -221 -296zM132 125h209v-261h86v339h-295v-78zM252 312l65 -49q116 88 179.5 209t64.5 267q-53 -2 -154 -2h-72v-73h50q60 0 91 2q-6 -95 -66.5 -192.5t-157.5 -161.5zM470 125h192 v-261h86v339h-278v-78zM664 255h84v226h134v76h-134v223h-84v-525z" />
<glyph unicode="&#xae50;" d="M8 326l64 -50q222 162 230 451q-57 -2 -171 -2h-67v-73h38q76 0 116 2q-26 -211 -210 -328zM173 -115h595v73h-508v199h-87v-272zM257 265l66 -48q237 197 238 510q-53 -2 -154 -2h-72v-73h50q60 0 91 2q-3 -105 -61.5 -210t-157.5 -179zM664 112h84v314h134v76h-134v278 h-84v-668z" />
<glyph unicode="&#xae54;" d="M-9 418l62 -53q114 68 179.5 163.5t69.5 210.5q-57 -2 -171 -2h-67v-73h35q76 0 116 2q-18 -75 -75 -139t-149 -109zM171 112v-235h597v73h-512v91h492v225h-577v-73h492v-81h-492zM254 362l65 -49q239 163 242 426q-53 -2 -154 -2h-72v-73h50q60 0 91 2 q-9 -83 -68.5 -166.5t-153.5 -137.5zM664 318h84v185h134v76h-134v201h-84v-462z" />
<glyph unicode="&#xae56;" d="M-9 419l62 -53q114 68 179.5 163t69.5 210q-57 -2 -171 -2h-67v-73h35q76 0 116 2q-36 -155 -224 -247zM142 110v-233h121q113 0 178 19v73q-66 -18 -150 -18h-66v90h193v230h-276v-73h194v-88h-194zM254 363l65 -49q239 163 242 425q-53 -2 -154 -2h-72v-73h50 q60 0 91 2q-9 -83 -68.5 -166t-153.5 -137zM471 -123h277v394h-277v-394zM547 -54v257h119v-257h-119zM664 323h84v183h134v76h-134v198h-84v-457z" />
<glyph unicode="&#xae5c;" d="M-6 381l63 -51q113 73 177 178.5t68 230.5q-57 -2 -171 -2h-67v-73h35q76 0 116 2q-32 -180 -221 -285zM178 -119h570v337h-570v-337zM252 323l65 -49q241 180 244 465q-53 -2 -154 -2h-72v-73h50q60 0 91 2q-8 -92 -68 -186t-156 -157zM264 -44v186h398v-186h-398z M664 270h84v217h134v76h-134v217h-84v-510z" />
<glyph unicode="&#xae5d;" d="M-6 387l62 -52q113 73 177.5 176.5t68.5 227.5q-57 -2 -171 -2h-67v-73h35q76 0 116 2q-32 -176 -221 -279zM176 -119h572v379h-85v-117h-401v112h-86v-374zM252 329l65 -49q116 85 179.5 201.5t64.5 257.5q-53 -2 -154 -2h-72v-73h50q60 0 91 2q-8 -91 -68 -183.5 t-156 -153.5zM261 -44v116h402v-116h-402zM664 312h84v187h134v76h-134v205h-84v-468z" />
<glyph unicode="&#xae5f;" d="M-1 347l64 -51q112 80 173.5 193t65.5 250q-57 -2 -171 -2h-67v-73h37q76 0 116 2q-27 -202 -218 -319zM115 -64l53 -68q91 20 172 71.5t131 120.5q50 -72 132 -122t175 -70l49 69q-105 19 -189 69.5t-127 122.5q21 51 22 100h-94q-6 -109 -93 -185t-231 -108zM257 289 l66 -48q237 193 238 498q-53 -2 -154 -2h-72v-73h50q60 0 91 2q-4 -102 -62 -203.5t-157 -173.5zM664 169h84v285h134v76h-134v250h-84v-611z" />
<glyph unicode="&#xae60;" d="M-6 381l63 -51q113 73 177 178.5t68 230.5q-57 -2 -171 -2h-67v-73h35q76 0 116 2q-32 -180 -221 -285zM70 -70l60 -62q122 63 181 173q57 -107 145 -173q102 67 154 170q62 -108 176 -166l55 62q-163 83 -197 197q10 48 10 91h-86q7 -82 -21 -141.5t-84 -111.5 q-79 62 -117 163q10 47 10 86h-88q10 -188 -198 -288zM252 323l65 -49q241 180 244 465q-53 -2 -154 -2h-72v-73h50q60 0 91 2q-8 -92 -68 -186t-156 -157zM664 261h84v223h134v76h-134v220h-84v-519z" />
<glyph unicode="&#xae61;" d="M-3 359l64 -51q112 77 174.5 187.5t66.5 243.5q-57 -2 -171 -2h-67v-73h37q76 0 116 2q-31 -196 -220 -307zM151 40q0 -81 78.5 -131t223.5 -50q146 0 224.5 50t78.5 130q0 81 -78.5 131.5t-224.5 50.5q-145 0 -223.5 -50t-78.5 -131zM240 40q0 47 54.5 79t157.5 32 q105 0 159.5 -32t54.5 -79q0 -48 -54.5 -79.5t-159.5 -31.5q-103 0 -157.5 32t-54.5 79zM251 300l66 -49q243 191 244 488q-53 -2 -154 -2h-72v-73h50q60 0 91 2q-5 -98 -66 -198.5t-159 -167.5zM664 225h84v238h134v76h-134v241h-84v-555z" />
<glyph unicode="&#xae65;" d="M-9 418l62 -53q114 68 179.5 163.5t69.5 210.5q-57 -2 -171 -2h-67v-73h35q76 0 116 2q-18 -75 -75 -139t-149 -109zM188 -123h580v71h-495v90h475v68h-475v82h477v71h-562v-382zM254 362l65 -49q239 163 242 426q-53 -2 -154 -2h-72v-73h50q60 0 91 2 q-9 -83 -68.5 -166.5t-153.5 -137.5zM664 311h84v189h124v76h-124v204h-84v-469z" />
<glyph unicode="&#xae68;" d="M8 194l64 -52q110 100 153.5 226.5t45.5 294.5v39q-49 -2 -145 -2h-62v-75h45q50 0 85 2q0 -63 -7.5 -113.5t-26.5 -107t-57 -109.5t-95 -103zM206 92l69 -46q113 129 156.5 277t50.5 336v43q-46 -2 -133 -2h-47v-75h30q45 0 72 2q-2 -339 -198 -535zM547 -110h80v467h92 v-490h82v913h-82v-349h-92v339h-80v-880z" />
<glyph unicode="&#xae69;" d="M13 371l67 -44q188 137 190 377v27q-49 -2 -145 -2h-56v-74h36q50 0 85 2q-3 -82 -49 -157t-128 -129zM194 118h524v-254h86v328h-610v-74zM232 308l69 -43q188 192 186 436v30q-46 -2 -129 -2h-57v-74h39q41 0 68 2q-8 -195 -176 -349zM556 244h80v234h89v-234h81v536 h-81v-233h-89v223h-80v-526z" />
<glyph unicode="&#xae6c;" d="M17 333l68 -46q185 145 187 407v30q-49 -2 -145 -2h-56v-75h36q50 0 85 2q-2 -91 -47 -174t-128 -142zM230 -115h591v75h-504v196h-87v-271zM234 265l70 -44q185 203 183 470v33q-46 -2 -129 -2h-55v-75h37q41 0 68 2q-6 -218 -174 -384zM556 121h80v327h89v-347h81v679 h-81v-261h-89v251h-80v-649z" />
<glyph unicode="&#xae70;" d="M12 404l67 -43q191 130 193 353v24q-49 -2 -145 -2h-56v-74h36q50 0 85 2q-5 -74 -51.5 -142t-128.5 -118zM216 188h505v-82h-501v-228h606v73h-521v84h501v226h-590v-73zM231 343l69 -41q191 182 189 409v27q-46 -2 -129 -2h-57v-74h39q41 0 68 2q-11 -179 -179 -321z M556 313h80v196h89v-196h81v467h-81v-202h-89v192h-80v-457z" />
<glyph unicode="&#xae78;" d="M15 378l67 -44q188 137 190 377v27q-49 -2 -145 -2h-56v-74h36q50 0 85 2q-3 -82 -49 -157t-128 -129zM219 -119h585v329h-585v-329zM234 315l69 -43q188 192 186 436v30q-46 -2 -129 -2h-57v-74h39q41 0 68 2q-8 -195 -176 -349zM305 -45v180h413v-180h-413zM556 262h80 v233h89v-233h81v518h-81v-215h-89v205h-80v-508z" />
<glyph unicode="&#xae79;" d="M14 389l67 -43q189 133 191 366v26q-49 -2 -145 -2h-56v-74h36q50 0 85 2q-4 -79 -50 -150.5t-128 -124.5zM217 -119h589v369h-85v-107h-418v102h-86v-364zM233 327l69 -42q189 187 187 424v29q-46 -2 -129 -2h-57v-74h39q41 0 68 2q-9 -188 -177 -337zM302 -45v117h419 v-117h-419zM556 302h80v211h89v-211h81v478h-81v-197h-89v187h-80v-468z" />
<glyph unicode="&#xae7b;" d="M17 347l68 -46q185 145 187 407v30q-49 -2 -145 -2h-56v-75h36q50 0 85 2q-2 -91 -47 -174t-128 -142zM130 -63l53 -69q95 22 178.5 75t134.5 125q51 -74 135.5 -126.5t177.5 -73.5l49 70q-107 20 -192.5 72.5t-130.5 128.5q19 48 19 93h-94q-6 -113 -94 -187.5 t-236 -107.5zM236 279l70 -44q185 203 183 470v33q-46 -2 -129 -2h-57v-75h39q41 0 68 2q-6 -218 -174 -384zM556 270h80v205h89v-308h81v613h-81v-234h-89v224h-80v-500z" />
<glyph unicode="&#xae7c;" d="M15 378l67 -44q188 137 190 377v27q-49 -2 -145 -2h-56v-74h36q50 0 85 2q-3 -82 -49 -157t-128 -129zM104 -70l61 -62q121 61 183 169q59 -104 150 -169q103 62 157 168q61 -105 180 -165l55 63q-167 83 -202 192q11 46 11 92h-86q12 -143 -108 -249q-83 59 -121 156 q11 44 11 89h-88q10 -185 -203 -284zM234 315l69 -43q188 192 186 436v30q-46 -2 -129 -2h-57v-74h39q41 0 68 2q-8 -195 -176 -349zM556 261h80v231h89v-231h81v519h-81v-218h-89v208h-80v-509z" />
<glyph unicode="&#xae7d;" d="M17 357l67 -45q186 142 188 396v30q-49 -2 -145 -2h-56v-75h36q50 0 85 2q-2 -88 -47 -168t-128 -138zM188 45q0 -83 80.5 -134.5t228.5 -51.5q150 0 230.5 51t80.5 134t-80.5 134.5t-230.5 51.5q-148 0 -228.5 -51t-80.5 -134zM236 291l69 -44q186 200 184 458v33 q-46 -2 -129 -2h-57v-75h39q41 0 68 2q-6 -210 -174 -372zM278 45q0 48 56 80t163 32q108 0 164.5 -32t56.5 -80t-56.5 -80t-164.5 -32q-107 0 -163 32t-56 80zM556 271h80v226h89v-256h81v539h-81v-212h-89v202h-80v-499z" />
<glyph unicode="&#xae84;" d="M6 182l70 -42q111 103 159 231t49 293v39q-56 -2 -167 -2h-73v-73h45q74 0 113 2q8 -273 -196 -448zM260 86l73 -39q217 255 214 613v43q-51 -2 -150 -2h-75v-73h50q59 0 89 2q3 -156 -46.5 -287.5t-154.5 -256.5zM659 -133h84v350h137v75h-137v209h137v75h-137v204h-84 v-913z" />
<glyph unicode="&#xae85;" d="M12 359l64 -51q112 77 174.5 187.5t66.5 243.5q-57 -2 -171 -2h-67v-73h37q76 0 116 2q-31 -196 -220 -307zM158 123h504v-259h86v334h-590v-75zM266 300l66 -49q243 191 244 488q-53 -2 -154 -2h-72v-73h50q60 0 91 2q-5 -98 -66 -198.5t-159 -167.5zM664 250h84v132 h130v74h-131v105h131v74h-130v145h-84v-530z" />
<glyph unicode="&#xae8c;" d="M7 415l62 -53q114 68 179.5 165t69.5 212q-57 -2 -171 -2h-67v-73h35q76 0 116 2q-18 -75 -75 -140.5t-149 -110.5zM171 108v-231h597v73h-512v87h492v224h-577v-73h492v-80h-492zM270 359l65 -49q115 78 178 187.5t64 241.5q-53 -2 -154 -2h-72v-73h50q60 0 91 2 q-9 -84 -69 -168.5t-153 -138.5zM664 313h84v111h130v74h-131v102h131v74h-130v106h-84v-467z" />
<glyph unicode="&#xaebc;" d="M16 182l70 -42q111 103 159 231t49 293v39q-56 -2 -167 -2h-73v-73h45q74 0 113 2q8 -273 -196 -448zM270 86l73 -39q217 255 214 613v43q-51 -2 -150 -2h-75v-73h50q59 0 89 2q3 -156 -46.5 -287.5t-154.5 -256.5zM563 362h142v-495h86v913h-86v-343h-142v-75z" />
<glyph unicode="&#xaebd;" d="M13 359l64 -51q112 77 174.5 187.5t66.5 243.5q-57 -2 -171 -2h-67v-73h37q76 0 116 2q-31 -196 -220 -307zM191 123h514v-259h86v334h-600v-75zM267 300l66 -49q243 191 244 488q-53 -2 -154 -2h-72v-73h50q60 0 91 2q-5 -98 -66 -198.5t-159 -167.5zM573 455h133v-205 h85v530h-85v-249h-133v-76z" />
<glyph unicode="&#xaebe;" d="M13 359l64 -51q112 77 174.5 187.5t66.5 243.5q-57 -2 -171 -2h-67v-73h37q76 0 116 2q-31 -196 -220 -307zM165 126h203v-262h86v339h-289v-77zM267 300l66 -49q243 191 244 488q-53 -2 -154 -2h-72v-73h50q60 0 91 2q-5 -98 -66 -198.5t-159 -167.5zM497 126h208v-262 h86v339h-294v-77zM573 462h133v-207h85v525h-85v-244h-133v-74z" />
<glyph unicode="&#xaec0;" d="M24 326l64 -50q224 164 232 451q-57 -2 -171 -2h-69v-73h38q76 0 116 2q-26 -211 -210 -328zM218 -115h593v74h-506v198h-87v-272zM279 265l66 -48q242 202 243 510q-53 -2 -154 -2h-79v-73h55q60 0 91 2q-3 -104 -62.5 -209t-159.5 -180zM581 424h125v-312h85v668h-85 v-284h-125v-72z" />
<glyph unicode="&#xaec4;" d="M15 413l62 -51q113 67 177.5 164t68.5 213q-57 -2 -171 -2h-65v-73h33q76 0 116 2q-18 -76 -74 -142.5t-147 -110.5zM207 107v-230h604v74h-519v83h499v227h-584v-74h499v-80h-499zM281 359l65 -49q114 77 174.5 186.5t61.5 242.5q-53 -2 -154 -2h-72v-73h50q60 0 91 2 q-9 -85 -66 -169.5t-150 -137.5zM579 491h127v-178h85v467h-85v-218h-127v-71z" />
<glyph unicode="&#xaecc;" d="M15 381l63 -51q113 73 177 178.5t68 230.5q-57 -2 -171 -2h-65v-73h33q76 0 116 2q-32 -180 -221 -285zM211 -119h580v332h-580v-332zM268 323l65 -49q241 180 244 465q-53 -2 -154 -2h-67v-73h45q60 0 91 2q-8 -92 -68 -186t-156 -157zM297 -44v181h408v-181h-408z M572 462h133v-197h86v515h-86v-243h-133v-75z" />
<glyph unicode="&#xaecd;" d="M18 387l62 -52q113 72 176 176t67 228q-57 -2 -171 -2h-65v-73h33q76 0 116 2q-32 -178 -218 -279zM209 -119h582v371h-85v-111h-412v106h-85v-366zM275 329l65 -49q234 172 237 459q-53 -2 -154 -2h-67v-73h45q60 0 91 2q-8 -92 -65.5 -184.5t-151.5 -152.5zM294 -44 v114h412v-114h-412zM571 466h134v-162h86v476h-86v-241h-134v-73z" />
<glyph unicode="&#xaecf;" d="M20 343l64 -51q228 164 236 447q-57 -2 -171 -2h-62v-73h32q76 0 116 2q-28 -209 -215 -323zM142 -63l53 -69q91 20 171 71.5t131 121.5q50 -72 132.5 -122.5t175.5 -70.5l50 70q-106 19 -190 69.5t-128 123.5q22 51 23 101h-94q-6 -109 -93.5 -186t-230.5 -109zM266 282 l66 -48q238 193 239 505q-53 -2 -154 -2h-64v-73h42q60 0 91 2q-4 -103 -63 -207.5t-157 -176.5zM570 458h135v-289h86v611h-86v-248h-135v-74z" />
<glyph unicode="&#xaed0;" d="M15 381l63 -51q112 73 175 178t67 231q-57 -2 -171 -2h-62v-73h30q76 0 116 2q-33 -182 -218 -285zM103 -70l60 -62q120 62 180 173q57 -105 146 -173q103 67 154 171q63 -110 176 -167l55 62q-164 83 -198 197q11 47 11 92h-86q7 -82 -21 -142t-84 -112q-78 62 -118 164 q11 42 11 86h-88q10 -189 -198 -289zM268 323l65 -49q235 176 238 465q-53 -2 -154 -2h-64v-73h42q60 0 91 2q-8 -93 -65.5 -187t-152.5 -156zM565 464h140v-207h86v523h-86v-243h-140v-73z" />
<glyph unicode="&#xaed1;" d="M18 359l64 -51q112 77 174.5 187.5t66.5 243.5q-57 -2 -171 -2h-65v-73h35q76 0 116 2q-31 -196 -220 -307zM184 43q0 -82 80 -133t227 -51q148 0 228 50.5t80 132.5t-80 133t-228 51t-227.5 -50.5t-79.5 -132.5zM267 300l66 -49q243 191 244 488q-53 -2 -154 -2h-67v-73 h45q60 0 91 2q-5 -98 -66 -198.5t-159 -167.5zM274 43q0 47 55.5 79.5t159.5 32.5q108 0 164 -32.5t56 -79.5q0 -48 -56 -80.5t-164 -32.5q-105 0 -160 32.5t-55 80.5zM576 441h129v-213h86v552h-86v-263h-129v-76z" />
<glyph unicode="&#xaed8;" d="M10 194l64 -52q110 100 153.5 226.5t45.5 294.5v39q-49 -2 -145 -2h-62v-75h45q50 0 85 2q0 -63 -7.5 -113.5t-26.5 -107t-57 -109.5t-95 -103zM208 92l69 -46q117 133 166 310h118v-466h82v880h-82v-344h-101q19 96 24 233v43q-46 -2 -133 -2h-47v-75h30q45 0 72 2 q-2 -339 -198 -535zM724 -133h82v913h-82v-913z" />
<glyph unicode="&#xaed9;" d="M20 371l67 -44q188 137 190 377v27q-49 -2 -145 -2h-56v-74h36q50 0 85 2q-3 -82 -49 -157t-128 -129zM194 118h524v-254h86v328h-610v-74zM234 308l69 -43q88 90 136 201h130v-222h80v526h-80v-236h-106q22 81 22 167v30q-46 -2 -129 -2h-48v-74h30q41 0 68 2 q-8 -199 -172 -349zM728 244h81v536h-81v-536z" />
<glyph unicode="&#xaedc;" d="M22 333l68 -46q185 145 187 407v30q-49 -2 -145 -2h-56v-75h36q50 0 85 2q-2 -91 -47 -174t-128 -142zM230 -115h591v75h-504v196h-87v-271zM239 265l70 -44q98 109 145 239v-8h114v-331h80v649h-80v-251h-96q20 80 20 172v33q-46 -2 -129 -2h-55v-75h37q41 0 68 2 q-6 -218 -174 -384zM728 101h81v679h-81v-679z" />
<glyph unicode="&#xaee8;" d="M20 378l67 -44q188 137 190 377v27q-49 -2 -145 -2h-56v-74h36q50 0 85 2q-3 -82 -49 -157t-128 -129zM219 -119h585v332h-585v-332zM239 315l69 -43q97 100 145 217h115v-224h80v505h-80v-214h-93q19 73 19 152v30q-46 -2 -129 -2h-57v-74h39q41 0 68 2 q-8 -195 -176 -349zM305 -45v183h413v-183h-413zM728 265h81v515h-81v-515z" />
<glyph unicode="&#xaeeb;" d="M22 346l68 -46q185 145 187 407v30q-49 -2 -145 -2h-56v-75h36q50 0 85 2q-2 -91 -47 -174t-128 -142zM130 -63l53 -69q94 22 177.5 75.5t134.5 125.5q51 -75 135.5 -127.5t178.5 -73.5l49 70q-108 20 -193.5 72.5t-130.5 129.5q20 48 20 95h-94q-6 -113 -94 -189 t-236 -109zM241 278l70 -44q99 109 145 238h112v-217h80v515h-80v-231h-93q19 79 19 165v33q-46 -2 -129 -2h-57v-75h39q41 0 68 2q-6 -218 -174 -384zM728 169h81v611h-81v-611z" />
<glyph unicode="&#xaeed;" d="M22 356l67 -45q186 142 188 396v30q-49 -2 -145 -2h-56v-75h36q50 0 85 2q-2 -88 -47 -168t-128 -138zM192 40q0 -80 80.5 -130.5t228.5 -50.5q150 0 230.5 50t80.5 130q0 81 -80.5 131.5t-230.5 50.5q-148 0 -228.5 -50t-80.5 -131zM241 290l69 -44q104 111 148 241h110 v-229h80v512h-80v-216h-90q16 71 16 150v33q-46 -2 -129 -2h-57v-75h39q41 0 68 2q-6 -210 -174 -372zM282 40q0 47 55.5 78.5t163.5 31.5t164.5 -31.5t56.5 -78.5t-56.5 -78t-164.5 -31q-107 0 -163 31t-56 78zM728 228h81v552h-81v-552z" />
<glyph unicode="&#xaef4;" d="M16 182l70 -42q111 103 159 231t49 293v39q-56 -2 -167 -2h-73v-73h45q74 0 113 2q8 -273 -196 -448zM270 86l73 -39q217 255 214 613v43q-51 -2 -150 -2h-75v-73h50q59 0 89 2q3 -156 -46.5 -287.5t-154.5 -256.5zM557 239h148v-372h86v913h-86v-212h-128v-74h129v-181 h-149v-74z" />
<glyph unicode="&#xaef8;" d="M18 326l64 -50q214 156 222 451q-57 -2 -171 -2h-59v-73h28q76 0 116 2q-26 -218 -200 -328zM210 -115h601v74h-514v198h-87v-272zM273 265l66 -48q224 187 225 510q-53 -2 -154 -2h-71v-73h47q60 0 91 2q-3 -109 -55.5 -213t-148.5 -176zM565 324h140v-212h86v668h-86 v-179h-115v-72h116v-132h-141v-73z" />
<glyph unicode="&#xaefc;" d="M22 415l61 -53q110 67 171.5 163.5t65.5 213.5q-56 -2 -168 -2h-56v-73h25q74 0 114 2q-39 -165 -213 -251zM217 107v-230h594v74h-509v86h489v226h-574v-72h489v-84h-489zM270 359l64 -49q220 153 223 429q-52 -2 -146 -2h-59v-73h37q54 0 84 2q-9 -86 -61.5 -170 t-141.5 -137zM568 415h137v-100h86v465h-86v-130h-112v-72h113v-90h-138v-73z" />
<glyph unicode="&#xaf07;" d="M30 343l63 -51q219 160 227 447q-56 -2 -168 -2h-56v-73h27q74 0 114 2q-28 -211 -207 -323zM132 -63l52 -69q92 21 173.5 73.5t131.5 123.5q51 -74 133 -125.5t174 -71.5l49 70q-105 20 -188.5 72t-127.5 126q19 48 21 99h-94q-6 -113 -92.5 -189t-231.5 -109zM266 282 l65 -48q224 187 226 505q-52 -2 -146 -2h-59v-73h37q54 0 84 2q-3 -104 -57.5 -208.5t-149.5 -175.5zM565 375h140v-206h86v611h-86v-146h-115v-72h116v-114h-141v-73z" />
<glyph unicode="&#xaf08;" d="M25 381l62 -51q109 72 169 177t64 232q-56 -2 -168 -2h-56v-73h25q74 0 114 2q-33 -184 -210 -285zM103 -70l60 -62q120 62 180 171q58 -108 146 -171q99 62 154 168q28 -50 74 -93.5t102 -71.5l55 63q-165 84 -198 194q11 47 11 93h-86q13 -147 -105 -252 q-80 60 -118 161q11 42 11 87h-88q5 -96 -48 -168.5t-150 -118.5zM268 323l64 -49q222 169 225 465q-52 -2 -146 -2h-59v-73h37q54 0 84 2q-7 -95 -60.5 -188.5t-144.5 -154.5zM565 389h140v-127h86v518h-86v-145h-115v-72h116v-101h-141v-73z" />
<glyph unicode="&#xaf0d;" d="M23 409l61 -52q110 67 171 165.5t65 216.5q-56 -2 -168 -2h-56v-73h25q74 0 114 2q-37 -167 -212 -257zM226 -123h585v72h-500v88h480v69h-480v81h482v72h-567v-382zM270 353l64 -49q220 156 223 435q-52 -2 -146 -2h-59v-73h37q54 0 84 2q-9 -88 -61.5 -173.5 t-141.5 -139.5zM563 397h142v-86h86v469h-86v-148h-117v-70h118v-94h-143v-71z" />
<glyph unicode="&#xaf10;" d="M10 194l64 -52q110 100 153.5 226.5t45.5 294.5v39q-49 -2 -145 -2h-62v-75h45q50 0 85 2q0 -63 -7.5 -113.5t-26.5 -107t-57 -109.5t-95 -103zM208 92l69 -46q158 182 194 449h108v-159h-107v-71h106v-375h81v880h-81v-210h-100q4 50 6 99v43q-46 -2 -133 -2h-47v-75h30 q45 0 72 2q-2 -339 -198 -535zM725 -133h81v913h-81v-913z" />
<glyph unicode="&#xaf2c;" d="M21 3h850v73h-346v300h-87v-300h-417v-73zM104 623h198q0 -232 -69 -412l87 -18q67 197 67 451v55h-283v-76zM431 623h233q0 -206 -35 -427h87q34 243 34 445v58h-319v-76z" />
<glyph unicode="&#xaf2d;" d="M11 272h870v74h-357v197h-89v-197h-424v-74zM109 680h167q-2 -137 -20 -260h84q18 124 21 335h-252v-75zM137 100h517v-236h86v309h-603v-73zM400 680h259q-1 -100 -25 -260h84q23 150 26 335h-344v-75z" />
<glyph unicode="&#xaf30;" d="M11 245h870v74h-362v214h-89v-214h-419v-74zM109 680h166q-2 -147 -21 -276h84q19 139 22 351h-251v-75zM153 -119h605v75h-519v217h-86v-292zM399 680h260q-1 -97 -26 -276h84q24 164 27 351h-345v-75z" />
<glyph unicode="&#xaf32;" d="M11 307h870v71h-362v160h-89v-160h-419v-71zM108 680h169q-2 -131 -20 -233h84q17 106 21 308h-254v-75zM143 -119h89q119 0 191 21v74q-83 -20 -163 -20h-31v277h-86v-352zM400 94h413v62h-413v-62zM401 680h258q-1 -88 -25 -233h84q23 128 26 308h-343v-75zM437 -31 q0 -50 46 -80t124 -30t124 30t46 80q0 47 -44 76t-126 29t-126 -29t-44 -76zM502 194h212v65h-212v-65zM515 -32q0 47 92 47t92 -47q0 -22 -23.5 -35.5t-68.5 -13.5t-68.5 13.5t-23.5 35.5z" />
<glyph unicode="&#xaf34;" d="M11 340h870v71h-362v163h-89v-163h-419v-71zM108 680h169q-1 -109 -19 -207h84q17 103 20 282h-254v-75zM151 102v-235h614v71h-529v96h505v232h-590v-71h505v-93h-505zM401 680h258q-1 -67 -24 -207h84q22 125 25 282h-343v-75z" />
<glyph unicode="&#xaf3c;" d="M11 295h870v74h-362v173h-89v-173h-419v-74zM108 680h169q-2 -128 -20 -240h84q18 115 21 315h-254v-75zM152 -119h588v321h-588v-321zM238 -44v172h416v-172h-416zM401 680h258q-1 -89 -24 -240h84q22 132 25 315h-343v-75z" />
<glyph unicode="&#xaf3d;" d="M11 311h870v74h-362v174h-89v-174h-419v-74zM108 680h169q-2 -124 -19 -224h84q17 104 20 299h-254v-75zM152 -119h588v365h-86v-102h-416v102h-86v-365zM237 -45v117h418v-117h-418zM401 680h258q-1 -81 -24 -224h84q22 127 25 299h-343v-75z" />
<glyph unicode="&#xaf3f;" d="M11 276h870v74h-362v185h-89v-185h-419v-74zM76 -60l47 -72q97 20 182 69.5t137 118.5q53 -62 143.5 -115t184.5 -73l47 72q-249 60 -332 188q18 46 19 90h-90q-4 -106 -99.5 -179.5t-238.5 -98.5zM109 680h167q-2 -132 -20 -256h84q18 125 21 331h-252v-75zM400 680h259 q-1 -96 -25 -256h84q23 150 26 331h-344v-75z" />
<glyph unicode="&#xaf41;" d="M11 279h870v74h-357v182h-89v-182h-424v-74zM108 680h169q-2 -135 -20 -252h84q18 120 21 327h-254v-75zM135 39q0 -79 81.5 -129.5t229.5 -50.5t228.5 50.5t80.5 129.5t-80 127t-229 48q-150 0 -230.5 -48t-80.5 -127zM229 39q0 45 51.5 75.5t165.5 30.5 q113 0 164.5 -30.5t51.5 -75.5t-51.5 -76t-164.5 -31q-114 0 -165.5 31t-51.5 76zM401 680h258q-1 -100 -25 -252h84q23 144 26 327h-343v-75z" />
<glyph unicode="&#xaf42;" d="M11 306h870v71h-362v173h-89v-173h-419v-71zM77 -66l52 -69q171 39 331 113q166 -72 336 -109l52 68q-176 37 -301 85q146 85 189 168q7 11 3.5 20t-16.5 9q-92 -2 -258 -2h-299v-74h199q148 0 229 3q-58 -56 -200 -116t-317 -96zM108 680h169q-1 -112 -20 -231h84 q18 122 21 306h-254v-75zM401 680h258q-1 -77 -25 -231h84q23 146 26 306h-343v-75z" />
<glyph unicode="&#xaf43;" d="M11 334h870v71h-362v164h-89v-164h-419v-71zM89 -67l39 -67q169 15 340 83q141 -53 314 -80l39 68q-131 13 -263 53q120 63 164 136q5 10 1.5 19.5t-13.5 9.5q-90 -2 -281 -2h-278v-70h193q159 0 239 2q-65 -51 -207.5 -96t-286.5 -56zM108 680h169q-1 -104 -19 -203h84 q17 103 20 278h-254v-75zM261 207h365v65h-365v-65zM401 680h258q-1 -62 -24 -203h84q22 125 25 278h-343v-75z" />
<glyph unicode="&#xaf48;" d="M11 83h198q238 0 418 27v69q-129 -16 -251 -19v249h-82v-251q-24 -1 -72 -1h-211v-74zM46 628h145q0 -160 -74 -348l81 -11q73 183 73 379v52h-225v-72zM308 628h166q0 -200 -21 -352h82q20 176 20 372v52h-247v-72zM672 -133h83v461h135v74h-135v378h-83v-913z" />
<glyph unicode="&#xaf49;" d="M15 265h148q258 0 457 28v70q-104 -14 -246 -20v196h-82v-199q-92 -2 -130 -2h-147v-73zM66 664h125q-7 -129 -66 -250l82 -10q63 129 63 291v40h-204v-71zM160 91h504v-227h86v303h-590v-76zM304 664h170q0 -151 -19 -254h81q18 133 18 285v40h-250v-71zM664 219h86v200 h132v76h-132v285h-86v-561z" />
<glyph unicode="&#xaf50;" d="M15 318h153q258 0 457 28v70q-107 -14 -252 -20v167h-82v-170q-88 -2 -124 -2h-152v-73zM66 673h125q-7 -103 -66 -202l82 -9q63 110 63 242v40h-204v-71zM176 103v-226h594v74h-509v82h489v223h-574v-74h489v-79h-489zM304 673h170q0 -119 -19 -204h81q18 113 18 235v40 h-250v-71zM669 309h86v178h127v76h-127v217h-86v-471z" />
<glyph unicode="&#xaf5c;" d="M15 271h153q258 0 457 28v70q-107 -14 -252 -20v171h-82v-174q-88 -2 -124 -2h-152v-73zM66 672h125q-8 -133 -66 -245l82 -10q29 57 46 136t17 149v40h-204v-70zM81 -69l60 -63q121 58 180 163q57 -101 146 -163q104 63 154 160q61 -102 176 -157l55 64 q-163 78 -197 182q10 47 10 88h-86q12 -135 -105 -236q-80 58 -117 150q10 43 10 83h-88q10 -176 -198 -271zM304 672h170q0 -153 -19 -249h81q18 126 18 279v40h-250v-70zM669 248h86v227h127v76h-127v229h-86v-532z" />
<glyph unicode="&#xaf5d;" d="M15 271h153q258 0 457 28v70q-107 -14 -252 -20v179h-82v-182q-88 -2 -124 -2h-152v-73zM66 671h125q-6 -120 -66 -242l82 -10q63 129 63 283v40h-204v-71zM153 33q0 -79 78 -126.5t225 -47.5q146 0 224 47t78 126q0 78 -78.5 126t-223.5 48q-146 0 -224.5 -47.5 t-78.5 -125.5zM242 31q0 43 55 72.5t158 29.5q105 0 159 -29t54 -73q0 -43 -53.5 -70.5t-159.5 -27.5q-104 0 -158.5 27.5t-54.5 70.5zM304 671h170q0 -143 -19 -246h81q18 134 18 277v40h-250v-71zM669 211h86v259h127v76h-127v234h-86v-569z" />
<glyph unicode="&#xaf64;" d="M21 88h156q198 0 334 25v71q-97 -15 -182 -19v227h-78v-230q-22 -1 -64 -1h-166v-73zM48 618h128q0 -162 -76 -355l79 -11q73 183 73 387v51h-204v-72zM286 618h121q0 -193 -23 -359h80q20 176 20 379v52h-198v-72zM555 -110h80v457h89v-480h82v913h-82v-360h-89v350h-80 v-880z" />
<glyph unicode="&#xaf65;" d="M27 255h128q203 0 351 23v71q-62 -9 -174 -16v187h-86v-190q-66 -2 -91 -2h-128v-73zM60 657h103q-7 -128 -66 -251l82 -11q63 132 63 293v39h-182v-70zM193 99h526v-235h86v308h-612v-73zM276 657h120q0 -151 -19 -256h81q18 136 18 287v39h-200v-70zM552 220h83v249h86 v-249h84v560h-84v-237h-86v227h-83v-550z" />
<glyph unicode="&#xaf79;" d="M27 265h128q203 0 351 23v71q-62 -9 -174 -16v193h-86v-196q-66 -2 -91 -2h-128v-73zM60 673h103q-7 -128 -66 -251l82 -11q63 132 63 293v39h-182v-70zM176 30q0 -76 82.5 -123.5t233.5 -47.5q152 0 232 47t80 124q0 76 -81 123t-234 47q-151 0 -232 -46.5t-81 -123.5z M267 29q0 43 56.5 71.5t165.5 28.5q110 0 167 -28.5t57 -71.5q0 -42 -57 -69.5t-167 -27.5q-109 0 -165.5 27.5t-56.5 69.5zM276 673h120q0 -151 -19 -256h81q18 137 18 287v39h-200v-70zM552 242h83v241h86v-281h84v578h-84v-223h-86v213h-83v-528z" />
<glyph unicode="&#xaf80;" d="M36 83h194q257 0 447 28v70q-142 -17 -264 -21v249h-82v-251q-29 -1 -87 -1h-208v-74zM76 628h152q0 -160 -74 -348l81 -11q73 183 73 379v52h-232v-72zM350 628h172q0 -200 -21 -352h82q20 176 20 372v52h-253v-72zM727 -133h83v913h-83v-913z" />
<glyph unicode="&#xaf84;" d="M41 235h177q258 0 457 28v71q-93 -13 -257 -20v197h-81v-200q-86 -2 -120 -2h-176v-74zM85 661h146q-3 -139 -61 -262l80 -9q59 144 59 302v40h-224v-71zM216 -115h603v75h-516v173h-87v-248zM346 662h190q0 -142 -22 -266h82q20 136 20 296v40h-270v-70zM719 81h86v699 h-86v-699z" />
<glyph unicode="&#xaf88;" d="M36 328h182q254 0 457 27v70q-109 -13 -262 -20v163h-83v-165q-80 -2 -113 -2h-181v-73zM95 674h144q-5 -110 -57 -204l81 -7q57 100 57 247v34h-225v-70zM215 109v-232h609v73h-524v88h504v223h-589v-73h504v-79h-504zM357 675h171q-2 -120 -21 -208h82q20 111 20 243 v34h-252v-69zM719 313h86v467h-86v-467z" />
<glyph unicode="&#xaf90;" d="M36 281h182q258 0 457 28v71q-93 -13 -257 -20v167h-81v-170q-86 -2 -120 -2h-181v-74zM86 667h142q-5 -129 -63 -239l81 -8q63 117 63 280v37h-223v-70zM220 -119h585v312h-585v-312zM306 -45v163h413v-163h-413zM346 668h189q-2 -141 -21 -243h82q20 124 20 275v37 h-270v-69zM719 244h86v536h-86v-536z" />
<glyph unicode="&#xaf91;" d="M36 297h182q254 0 457 27v70q-109 -13 -261 -20v174h-83v-176q-82 -2 -114 -2h-181v-73zM96 672h144q-5 -117 -62 -223l81 -7q62 112 62 265v35h-225v-70zM217 -119h587v347h-85v-98h-416v88h-86v-337zM302 -45v104h417v-104h-417zM358 673h171q-2 -127 -21 -227h82 q20 121 20 261v35h-252v-69zM719 277h86v503h-86v-503z" />
<glyph unicode="&#xaf95;" d="M36 274h182q258 0 457 28l-1 71q-92 -13 -256 -20v174h-81v-177q-86 -2 -120 -2h-181v-74zM86 667h142q-5 -129 -63 -239l81 -8q63 117 63 280v37h-223v-70zM189 35q0 -79 80.5 -127.5t228.5 -48.5q151 0 231 48.5t80 127.5t-80.5 127.5t-230.5 48.5q-149 0 -229 -48.5 t-80 -127.5zM279 34q0 45 56 75t163 30q108 0 164.5 -30t56.5 -75q0 -44 -56.5 -73t-164.5 -29q-107 0 -163 29t-56 73zM346 668h189q-2 -141 -21 -243h82q20 124 20 275v37h-270v-69zM719 222h86v558h-86v-558z" />
<glyph unicode="&#xaf9c;" d="M21 8h850v73h-279v289h-81v-290h-62v290h-81v-289h-347v-73zM104 629h175q0 -232 -69 -412l87 -18q67 197 67 451v55h-260v-76zM408 629h257q0 -206 -35 -427h87q34 243 34 445v58h-343v-76z" />
<glyph unicode="&#xafb8;" d="M21 271h390v-399h88v399h372v73h-142q29 175 29 343v49h-302v-75h217q-1 -142 -30 -317h-274q43 155 43 346v46h-299v-75h215q-3 -176 -44 -317h-263v-73z" />
<glyph unicode="&#xafb9;" d="M11 350h394v-169h-268v-73h517v-244h86v317h-246v169h387v74h-150q22 160 25 331h-306v-75h221q-1 -92 -24 -256h-255q16 123 19 331h-280v-75h195q-2 -138 -18 -256h-297v-74z" />
<glyph unicode="&#xafbc;" d="M11 315h400v-244h89v244h381v74h-151q23 168 26 366h-307v-75h222q-1 -113 -25 -291h-257q18 139 21 366h-279v-75h194q0 -142 -20 -291h-294v-74zM153 -119h615v75h-529v227h-86v-302z" />
<glyph unicode="&#xafc0;" d="M11 394h394v-124h-254v-71h505v-95h-505v-237h614v71h-529v98h505v234h-247v124h387v71h-148q20 125 23 290h-304v-75h219q-1 -78 -22 -215h-254q15 99 18 290h-283v-75h198q-2 -114 -17 -215h-300v-71z" />
<glyph unicode="&#xafc7;" d="M11 397h394v-119h-280v-70h204v-104h-204v-237h135q116 0 178 18v71q-62 -17 -150 -17h-80v100h205v217h81v141h387v71h-148q20 123 23 287h-304v-75h219q-1 -77 -22 -212h-254q15 98 18 287h-283v-75h198q-2 -122 -17 -212h-300v-71zM443 117h372v62h-372v-62zM471 -30 q0 -57 42 -89t113 -32q72 0 114 32t42 89q1 54 -40.5 86.5t-115.5 32.5t-114.5 -32.5t-40.5 -86.5zM532 217h201v65h-201v-65zM551 -30q0 55 75 55q78 0 78 -55q0 -56 -78 -56q-75 0 -75 56z" />
<glyph unicode="&#xafc8;" d="M11 363h394v-155h-253v-327h588v327h-246v155h387v74h-149q21 143 24 318h-305v-75h220q-1 -99 -24 -243h-255q17 112 20 318h-282v-75h197q-2 -123 -19 -243h-297v-74zM238 -44v178h416v-178h-416z" />
<glyph unicode="&#xafc9;" d="M11 364h394v-162h89v162h387v74h-150q22 133 25 317h-305v-75h220q-1 -104 -24 -242h-255q17 120 20 317h-282v-75h197q-2 -128 -19 -242h-297v-74zM152 -119h588v383h-86v-120h-416v120h-86v-383zM237 -45v117h418v-117h-418z" />
<glyph unicode="&#xafcb;" d="M11 344h394v-117h89v117h387v74h-151q23 153 26 337h-305v-75h220q-1 -100 -25 -262h-254q17 132 20 337h-282v-75h197q-2 -134 -19 -262h-297v-74zM76 -60l47 -72q101 21 187.5 68.5t136.5 113.5q54 -61 142.5 -112t180.5 -70l47 72q-243 58 -330 184q14 36 15 76h-90 q-4 -104 -96.5 -169t-239.5 -91z" />
<glyph unicode="&#xafcd;" d="M11 348h390v-132q-127 -7 -195 -54.5t-68 -120.5q0 -80 81.5 -131t229.5 -51t229 51t81 131q0 74 -69.5 121.5t-199.5 54.5v131h391v74h-150q22 142 25 333h-305v-75h220q-1 -110 -24 -258h-255q17 128 20 333h-281v-75h196q-2 -135 -19 -258h-297v-74zM232 41 q0 45 51.5 76t165.5 31t165 -31t51 -76t-51.5 -76.5t-164.5 -31.5q-114 0 -165.5 31.5t-51.5 76.5z" />
<glyph unicode="&#xafce;" d="M11 368h394v-119h89v119h387v74h-148q20 137 23 313h-305v-75h220q-1 -100 -22 -238h-255q15 121 18 313h-281v-75h196q-2 -126 -17 -238h-299v-74zM83 -66l52 -69q171 39 331 113q168 -73 334 -109l52 68q-171 36 -300 85q147 84 190 168q7 11 3.5 20t-16.5 9 q-92 -2 -258 -2h-299v-74h199q148 0 229 3q-58 -56 -200 -116t-317 -96z" />
<glyph unicode="&#xafd4;" d="M36 281h194q43 0 66 1v-395h87v397q171 7 294 25v70q-61 -7 -120 -12q22 142 22 291v52h-227v-71h147q0 -137 -24 -278q-68 -4 -195 -6q35 146 35 303v52h-228v-71h149q0 -133 -40 -284h-160v-74zM513 99h213v-232h84v913h-84v-607h-213v-74z" />
<glyph unicode="&#xafdc;" d="M37 424h224v-151h88v154q178 6 316 25v66q-31 -4 -94 -10q18 89 18 201v37h-230v-71h149q-2 -84 -20 -173q-112 -7 -202 -8q36 110 36 215v37h-225v-71h144q-5 -99 -38 -182h-166v-69zM215 94v-217h610v73h-525v73h505v213h-590v-73h505v-69h-505zM475 323h244v-40h86 v497h-86v-390h-244v-67z" />
<glyph unicode="&#xafe8;" d="M37 403h223v-172h88v175q180 6 317 25v71q-32 -4 -92 -10q16 99 16 213v40h-230v-71h149q-2 -94 -19 -188q-110 -7 -202 -8q35 113 35 227v40h-225v-71h144q-4 -104 -37 -197h-167v-74zM107 -71l61 -61q123 51 183 149q59 -96 150 -149q102 50 157 148q59 -95 180 -146 l55 64q-165 73 -201 166q10 45 10 83h-86q7 -68 -23.5 -122.5t-84.5 -91.5q-79 45 -121 130q11 39 11 81h-88q5 -80 -50 -144.5t-153 -106.5zM475 287h244v-67h86v560h-86v-423h-244v-70z" />
<glyph unicode="&#xafe9;" d="M37 402h217v-173h88v176q199 7 323 25v67q-30 -4 -93 -10q17 99 17 217v41h-230v-71h149q-2 -96 -19 -193q-112 -7 -203 -8q36 113 36 231v41h-225v-71h144q-4 -108 -39 -202h-165v-70zM189 26q0 -76 80 -121.5t229 -45.5q151 0 231 45.5t80 121.5q0 75 -80 121t-231 46 q-149 0 -229 -45.5t-80 -121.5zM279 22q0 44 55.5 71t163.5 27q109 0 165 -27t56 -71q0 -39 -56 -64t-165 -25q-108 0 -163.5 25t-55.5 64zM475 280h244v-80h86v580h-86v-428h-244v-72z" />
<glyph unicode="&#xaff0;" d="M7 288h206v-386h81v389q128 7 213 23v68q-25 -4 -72 -10q18 141 18 280v52h-173v-67h96q0 -132 -19 -272q-62 -5 -137 -7q27 142 27 294v52h-180v-67h103q0 -146 -28 -279h-135v-70zM384 119h168v-222h82v873h-82v-578h-168v-73zM718 -133h83v913h-83v-913z" />
<glyph unicode="&#xaff1;" d="M26 376h146q54 0 83 1v-183h82v187q105 5 186 18v64q-36 -5 -66 -8q14 107 14 215v43h-172v-70h97q-2 -97 -16 -193q-72 -6 -144 -6q30 105 30 226v43h-179v-70h105q-3 -104 -33 -200h-133v-67zM192 77h527v-213h86v289h-613v-76zM427 265h136v-61h82v566h-82v-433h-136 v-72zM722 204h83v576h-83v-576z" />
<glyph unicode="&#xaff4;" d="M26 343h146q57 0 88 1v-195h82v199q103 6 181 18v66q-38 -5 -70 -8q18 112 18 233v44h-172v-70h98q0 -107 -20 -213q-44 -3 -138 -5q27 114 27 244v44h-179v-70h106q-2 -123 -26 -219h-141v-69zM157 -115h663v75h-580v177h-83v-252zM427 223h136v-134h82v681h-82v-480 h-136v-67zM722 69h83v711h-83v-711z" />
<glyph unicode="&#xaff8;" d="M36 425h136q54 0 82 1v-159h79v163q108 5 190 18v66q-39 -6 -69 -8q17 97 17 195v48h-172v-70h98q0 -88 -19 -179q-90 -4 -138 -5q26 98 26 206v48h-179v-70h106q-2 -103 -25 -185h-132v-69zM208 92v-215h617v70h-532v78h512v211h-597v-70h512v-74h-512zM419 319h144v-42 h82v493h-82v-384h-144v-67zM722 277h83v503h-83v-503z" />
<glyph unicode="&#xb000;" d="M36 377h136q54 0 82 1v-185h79v189q108 5 190 18v63q-39 -6 -68 -8q16 102 16 218v43h-172v-69h95q-2 -102 -17 -198q-45 -3 -137 -5q26 109 26 229v43h-179v-69h103q-4 -110 -29 -204h-125v-66zM212 -119h593v272h-593v-272zM298 -47v127h421v-127h-421zM399 259h164 v-61h82v572h-82v-444h-164v-67zM722 198h83v582h-83v-582z" />
<glyph unicode="&#xb001;" d="M36 404h136q54 0 82 1v-184h79v188q108 5 190 18v66q-36 -5 -67 -8q15 101 15 208v43h-172v-69h97q-2 -97 -17 -189q-93 -6 -139 -7q26 106 26 222v43h-179v-69h105q-3 -106 -29 -197h-127v-66zM210 -119h595v315h-85v-84h-424v69h-86v-300zM295 42h425v-91h-425v91z M419 293h144v-52h82v529h-82v-412h-144v-65zM722 241h83v539h-83v-539z" />
<glyph unicode="&#xb004;" d="M36 404h136q54 0 82 1v-189h79v193q108 5 190 18v66q-36 -5 -67 -8q15 101 15 208v43h-172v-69h97q-2 -97 -17 -189q-93 -6 -139 -7q26 106 26 222v43h-179v-69h105q-3 -106 -29 -197h-127v-66zM99 -70l61 -62q121 50 185 150q59 -94 152 -150q103 54 157 149 q61 -95 184 -146l55 62q-170 72 -204 168q11 44 11 86h-86q7 -71 -24 -127.5t-86 -94.5q-82 47 -123 135q12 40 12 84h-88q5 -83 -51 -149t-155 -105zM419 288h144v-62h82v544h-82v-417h-144v-65zM722 226h83v554h-83v-554z" />
<glyph unicode="&#xb00c;" d="M36 254h192q50 0 77 1v-368h88v371q161 7 282 24v71q-61 -7 -120 -12q22 148 22 317v52h-227v-72h146q0 -158 -24 -303q-106 -6 -204 -6q45 154 45 329v52h-228v-72h148q0 -163 -49 -309h-148v-75zM724 -133h86v913h-86v-913z" />
<glyph unicode="&#xb010;" d="M36 326h172q34 0 114 2v-203h86v206q148 8 257 23v70q-41 -6 -87 -9q21 112 21 268v43h-219v-71h140q-2 -145 -23 -247q-107 -7 -194 -8q40 139 40 283v43h-231v-71h153q-4 -132 -45 -256h-184v-73zM175 -115h645v74h-558v175h-87v-249zM719 91h86v689h-86v-689z" />
<glyph unicode="&#xb014;" d="M36 411h172q63 0 96 1v-118h88v122q157 6 273 23v68q-39 -6 -86 -9q20 96 20 211v37h-230v-71h149q-2 -89 -23 -184q-110 -7 -203 -8q40 110 40 226v37h-225v-71h144q-5 -104 -43 -193h-172v-71zM215 101v-224h610v73h-525v82h505v220h-590v-73h504v-78h-504zM719 304h86 v476h-86v-476z" />
<glyph unicode="&#xb01c;" d="M36 374h172q64 0 99 1v-156h87v160q155 6 271 23v71q-65 -8 -83 -9q17 110 17 226v43h-219v-71h140q-2 -107 -19 -204q-60 -5 -191 -9q33 127 33 241v43h-231v-71h153q-3 -103 -37 -214h-192v-74zM219 -119h586v297h-586v-297zM305 -45v148h414v-148h-414zM719 229h86 v551h-86v-551z" />
<glyph unicode="&#xb01d;" d="M36 384h172q35 0 119 2v-160h85v164q138 6 253 22v70q-64 -8 -83 -9q17 111 17 227v43h-219v-71h141q-2 -108 -19 -205q-60 -5 -192 -9q33 127 33 242v43h-231v-71h154q-3 -101 -38 -215h-192v-73zM206 -119h599v347h-86v-89h-427v84h-86v-342zM291 -45v113h428v-113 h-428zM719 273h86v507h-86v-507z" />
<glyph unicode="&#xb028;" d="M21 273h237v-401h87v401h225v-401h87v401h214v73h-142q29 185 29 341v49h-312v-76h227q-1 -140 -30 -314h-279q48 173 48 344v46h-309v-76h225q-3 -160 -49 -314h-258v-73z" />
<glyph unicode="&#xb044;" d="M21 3h850v73h-172q47 294 51 623h-311v-75h226q0 -273 -51 -548h-253q31 255 34 623h-291v-75h206q0 -284 -33 -548h-256v-73z" />
<glyph unicode="&#xb045;" d="M11 327h870v74h-164q24 168 27 354h-306v-75h221q-1 -98 -26 -279h-256q19 142 22 354h-280v-75h195q-2 -148 -21 -279h-282v-74zM137 126h517v-262h86v336h-603v-74z" />
<glyph unicode="&#xb048;" d="M11 294h870v74h-163q23 170 26 387h-307v-75h222q0 -118 -25 -312h-257q18 155 21 387h-278v-75h193q0 -157 -20 -312h-282v-74zM153 -119h605v75h-519v234h-86v-309z" />
<glyph unicode="&#xb04a;" d="M11 342h870v71h-162q22 166 25 342h-306v-75h221q-1 -95 -24 -267h-256q17 137 20 342h-280v-75h195q-2 -147 -19 -267h-284v-71zM143 -119h89q119 0 191 21v74q-83 -20 -163 -20h-31v292h-86v-367zM400 104h413v63h-413v-63zM437 -29q0 -51 46 -81.5t124 -30.5t124 30.5 t46 81.5q0 47 -44 76.5t-126 29.5t-126 -29.5t-44 -76.5zM502 209h212v67h-212v-67zM515 -30q0 49 92 49t92 -49q0 -23 -24 -37t-68 -14t-68 14t-24 37z" />
<glyph unicode="&#xb04c;" d="M11 377h870v71h-161q21 126 24 307h-304v-75h219q-1 -92 -23 -232h-255q17 119 20 307h-283v-75h198q-2 -120 -19 -232h-286v-71zM151 113v-246h614v71h-529v107h505v238h-590v-71h505v-99h-505z" />
<glyph unicode="&#xb04e;" d="M11 379h870v71h-161q21 138 24 305h-304v-75h219q-1 -76 -23 -230h-255q17 120 20 305h-283v-75h198q-2 -118 -19 -230h-286v-71zM135 112v-245h134q117 0 178 18v71q-62 -17 -150 -17h-79v104h198v239h-281v-71h199v-99h-199zM469 -133h282v415h-282v-415zM545 -64v278 h124v-278h-124z" />
<glyph unicode="&#xb053;" d="M11 380h870v70h-161q21 138 24 305h-304v-73h220q-1 -78 -23 -232h-256q17 120 20 305h-283v-73h199q-2 -120 -19 -232h-287v-70zM127 109v-242h133q116 0 178 18v70q-62 -17 -150 -17h-78v106h203v244h-286v-71h202v-108h-202zM443 141h372v64h-372v-64zM471 -22 q0 -59 42 -94t113 -35t113.5 35t42.5 94q1 55 -41 90t-115 35t-114 -34.5t-41 -90.5zM532 247h201v68h-201v-68zM551 -22q0 60 75 60q78 0 78 -60q0 -62 -78 -62q-75 0 -75 62z" />
<glyph unicode="&#xb054;" d="M11 341h870v74h-162q22 141 25 340h-305v-75h220q-1 -117 -24 -265h-255q17 127 20 340h-281v-75h196q-2 -142 -19 -265h-285v-74zM152 -119h588v337h-588v-337zM238 -44v188h416v-188h-416z" />
<glyph unicode="&#xb055;" d="M11 349h870v74h-162q22 138 25 332h-305v-75h220q-1 -112 -24 -257h-255q17 124 20 332h-282v-75h197q-2 -137 -19 -257h-285v-74zM152 -119h588v390h-86v-118h-416v118h-86v-390zM237 -45v126h418v-126h-418z" />
<glyph unicode="&#xb057;" d="M11 315h870v74h-165q25 176 28 366h-306v-75h221q-1 -106 -27 -291h-256q20 150 23 366h-280v-75h195q-2 -156 -22 -291h-281v-74zM76 -61l45 -71q96 21 182 72t139 121q52 -63 143.5 -118t185.5 -75l46 71q-249 62 -333 195q19 46 20 94h-90q-4 -110 -99.5 -186.5 t-238.5 -102.5z" />
<glyph unicode="&#xb059;" d="M11 324h870v74h-165q25 166 28 357h-306v-75h221q-1 -108 -27 -282h-255q19 147 22 357h-280v-75h195q-2 -140 -21 -282h-282v-74zM137 46q0 -82 81.5 -134.5t229.5 -52.5t228.5 52.5t80.5 134.5t-80 132t-229 50q-150 0 -230.5 -50t-80.5 -132zM231 45q0 48 51.5 80.5 t165.5 32.5t165 -32.5t51 -80.5q0 -47 -51.5 -79.5t-164.5 -32.5q-114 0 -165.5 32.5t-51.5 79.5z" />
<glyph unicode="&#xb05d;" d="M11 375h870v71h-160q20 129 23 309h-304v-75h219q-1 -90 -22 -234h-256q17 107 20 309h-283v-75h198q-2 -121 -18 -234h-287v-71zM157 -124h601v72h-516v99h496v67h-496v97h498v72h-583v-407z" />
<glyph unicode="&#xb07c;" d="M19 182l70 -42q111 104 160.5 232.5t50.5 291.5v39q-56 -2 -167 -2h-76v-73h48q74 0 113 2q8 -270 -199 -448zM273 86l73 -39q109 127 165.5 284.5t54.5 328.5v43q-51 -2 -150 -2h-78v-73h53q59 0 89 2q3 -154 -48.5 -285.5t-158.5 -258.5zM705 -133h86v913h-86v-913z " />
<glyph unicode="&#xb07d;" d="M22 359l64 -51q112 77 174.5 187.5t66.5 243.5q-57 -2 -171 -2h-67v-73h37q76 0 116 2q-31 -196 -220 -307zM191 123h514v-259h86v334h-600v-75zM276 300l66 -49q243 191 244 488q-53 -2 -154 -2h-72v-73h50q60 0 91 2q-5 -98 -66 -198.5t-159 -167.5zM705 250h86v530 h-86v-530z" />
<glyph unicode="&#xb080;" d="M18 326l64 -50q224 164 232 451q-57 -2 -171 -2h-69v-73h38q76 0 116 2q-26 -211 -210 -328zM210 -115h593v74h-506v198h-87v-272zM273 265l66 -48q242 202 243 510q-53 -2 -154 -2h-79v-73h55q60 0 91 2q-3 -104 -62.5 -209t-159.5 -180zM700 112h83v668h-83v-668z" />
<glyph unicode="&#xb084;" d="M20 415l62 -53q114 68 179.5 165t69.5 212q-57 -2 -171 -2h-72v-73h40q76 0 116 2q-18 -75 -75 -140.5t-149 -110.5zM217 106v-229h594v74h-509v84h489v226h-574v-74h489v-81h-489zM291 359l65 -49q114 78 176 187.5t63 241.5q-53 -2 -154 -2h-77v-73h55q60 0 91 2 q-9 -84 -67.5 -168.5t-151.5 -138.5zM705 313h86v467h-86v-467z" />
<glyph unicode="&#xb08c;" d="M23 381l63 -51q113 73 177 178.5t68 230.5q-57 -2 -171 -2h-72v-73h40q76 0 116 2q-32 -180 -221 -285zM211 -119h580v337h-580v-337zM289 323l65 -49q238 178 241 465q-53 -2 -154 -2h-77v-73h55q60 0 91 2q-8 -93 -67 -187t-154 -156zM297 -44v186h408v-186h-408z M705 270h86v510h-86v-510z" />
<glyph unicode="&#xb08d;" d="M23 387l62 -52q113 73 177.5 176.5t68.5 227.5q-57 -2 -171 -2h-72v-73h40q76 0 116 2q-32 -176 -221 -279zM209 -119h582v359h-85v-102h-412v97h-85v-354zM289 329l65 -49q238 175 241 459q-53 -2 -154 -2h-77v-73h55q60 0 91 2q-8 -91 -67 -183.5t-154 -153.5zM294 -44 v111h412v-111h-412zM705 292h86v488h-86v-488z" />
<glyph unicode="&#xb08f;" d="M27 343l64 -51q112 80 173.5 194.5t65.5 252.5q-57 -2 -171 -2h-72v-73h42q76 0 116 2q-27 -207 -218 -323zM132 -63l53 -69q91 20 171.5 72.5t131.5 122.5q51 -72 133 -123.5t174 -71.5l50 70q-105 19 -189 70.5t-128 125.5q20 47 22 99h-94q-6 -109 -93.5 -186.5 t-230.5 -109.5zM286 282l66 -48q241 196 242 505q-53 -2 -154 -2h-77v-73h55q60 0 91 2q-4 -102 -64 -207t-159 -177zM705 169h86v611h-86v-611z" />
<glyph unicode="&#xb091;" d="M25 359l64 -51q112 77 174.5 187.5t66.5 243.5q-57 -2 -171 -2h-72v-73h42q76 0 116 2q-31 -196 -220 -307zM184 41q0 -81 80 -131.5t227 -50.5q148 0 228 50t80 131q0 82 -80 132.5t-228 50.5t-227.5 -50t-79.5 -132zM274 41q0 48 55 80t160 32q108 0 164 -32t56 -80 t-56 -79.5t-164 -31.5q-105 0 -160 32t-55 79zM287 300l66 -49q240 189 241 488q-53 -2 -154 -2h-77v-73h55q60 0 91 2q-5 -99 -65 -199t-157 -167zM705 233h86v547h-86v-547z" />
<glyph unicode="&#xb098;" d="M66 125h198q182 0 334 40v75q-166 -38 -322 -38h-121v512h-89v-589zM647 -133h86v497h157v76h-157v340h-86v-913z" />
<glyph unicode="&#xb099;" d="M63 325h201q182 0 334 40v73q-166 -38 -322 -38h-124v348h-89v-423zM158 123h494v-259h86v334h-580v-75zM652 250h86v268h144v76h-144v186h-86v-530z" />
<glyph unicode="&#xb09a;" d="M63 328h201q182 0 334 40v73q-166 -38 -322 -38h-124v345h-89v-420zM132 126h205v-262h86v339h-291v-77zM466 126h186v-262h86v339h-272v-77zM652 255h86v263h144v76h-144v186h-86v-525z" />
<glyph unicode="&#xb09c;" d="M68 294h196q182 0 334 40v74q-166 -38 -322 -38h-119v376h-89v-452zM182 -115h576v75h-489v202h-87v-277zM652 119h86v329h144v76h-144v256h-86v-661z" />
<glyph unicode="&#xb09f;" d="M63 337h201q182 0 334 40v73q-166 -38 -322 -38h-124v336h-89v-411zM178 -119h578v75h-492v182h476v74h-562v-331zM652 264h86v255h144v76h-144v185h-86v-516z" />
<glyph unicode="&#xb0a0;" d="M63 354h201q182 0 334 36v70q-170 -34 -322 -34h-124v324h-89v-396zM171 114v-237h587v74h-502v90h482v226h-567v-74h482v-79h-482zM652 319h86v202h144v76h-144v183h-86v-461z" />
<glyph unicode="&#xb0a1;" d="M63 359h201q182 0 334 36v70q-170 -34 -322 -34h-124v319h-89v-391zM140 112v-235h182q110 0 178 20v72q-66 -18 -150 -18h-127v90h210v235h-293v-73h206v-91h-206zM470 203h182v-336h86v409h-268v-73zM652 328h86v192h144v76h-144v184h-86v-452z" />
<glyph unicode="&#xb0a2;" d="M63 359h201q182 0 334 36v70q-170 -34 -322 -34h-124v319h-89v-391zM134 113v-236h120q113 0 178 19v73q-66 -18 -150 -18h-65v91h192v234h-275v-73h193v-90h-193zM462 -123h276v399h-276v-399zM538 -54v262h118v-262h-118zM652 328h86v192h144v76h-144v184h-86v-452z " />
<glyph unicode="&#xb0a8;" d="M63 328h201q182 0 334 40v73q-166 -38 -322 -38h-124v347h-89v-422zM178 -119h560v335h-560v-335zM264 -44v184h388v-184h-388zM652 268h86v214h144v76h-144v222h-86v-512z" />
<glyph unicode="&#xb0a9;" d="M63 340h201q182 0 334 36v73q-170 -34 -322 -34h-124v335h-89v-410zM176 -119h562v369h-85v-109h-391v104h-86v-364zM261 -44v114h392v-114h-392zM652 302h86v207h144v76h-144v195h-86v-478z" />
<glyph unicode="&#xb0ab;" d="M63 316h201q182 0 334 40v73q-166 -38 -322 -38h-124v359h-89v-434zM104 -63l52 -69q93 23 173 76t129 126q52 -76 131.5 -129t168.5 -73l49 70q-103 21 -184.5 75.5t-124.5 132.5q18 50 19 98h-94q-6 -119 -90 -195t-229 -112zM652 167h86v312h144v76h-144v225h-86v-613 z" />
<glyph unicode="&#xb0ac;" d="M63 325h201q182 0 334 40v73q-166 -38 -322 -38h-124v350h-89v-425zM77 -69l60 -64q123 68 179 173q54 -102 142 -173q104 72 153 171q61 -108 173 -167l55 64q-160 85 -194 199q10 47 10 90h-88q7 -85 -19.5 -141t-82.5 -112q-79 67 -113 164q8 36 10 85h-90 q5 -103 -45.5 -171.5t-149.5 -117.5zM652 267h86v247h144v76h-144v190h-86v-513z" />
<glyph unicode="&#xb0ad;" d="M63 315h201q182 0 334 40v73q-166 -38 -322 -38h-124v360h-89v-435zM156 45q0 -83 77 -134.5t219 -51.5t219 51t77 134t-77 134.5t-219 51.5t-219 -51t-77 -134zM245 44q0 50 53.5 83.5t153.5 33.5q101 0 153.5 -33.5t52.5 -83.5t-52 -82.5t-154 -32.5q-101 0 -154 32.5 t-53 82.5zM652 234h86v253h144v76h-144v217h-86v-546z" />
<glyph unicode="&#xb0ae;" d="M63 345h201q182 0 334 40v73q-166 -38 -322 -38h-124v330h-89v-405zM111 -65l45 -68q173 43 317 116q164 -74 311 -114l47 68q-136 35 -277 91q135 85 178 175q9 22 -13 22q-87 -2 -243 -2h-286v-73h194q138 0 214 4q-53 -59 -183 -118.5t-304 -100.5zM652 275h86v244 h144v76h-144v185h-86v-505z" />
<glyph unicode="&#xb0af;" d="M63 368h201q182 0 334 36v71q-170 -34 -322 -34h-124v309h-89v-382zM124 -63l44 -70q188 36 317 90q128 -54 309 -88l41 69q-139 19 -265 59q124 68 157 152q4 10 -0.5 16.5t-12.5 6.5q-83 -2 -256 -2h-256v-70h184q112 0 208 4q-54 -51 -177 -95t-293 -72zM318 226h283 v71h-283v-71zM652 287h86v244h144v76h-144v173h-86v-493z" />
<glyph unicode="&#xb0b1;" d="M63 355h201q182 0 334 36v73q-170 -34 -322 -34h-124v320h-89v-395zM178 -123h580v72h-495v88h475v69h-475v81h477v72h-562v-382zM652 311h86v220h144v76h-144v173h-86v-469z" />
<glyph unicode="&#xb0b3;" d="M63 375h201q182 0 334 36v71q-170 -34 -322 -34h-124v302h-89v-375zM124 129h657v66h-657v-66zM186 -20q0 -56 68.5 -88.5t198.5 -32.5t198.5 32.5t68.5 88.5q0 55 -68.5 86.5t-198.5 31.5t-198.5 -31.5t-68.5 -86.5zM277 -20q0 15 15.5 27.5t56.5 21.5t104 9t104 -9 t56.5 -21.5t15.5 -27.5q0 -57 -176 -57t-176 57zM289 241h317v67h-317v-67zM652 298h86v227h144v76h-144v179h-86v-482z" />
<glyph unicode="&#xb0b4;" d="M62 128h117q145 0 273 36v73q-147 -33 -263 -33h-39v508h-88v-584zM494 -110h84v477h132v-500h86v913h-86v-339h-132v329h-84v-880z" />
<glyph unicode="&#xb0b5;" d="M76 314h106q144 0 272 36v71q-147 -33 -263 -33h-27v355h-88v-429zM199 118h519v-254h86v328h-605v-74zM502 244h82v250h137v-250h83v536h-83v-216h-137v206h-82v-526z" />
<glyph unicode="&#xb0b8;" d="M73 296h109q145 0 273 36v72q-147 -33 -263 -33h-31v363h-88v-438zM224 -115h595v75h-508v213h-87v-288zM503 131h82v326h136v-346h83v669h-83v-251h-136v241h-82v-639z" />
<glyph unicode="&#xb0bc;" d="M63 366h119q145 0 273 32v68q-135 -29 -263 -29h-41v309h-88v-380zM211 208h508v-91h-504v-240h609v73h-524v96h504v235h-593v-73zM503 333h82v191h136v-191h83v447h-83v-185h-136v175h-82v-437z" />
<glyph unicode="&#xb0c4;" d="M63 325h119q145 0 273 36v71q-147 -33 -263 -33h-41v349h-88v-423zM219 -119h585v329h-585v-329zM305 -45v180h413v-180h-413zM503 262h82v226h136v-226h83v518h-83v-220h-136v210h-82v-508z" />
<glyph unicode="&#xb0c5;" d="M63 334h119q145 0 273 32v71q-135 -29 -263 -29h-41v340h-88v-414zM217 -119h587v359h-85v-103h-416v98h-86v-354zM302 -45v111h417v-111h-417zM503 292h82v212h136v-212h83v488h-83v-204h-136v194h-82v-478z" />
<glyph unicode="&#xb0c7;" d="M63 298h119q145 0 273 36v71q-147 -33 -263 -33h-41v366h-88v-440zM110 -63l53 -69q96 23 180 76.5t135 125.5q51 -75 135 -128.5t176 -73.5l49 70q-107 20 -192 73.5t-130 130.5q18 49 18 91h-94q-11 -222 -330 -296zM503 275h82v206h136v-309h83v608h-83v-227h-136v217 h-82v-495z" />
<glyph unicode="&#xb0c8;" d="M63 317h119q145 0 273 36v71q-147 -33 -263 -33h-41v357h-88v-431zM105 -69l61 -64q124 64 184 170q56 -102 149 -170q104 64 157 169q60 -106 180 -166l55 65q-166 81 -201 192q10 48 10 90h-86q12 -142 -108 -246q-81 56 -121 155q11 44 11 87h-88q10 -183 -203 -282z M503 271h82v228h136v-228h83v509h-83v-209h-136v199h-82v-499z" />
<glyph unicode="&#xb0c9;" d="M63 317h119q145 0 273 36v71q-147 -33 -263 -33h-41v357h-88v-431zM184 41q0 -81 80.5 -131.5t228.5 -50.5q150 0 230.5 50t80.5 131t-80.5 131.5t-230.5 50.5q-148 0 -228.5 -50t-80.5 -131zM274 40q0 48 56 80.5t163 32.5q108 0 164.5 -32.5t56.5 -80.5t-56.5 -79.5 t-164.5 -31.5t-163.5 31.5t-55.5 79.5zM503 271h82v224h136v-254h83v539h-83v-213h-136v203h-82v-499z" />
<glyph unicode="&#xb0d0;" d="M66 125h198q182 0 334 40v75q-166 -38 -322 -38h-121v512h-89v-589zM637 -133h86v387h157v75h-157v201h157v75h-157v175h-86v-913z" />
<glyph unicode="&#xb0d1;" d="M63 325h201q182 0 334 40v73q-166 -38 -322 -38h-124v348h-89v-423zM158 123h494v-259h86v334h-580v-75zM652 250h86v150h140v74h-141v112h141v74h-140v120h-86v-530z" />
<glyph unicode="&#xb0d4;" d="M68 294h196q182 0 334 40v74q-166 -38 -322 -38h-119v376h-89v-452zM182 -115h576v75h-489v202h-87v-277zM652 119h86v230h140v74h-141v132h141v74h-140v151h-86v-661z" />
<glyph unicode="&#xb0d8;" d="M63 373h201q182 0 334 36v70q-170 -34 -322 -34h-124v305h-89v-377zM171 122v-245h587v74h-502v98h482v233h-567v-74h482v-86h-482zM652 334h86v104h140v74h-141v96h141v74h-140v98h-86v-446z" />
<glyph unicode="&#xb0e0;" d="M63 327h201q182 0 334 40v73q-166 -38 -322 -38h-124v348h-89v-423zM178 -119h560v342h-560v-342zM264 -44v191h388v-191h-388zM652 275h86v160h140v74h-141v97h141v74h-140v100h-86v-505z" />
<glyph unicode="&#xb0e5;" d="M63 335h201q182 0 334 40v73q-166 -38 -322 -38h-124v340h-89v-415zM156 50q0 -87 76.5 -139t219.5 -52t219.5 51.5t76.5 138.5t-76.5 139t-219.5 52t-219.5 -51.5t-76.5 -138.5zM245 49q0 52 53 85t154 33q102 0 154 -33t52 -85t-52 -84t-154 -32q-101 0 -154 32.5 t-53 83.5zM652 253h86v169h140v74h-141v107h141v74h-140v103h-86v-527z" />
<glyph unicode="&#xb108;" d="M80 121l194 -1q182 0 334 40v75q-166 -38 -322 -38l-117 1v517h-89v-594zM421 419h274v-552h86v913h-86v-286h-274v-75z" />
<glyph unicode="&#xb109;" d="M81 313h223q182 0 334 40v73q-166 -38 -322 -38h-146v360h-89v-435zM191 121h504v-257h86v332h-590v-75zM420 525h275v-277h86v532h-86v-181h-275v-74z" />
<glyph unicode="&#xb10b;" d="M81 313h223q182 0 334 40v73q-166 -38 -322 -38h-146v360h-89v-435zM164 126h217v-260h84v59l57 -61q101 58 151 146q52 -88 147 -142l58 64q-119 58 -168 167q15 56 12 122h-85q3 -111 -34.5 -177t-137.5 -116v273h-301v-75zM420 526h275v-273h86v527h-86v-180h-275v-74 z" />
<glyph unicode="&#xb10c;" d="M84 286h192q182 0 334 40v74q-166 -38 -322 -38h-115v384h-89v-460zM211 -115h590v75h-503v202h-87v-277zM420 520h275v-401h86v661h-86v-184h-275v-76z" />
<glyph unicode="&#xb110;" d="M85 374h191q182 0 334 36v70q-170 -34 -322 -34h-114v304h-89v-376zM207 117v-240h594v74h-509v93h489v237h-574v-74h489v-90h-489zM420 562h275v-229h86v447h-86v-142h-275v-76z" />
<glyph unicode="&#xb112;" d="M85 378h191q182 0 334 36v70q-170 -34 -322 -34h-114v300h-89v-372zM175 118v-241h129q113 0 178 19v73q-66 -18 -150 -18h-74v96h191v237h-274v-73h192v-93h-192zM420 568h275v-232h86v444h-86v-136h-275v-76zM506 -123h275v407h-275v-407zM582 -54v270h117v-270h-117z " />
<glyph unicode="&#xb113;" d="M85 378h191q182 0 334 36v70q-170 -34 -322 -34h-114v300h-89v-372zM165 118v-241h123q113 0 178 19v75q-66 -18 -150 -18h-68v94h191v237h-274v-73h191v-93h-191zM420 567h275v-231h86v444h-86v-137h-275v-76zM494 -123h287v412h-81v-137h-127v132h-79v-407zM573 -53 v136h127v-136h-127z" />
<glyph unicode="&#xb118;" d="M85 335h191q182 0 334 40v73q-166 -38 -322 -38h-114v340h-89v-415zM211 -119h570v342h-570v-342zM297 -44v191h398v-191h-398zM420 550h275v-275h86v505h-86v-154h-275v-76z" />
<glyph unicode="&#xb119;" d="M85 349h191q182 0 334 36v73q-170 -34 -322 -34h-114v326h-89v-401zM209 -119h572v379h-85v-113h-402v108h-85v-374zM294 -44v120h402v-120h-402zM420 557h275v-245h86v468h-86v-147h-275v-76z" />
<glyph unicode="&#xb11b;" d="M85 316h191q182 0 334 40v73q-166 -38 -322 -38h-114v359h-89v-434zM132 -63l52 -69q94 23 176 76.5t132 126.5q51 -76 132.5 -129.5t171.5 -73.5l49 70q-104 21 -187 75.5t-127 131.5q17 45 19 98h-94q-6 -118 -91.5 -194t-232.5 -112zM420 543h275v-374h86v611h-86 v-161h-275v-76z" />
<glyph unicode="&#xb11c;" d="M85 335h191q182 0 334 40v73q-166 -38 -322 -38h-114v340h-89v-415zM102 -69l60 -64q121 65 180 176q57 -107 146 -176q100 65 154 173q63 -111 176 -169l55 64q-164 83 -198 199q11 47 11 93h-86q12 -148 -105 -256q-81 62 -118 164q11 44 11 88h-88q10 -192 -198 -292z M420 547h275v-274h86v507h-86v-157h-275v-76z" />
<glyph unicode="&#xb11d;" d="M85 325h191q182 0 334 40v73q-166 -38 -322 -38h-114v350h-89v-425zM184 45q0 -84 78 -135t224 -51t224.5 50.5t78.5 134.5q0 85 -78.5 136t-224.5 51t-224 -51t-78 -135zM273 44q0 50 54 83t158 33q106 0 160 -32.5t54 -83.5q0 -50 -54 -82t-160 -32q-104 0 -158 32 t-54 82zM420 544h275v-311h86v547h-86v-160h-275v-76z" />
<glyph unicode="&#xb123;" d="M81 357h218q182 0 334 36v71q-170 -34 -322 -34h-141v320h-89v-393zM155 122h661v66h-661v-66zM217 -22q0 -56 69 -87.5t200 -31.5t200 31.5t69 87.5q0 54 -69 85t-200 31t-200 -31t-69 -85zM308 -22q0 15 16 27t57.5 20.5t104.5 8.5t104.5 -8.5t57.5 -20.5t16 -27 q0 -55 -178 -55t-178 55zM320 228h321v67h-321v-67zM420 549h275v-264h86v495h-86v-159h-275v-72z" />
<glyph unicode="&#xb124;" d="M62 124h111q145 0 273 36v73q-147 -33 -263 -33h-33v512h-88v-588zM309 414h198v-524h85v880h-85v-281h-198v-75zM710 -133h86v913h-86v-913z" />
<glyph unicode="&#xb125;" d="M76 299h106q144 0 272 36v71q-147 -33 -263 -33h-27v370h-88v-444zM199 118h519v-254h86v328h-605v-74zM335 513h186v-269h82v526h-82v-185h-186v-72zM721 244h83v536h-83v-536z" />
<glyph unicode="&#xb128;" d="M75 296h117q145 0 273 36v72q-147 -33 -263 -33h-39v363h-88v-438zM224 -115h595v75h-508v213h-87v-288zM340 509h181v-388h82v649h-82v-186h-181v-75zM721 101h83v679h-83v-679z" />
<glyph unicode="&#xb12c;" d="M75 356h109q145 0 273 32v68q-135 -29 -263 -29h-31v319h-88v-390zM211 208h508v-91h-504v-240h609v73h-524v96h504v235h-593v-73zM340 545h181v-212h82v437h-82v-150h-181v-75zM721 333h83v447h-83v-447z" />
<glyph unicode="&#xb134;" d="M75 327h109q145 0 273 36v71q-147 -33 -263 -33h-31v347h-88v-421zM219 -119h585v342h-585v-342zM305 -45v193h413v-193h-413zM340 532h181v-257h82v495h-82v-163h-181v-75zM721 275h83v505h-83v-505z" />
<glyph unicode="&#xb135;" d="M75 341h109q145 0 273 32v71q-135 -29 -263 -29h-31v333h-88v-407zM217 -119h587v369h-85v-105h-416v100h-86v-364zM302 -45v119h417v-119h-417zM340 542h181v-240h82v468h-82v-153h-181v-75zM721 302h83v478h-83v-478z" />
<glyph unicode="&#xb137;" d="M75 296h109q145 0 273 36v71q-147 -33 -263 -33h-31v378h-88v-452zM130 -63l53 -69q96 23 180 76.5t135 125.5q51 -75 135 -128.5t176 -73.5l49 70q-107 20 -192 73.5t-130 130.5q18 49 18 91h-94q-11 -222 -330 -296zM340 513h181v-243h82v500h-82v-182h-181v-75z M721 167h83v613h-83v-613z" />
<glyph unicode="&#xb138;" d="M75 319h109q145 0 273 36v71q-147 -33 -263 -33h-31v355h-88v-429zM105 -69l61 -64q124 64 184 170q56 -102 149 -170q104 64 157 169q60 -106 180 -166l55 65q-166 81 -201 192q10 48 10 90h-86q12 -142 -108 -246q-81 56 -121 155q11 44 11 87h-88q10 -183 -203 -282z M340 528h181v-267h82v509h-82v-167h-181v-75zM721 261h83v519h-83v-519z" />
<glyph unicode="&#xb139;" d="M75 317h109q145 0 273 36v71q-147 -33 -263 -33h-31v357h-88v-431zM190 42q0 -81 80.5 -132t228.5 -51q150 0 230.5 50.5t80.5 131.5q0 82 -80.5 133t-230.5 51q-148 0 -228.5 -50.5t-80.5 -132.5zM280 41q0 49 56 81.5t163 32.5q108 0 164.5 -32.5t56.5 -81.5 q0 -48 -56.5 -79.5t-164.5 -31.5t-163.5 31.5t-55.5 79.5zM340 526h181v-255h82v499h-82v-169h-181v-75zM721 241h83v539h-83v-539z" />
<glyph unicode="&#xb140;" d="M76 115h198q182 0 334 40v75q-166 -38 -322 -38h-121v522h-89v-599zM433 327h262v-460h86v913h-86v-164h-262v-73h263v-143h-263v-73z" />
<glyph unicode="&#xb141;" d="M81 302h223q182 0 334 40v72q-166 -38 -322 -38h-146v372h-89v-446zM191 118h504v-254h86v329h-590v-75zM438 462h257v-217h86v535h-86v-105h-257v-67h258v-78h-258v-68z" />
<glyph unicode="&#xb144;" d="M84 256h192q182 0 334 40v74q-166 -38 -322 -38h-115v414h-89v-490zM211 -115h590v75h-503v202h-87v-277zM438 432h257v-313h86v661h-86v-110h-257v-71h258v-95h-258v-72z" />
<glyph unicode="&#xb148;" d="M85 334h191q182 0 334 36v69q-170 -34 -322 -34h-114v345h-89v-416zM207 105v-228h594v74h-509v84h489v226h-574v-72h489v-84h-489zM438 480h257v-167h86v467h-86v-96h-257v-67h258v-69h-258v-68z" />
<glyph unicode="&#xb150;" d="M85 303h191q182 0 334 40v72q-166 -38 -322 -38h-114v373h-89v-447zM211 -119h570v327h-570v-327zM297 -44v176h398v-176h-398zM438 465h257v-205h86v520h-86v-99h-257v-68h258v-79h-258v-69z" />
<glyph unicode="&#xb151;" d="M85 329h191q182 0 334 36v72q-170 -34 -322 -34h-114v347h-89v-421zM209 -119h572v369h-85v-109h-401v104h-86v-364zM294 -44v114h402v-114h-402zM438 483h257v-181h86v478h-86v-86h-257v-67h258v-76h-258v-68z" />
<glyph unicode="&#xb154;" d="M85 303h191q182 0 334 40v72q-166 -38 -322 -38h-114v373h-89v-447zM103 -70l60 -62q120 62 180 169q58 -105 146 -169q100 62 154 166q62 -106 176 -163l55 63q-164 81 -198 191q11 46 11 91h-86q7 -81 -21.5 -139.5t-83.5 -107.5q-80 60 -118 158q11 42 11 85h-88 q10 -184 -198 -282zM438 463h257v-203h86v520h-86v-99h-257v-69h258v-79h-258v-70z" />
<glyph unicode="&#xb155;" d="M85 293h191q182 0 334 40v73q-166 -38 -322 -38h-114v382h-89v-457zM184 45q0 -83 78.5 -134.5t222.5 -51.5q147 0 225.5 51t78.5 134t-79 134.5t-225 51.5q-145 0 -223 -51t-78 -134zM273 45q0 48 54.5 80t157.5 32q105 0 159.5 -32t54.5 -80t-54.5 -80t-159.5 -32 q-103 0 -157.5 32t-54.5 80zM438 461h257v-231h86v550h-86v-99h-257v-69h258v-81h-258v-70z" />
<glyph unicode="&#xb158;" d="M85 314h191q182 0 334 40v69q-166 -38 -322 -38h-114v363h-89v-434zM188 -21h236q171 0 271 18v-133h86v364h-583v-72h497v-94q-109 -12 -253 -12h-254v-71zM438 468h257v-188h86v500h-86v-98h-257v-68h258v-77h-258v-69z" />
<glyph unicode="&#xb15c;" d="M62 119h117q145 0 273 36v73q-147 -33 -263 -33h-39v517h-88v-593zM334 314h180v-424h86v880h-86v-191h-180v-73h181v-119h-181v-73zM710 -133h86v913h-86v-913z" />
<glyph unicode="&#xb160;" d="M73 261h109q145 0 273 36v72q-147 -33 -263 -33h-31v398h-88v-473zM224 -115h595v75h-508v203h-87v-278zM359 428h178v-307h82v649h-82v-121h-178v-71h179v-78h-179v-72zM721 101h83v679h-83v-679z" />
<glyph unicode="&#xb178;" d="M21 3h850v73h-365v224h248v74h-490v346h-87v-420h241v-224h-397v-73z" />
<glyph unicode="&#xb179;" d="M11 269h870v74h-392v134h263v73h-503v227h-88v-300h239v-134h-389v-74zM137 94h517v-230h86v305h-603v-75z" />
<glyph unicode="&#xb17c;" d="M11 232h870v74h-392v157h263v73h-503v241h-88v-314h239v-157h-389v-74zM153 -119h605v75h-519v207h-86v-282z" />
<glyph unicode="&#xb180;" d="M11 345h870v71h-392v107h263v73h-504v181h-88v-254h240v-107h-389v-71zM151 99v-232h614v71h-529v93h505v234h-590v-71h505v-95h-505z" />
<glyph unicode="&#xb182;" d="M11 348h870v71h-392v106h263v73h-504v179h-88v-252h240v-106h-389v-71zM135 107v-240h134q117 0 178 18v71q-62 -17 -150 -17h-79v99h198v230h-281v-71h199v-90h-199zM469 -133h282v401h-282v-401zM545 -64v264h124v-264h-124z" />
<glyph unicode="&#xb188;" d="M11 299h870v74h-392v120h263v73h-503v211h-88v-284h239v-120h-389v-74zM152 -119h588v316h-588v-316zM238 -44v167h416v-167h-416z" />
<glyph unicode="&#xb189;" d="M11 310h870v74h-392v122h263v73h-503v198h-88v-271h239v-122h-389v-74zM152 -119h588v358h-86v-100h-416v100h-86v-358zM237 -45v112h418v-112h-418z" />
<glyph unicode="&#xb18b;" d="M11 261h870v74h-392v144h263v73h-503v225h-88v-298h239v-144h-389v-74zM76 -60l47 -72q97 20 182 69.5t137 118.5q53 -62 143.5 -115t184.5 -73l47 72q-249 60 -332 188q18 46 19 90h-90q-4 -106 -99.5 -179.5t-238.5 -98.5z" />
<glyph unicode="&#xb18d;" d="M11 273h870v74h-392v134h263v73h-503v223h-88v-296h239v-134h-389v-74zM135 36q0 -78 81.5 -127.5t229.5 -49.5t228.5 49.5t80.5 127.5t-80 125t-229 47t-230 -47.5t-81 -124.5zM229 36q0 44 51.5 74t165.5 30q113 0 164.5 -30t51.5 -74t-51.5 -74.5t-164.5 -30.5 q-114 0 -165.5 30.5t-51.5 74.5z" />
<glyph unicode="&#xb192;" d="M11 291h870v74h-392v125h263v73h-503v214h-88v-287h239v-125h-389v-74zM118 -46v-73h656v73h-114l3 177h97v72h-632v-72h102l3 -177h-115zM316 131h261l-3 -177h-255z" />
<glyph unicode="&#xb193;" d="M11 357h870v70h-392v100h263v73h-505v187h-88v-260h241v-100h-389v-70zM96 131h706v63h-706v-63zM177 -24q0 -117 272 -117t272 117q0 118 -272 118t-272 -118zM267 243h365v64h-365v-64zM268 -24q0 56 181 56t181 -56t-181 -56t-181 56z" />
<glyph unicode="&#xb194;" d="M11 74h188q238 0 418 27v69q-108 -14 -246 -19v195h181v73h-368v301h-88v-374h188v-197q-24 -1 -72 -1h-201v-74zM662 -133h83v478h145v74h-145v361h-83v-913z" />
<glyph unicode="&#xb198;" d="M15 213h148q258 0 457 28v71q-105 -14 -251 -20v144h193v73h-378v238h-88v-311h186v-147q-86 -2 -120 -2h-147v-74zM170 -115h595v75h-508v158h-87v-233zM664 81h86v317h132v76h-132v306h-86v-699z" />
<glyph unicode="&#xb19c;" d="M15 320h148q258 0 457 28v69q-105 -14 -251 -20v106h195v75h-384v184h-88v-259h190v-109q-86 -2 -120 -2h-147v-72zM176 104v-227h594v75h-509v79h489v225h-574v-75h489v-77h-489zM664 309h86v190h132v76h-132v205h-86v-471z" />
<glyph unicode="&#xb1a8;" d="M15 263h148q258 0 457 28v71q-105 -14 -251 -20v109h193v75h-378v236h-88v-311h186v-112q-86 -2 -120 -2h-147v-74zM81 -69l60 -63q121 58 180 163q57 -101 146 -163q104 63 154 160q61 -102 176 -157l55 64q-163 78 -197 182q10 47 10 88h-86q12 -135 -105 -236 q-80 58 -117 150q10 43 10 83h-88q10 -176 -198 -271zM664 243h86v217h132v76h-132v244h-86v-537z" />
<glyph unicode="&#xb1cc;" d="M36 74h215q238 0 418 27v69q-115 -15 -266 -20v198h189v73h-382v299h-83v-372h189v-200h-280v-74zM719 -133h86v913h-86v-913z" />
<glyph unicode="&#xb1d0;" d="M46 213h172q258 0 457 28v71q-106 -14 -270 -21v145h193v73h-378v238h-88v-311h186v-148q-36 -1 -101 -1h-171v-74zM216 -115h603v75h-516v158h-87v-233zM719 81h86v699h-86v-699z" />
<glyph unicode="&#xb1d4;" d="M36 331h182q254 0 457 27v70q-95 -13 -270 -20v107h193v75h-383v172h-88v-247h191v-110q-36 -1 -101 -1h-181v-73zM215 105v-228h609v73h-524v84h504v224h-589v-73h504v-80h-504zM719 310h86v470h-86v-470z" />
<glyph unicode="&#xb1dc;" d="M36 256h182q258 0 457 28v72q-106 -14 -270 -21v123h197v75h-377v225h-88v-300h181v-126q-36 -1 -101 -1h-181v-75zM218 -119h587v296h-587v-296zM304 -45v147h415v-147h-415zM719 228h86v552h-86v-552z" />
<glyph unicode="&#xb1dd;" d="M36 287h182q254 0 457 27v70q-95 -13 -270 -20v118h197v75h-377v205h-88v-280h181v-121q-36 -1 -101 -1h-181v-73zM217 -119h587v337h-85v-93h-416v83h-86v-327zM302 -45v99h417v-99h-417zM719 267h86v513h-86v-513z" />
<glyph unicode="&#xb1df;" d="M36 256h182q258 0 457 28v72q-106 -14 -270 -21v123h197v75h-377v225h-88v-300h181v-126q-36 -1 -101 -1h-181v-75zM141 -61l46 -72q234 58 329 191q91 -131 323 -185l46 71q-256 50 -327 196q10 27 13 60h-90q-7 -94 -98.5 -162t-241.5 -99zM719 178h86v602h-86v-602z " />
<glyph unicode="&#xb1e8;" d="M21 8h850v73h-242v227h129v74h-498v343h-87v-417h127v-227h-279v-73zM385 81v227h159v-227h-159z" />
<glyph unicode="&#xb1e9;" d="M11 261h870v73h-256v149h127v73h-503v221h-88v-294h120v-149h-270v-73zM137 94h517v-230h86v304h-603v-74zM368 333v150h170v-150h-170z" />
<glyph unicode="&#xb1ec;" d="M11 227h870v73h-255v167h126v73h-503v237h-88v-310h121v-167h-271v-73zM153 -119h605v75h-519v204h-86v-279zM369 299v168h170v-168h-170z" />
<glyph unicode="&#xb1f0;" d="M11 342h870v70h-260v114h131v73h-509v178h-88v-251h130v-114h-274v-70zM151 103v-236h614v71h-529v97h505v226h-590v-71h505v-87h-505zM372 411v115h162v-115h-162z" />
<glyph unicode="&#xb1f9;" d="M11 313h870v73h-259v126h135v73h-513v192h-88v-265h124v-126h-269v-73zM152 -119h588v361h-86v-98h-416v98h-86v-361zM237 -44v116h418v-116h-418zM367 385v127h168v-127h-168z" />
<glyph unicode="&#xb1fb;" d="M11 262h870v73h-256v148h133v73h-513v221h-88v-294h119v-148h-265v-73zM76 -61l47 -71q97 20 182.5 69t137.5 118q51 -61 141.5 -113.5t185.5 -73.5l47 72q-247 58 -333 186q19 45 20 90h-90q-4 -105 -100 -179t-238 -98zM363 334v149h175v-149h-175z" />
<glyph unicode="&#xb1fd;" d="M11 267h870v73h-254v141h135v73h-518v223h-88v-296h118v-141h-263v-73zM135 37q0 -79 81 -128.5t230 -49.5q148 0 228.5 49.5t80.5 128.5q0 78 -80 125.5t-229 47.5q-150 0 -230.5 -47.5t-80.5 -125.5zM229 37q0 44 51.5 74t165.5 30q113 0 164.5 -30t51.5 -74 q0 -45 -51 -75t-165 -30t-165.5 30t-51.5 75zM361 339v142h179v-142h-179z" />
<glyph unicode="&#xb204;" d="M21 193h390v-321h88v321h372v73h-850v-73zM172 401h590v74h-503v283h-87v-357z" />
<glyph unicode="&#xb205;" d="M11 302h389v-131h-263v-75h517v-232h86v307h-251v131h392v74h-870v-74zM156 487h596v73h-508v217h-88v-290z" />
<glyph unicode="&#xb208;" d="M11 272h405v-206h89v206h376v74h-870v-74zM153 -119h615v75h-529v204h-86v-279zM156 467h596v73h-508v237h-88v-310z" />
<glyph unicode="&#xb20b;" d="M11 308h389v-126h-248v-301h607v75h-521v152h504v74h-253v126h392v74h-870v-74zM156 488h596v73h-508v216h-88v-289z" />
<glyph unicode="&#xb20c;" d="M11 369h389v-106h-249v-71h505v-88h-505v-237h614v71h-529v98h505v227h-252v106h392v71h-870v-71zM155 523h597v73h-509v181h-88v-254z" />
<glyph unicode="&#xb214;" d="M11 311h389v-127h-248v-303h588v303h-251v127h392v74h-870v-74zM156 493h596v73h-508v201h-88v-274zM238 -44v154h416v-154h-416z" />
<glyph unicode="&#xb215;" d="M11 337h389v-141h89v141h392v74h-870v-74zM152 -119h588v363h-86v-106h-416v106h-86v-363zM156 509h596v73h-508v185h-88v-258zM237 -45v111h418v-111h-418z" />
<glyph unicode="&#xb217;" d="M11 327h389v-104h89v104h392v74h-870v-74zM76 -60l47 -72q103 21 189.5 66.5t135.5 109.5q53 -58 141.5 -107.5t180.5 -68.5l47 72q-247 59 -329 179q10 31 12 69h-90q-6 -190 -334 -248zM156 496h596v73h-508v198h-88v-271z" />
<glyph unicode="&#xb219;" d="M11 317h389v-111q-128 -7 -196.5 -53.5t-68.5 -116.5q0 -78 81.5 -127.5t229.5 -49.5t228.5 49.5t80.5 127.5q0 71 -68.5 117t-197.5 53v111h392v74h-870v-74zM156 492h596v73h-508v202h-88v-275zM229 36q0 44 51.5 73.5t165.5 29.5t165 -29.5t51 -73.5t-51.5 -74.5 t-164.5 -30.5q-114 0 -165.5 30.5t-51.5 74.5z" />
<glyph unicode="&#xb220;" d="M36 205h189q46 0 71 1v-319h88v321q168 7 288 25v71q-202 -24 -433 -24h-203v-75zM121 396h461v75h-373v251h-88v-326zM513 51h208v-184h84v913h-84v-654h-208v-75z" />
<glyph unicode="&#xb234;" d="M37 375h223v-164h88v167q180 6 317 25v70q-188 -25 -458 -25h-170v-73zM107 -71l61 -61q126 51 184 142q55 -87 149 -142q106 53 158 141q55 -86 179 -139l55 64q-165 74 -200 158q9 36 9 77h-86q7 -67 -22.5 -114.5t-85.5 -85.5q-82 46 -120 121q10 40 10 76h-88 q5 -79 -48.5 -136t-154.5 -101zM127 522h446v74h-358v166h-88v-240zM495 265h224v-56h86v571h-86v-446h-224v-69z" />
<glyph unicode="&#xb23c;" d="M7 235h201v-333h84v336q121 5 211 22v69q-145 -23 -324 -23h-172v-71zM83 415h361v73h-279v229h-82v-302zM389 72h158v-175h82v873h-82v-626h-158v-72zM713 -133h83v913h-83v-913z" />
<glyph unicode="&#xb258;" d="M36 188h187q53 0 82 1v-302h88v305q157 7 277 24v71q-202 -24 -433 -24h-201v-75zM119 386h461v75h-373v261h-88v-336zM719 -133h86v913h-86v-913z" />
<glyph unicode="&#xb25c;" d="M36 285h172q36 0 120 2v-172h86v176q139 6 251 22v72q-188 -25 -458 -25h-171v-75zM137 458h465v75h-377v212h-88v-287zM175 -115h645v74h-558v165h-87v-239zM719 81h86v699h-86v-699z" />
<glyph unicode="&#xb260;" d="M36 381h172q43 0 66 1v-95h88v97q188 9 303 25v70q-188 -25 -458 -25h-171v-73zM127 528h466v75h-378v169h-88v-244zM215 100v-223h610v73h-525v81h505v214h-590v-73h504v-72h-504zM719 297h86v483h-86v-483z" />
<glyph unicode="&#xb268;" d="M36 321h172q64 0 98 1v-121h88v125q155 6 271 23v70q-188 -25 -458 -25h-171v-73zM137 490h465v75h-377v191h-88v-266zM219 -119h586v279h-586v-279zM305 -47v135h414v-135h-414zM719 211h86v569h-86v-569z" />
<glyph unicode="&#xb269;" d="M36 334h172q35 0 117 2v-126h85v130q141 6 255 22v70q-188 -25 -458 -25h-171v-73zM137 498h465v75h-377v193h-88v-268zM208 -119h598v331h-85v-85h-427v80h-86v-326zM293 -45v101h428v-101h-428zM720 257h86v523h-86v-523z" />
<glyph unicode="&#xb274;" d="M21 193h237v-321h87v321h225v-321h87v321h214v73h-850v-73zM168 401h600v74h-513v283h-87v-357z" />
<glyph unicode="&#xb275;" d="M11 306h233v-138h-107v-74h517v-230h86v304h-93v138h234v73h-870v-73zM156 489h596v73h-508v215h-88v-288zM331 168v139h229v-139h-229z" />
<glyph unicode="&#xb27c;" d="M11 371h240v-106h-100v-71h505v-92h-505v-235h614v71h-529v96h505v231h-100v106h240v70h-870v-70zM155 523h597v73h-509v181h-88v-254zM338 265v107h216v-107h-216z" />
<glyph unicode="&#xb284;" d="M11 322h238v-132h-97v-309h588v309h-98v132h239v73h-870v-73zM156 495h596v73h-508v209h-88v-282zM238 -44v160h416v-160h-416zM336 190v133h219v-133h-219z" />
<glyph unicode="&#xb285;" d="M11 349h250v-141h87v142h195v-142h87v141h251v73h-870v-73zM152 -119h588v351h-86v-100h-416v100h-86v-351zM156 509h596v73h-508v195h-88v-268zM237 -44v104h418v-104h-418z" />
<glyph unicode="&#xb289;" d="M11 321h228v-150q-104 -45 -104 -136q0 -78 81 -127t230 -49q148 0 228.5 49t80.5 127q0 89 -103 136v150h229v73h-870v-73zM156 491h596v73h-508v203h-88v-276zM229 35q0 44 51.5 73.5t165.5 29.5t165 -29.5t51 -73.5t-51.5 -74t-164.5 -30q-114 0 -165.5 30t-51.5 74z M326 196v126h239v-126q-50 10 -119 10q-70 0 -120 -10z" />
<glyph unicode="&#xb290;" d="M21 3h850v73h-850v-73zM177 300h577v74h-490v346h-87v-420z" />
<glyph unicode="&#xb291;" d="M11 289h870v74h-870v-74zM137 107h517v-243h86v317h-603v-74zM156 477h596v73h-508v227h-88v-300z" />
<glyph unicode="&#xb294;" d="M11 249h870v74h-870v-74zM153 -119h605v75h-519v207h-86v-282zM156 454h596v73h-508v250h-88v-323z" />
<glyph unicode="&#xb298;" d="M11 357h870v71h-870v-71zM151 101v-234h614v71h-529v95h505v233h-590v-71h505v-94h-505zM155 513h597v73h-509v191h-88v-264z" />
<glyph unicode="&#xb299;" d="M11 358h870v71h-870v-71zM136 105v-238h184q116 0 178 18v71q-62 -17 -150 -17h-129v97h215v237h-298v-71h211v-97h-211zM155 514h597v73h-509v190h-88v-263zM472 200h191v-353h86v426h-277v-73z" />
<glyph unicode="&#xb29a;" d="M11 358h870v71h-870v-71zM135 106v-239h134q117 0 178 18v71q-62 -17 -150 -17h-79v98h198v236h-281v-71h199v-96h-199zM155 514h597v73h-509v190h-88v-263zM469 -133h282v406h-282v-406zM545 -64v269h124v-269h-124z" />
<glyph unicode="&#xb2a0;" d="M11 312h870v74h-870v-74zM152 -119h588v314h-588v-314zM156 496h596v73h-508v208h-88v-281zM238 -44v165h416v-165h-416z" />
<glyph unicode="&#xb2a1;" d="M11 329h870v74h-870v-74zM152 -119h588v370h-86v-102h-416v102h-86v-370zM156 497h596v73h-508v207h-88v-280zM237 -45v122h418v-122h-418z" />
<glyph unicode="&#xb2a3;" d="M11 284h870v74h-870v-74zM76 -61l45 -71q97 21 182.5 70.5t137.5 117.5q52 -62 143.5 -115t186.5 -73l46 71q-253 63 -334 190q19 43 21 93h-90q-4 -109 -99 -183t-239 -100zM156 473h596v73h-508v231h-88v-304z" />
<glyph unicode="&#xb2a5;" d="M11 296h870v74h-870v-74zM135 40q0 -80 81 -130.5t230 -50.5q148 0 228.5 50.5t80.5 130.5t-80 128t-229 48q-150 0 -230.5 -48t-80.5 -128zM156 484h596v73h-508v220h-88v-293zM229 39q0 47 51.5 78t165.5 31t165 -31t51 -78q0 -46 -51.5 -77t-164.5 -31 q-114 0 -165.5 31t-51.5 77z" />
<glyph unicode="&#xb2a6;" d="M11 316h870v74h-870v-74zM73 -65l51 -70q177 41 325 111q166 -73 332 -108l51 70q-170 35 -294 84q147 83 193 172q6 12 2.5 20.5t-16.5 8.5q-92 -2 -258 -2h-299v-74h199q147 0 228 3q-57 -57 -197.5 -117.5t-316.5 -97.5zM156 486h596v73h-508v218h-88v-291z" />
<glyph unicode="&#xb2aa;" d="M11 324h870v74h-870v-74zM113 -46v-73h661v73h-117l3 194h100v72h-637v-72h105l3 -194h-118zM156 497h596v73h-508v207h-88v-280zM314 148h260l-3 -194h-254z" />
<glyph unicode="&#xb2ac;" d="M36 79h218q238 0 418 27v69q-182 -22 -405 -22h-231v-74zM126 336h462v73h-379v306h-83v-379zM722 -133h83v913h-83v-913z" />
<glyph unicode="&#xb2b0;" d="M36 240h172q258 0 457 28v72q-188 -25 -458 -25h-171v-75zM137 428h470v75h-382v222h-88v-297zM199 -115h621v75h-534v164h-87v-239zM719 91h86v689h-86v-689z" />
<glyph unicode="&#xb2b4;" d="M31 345h187q259 0 457 31v70q-189 -28 -458 -28h-186v-73zM124 503h489v75h-401v184h-88v-259zM215 106v-229h609v73h-524v85h504v226h-589v-73h504v-82h-504zM719 313h86v467h-86v-467z" />
<glyph unicode="&#xb2c8;" d="M80 130h224q182 0 334 40v75q-166 -38 -322 -38h-147v507h-89v-584zM695 -133h86v913h-86v-913z" />
<glyph unicode="&#xb2c9;" d="M81 325h223q182 0 334 40v73q-166 -38 -322 -38h-146v348h-89v-423zM191 123h504v-259h86v334h-590v-75zM695 250h86v530h-86v-530z" />
<glyph unicode="&#xb2cc;" d="M83 294h221q182 0 334 40v74q-166 -38 -322 -38h-144v376h-89v-452zM211 -115h590v75h-503v202h-87v-277zM695 119h86v661h-86v-661z" />
<glyph unicode="&#xb2d0;" d="M83 394h221q182 0 334 36v70q-170 -34 -322 -34h-144v284h-89v-356zM207 119v-242h594v74h-509v95h489v239h-574v-74h489v-92h-489zM695 337h86v443h-86v-443z" />
<glyph unicode="&#xb2d2;" d="M83 376h221q182 0 334 36v70q-170 -34 -322 -34h-144v302h-89v-374zM175 119v-242h129q113 0 178 19v73q-66 -18 -150 -18h-74v97h191v240h-274v-73h192v-96h-192zM506 -123h275v411h-275v-411zM582 -54v274h117v-274h-117zM695 340h86v440h-86v-440z" />
<glyph unicode="&#xb2d8;" d="M83 355h221q182 0 334 40v73q-166 -38 -322 -38h-144v320h-89v-395zM211 -119h570v352h-570v-352zM297 -44v201h398v-201h-398zM695 285h86v495h-86v-495z" />
<glyph unicode="&#xb2d9;" d="M83 373h221q182 0 334 36v73q-170 -34 -322 -34h-144v302h-89v-377zM209 -119h572v389h-85v-116h-402v111h-85v-384zM294 -44v127h402v-127h-402zM695 322h86v458h-86v-458z" />
<glyph unicode="&#xb2db;" d="M83 316h221q182 0 334 40v73q-166 -38 -322 -38h-144v359h-89v-434zM132 -63l52 -69q94 23 176 76.5t132 126.5q51 -76 132.5 -129.5t171.5 -73.5l49 70q-104 21 -187 75.5t-127 131.5q17 45 19 98h-94q-6 -118 -91.5 -194t-232.5 -112zM695 179h86v601h-86v-601z" />
<glyph unicode="&#xb2dd;" d="M83 345h221q182 0 334 40v73q-166 -38 -322 -38h-144v330h-89v-405zM184 55q0 -87 78.5 -141.5t223.5 -54.5q146 0 224.5 51t78.5 134t-78.5 134.5t-224.5 51.5q-149 0 -225.5 -45t-76.5 -130zM273 44q0 49 54.5 83t157.5 34q105 0 159.5 -33.5t54.5 -83.5t-54.5 -82.5 t-159.5 -32.5q-103 0 -157.5 32.5t-54.5 82.5zM695 233h86v547h-86v-547z" />
<glyph unicode="&#xb2e2;" d="M83 340h221q182 0 334 36v73q-170 -34 -322 -34h-144v335h-89v-410zM170 -47v-72h635v72h-117l3 196h100v72h-611v-72h100l5 -196h-115zM366 149h239l-3 -196h-231zM695 273h86v507h-86v-507z" />
<glyph unicode="&#xb2e4;" d="M70 101h176q86 0 180 11.5t154 28.5v73q-173 -37 -322 -37h-100v452h334v73h-422v-601zM647 -133h86v489h157v75h-157v349h-86v-913z" />
<glyph unicode="&#xb2e5;" d="M66 309h191q194 0 334 35v72q-172 -32 -322 -32h-115v280h336v74h-424v-429zM158 123h494v-259h86v334h-580v-75zM652 250h86v241h144v76h-144v213h-86v-530z" />
<glyph unicode="&#xb2e6;" d="M66 314h191q194 0 334 35v72q-172 -32 -322 -32h-115v275h336v74h-424v-424zM132 126h205v-262h86v339h-291v-77zM466 126h186v-262h86v339h-272v-77zM652 255h86v236h144v76h-144v213h-86v-525z" />
<glyph unicode="&#xb2e8;" d="M66 284h196q194 0 334 35v70q-172 -32 -322 -32h-120v301h336v74h-424v-448zM183 -115h575v75h-488v192h-87v-267zM652 110h86v347h144v76h-144v246h-86v-669z" />
<glyph unicode="&#xb2eb;" d="M66 325h191q194 0 334 35v72q-172 -32 -322 -32h-115v264h336v74h-424v-413zM178 -119h578v75h-492v187h476v74h-562v-336zM652 269h86v230l144 2v76l-144 -2v205h-86v-511z" />
<glyph unicode="&#xb2ec;" d="M66 358h191q195 0 334 31v71q-185 -29 -322 -29h-115v233h336v74h-424v-380zM171 114v-237h587v74h-502v90h482v231l-567 -1v-74l482 1v-84h-482zM652 324h86v194h144v76h-144v186h-86v-456z" />
<glyph unicode="&#xb2ed;" d="M66 363h191q195 0 334 31v71q-185 -29 -322 -29h-115v228h336v74h-424v-375zM140 116v-239h182q110 0 178 20v72q-66 -18 -150 -18h-127v94h210v236h-293v-73h206v-92h-206zM470 208h182v-342l86 1v414h-268v-73zM652 333h86v188h144v76h-144v183h-86v-447z" />
<glyph unicode="&#xb2ee;" d="M66 363h191q195 0 334 31v71q-185 -29 -322 -29h-115v228h336v74h-424v-375zM142 116v-239h116q113 0 178 19v73q-66 -18 -150 -18h-61v96h188v234h-271v-73h189v-92h-189zM466 -123h272v404h-272v-404zM542 -54v267h114v-267h-114zM652 333h86v188h144v76h-144v183h-86 v-447z" />
<glyph unicode="&#xb2ef;" d="M66 363h191q195 0 334 31v71q-185 -29 -322 -29h-115v228h336v74h-424v-375zM132 115v-238h118q113 0 178 19v71q-66 -18 -150 -18h-63v99h186v233h-269v-73h186v-93h-186zM456 -123h282v409h-81v-139h-122v134h-79v-404zM535 -58v140h122v-140h-122zM652 333h86v188h144 v76h-144v183h-86v-447z" />
<glyph unicode="&#xb2f3;" d="M66 363h191q195 0 334 31v71q-185 -29 -322 -29h-115v228h336v74h-424v-375zM142 119v-242h126q113 0 178 19v72q-66 -18 -150 -18h-71v102h188v229h-271v-72h189v-90h-189zM441 127h351v62h-351v-62zM464 -17q0 -57 41 -90.5t111 -33.5q71 0 112 33.5t41 90.5 q1 53 -39.5 86t-113.5 33t-112.5 -33t-39.5 -86zM514 233h202v66h-202v-66zM543 -17q0 56 72 56q75 0 75 -56q0 -28 -19 -44t-56 -16q-35 0 -53.5 16t-18.5 44zM652 333h86v188h144v76h-144v183h-86v-447z" />
<glyph unicode="&#xb2f4;" d="M66 326h191q194 0 334 35v72q-172 -32 -322 -32h-115v263h336v74h-424v-412zM178 -119h560v329h-560v-329zM264 -44v178h388v-178h-388zM652 262h86v242h144v76h-144v200h-86v-518z" />
<glyph unicode="&#xb2f5;" d="M66 343h191q195 0 334 31v73q-185 -29 -322 -29h-115v246h336v74h-424v-395zM176 -119h562v368h-85v-114h-391v109h-86v-363zM261 -44v108h392v-108h-392zM652 301h86v218h144v76h-144v185h-86v-479z" />
<glyph unicode="&#xb2f7;" d="M66 300h191q194 0 334 35v72q-172 -32 -322 -32h-115v289h336v74h-424v-438zM104 -63l52 -69q93 22 173.5 74t128.5 123q51 -74 131 -125.5t169 -71.5l49 70q-102 20 -183.5 73t-125.5 128q17 44 19 94h-94q-6 -115 -90 -188t-229 -108zM652 169h86v327h144v76h-144v208 h-86v-611z" />
<glyph unicode="&#xb2f8;" d="M66 320h191q194 0 334 35v72q-172 -32 -322 -32h-115v269h336v74h-424v-418zM78 -70l60 -62q119 63 178 173q57 -108 143 -173q99 65 152 170q61 -109 174 -166l55 62q-162 82 -196 197q12 47 12 95h-88q12 -148 -102 -257q-78 64 -115 163q11 44 12 90h-90 q10 -193 -195 -292zM652 273h86v231h144v76h-144v200h-86v-507z" />
<glyph unicode="&#xb2f9;" d="M66 319h191q194 0 334 35v72q-172 -32 -322 -32h-115v270h336v74h-424v-419zM156 43q0 -82 77 -133t219 -51t219 50.5t77 132.5q0 83 -77 134t-219 51q-143 0 -219.5 -51t-76.5 -133zM245 43q0 48 53.5 80.5t153.5 32.5q101 0 153.5 -32.5t52.5 -80.5t-52.5 -80 t-153.5 -32q-100 0 -153.5 32t-53.5 80zM652 233h86v267h144v76h-144v204h-86v-547z" />
<glyph unicode="&#xb2fa;" d="M66 330h191q194 0 334 35v72q-172 -32 -322 -32h-115v259h336v74h-424v-408zM111 -65l45 -68q173 43 317 116q164 -74 311 -114l47 68q-136 35 -277 91q135 85 178 175q9 22 -13 22q-87 -2 -243 -2h-286v-73h194q138 0 214 4q-53 -59 -183 -118.5t-304 -100.5zM652 275 h86v228h144v76h-144v201h-86v-505z" />
<glyph unicode="&#xb2fb;" d="M66 350h191q194 0 334 35v70q-172 -32 -322 -32h-115v243h336v72h-424v-388zM124 -63l44 -70q188 36 317 90q128 -54 309 -88l41 69q-139 19 -265 59q124 68 157 152q4 10 -0.5 16.5t-12.5 6.5q-83 -2 -256 -2h-256v-70h184q112 0 208 4q-54 -51 -177 -95t-293 -72z M318 221h283v71h-283v-71zM652 287h86v235h144v76h-144v182h-86v-493z" />
<glyph unicode="&#xb2ff;" d="M66 373h198q194 0 334 35v70q-172 -32 -322 -32h-122v220h336v72h-424v-365zM124 129h657v66h-657v-66zM186 -20q0 -56 68.5 -88.5t198.5 -32.5t198.5 32.5t68.5 88.5q0 55 -68.5 86.5t-198.5 31.5t-198.5 -31.5t-68.5 -86.5zM277 -20q0 15 15.5 27.5t56.5 21.5t104 9 t104 -9t56.5 -21.5t15.5 -27.5q0 -57 -176 -57t-176 57zM289 241h317v67h-317v-67zM652 298h86v228h144v76h-144v178h-86v-482z" />
<glyph unicode="&#xb300;" d="M64 105h109q150 0 280 36v71q-150 -33 -269 -33h-33v448h233v74h-320v-596zM501 -110h84v476h125v-499h86v913h-86v-340h-125v330h-84v-880z" />
<glyph unicode="&#xb301;" d="M75 297h118q154 0 280 33v72q-152 -31 -269 -31h-43v288h246v73h-332v-435zM195 118h523v-254h86v328h-609v-74zM528 244h82v248h111v-248h83v536h-83v-218h-111v208h-82v-526z" />
<glyph unicode="&#xb304;" d="M72 282h111q72 0 155.5 10t134.5 23v72q-152 -31 -269 -31h-46v295h249v73h-335v-442zM230 -115h589v75h-502v208h-87v-283zM528 131h82v343h111v-363h83v669h-83v-232h-111v222h-82v-639z" />
<glyph unicode="&#xb308;" d="M72 358h121q150 0 280 30v70q-150 -28 -269 -28h-46v234h249v71h-335v-377zM211 198h508v-87h-504v-234h609v73h-524v90h504v231h-593v-73zM528 323h82v201h111v-201h83v457h-83v-183h-111v173h-82v-447z" />
<glyph unicode="&#xb310;" d="M72 327h121q154 0 280 33v72q-152 -31 -269 -31h-46v261h249v73h-335v-408zM219 -119h585v336h-585v-336zM305 -45v187h413v-187h-413zM528 269h82v236h111v-236h83v511h-83v-201h-111v191h-82v-501z" />
<glyph unicode="&#xb311;" d="M72 328h121q150 0 280 30v72q-150 -28 -269 -28h-46v260h249v73h-335v-407zM217 -119h587v369h-85v-108h-416v103h-86v-364zM302 -45v116h417v-116h-417zM528 302h82v207h111v-207h83v478h-83v-197h-111v187h-82v-468z" />
<glyph unicode="&#xb313;" d="M72 304h121q154 0 280 33v72q-152 -31 -269 -31h-46v284h249v73h-335v-431zM130 -63l53 -69q96 22 180.5 74.5t134.5 122.5q51 -73 134.5 -125t176.5 -72l49 70q-107 20 -191.5 71.5t-129.5 125.5q17 43 17 88h-94q-6 -112 -93 -182.5t-237 -103.5zM528 270h82v233h111 v-336h83v613h-83v-203h-111v193h-82v-500z" />
<glyph unicode="&#xb314;" d="M72 323h121q154 0 280 33v72q-152 -31 -269 -31h-46v265h249v73h-335v-412zM106 -70l61 -62q123 62 184 168q57 -102 149 -168q104 64 157 167q61 -105 180 -164l55 63q-166 81 -202 191q11 46 11 91h-86q7 -80 -22.5 -138.5t-85.5 -108.5q-83 59 -121 156q11 42 11 87 h-88q10 -183 -203 -282zM528 261h82v242h111v-242h83v519h-83v-203h-111v193h-82v-509z" />
<glyph unicode="&#xb315;" d="M72 313h121q154 0 280 33v72q-152 -31 -269 -31h-46v275h249v73h-335v-422zM192 40q0 -80 80.5 -130.5t228.5 -50.5q150 0 230.5 50t80.5 130q0 81 -80.5 131t-230.5 50q-148 0 -228.5 -50t-80.5 -130zM282 40q0 47 55.5 78t163.5 31t164.5 -31t56.5 -78t-56.5 -78 t-164.5 -31q-107 0 -163 31t-56 78zM528 271h82v231h111v-261h83v539h-83v-204h-111v194h-82v-499z" />
<glyph unicode="&#xb31c;" d="M70 101h176q86 0 180 11.5t154 28.5v73q-173 -37 -322 -37h-100v452h334v73h-422v-601zM647 -133h86v380h147v75h-147v201h147v75h-147v182h-86v-913z" />
<glyph unicode="&#xb354;" d="M80 96h176q86 0 180 11.5t154 28.5v73q-173 -37 -322 -37h-100v457h354v73h-442v-606zM431 379h264v-512h86v913h-86v-328h-264v-73z" />
<glyph unicode="&#xb355;" d="M78 292h191q198 0 334 34v72q-167 -31 -322 -31h-115v297h336v74h-424v-446zM191 106h504v-242h86v317h-590v-75zM460 487h235v-254h86v547h-86v-221h-235v-72z" />
<glyph unicode="&#xb356;" d="M78 295h191q198 0 334 34v72q-167 -31 -322 -31h-115v294h336v74h-424v-443zM165 109h203v-245h86v322h-289v-77zM460 488h235v-250h86v542h-86v-220h-235v-72zM497 109h198v-245h86v322h-284v-77z" />
<glyph unicode="&#xb358;" d="M81 276h188q194 0 334 35v69q-162 -31 -322 -31h-112v309h333v74h-421v-456zM211 -115h590v75h-503v192h-87v-267zM460 484h235v-374h86v670h-86v-227h-235v-69z" />
<glyph unicode="&#xb35b;" d="M81 303h188q198 0 334 34v70q-167 -31 -322 -31h-112v288h333v74h-421v-435zM211 -119h588v75h-502v171h486v74h-572v-320zM460 492h235v-239h86v527h-86v-217h-235v-71z" />
<glyph unicode="&#xb35c;" d="M78 357h191q196 0 334 29v70q-172 -27 -322 -27h-115v235h336v74h-424v-381zM207 117v-240h594v74h-509v93h489v237h-574v-74h489v-90h-489zM460 523h235v-190h86v447h-86v-185h-235v-72z" />
<glyph unicode="&#xb35e;" d="M78 357h191q196 0 334 29v70q-172 -27 -322 -27h-115v235h336v74h-424v-381zM175 117v-240h129q113 0 178 19v73q-66 -18 -150 -18h-74v95h191v238h-274v-73h192v-94h-192zM460 523h235v-187h86v444h-86v-185h-235v-72zM506 -123h275v407h-275v-407zM582 -54v270h117 v-270h-117z" />
<glyph unicode="&#xb35f;" d="M78 357h191q196 0 334 29v70q-172 -27 -322 -27h-115v235h336v74h-424v-381zM165 117v-240h123q113 0 178 19v75q-66 -18 -150 -18h-68v93h191v238h-274v-73h191v-94h-191zM460 523h235v-187h86v444h-86v-185h-235v-72zM494 -123h287v412h-81v-135h-127v130h-79v-407z M573 -53v138h127v-138h-127z" />
<glyph unicode="&#xb364;" d="M78 317h191q198 0 334 34v71q-167 -31 -322 -31h-115v273h336v74h-424v-421zM211 -119h570v337h-570v-337zM297 -44v186h398v-186h-398zM460 500h235v-230h86v510h-86v-208h-235v-72z" />
<glyph unicode="&#xb365;" d="M78 336h191q200 0 334 30v72q-178 -28 -322 -28h-115v254h336v74h-424v-402zM209 -119h572v376h-85v-96h-402v91h-85v-371zM294 -44v134h402v-134h-402zM460 512h235v-203h86v471h-86v-196h-235v-72z" />
<glyph unicode="&#xb367;" d="M78 298h191q198 0 334 34v72q-167 -31 -322 -31h-115v291h336v74h-424v-440zM132 -63l52 -69q94 22 175.5 72t131.5 117q50 -72 131 -120t174 -69l49 70q-107 21 -188.5 69.5t-125.5 121.5q17 44 19 94h-94q-11 -212 -324 -286zM460 489h235v-320h86v611h-86v-218h-235 v-73z" />
<glyph unicode="&#xb369;" d="M78 313h191q198 0 334 34v72q-167 -31 -322 -31h-115v276h336v74h-424v-425zM182 45q0 -83 78.5 -134.5t223.5 -51.5q146 0 224.5 51t78.5 134t-78.5 134t-224.5 51q-145 0 -223.5 -51t-78.5 -133zM271 45q0 48 54.5 80.5t157.5 32.5q105 0 159.5 -32.5t54.5 -80.5 q0 -49 -54.5 -81.5t-159.5 -32.5q-103 0 -157.5 33t-54.5 81zM460 502h235v-269h86v547h-86v-206h-235v-72z" />
<glyph unicode="&#xb36b;" d="M78 342h191q196 0 334 29v70q-172 -27 -322 -27h-115v252h336v72h-424v-396zM142 -64l46 -69q185 34 318 86q125 -51 308 -84l42 68q-133 16 -263 55q126 65 155 143q4 10 -0.5 16.5t-12.5 6.5q-83 -2 -255 -2h-260v-69h188q112 0 208 4q-54 -46 -179 -87.5t-295 -67.5z M336 207h287v70h-287v-70zM460 511h235v-239h86v508h-86v-197h-235v-72z" />
<glyph unicode="&#xb36e;" d="M78 310h191q200 0 334 30v72q-178 -28 -322 -28h-115v280h336v74h-424v-428zM170 -47v-72h635v72h-117l3 181h100v72h-611v-72h100l5 -181h-115zM366 134h239l-3 -181h-231zM460 495h235v-235h86v520h-86v-213h-235v-72z" />
<glyph unicode="&#xb370;" d="M64 107h113q150 0 280 36v71q-150 -33 -269 -33h-37v446h243v74h-330v-594zM327 378h190v-488h85v880h-85v-317h-190v-75zM710 -133h86v913h-86v-913z" />
<glyph unicode="&#xb371;" d="M75 293h112q154 0 280 33v72q-152 -31 -269 -31h-37v292h253v73h-339v-439zM195 118h523v-254h86v328h-609v-74zM352 492h182v-248h82v526h-82v-208h-182v-70zM721 244h83v536h-83v-536z" />
<glyph unicode="&#xb374;" d="M72 272h111q72 0 155.5 10t134.5 23v72q-152 -31 -269 -31h-46v305h249v73h-335v-452zM230 -115h589v75h-502v198h-87v-273zM353 474h181v-353h82v649h-82v-225h-181v-71zM721 101h83v679h-83v-679z" />
<glyph unicode="&#xb378;" d="M79 353h116q154 0 280 29v70q-145 -27 -269 -27h-41v239h239v71h-325v-382zM211 198h508v-87h-504v-234h609v73h-524v90h504v231h-593v-73zM343 518h191v-195h82v447h-82v-183h-191v-69zM721 323h83v457h-83v-457z" />
<glyph unicode="&#xb380;" d="M79 318h116q158 0 280 32v72q-147 -30 -269 -30h-41v270h239v73h-325v-417zM219 -119h585v337h-585v-337zM305 -45v188h413v-188h-413zM343 507h191v-237h82v500h-82v-192h-191v-71zM721 270h83v510h-83v-510z" />
<glyph unicode="&#xb381;" d="M79 338h116q154 0 280 29v72q-145 -27 -269 -27h-41v250h239v73h-325v-397zM217 -119h587v373h-85v-112h-416v107h-86v-368zM302 -45v116h417v-116h-417zM343 520h191v-214h82v464h-82v-179h-191v-71zM721 306h83v474h-83v-474z" />
<glyph unicode="&#xb383;" d="M79 297h116q158 0 280 32v72q-147 -30 -269 -30h-41v291h239v73h-325v-438zM130 -63l53 -69q96 22 180 74.5t134 123.5q52 -74 136 -126t176 -72l49 70q-107 20 -192 72t-130 126q18 47 18 90h-94q-6 -112 -93.5 -184t-236.5 -105zM343 497h191v-224h82v497h-82v-202 h-191v-71zM721 167h83v613h-83v-613z" />
<glyph unicode="&#xb384;" d="M79 308h116q158 0 280 32v72q-147 -30 -269 -30h-41v280h239v73h-325v-427zM106 -70l61 -62q123 62 184 168q57 -102 149 -168q104 64 157 167q61 -105 180 -164l55 63q-166 81 -202 191q11 46 11 91h-86q7 -80 -22.5 -138.5t-85.5 -108.5q-83 59 -121 156q11 42 11 87 h-88q10 -183 -203 -282zM343 503h191v-242h82v509h-82v-196h-191v-71zM721 261h83v519h-83v-519z" />
<glyph unicode="&#xb385;" d="M79 318h116q158 0 280 32v72q-147 -30 -269 -30h-41v270h239v73h-325v-417zM192 40q0 -80 80.5 -130.5t228.5 -50.5q150 0 230.5 50t80.5 130q0 81 -80.5 131.5t-230.5 50.5q-148 0 -228.5 -50t-80.5 -131zM282 40q0 47 55.5 78t163.5 31t164.5 -31t56.5 -78t-56.5 -78 t-164.5 -31q-107 0 -163 31t-56 78zM343 510h191v-239h82v499h-82v-189h-191v-71zM721 241h83v539h-83v-539z" />
<glyph unicode="&#xb38c;" d="M80 91h176q86 0 180 11.5t154 28.5v73q-173 -37 -322 -37h-100v462h354v73h-442v-611zM433 273h262v-406h86v913h-86v-241h-262v-74h263v-118h-263v-74z" />
<glyph unicode="&#xb390;" d="M81 246h188q194 0 334 35v69q-162 -31 -322 -31h-112v339h333v74h-421v-486zM211 -115h590v75h-503v187h-87v-262zM468 395h227v-285h86v670h-86v-168h-227v-69h228v-79h-228v-69z" />
<glyph unicode="&#xb394;" d="M78 321h191q196 0 334 29v70q-172 -27 -322 -27h-115v272h336v73h-424v-417zM207 104v-227h594v74h-509v83h489v221h-574v-72h489v-79h-489zM468 450h227v-143h86v473h-86v-143h-227v-66h228v-54h-228v-67z" />
<glyph unicode="&#xb3a0;" d="M78 267h191q198 0 334 34v71q-167 -31 -322 -31h-115v323h336v74h-424v-471zM103 -70l60 -62q123 62 181 164q54 -98 145 -164q103 63 154 161q60 -99 176 -158l55 63q-165 82 -197 185q10 47 10 87h-86q7 -80 -20.5 -133t-84.5 -104q-82 61 -117 152q10 42 10 81h-88 q5 -95 -47 -160t-151 -112zM468 414h227v-184h86v550h-86v-155h-227v-71h228v-68h-228v-72z" />
<glyph unicode="&#xb3a1;" d="M78 264h191q198 0 334 34v72q-167 -31 -322 -31h-115v325h336v74h-424v-474zM184 30q0 -76 78.5 -123.5t222.5 -47.5q147 0 225.5 47t78.5 123t-78.5 123t-225.5 47q-145 0 -223 -46.5t-78 -122.5zM273 29q0 43 54.5 72t157.5 29q105 0 159.5 -28.5t54.5 -72.5 q0 -43 -54.5 -71.5t-159.5 -28.5q-103 0 -157.5 28.5t-54.5 71.5zM468 412h227v-212h86v580h-86v-158h-227v-71h228v-67h-228v-72z" />
<glyph unicode="&#xb3a8;" d="M64 95h119q150 0 280 36v71q-150 -33 -269 -33h-43v458h253v74h-340v-606zM361 278h170v-388h86v880h-86v-235h-170v-73h171v-111h-171v-73zM710 -133h86v913h-86v-913z" />
<glyph unicode="&#xb3ac;" d="M72 247h116q158 0 280 32v72q-148 -30 -269 -30h-41v330h239v73h-325v-477zM230 -115h589v75h-502v204h-87v-279zM373 393h169v-272h82v649h-82v-169h-169v-69h170v-69h-170v-70zM721 101h83v679h-83v-679z" />
<glyph unicode="&#xb3c4;" d="M21 3h850v73h-375v200h247v75h-492v275h483v75h-570v-425h244v-200h-387v-73z" />
<glyph unicode="&#xb3c5;" d="M11 251h870v74h-392v115h263v72h-509v168h496v75h-585v-315h246v-115h-389v-74zM137 87h517v-223h86v297h-603v-74z" />
<glyph unicode="&#xb3c8;" d="M11 220h870v74h-392v136h263v72h-509v178h496v75h-585v-325h246v-136h-389v-74zM153 -119h605v75h-519v197h-86v-272z" />
<glyph unicode="&#xb3cb;" d="M11 273h870v74h-392v114h263v72h-509v147h496v75h-585v-294h246v-114h-389v-74zM152 -119h607v75h-521v157h504v74h-590v-306z" />
<glyph unicode="&#xb3cc;" d="M11 307h870v71h-392v97h263v69h-510v142h497v72h-586v-283h247v-97h-389v-71zM151 87v-220h614v71h-529v81h505v218h-590v-71h505v-79h-505z" />
<glyph unicode="&#xb3ce;" d="M11 327h870v71h-392v97h263v69h-510v122h497v72h-586v-263h247v-97h-389v-71zM135 96v-229h134q117 0 178 18v71q-62 -17 -150 -17h-79v88h198v226h-281v-71h199v-86h-199zM469 -133h282v386h-282v-386zM545 -64v249h124v-249h-124z" />
<glyph unicode="&#xb3d0;" d="M11 328h870v71h-392v97h263v69h-510v121h497v72h-586v-262h247v-97h-389v-71zM133 96v-229h135q116 0 178 18v7l49 -40q100 73 145 172q45 -99 139 -168l63 62q-64 40 -108 99t-59 126q9 58 8 120h-83q20 -229 -154 -342v35q-62 -17 -150 -17h-80v88h220v228h-303v-71 h219v-88h-219z" />
<glyph unicode="&#xb3d4;" d="M11 277h870v74h-392v115h263v72h-509v142h496v75h-585v-289h246v-115h-389v-74zM152 -119h588v306h-588v-306zM238 -44v157h416v-157h-416z" />
<glyph unicode="&#xb3d5;" d="M11 289h870v74h-392v108h263v72h-509v139h496v75h-585v-286h246v-108h-389v-74zM152 -119h588v343h-86v-94h-416v94h-86v-343zM237 -45v103h418v-103h-418z" />
<glyph unicode="&#xb3d7;" d="M11 234h870v74h-392v130h263v72h-509v170h496v75h-585v-317h246v-130h-389v-74zM75 -61l47 -71q99 20 185 65t137 108q52 -57 142 -105t184 -68l47 71q-250 57 -331 173q16 39 17 79h-90q-4 -101 -97.5 -164t-240.5 -88z" />
<glyph unicode="&#xb3d9;" d="M9 257h872v74h-392v117h263v72h-509v160h496v75h-585v-307h247v-117h-392v-74zM133 29q0 -77 81.5 -124.5t231.5 -47.5q149 0 230 47.5t81 124.5t-80.5 122.5t-230.5 45.5t-231.5 -45.5t-81.5 -122.5zM227 30q0 42 52 69.5t167 27.5q114 0 166 -27.5t52 -69.5t-52 -70.5 t-166 -28.5q-115 0 -167 28.5t-52 70.5z" />
<glyph unicode="&#xb3db;" d="M11 312h870v71h-392v102h263v69h-510v132h497v72h-586v-273h247v-102h-389v-71zM90 -70l39 -64q176 15 347 82q144 -52 313 -76l39 65q-133 13 -263 51q116 60 158 128q5 10 1.5 19t-13.5 9q-90 -2 -281 -2h-277v-67h197q159 0 239 2q-64 -49 -209 -92.5t-290 -54.5z M259 183h364v64h-364v-64z" />
<glyph unicode="&#xb3dd;" d="M11 311h870v71h-392v106h263v69h-510v129h497v72h-586v-270h247v-106h-389v-71zM157 -124h601v72h-516v74h496v67h-496v74h498v72h-583v-359z" />
<glyph unicode="&#xb3e0;" d="M11 54h151q258 0 457 28v71q-105 -14 -264 -21v192h178v71h-366v234h361v72h-445v-377h185v-195q-38 -1 -107 -1h-150v-74zM662 -133h83v478h145v74h-145v361h-83v-913z" />
<glyph unicode="&#xb3e4;" d="M15 195h148q258 0 457 28v71q-105 -14 -265 -21v142h183v73h-363v174h349v73h-435v-320h179v-145q-38 -1 -106 -1h-147v-74zM170 -115h595v75h-508v157h-87v-232zM664 81h86v314h132v76h-132v309h-86v-699z" />
<glyph unicode="&#xb3e8;" d="M15 304h148q258 0 457 28v69q-104 -14 -262 -21v96h178v71h-363v134h349v71h-435v-276h184v-99q-39 -1 -109 -1h-147v-72zM176 95v-218h594v75h-509v70h489v214h-574v-75h489v-66h-489zM664 289h86v198h132v76h-132v217h-86v-491z" />
<glyph unicode="&#xb3fc;" d="M16 59h106q203 0 351 23v71q-61 -9 -171 -16v187h129v70h-280v226h270v71h-352v-367h149v-190q-68 -2 -96 -2h-106v-73zM522 -110h81v450h110v-473h83v913h-83v-367h-110v357h-81v-880z" />
<glyph unicode="&#xb410;" d="M27 259h113q203 0 351 23v71q-62 -9 -174 -16v116h131v68h-271v148h261v70h-346v-286h141v-119q-66 -2 -93 -2h-113v-73zM94 -70l61 -62q125 56 186 153q57 -93 151 -153q107 59 159 153q62 -97 182 -150l60 62q-172 77 -208 173q10 37 10 82h-86q7 -73 -23 -125t-87 -95 q-84 50 -121 137q10 42 10 79h-88q9 -163 -206 -254zM537 230h83v253h101v-253h84v550h-84v-223h-101v213h-83v-540z" />
<glyph unicode="&#xb418;" d="M36 54h178q258 0 457 28v71q-109 -14 -276 -21v192h181v71h-374v234h369v72h-453v-377h190v-195q-34 -1 -95 -1h-177v-74zM719 -133h86v913h-86v-913z" />
<glyph unicode="&#xb41c;" d="M46 195h172q258 0 457 28v71q-107 -14 -268 -21v142h188v73h-372v174h358v73h-444v-320h183v-145q-37 -1 -103 -1h-171v-74zM217 -115h602v75h-515v157h-87v-232zM719 71h86v709h-86v-709z" />
<glyph unicode="&#xb420;" d="M36 317h182q254 0 457 27v70q-98 -13 -275 -20v96h192v69h-380v120h366v71h-452v-260h187v-99q-34 -1 -96 -1h-181v-73zM215 96v-219h609v73h-524v75h504v216h-589v-73h504v-72h-504zM719 293h86v487h-86v-487z" />
</font>
</defs>
</svg>
