<?xml version="1.0" standalone="no"?>
<!DOCTYPE svg PUBLIC "-//W3C//DTD SVG 1.1//EN" "http://www.w3.org/Graphics/SVG/1.1/DTD/svg11.dtd" >
<svg xmlns="http://www.w3.org/2000/svg">
<metadata></metadata>
<defs>
<font id="nanum_pen_script_otfregular" horiz-adv-x="940" >
<font-face units-per-em="1000" ascent="800" descent="-200" />
<missing-glyph horiz-adv-x="280" />
<glyph unicode=" "  horiz-adv-x="280" />
<glyph unicode="&#x09;" horiz-adv-x="280" />
<glyph unicode="&#xa0;" horiz-adv-x="280" />
<glyph unicode="!" horiz-adv-x="274" d="M86 62q-1 -12 6.5 -26t16.5 -19q13 -5 23 4t15.5 26.5t8 33.5t2.5 30q1 9 -14.5 19.5t-26.5 6.5q-12 -5 -20.5 -27.5t-10.5 -47.5zM92 453q-10 -93 9 -172q10 -19 32 -11q7 3 12 13.5t4 20.5q-3 40 1.5 88.5t10.5 80t19.5 92.5t17.5 84q3 13 -1.5 27t-18.5 19 q-29 11 -37 -20q-42 -158 -49 -222z" />
<glyph unicode="&#x22;" horiz-adv-x="260" d="M51.5 677q-2.5 -42 4.5 -69q5 -22 18 -24q20 -1 30 11t8 26q-5 53 3 108q6 31 -6 36q-25 9 -44 -26q-11 -20 -13.5 -62zM144.5 677q-2.5 -42 4.5 -69q5 -22 18 -24q20 -1 30 11t8 26q-5 53 3 108q6 31 -6 36q-25 9 -44 -26q-11 -20 -13.5 -62z" />
<glyph unicode="#" horiz-adv-x="630" d="M23 392q4 -10 19 -15.5t33 -0.5q65 17 131 28q7 -82 16 -148q-42 -12 -122 -38q-14 -7 -20.5 -18.5t2.5 -29.5q13 -13 26 -14t27 5q10 3 96 28l9 -54q2 -11 14 -24t27 -13q26 0 21 55q-1 8 -3.5 25.5t-3.5 27.5q18 5 54.5 14t55.5 13q6 -45 15 -85q3 -19 15.5 -32.5 t29.5 -10.5q14 3 14.5 29t-4.5 42q-8 43 -11 71q17 4 51.5 11t52.5 10q20 5 27.5 13.5t4.5 24.5q-8 22 -34 20q-42 -6 -108 -17q-4 54 -6 108q14 -1 41.5 -3.5t31.5 -2.5q19 -1 26 12t1 25q-8 17 -37 22q-55 8 -63 9q0 55 7 134q7 58 -26 58q-27 0 -35 -50q-7 -55 -9 -139 q-55 3 -119 -2q-4 68 -5 102q-2 40 -33 45q-29 0 -32 -40q-1 -52 2 -115q-81 -11 -143 -31q-36 -17 -36 -49zM274 414q49 5 115 5q2 -71 8 -122q-53 -10 -109 -24q-10 94 -14 141z" />
<glyph unicode="$" horiz-adv-x="420" d="M32 433.5q3 -27.5 27 -47.5q30 -25 125 -65q3 -36 13 -101q-75 -11 -132 -7q-21 0 -9 -26q6 -12 17 -23q19 -19 46 -19q40 0 89 10q3 -18 8 -39q4 -19 16.5 -32.5t29.5 -9.5q20 5 8 71q-2 8 -4 24q119 38 127 94q5 30 -25 48l-124 55q-4 46 -8 144q14 2 21 2 q11 0 22.5 -4.5t16.5 -7.5t20 -14.5t17 -12.5q8 -5 17 -3.5t15 7.5q5 5 6 15t-3 16q-39 68 -112 68q-15 0 -23 -1v48q3 24 -3 41t-24 16q-26 -1 -34 -51q-1 -22 -1 -69q-64 -21 -115 -69q-27 -30 -24 -57.5zM107 437q10 31 65 54q1 -29 5 -96l-41 19q-14 6 -22 12t-7 11z M251 294q65 -26 67 -32q-10 -14 -60 -29q-3 22 -7 61z" />
<glyph unicode="%" horiz-adv-x="620" d="M31 373q-3 -28 8.5 -55.5t38.5 -35.5q31 -9 59.5 17t42.5 59q19 48 21 119q0 10 -7 17t-17 8h-4l6 6q6 6 6 14t-6 11q-16 8 -44 -6q-40 -21 -69.5 -66.5t-34.5 -87.5zM89 371q4 35 56 99q-3 -45 -9 -67q-14 -53 -36 -53q-13 0 -11 21zM224 223q-13 -57 11 -77q7 -5 17 0 t14 16q92 280 155 406q17 32 -16 46q-19 8 -31 -14q-93 -168 -150 -377zM399 224q-2 -44 23.5 -59.5t73.5 4.5q23 10 41 24.5t32.5 36t13.5 52.5t-20 66q-15 28 -38 28q-39 0 -81.5 -54t-44.5 -98zM457 223q-4 14 16.5 52.5t38.5 35.5q6 -1 11 -17.5t3 -23.5 q-6 -16 -23 -30.5t-30 -18t-16 1.5z" />
<glyph unicode="&#x26;" horiz-adv-x="449" d="M47 111q9 -17 34 -26q35 -11 76 11q40 21 95 55q35 -34 68 -62q40 0 55 15q8 12 -18 35q-32 30 -50 48q39 26 104 74q20 14 26.5 32t-11.5 32q-28 0 -59 -18q-63 -44 -107 -73q-34 34 -57 61q83 141 88 210q2 71 -26 108.5t-94 29.5q-35 -7 -64.5 -33t-40.5 -60 q-16 -53 -8.5 -107t34.5 -100q9 -19 35 -53q-33 -52 -78 -129q-14 -29 -2 -50zM111 145q27 43 58 94q6 -7 18 -20t18 -20q-38 -23 -94 -54zM123 445q-9 48 10 99q17 36 58 36q18 0 29 -15t11 -35q0 -41 -14 -76.5t-55 -105.5q-1 1 -4 7q-26 42 -35 90z" />
<glyph unicode="'" horiz-adv-x="247" d="M86.5 677q-2.5 -42 4.5 -69q5 -22 18 -24q20 -1 30 11t8 26q-5 53 3 108q6 31 -6 36q-25 9 -44 -26q-11 -20 -13.5 -62z" />
<glyph unicode="(" horiz-adv-x="310" d="M81 338q-5 -95 28.5 -180t96.5 -129q6 -4 14 -7t18 -2t15 9q5 10 6 18t-4 17.5t-9.5 15t-15.5 18t-17 19.5q-79 93 -60 242q9 73 39 141t74 114q6 3 4.5 14.5t-10.5 17.5q-8 6 -21 7t-19 -4q-57 -41 -95 -127.5t-44 -183.5z" />
<glyph unicode=")" horiz-adv-x="280" d="M45 636q-6 -15 2.5 -31t24.5 -23q39 -18 60 -41t29 -63q11 -55 -3 -135q-25 -142 -76 -279q-20 -53 9 -63q14 -5 28 8t20.5 25t10.5 24q94 248 77 429q-9 93 -92 145q-14 8 -28 14t-33 5t-29 -15z" />
<glyph unicode="*" horiz-adv-x="406" d="M26 405q-1 -8 8 -14t21 -4q66 18 81 21q-39 -57 -50 -78q-15 -27 3 -58q5 -6 15.5 -4t17.5 12q32 54 59 95q15 -55 24 -76q4 -13 18 -23.5t27 -12.5q9 0 14 9t2 21q-19 55 -36 116q54 -38 93 -67q15 -9 26 -8t17 7q10 13 -8 32q-36 33 -80 65q16 3 43 7.5l33 5.5 q16 3 24 12.5t7 17.5q-1 16 -28 16q-42 -1 -98 -11q15 21 54 73q9 16 8 27t-7 16q-15 15 -34 -4q-35 -37 -75 -92q-18 78 -19 82q-4 16 -14 23.5t-18 5.5q-8 -1 -14 -9t-5 -19q1 -25 8 -62q-18 12 -28 17q-28 18 -54 2q-6 -5 -4 -16.5t12 -17.5q16 -9 79 -48 q-63 -15 -84 -21q-31 -9 -38 -38z" />
<glyph unicode="+" horiz-adv-x="430" d="M22 299q2 -15 18.5 -24.5t33.5 -6.5q12 2 111 16q5 -67 16 -116q10 -34 45 -34q8 0 13.5 8t4.5 22q-8 89 -11 128q66 8 110 11q17 1 30.5 9.5t14.5 20.5q3 27 -29 29q-53 3 -128 -2q-2 90 4 148q2 12 -20 28q-6 7 -22 2.5t-19 -25.5q-13 -42 -11 -159q-80 -9 -114 -18 q-47 -17 -47 -37z" />
<glyph unicode="," horiz-adv-x="235" d="M61 -78q23 -15 50 14q15 16 29 56t13 68q0 23 -11 28q-19 6 -31 -3t-15 -23q-10 -55 -31 -103q-13 -29 -4 -37z" />
<glyph unicode="-" horiz-adv-x="370" d="M34 326q2 -11 11 -19t19 -7q127 14 240 15q9 0 19.5 5.5t10.5 9.5q3 18 -7.5 30t-22.5 15q-111 14 -255 -15q-21 -7 -15 -34z" />
<glyph unicode="." horiz-adv-x="199" d="M43 -1q3 -18 15 -29.5t29 -9.5q35 5 30 41q-2 21 -16.5 36.5t-33.5 12.5q-15 -2 -21 -17t-3 -34z" />
<glyph unicode="/" horiz-adv-x="316" d="M44 79q-13 -44 10 -48q17 -5 29.5 12t22.5 48q21 58 84 222.5t82 207.5q7 20 -1 41q-9 17 -23.5 16.5t-21.5 -13.5q-148 -367 -182 -486z" />
<glyph unicode="0" horiz-adv-x="358" d="M36 267q6 -62 49 -84t93 2q71 30 107.5 102t36.5 132q0 36 -29 58.5t-81 27.5q-4 28 -25 19q-71 -32 -114.5 -105t-36.5 -152zM104 269q-8 89 71 176q29 2 57 -6.5t28 -21.5q-8 -91 -66 -146q-11 -11 -32 -21.5t-36 -8.5q-19 4 -22 28z" />
<glyph unicode="1" horiz-adv-x="190" d="M62 199q0 -10 9 -31t25 -34q10 -8 18 -7q9 2 9 12q-14 233 17 390q1 12 -13 26.5t-29 13.5q-11 0 -23 -55q-27 -154 -13 -315z" />
<glyph unicode="2" horiz-adv-x="390" d="M19 464q1 -4 5.5 -8.5t14.5 -8.5t25 4q64 31 106 34q23 2 30 -4q9 -7 2 -25q-40 -99 -146 -216q-13 -13 -13 -23q3 -15 12.5 -27t22.5 -11q98 11 292 43q10 1 22 21.5t2 25.5q-28 8 -45 7q-34 -4 -115 -14.5t-90 -11.5q87 108 114 180q14 37 1 79q-14 28 -50 37 q-53 8 -108.5 -11.5t-76.5 -44.5q-7 -14 -5 -26z" />
<glyph unicode="3" horiz-adv-x="300" d="M26 556q4 -8 19 -9t27 9q22 9 49.5 4t29.5 -20q2 -11 -0.5 -21.5t-10 -21t-14 -18t-20.5 -18t-21 -15.5t-23 -15t-20 -13q-16 -16 6 -46q8 -11 27 -5q51 20 94.5 13t48.5 -44q4 -33 -45.5 -80t-112.5 -78q-15 -10 -16 -28t13 -29q15 -10 37 0q51 23 101.5 69.5t70.5 87.5 q15 30 10.5 64t-25.5 59q-32 41 -86 35q46 47 46 100q0 31 -17.5 52.5t-50.5 27.5q-41 4 -72.5 -4.5t-43.5 -25.5q-10 -14 -1 -30z" />
<glyph unicode="4" horiz-adv-x="464" d="M23 296q-8 -33 12 -62.5t61 -20.5q10 2 118 30q2 -64 10 -122q2 -18 11 -32.5t23 -15.5q10 -1 18.5 6.5t7.5 18.5q-5 70 -3 162q78 19 125 28q19 4 35 16.5t16 25.5q1 11 -15 16t-30 3q-83 -13 -129 -23q8 123 34 244q2 32 -29 41q-23 6 -34 -24q-2 -8 -3 -11l-5 5 q-14 6 -31.5 1.5t-27.5 -13.5q-110 -139 -164 -273zM83 272q46 126 151 259q8 11 10 14q-26 -120 -30 -236q-42 -11 -131 -37z" />
<glyph unicode="5" horiz-adv-x="383" d="M41 339q-1 -22 18 -30t36 -6q119 12 126 1q2 -2 1 -4q-32 -69 -143 -152q-26 -6 -6 -29q25 -29 52 -12q122 90 148 163q12 34 -4.5 61.5t-52.5 35.5q-16 4 -35 4.5t-44 -1t-36 -1.5q2 24 8 84q103 16 224 10q12 0 42 15q8 7 2.5 17.5t-17.5 12.5q-24 8 -55 12 q-75 10 -188 -1q6 43 14 87q2 12 -6.5 24.5t-25.5 19.5q-21 8 -25 -11q-28 -173 -33 -300z" />
<glyph unicode="6" horiz-adv-x="295" d="M43.5 257.5q2.5 -31.5 9 -60t25 -50.5t47.5 -28q13 0 25 7q57 33 88.5 98t16.5 127q-9 39 -45 45q-21 4 -37.5 -2t-22.5 -13q-7 -14 6.5 -20t32 -10.5t20.5 -14.5q8 -35 -20 -89.5t-61 -66.5q-4 0 -5 4q-30 66 -10.5 160.5t55 174t69.5 124.5q8 17 5 29t-11 17 q-20 14 -36 -8q-134 -172 -150 -367q-4 -25 -1.5 -56.5z" />
<glyph unicode="7" horiz-adv-x="340" d="M16 494q0 -17 15 -33t31 -16q24 3 96.5 9t89.5 8q-26 -86 -88 -312q-2 -19 3 -40t15 -25t23 5t17 24q11 40 41.5 154.5t48.5 177.5l14 35q1 13 -14 29t-27 16q-133 -2 -250 -19q-15 -3 -15 -13z" />
<glyph unicode="8" horiz-adv-x="324" d="M30 123q9 -29 27 -37q26 -10 68.5 2.5t67.5 27.5q34 20 56 49t22 60q0 71 -84 95h-4q32 53 92 143q27 44 16.5 74t-38.5 46t-60 16q-45 0 -79 -22.5t-45 -55.5q-17 -52 2 -98t58 -72q-65 -107 -94 -164q-14 -35 -5 -64zM91 150q34 74 70 134l4 -4q62 -55 44 -77 q-22 -21 -60.5 -37t-57.5 -16zM124 450q-8 33 2 46q13 27 38 35.5t52 1.5q23 -8 2 -43q-6 -10 -27 -42t-32 -49q-27 18 -35 51z" />
<glyph unicode="9" horiz-adv-x="360" d="M26 394q5 -73 77 -73q68 0 145 115q4 -115 -9 -359q0 -29 34 -34q21 -4 26 22q17 175 12 443q0 17 -20 31.5t-30 6.5q-10 -9 -56.5 -68t-78.5 -80q-18 -12 -29 -6q-8 5 -8 24q5 50 46.5 90.5t73.5 45.5q5 -5 15 -4.5t17 6.5q3 6 2.5 18.5t-5.5 18.5q-40 40 -120 -16 q-43 -30 -69.5 -80t-22.5 -101z" />
<glyph unicode=":" horiz-adv-x="303" d="M105 439q5 -23 17 -29q50 -25 79 10q9 12 9 31.5t-9 31.5q-17 17 -41.5 21t-45.5 -17q-14 -25 -9 -48zM109 217q2 -30 31 -41q12 -15 37 -6q34 12 24 46q10 21 1.5 35t-28.5 22q-28 11 -47.5 -6t-17.5 -50z" />
<glyph unicode=";" horiz-adv-x="303" d="M61.5 480.5q4.5 -12.5 15.5 -14.5q1 0 12 -3.5t14.5 -5t13 -5.5t14 -7.5t11 -8.5t10.5 -11.5t6 -14.5q0 -6 7.5 -9.5t16.5 -1.5q26 6 26 27q-1 43 -39 71t-79 29q-19 -2 -28 -20q-5 -13 -0.5 -25.5zM124 56q-11 -26 8 -32q8 -2 22 3.5t21 14.5q31 40 45 117t2 123 q-4 17 -17.5 28.5t-30.5 6.5q-31 -10 -16 -62q17 -62 -34 -199z" />
<glyph unicode="&#x3c;" horiz-adv-x="450" d="M72 314q0 -4 1 -7.5t4.5 -7.5t6 -7t8.5 -8.5t9 -8.5q59 -58 128.5 -131t118.5 -122q9 -9 22.5 -7t25.5 15q14 16 -2 34q-42 45 -136 140t-103 105q23 25 72 82t73 83q62 70 73 90q12 25 -7 39q-14 11 -28 4q-16 -8 -112 -122t-123 -136q-2 -1 -9 -6t-10 -7.5t-7 -8.5 t-5 -13z" />
<glyph unicode="=" horiz-adv-x="400" d="M34 237q2 -11 10.5 -20.5t19.5 -9.5q158 -7 265 25q47 14 47 35q-2 29 -71 21q-136 -21 -241 -21q-10 0 -16 -1.5t-11 -8.5t-3 -20zM34 383q2 -11 11 -19t19 -7q127 14 240 15q9 0 19.5 5t10.5 10q3 18 -7.5 30t-22.5 15q-111 14 -255 -15q-21 -7 -15 -34z" />
<glyph unicode="&#x3e;" horiz-adv-x="450" d="M69 30q-14 16 2 34q42 45 136 140t103 105q-23 25 -72 82t-73 83q-62 70 -73 90q-12 25 7 39q14 11 28 4q16 -8 112 -122t123 -136q2 -1 9 -6t10 -7.5t7 -8.5t5 -13q0 -4 -1 -7.5t-4.5 -7.5t-6 -7t-8.5 -8.5t-9 -8.5q-59 -58 -128.5 -131t-118.5 -122q-9 -9 -22.5 -7 t-25.5 15z" />
<glyph unicode="?" horiz-adv-x="350" d="M68 446q15 -9 28 1q8 6 1 22q1 20 17.5 37.5t40.5 24.5q27 8 51.5 0t26.5 -22q4 -21 -7.5 -45.5t-24.5 -40t-36 -38.5l-9 -9q-28 -28 -33.5 -68.5t18.5 -68.5q18 -19 36 -9q13 10 2 34q-4 20 3.5 39.5t18 31t29 30t27.5 29.5q54 68 34 138q-12 37 -45.5 54.5t-75.5 14.5 q-66 -5 -101 -52q-45 -59 -1 -103zM146 70q0 -13 8 -21q17 -21 45.5 -7t22.5 42q0 5 -5 11.5t-10 11t-15 12l-14 10.5q-9 10 -17 4t-7 -14q0 -5 -4 -20.5t-4 -28.5z" />
<glyph unicode="@" horiz-adv-x="490" d="M39 309q10 -130 116 -181q95 -45 208 -1q30 14 30 45q0 32 -44 16q-103 -43 -176 -2q-64 35 -68 124q-2 90 48 144t120 59q66 5 101 -55t5 -131q-7 24 -20.5 48.5t-25.5 24.5h-5q-2 10 -5 15q-18 23 -65 45q-16 3 -42.5 -9t-32.5 -21q-23 -35 -32 -84.5t2 -95.5 q28 -47 66 -47q19 0 34.5 8t29.5 26.5t19.5 28t18.5 33.5q3 5 5 5t11 -14q2 -3 7.5 -12t8.5 -13t8.5 -10t11.5 -8.5t13 -2.5q29 0 45 30.5t19 64.5q9 96 -37 167.5t-140 71.5q-95 0 -168 -84.5t-66 -184.5zM211.5 333.5q8.5 46.5 27.5 68.5q7 6 38 -25q6 -6 16 -8 q-1 -2 -3 -6.5t-3 -6.5q-7 -16 -19.5 -36.5t-27.5 -40t-23 -18.5q-4 0 -5 4q-9 22 -0.5 68.5z" />
<glyph unicode="A" horiz-adv-x="460" d="M17 112v-5q1 -13 9 -23q8 -8 19 -7q4 0 9 1q19 5 30 46q15 62 41 148q80 3 189 22q27 -64 62 -134q7 -15 22.5 -29.5t27.5 -9.5q8 3 10 18q1 6 0 12q0 7 -1 15q-2 12 -5 23q-29 61 -53 122q33 17 33 37q0 5 -2 11q-6 15 -34 15h-10q-2 0 -5.5 -1t-5.5 -2q-43 114 -71 213 q-9 22 -16.5 33.5t-11.5 13.5t-9 2q-12 0 -26 -10q-15 5 -23 -9q-62 -106 -112.5 -246t-66.5 -256zM146 338q34 103 80 206q27 -98 63 -189q-76 -15 -143 -17z" />
<glyph unicode="B" horiz-adv-x="415" d="M-29 520q0 24 18 42q57 58 163 58q90 0 134 -55q13 -20 14 -43q0 -6 -2 -13q-4 -31 -17.5 -56.5t-33.5 -45.5q7 1 14 1q47 0 86 -30q44 -34 44 -98q0 -78 -61.5 -128t-142.5 -50q-17 0 -27 10q-4 0 -9 3q-9 4 -20 15t-13 19q-15 57 -34.5 176.5t-22.5 164.5q0 16 11 18h6 q21 0 31 -19q12 -40 23 -91q48 18 75 54q21 27 21 53q0 8 -2 15q-4 18 -27 27.5t-53 9.5q-66 0 -129 -50q-12 -9 -26.5 -5.5t-19.5 18.5zM147 325q8 -39 30 -165h4h3q50 0 98 34q50 34 49 86q-12 58 -93 58q-38 0 -91 -13z" />
<glyph unicode="C" horiz-adv-x="344" d="M31 324q6 -122 117 -152q22 -6 45 -6q24 0 51 6q52 12 76 40q7 9 7 17q0 4 -2 9q-6 14 -19 9q-60 -23 -105 -23q-28 0 -50 9q-26 11 -42.5 36t-16.5 58q0 36 13 68t36 49q25 18 57 18q16 0 33 -4q12 -3 17 8q7 12 -2 25q-18 21 -52 25q-6 1 -11 1q-29 0 -57 -14 q-46 -23 -72 -71q-24 -45 -23 -99v-9z" />
<glyph unicode="D" horiz-adv-x="362" d="M1 532q11 -15 27 -15q7 0 15 3q17 6 34 9q0 -216 17 -353q-12 -10 -12 -21q0 -5 3 -10q9 -14 32 -14q12 0 28 4q77 32 127 107t53 156v6q-1 73 -49 129q-50 58 -129 65q-13 1 -26 1q-59 0 -107 -27q-19 -11 -19 -24q0 -8 6 -16zM127 535q9 0 25 -2q54 -11 82 -49 q27 -37 27 -86q-1 -52 -33 -104q-30 -48 -76 -83q-11 107 -11 282q0 23 -14 42z" />
<glyph unicode="E" horiz-adv-x="410" d="M11 513q0 -14 12.5 -23.5t25.5 -6.5q2 0 10 2l-6 -117q-16 -7 -18 -26q0 -18 17 -28q-1 -25 -1 -49.5t1 -49.5q1 -35 18 -53q16 -18 47 -18h3q85 1 239 50q18 5 42.5 20.5t24.5 21.5q0 26 -30 26q-14 0 -36 -6q-178 -43 -238 -43h-3q0 26 -0.5 51.5t0.5 50.5 q177 25 188 26q25 3 37.5 12.5t8.5 19.5q-28 29 -69 29h-8q-53 -3 -156 -20q1 34 5 104q0 6 -1 8q33 5 95 13t72 9q31 4 31 23q0 3 -1 7q-27 27 -69 27h-8q-36 -2 -107 -12.5t-107 -19.5q-19 -7 -19 -28z" />
<glyph unicode="F" horiz-adv-x="390" d="M0 588q-1 -7 -1 -13q0 -8 3 -11q9 -18 44 -18h33q25 -152 47 -342q2 -14 16 -29.5t31 -15.5q9 0 14 15t3 30q-6 72 -15 138q105 5 171 16q13 2 22 10.5t9 19.5q0 8 -14.5 17t-27.5 9q-83 -6 -168 -9q-14 94 -22 140q58 -1 172 -11q8 0 20 8t14 14q-2 13 -19 23 q-58 20 -150 30q-46 5 -87 5t-78 -5q-13 -3 -17 -21z" />
<glyph unicode="G" horiz-adv-x="499" d="M18 334q0 -40 26 -69t66 -41q24 -7 51 -7q21 0 43 4q54 9 106 41q8 -63 27 -112q10 -26 31 -26q11 0 16.5 6.5t3.5 14.5q-21 180 -21 253q52 0 74 -1h3q15 0 30 9q15 11 15 28q0 20 -26 20q-17 1 -58.5 3.5t-68.5 4.5h-24q-18 0 -38 -1q-37 -2 -65 -8q-20 -5 -30.5 -16.5 t-10.5 -20.5q0 -12 15.5 -20t27.5 -7q29 4 89 8l3 -69q-40 -43 -123 -45h-6q-76 0 -85 49q-1 8 -1 16q0 52 39 119q45 77 91 109q16 9 27 9q3 0 5 -1q11 -3 28 -25q11 -13 26 -2q6 6 6 13.5t-6 16.5q-32 50 -72 50q-9 0 -19 -3q-83 -34 -139 -126t-56 -174z" />
<glyph unicode="H" horiz-adv-x="452" d="M40 523q-1 -18 -1 -36q1 -71 13 -151q16 -102 40 -168q3 -6 12 -12q8 -5 15 -5h2q21 8 21 40q0 10 -2 23q-11 53 -17 88q117 22 222 51q5 -55 13 -152q2 -16 12 -27t22 -11q8 1 18 12q9 10 8 23q0 128 -32 325q-3 16 -11 24.5t-17 8.5q-11 0 -21.5 -13.5t-10.5 -29.5 q8 -62 11 -93q-108 -32 -224 -48q-8 57 -10 125q-1 18 -9.5 36t-24.5 18q-10 0 -19 -7t-10 -21z" />
<glyph unicode="I" horiz-adv-x="210" d="M62 524q-1 -23 -1 -45q0 -160 32 -277q15 -23 37 -37q17 1 23 17q4 11 4 20q0 4 -1 8q-32 135 -32 299q0 23 1 46q0 34 -29 34q-30 0 -34 -65z" />
<glyph unicode="J" horiz-adv-x="300" d="M23 204q0 -24 23 -42q23 -20 52 -28q21 -6 41 -6q35 0 67 18q50 29 55 93q1 20 1 40q0 188 -114 297q-15 12 -29 12q-11 0 -21 -7q-9 -9 -9 -19q0 -12 13 -26q72 -81 92 -176q6 -33 8 -58q1 -9 1 -19q0 -16 -3 -33q-3 -28 -19 -44t-45 -18q-7 -1 -13 -1q-12 0 -21 3 q-12 4 -9 15q1 2 3 7.5t3 9t2 9t0.5 10.5t-3.5 10q-6 6 -15 6q-12 0 -30 -11q-30 -25 -30 -42z" />
<glyph unicode="K" horiz-adv-x="444" d="M25 541q32 -158 62 -403q4 -11 31 -17q7 -1 13 -1q16 0 16 13q-7 98 -18 186q141 -78 271 -109q7 -2 14 -2q16 0 24 11q4 6 4 15t-4 19q-10 21 -23 23q-112 26 -227 89q83 54 149 91q6 2 11 13.5t3 18.5q-3 10 -18 16t-25 3q-62 -26 -191 -106q-3 18 -23 149 q-2 10 -14 22q-11 11 -22 11h-2q-18 -1 -26 -15q-6 -10 -6 -20q0 -4 1 -7z" />
<glyph unicode="L" horiz-adv-x="438" d="M39 204v-13q0 -33 13 -49q11 -14 30 -13q8 0 17 2q39 10 144.5 34.5t150.5 36.5q5 5 17.5 10t20 12.5t7.5 22.5q0 7 -3.5 10.5t-7.5 4.5h-4q-54 -4 -185 -29t-135 -26q14 196 30 320q1 14 -0.5 22.5t-9.5 15.5q-6 5 -15 5h-6q-30 -3 -35 -41q-17 -143 -29 -325z" />
<glyph unicode="M" horiz-adv-x="610" d="M49 491q-1 -41 -1 -78q0 -177 20 -260q3 -13 17.5 -23.5t27.5 -6.5q5 2 9 11t3 19q-14 99 -15 215q0 21 1 42q90 -99 150 -184q16 -29 44 -29q19 0 37 35q78 151 117 225q23 -129 50 -319q2 -16 13 -33t22 -17t20 13q7 11 7 25v6q-33 275 -54 404q-4 17 -16 30 q-9 10 -18 10q-3 0 -5 -1q-11 -4 -20 -15.5t-11 -22.5q-27 -37 -51 -78t-58 -102.5t-43 -78.5q-91 119 -181 209q-1 20 -12 32t-27 12q-26 0 -26 -40z" />
<glyph unicode="N" horiz-adv-x="461" d="M46 194q3 -22 15.5 -40.5t29.5 -18.5q16 0 16 9q-1 23 -1 53q0 80 6 207q17 -16 35.5 -35.5t31 -34t33 -40.5t27 -35t27.5 -38.5t23 -31.5q12 -15 32 -25q17 -8 27 -8h4q25 6 31 38q24 120 42 340q0 26 -28 28h-2q-10 0 -22 -9q-13 -10 -12 -19q-24 -234 -35 -289 q-6 8 -26 35.5t-30 41t-31 39.5t-37.5 43t-39.5 38t-46 37q-2 31 -34 35q-10 1 -19.5 -11t-10.5 -34q-9 -134 -9 -209q0 -43 3 -66z" />
<glyph unicode="O" horiz-adv-x="439" d="M42 287q8 -50 38 -86q42 -42 98 -42q31 0 67 13q49 18 92.5 64t55.5 100q6 19 7 42q0 8 -2 18q-4 34 -14 64.5t-41 53.5t-76 29q-14 2 -25 2q-35 0 -53 -18q0 7 -5 13q-4 5 -11 5h-2q-58 -7 -98 -78q-21 -37 -30 -83q-5 -24 -5 -49q0 -24 4 -48zM108 311q-1 12 -1 23 q-1 40 13 76q18 47 55 64q-1 -9 6 -12t13 1q28 14 54 14q30 0 57 -19q19 -14 26 -38q5 -17 5 -32q0 -8 -1 -14q-3 -22 -10 -38q-20 -45 -58.5 -75t-81.5 -30q-70 0 -77 80z" />
<glyph unicode="P" horiz-adv-x="406" d="M-5 536q1 -8 7 -14q8 -7 22 -6.5t30 12.5q73 47 148 47q28 0 57 -7q50 -12 55 -52q1 -6 1 -11q0 -71 -117 -135q-4 51 -11 94q-7 20 -24 38q-13 14 -24 14q-4 0 -7 -2q-8 -6 -12 -13.5t-4 -11.5l-1 -4q26 -161 26 -333v-25q0 -9 13.5 -20.5t28.5 -12.5h2q9 0 14 8 q6 8 7 21v35q0 56 -2 129q91 63 123 98q51 57 51 118q0 29 -11 58q-19 40 -59 61t-85 22q-4 0 -9 1q-40 0 -78 -9q-42 -9 -75 -25q-66 -37 -66 -75z" />
<glyph unicode="Q" horiz-adv-x="464" d="M40 316v-11q0 -48 23 -95q26 -52 74 -70q21 -8 45 -8q26 0 56 10q56 19 101 72q49 -38 62 -47q13 -10 25 -10q13 0 26 13q5 9 5 18q0 6 -3 13q-5 16 -17 25q-10 8 -30 23.5t-30 22.5q30 57 33 118v13q0 51 -18 82q-16 34 -52 58q-24 16 -48 16q-13 0 -25 -4 q-21 -8 -33 -20q-9 3 -19 3q-16 0 -33 -8q-58 -36 -98 -94t-44 -120zM125 231q-16 34 -16 69q0 68 60 138q11 14 22 21t25.5 12.5t18.5 7.5h1q15 -2 28 11q8 7 18 7q12 0 26 -9q28 -19 36 -48q6 -21 6 -42q0 -43 -23 -88q-14 10 -42 29.5t-42 29.5q-11 8 -20 8 q-11 0 -20 -11q-7 -10 -7 -22q0 -8 3 -16q7 -20 21 -29q12 -8 36 -25t31 -22q-51 -57 -98 -57q-13 0 -26 5q-29 11 -38 31z" />
<glyph unicode="R" horiz-adv-x="448" d="M1 491q0 -10 11 -21t19 -9q25 9 25 33q0 5 -1 10q47 52 104 70q24 8 46 7q30 0 55 -14q19 -11 27 -35q6 -19 6 -36v-10q-2 -22 -9 -40q-13 -33 -44.5 -58t-74.5 -32v34q0 38 1 94q-3 38 -33 42q-7 1 -16 -5t-9 -15q-4 -83 -4 -162q0 -105 7 -203q1 -10 11 -27.5t20 -18.5 q28 0 28 25q-2 51 -4 157q159 -95 224 -149q13 -10 28 -8.5t21 15.5q4 10 4 19q0 18 -15 33q-54 40 -189 124q122 75 121 181q0 28 -8 58q-12 44 -46 72t-81 28t-97 -17t-88.5 -54.5t-38.5 -87.5z" />
<glyph unicode="S" horiz-adv-x="399" d="M35 519q0 -53 44 -91q32 -24 93.5 -62t88.5 -58q45 -31 45 -71q0 -8 -2 -17q-9 -48 -62 -60q-17 -4 -33 -4q-47 0 -86 36q-7 5 -22.5 1.5t-21.5 -12.5q-4 -6 1 -20t12 -22q28 -29 68 -41q24 -7 48 -7q17 0 35 3q50 10 86 43.5t42 85.5q0 87 -88 147q-10 7 -67 43t-85 56 q-37 26 -37 53q0 19 19 39q25 27 60 27q39 0 94 -39q11 -7 21 -5t15 7q7 9 7 18q0 7 -5 14q-25 29 -62 47q-33 16 -67 15h-8q-56 -4 -94.5 -41t-38.5 -85z" />
<glyph unicode="T" horiz-adv-x="493" d="M17 474q-1 -14 13 -23q7 -5 17 -5q8 0 19 4q188 74 354 74q16 0 32 -1q10 -1 14 5q7 9 7 21q0 7 -5 16q-7 11 -16 14q-42 5 -85 6l-325 -80q-18 -12 -25 -31zM242 462v-9q7 -112 9 -279q2 -31 26 -31q3 0 7 1q11 1 18.5 10t7.5 20q1 36 1 72q0 108 -11 213q0 13 -11 23 q-8 8 -23 8q-4 0 -9 -1q-8 -1 -11.5 -6t-3.5 -9v-5v-7z" />
<glyph unicode="U" horiz-adv-x="433" d="M34 260v-8q0 -58 56 -90q33 -18 75 -18q17 0 37 3q66 11 117 51q57 43 68 100q7 36 7 76q0 58 -15 126q-5 19 -17 28q-6 5 -14 5q-5 0 -11 -3q-18 -11 -18 -34q0 -5 1 -11q8 -42 10 -70q2 -18 1 -38q-1 -12 -1 -26q-2 -36 -15.5 -62.5t-39.5 -43.5q-25 -17 -56 -27 q-25 -8 -52 -8h-13q-34 2 -51 27q-5 13 -4 31q1 22 7 54q6 30 14 60.5t17 62.5q2 7 3 10q1 5 1 10q0 11 -8 21q-12 14 -21 14q-5 1 -9 1q-15 0 -21 -16q-43 -134 -48 -225z" />
<glyph unicode="V" horiz-adv-x="415" d="M26 484q4 -15 12.5 -27t18.5 -20q69 -206 91 -252q17 -32 39 -34h4q18 0 30 18q93 127 163 314q8 22 8 37q0 21 -16 26h-4q-21 0 -35 -32q-84 -193 -147 -275q-12 32 -39.5 115t-38.5 114q-13 24 -34 38q-12 8 -25 8q-10 0 -19 -5q-10 -7 -10 -18q1 -3 2 -7z" />
<glyph unicode="W" horiz-adv-x="646" d="M33 511q2 -205 64 -322q12 -23 33 -26h3l27 14q71 76 142 200q41 -116 88 -187q13 -20 34 -20q19 0 34 23q88 134 159 318q2 4 2 10q0 7 -3 15q-5 16 -15 23q-8 4 -15 4q-6 0 -11 -3q-11 -6 -17 -20q-70 -174 -138 -278q-14 29 -73 178q-11 29 -41 29q-26 0 -39 -27 q-45 -93 -124 -191q-33 66 -46 239q-4 42 -40 44q-11 1 -17.5 -6.5t-6.5 -16.5z" />
<glyph unicode="X" horiz-adv-x="459" d="M34 182q9 -7 18 -7q14 0 29 18q39 51 121 133q33 -54 83 -145q5 -11 17 -17q8 -4 16 -4q4 0 8 1q11 3 15.5 19t-0.5 26q-3 5 -36 65t-57 100q96 92 162 138q22 15 22 33q0 4 -1 9q-3 11 -17 16q-6 2 -12 2t-12 -3q-81 -54 -176 -140q-58 90 -104 135q-17 11 -32 11 q-12 0 -22 -8q-10 -10 0 -28q60 -75 111 -155q-85 -84 -128 -143q-14 -22 -14 -37q0 -12 9 -19z" />
<glyph unicode="Y" horiz-adv-x="424" d="M25 594q0 -20 9 -37q43 -107 117 -240q-11 -108 -11 -192q0 -29 30 -29q32 0 32 29q0 39 6 116t13 107q131 195 174 271q4 8 4 19q0 3 -1 6q-1 14 -9 20q-6 6 -15 6h-8q-15 -4 -27 -22q-94 -153 -161 -243q-46 80 -94 200q-11 15 -34 15h-6q-19 -3 -19 -26z" />
<glyph unicode="Z" horiz-adv-x="524" d="M28 514q0 -12 20 -20q14 -6 23 -6q4 0 7 1q154 30 210 30h3q-38 -49 -79 -99q-77 -7 -139 -28q-19 -9 -19 -28q0 -23 16 -30q8 -4 16 -4t17 4q32 6 44 8q-59 -70 -101 -131q-12 -15 -12 -29q0 -11 8 -22q12 -19 57 -20q189 3 379 29q16 5 24 19q5 10 6 17q0 3 -1 6 q-9 19 -32 19q-203 -20 -350 -23q49 66 112 145q33 2 65 2q59 0 114 -8q10 -2 18 -2q40 0 40 31q0 14 -20 23q-22 10 -42 13q-66 11 -117 12q45 55 50 61q16 21 16 41v7q-3 21 -25 39q-20 17 -44 17h-3q-59 -3 -124 -14.5t-96 -22.5q-16 -6 -28.5 -16.5t-12.5 -20.5z" />
<glyph unicode="[" horiz-adv-x="340" d="M77 332.5q3 -165.5 12 -261.5q1 -25 14.5 -40t25.5 -18t22 -2q74 3 148 23q9 2 14.5 12t5.5 20q0 12 -5.5 19t-14.5 6q-102 -15 -145 -16q-9 240 -11 505q53 15 107 18q15 1 28 10.5t13 22.5q0 14 -19.5 20.5t-45.5 4.5q-150 -7 -149 -58q-3 -100 0 -265.5z" />
<glyph unicode="^" horiz-adv-x="370" d="M30 529.5q5 -12.5 17 -16.5q24 -9 49 30q57 86 116 135q24 -45 68 -165q8 -15 22.5 -23t29.5 -2q17 8 8 48l-75 187q-21 46 -53 30q-106 -64 -180 -195q-7 -16 -2 -28.5z" />
<glyph unicode="_" horiz-adv-x="480" d="M22 -149q14 -22 51 -17q154 18 348 20q39 1 39 31q-3 23 -30 26q-211 11 -381 -17q-15 -4 -24.5 -15.5t-2.5 -27.5z" />
<glyph unicode="`" horiz-adv-x="242" d="M34 716q14 -28 51 -74.5t64 -71.5q28 -16 44 -10q8 4 9 19.5t-7 23.5q-79 103 -88 119q-11 17 -29 25t-32 2q-23 -10 -12 -33z" />
<glyph unicode="a" horiz-adv-x="359" d="M36 445q-8 -11 -8 -21q0 -11 9 -20q11 -10 21 -10t19 9q72 64 117 80q8 3 15 3q17 0 20 -20q8 -45 8 -150q-23 24 -57 24q-19 0 -42 -8q-54 -20 -80 -68q-17 -31 -17 -63q0 -16 4 -32q9 -34 35 -51q20 -13 43 -13q7 0 14 1q57 10 147 73q20 -11 33 -11q18 0 24 19 q2 6 2 13q0 28 -42 56q1 29 1 56q0 102 -12 183q-9 58 -75 58h-2q-78 -2 -177 -108zM103 182q-2 8 -2 16q1 24 19 46q26 30 54 36h1q15 0 33 -22q20 -22 21 -35q-18 -16 -48.5 -31t-54.5 -20q-4 -1 -8 -1q-13 0 -15 11z" />
<glyph unicode="b" horiz-adv-x="337" d="M38 643v-31q0 -199 48 -420q-2 -2 -9 -7l-10.5 -7.5t-9 -8t-7 -10.5t-1.5 -12t3 -14q6 -9 25 -12q6 -1 11 -1q14 0 28 5l18 12q19 12 28 18.5t30 23t34 29t30 32.5t27 38t17 41t7 46q1 51 -31 92q-27 35 -74 35q-8 0 -16 -1q-46 -7 -74 -54q-5 29 -7 67.5t-3 77t-2 51.5 q-6 33 -39 36q-6 0 -10 -1t-8.5 -7t-4.5 -18zM129 334v6q-1 28 17 54q20 30 48 33h5q17 0 31 -13q16 -15 16 -46q0 -69 -103 -140q-11 57 -14 106z" />
<glyph unicode="c" horiz-adv-x="362" d="M34 253q10 -50 46 -74q35 -22 78 -22q60 0 137 43q49 27 49 50q0 6 -4 12q-7 11 -21 11q-10 0 -25 -6q-72 -44 -129 -44h-5q-34 -1 -52 23q-14 18 -14 45q0 7 1 15q7 42 33 74.5t65 32.5q23 0 39 -21q9 -14 21 -14q6 0 13 4q12 7 12 22q0 4 -1 8q-9 34 -43 48 q-24 10 -51 11q-11 0 -22 -2q-43 -7 -75.5 -41.5t-44.5 -75.5q-10 -31 -10 -62q-1 -18 3 -37z" />
<glyph unicode="d" horiz-adv-x="357" d="M32 250q14 -45 54 -71t86 -27h7q43 0 86 13l4 1l1 -6q4 -13 14 -18q5 -2 10.5 -2t11.5 2q24 9 24 41q0 7 -1 14q-21 167 -69 451q-2 16 -14 26q-10 8 -22 8h-5q-27 -3 -27 -34q0 -7 2 -16l25 -158l-18 -4q-88 -22 -139 -80q-37 -44 -37 -94q0 -22 7 -46zM93 275 q-2 8 -2 17q1 32 31 60q38 36 88 52l20 5l28 -176l-9 -3q-25 -8 -49 -10q-10 -1 -20 -1q-14 -1 -26 1q-22 4 -38.5 18t-22.5 37z" />
<glyph unicode="e" horiz-adv-x="351" d="M30 327q7 -75 50 -118q42 -41 97 -41q15 0 30 3q37 6 67 28.5t46 54.5q1 6 1 10q0 16 -11 20q-4 2 -8 2q-12 0 -26 -13q-48 -42 -96 -42q-8 0 -15 1q-28 4 -46 25t-19 55q100 0 181 48q21 13 21 34q0 11 -5 24q-14 34 -49 53q-30 16 -66 16h-12q-69 -4 -107 -50 q-34 -41 -34 -95q0 -8 1 -15zM98 370q3 22 24 38t44 20q13 2 24 2q38 0 49 -26q-21 -13 -63.5 -23.5t-77.5 -10.5z" />
<glyph unicode="f" horiz-adv-x="371" d="M18 335q10 -29 46 -29q6 0 12 1q12 1 33.5 3.5t31.5 3.5l42 -122q10 -27 10 -62q0 -18 -3 -38v-8q0 -21 15 -27q4 -1 7 -1q9 0 18 10q13 13 21 37q9 27 9 48q0 9 -2 17q-10 35 -51 153q45 4 88 9q49 6 49 29q0 4 -1 8q-23 23 -72 26q-11 1 -24 1q-30 0 -64 -4 q-26 76 -36 115q-7 27 -7 46.5t7 32.5q14 26 35 29q4 1 9 1q13 0 27 -8q19 -9 30.5 -20t27.5 -31q5 -6 16 -6.5t22 8.5q6 6 6 16q0 8 -4 19q-22 48 -69 71q-28 14 -56 14q-20 0 -40 -7q-80 -27 -80 -110q0 -30 10 -66l37 -112q-41 -6 -80 -14q-22 -5 -22 -22q0 -5 2 -11z " />
<glyph unicode="g" horiz-adv-x="339" d="M34 273q0 -51 23.5 -89t57.5 -40h8q49 0 93 44q7 -21 13 -51t9 -69q1 -10 1 -18q0 -27 -8 -44q-17 -43 -58.5 -67t-89.5 -29q-14 -3 -24.5 -9.5t-9.5 -16.5q0 -10 13 -21t25 -12q105 3 169 72q50 54 50 126q0 15 -2 31q-12 83 -54 260q-9 37 -27 61q7 6 6.5 21.5 t-10.5 23.5t-32 9h-8q-16 0 -23 -3q-117 -49 -122 -179zM97 264q0 43 24 77.5t52 47.5q2 -17 19 -93q2 -10 2 -18q0 -26 -20 -43q-25 -20 -44 -20q-10 0 -18 5q-15 9 -15 44z" />
<glyph unicode="h" horiz-adv-x="413" d="M45 574q-1 -58 -1 -114q0 -166 13 -304q3 -22 15 -47.5t26 -25.5q19 0 25 31q43 229 110 243q3 1 7 1q14 0 26 -14q14 -17 22.5 -48.5t14 -61t10 -63t6.5 -43.5q4 -14 15.5 -25t20.5 -11q11 0 19 10t8 26q-3 42 -10 85t-21 96t-41 86t-62 33q-42 0 -76.5 -30.5 t-58.5 -76.5q-3 76 -2 160v87q0 18 -9 34t-21 17h-6q-30 0 -30 -45z" />
<glyph unicode="i" horiz-adv-x="242" d="M25 535q3 -19 16 -27t27 -4q53 15 107 17q32 0 34 12v5q0 23 -33 34q-12 4 -32 4q-14 0 -31 -2q-42 -5 -68 -17q-20 -9 -20 -22zM99 375q0 -146 30 -207q9 -18 25 -28q8 -5 16 -4q7 0 13 4q10 6 10 25.5t-7 34.5q-22 49 -22 160q1 23 -10 38.5t-29 16.5q-10 -2 -17.5 -14 t-8.5 -26z" />
<glyph unicode="j" horiz-adv-x="286" d="M10 59q-1 -19 23 -32.5t54 -16.5q9 -1 17 -1q48 0 80 29q37 35 47 94q5 27 5 56q0 91 -50 204q-15 31 -45 49q-9 6 -22 4.5t-19 -11.5q-5 -10 -5 -18q0 -15 16 -27q23 -19 30 -41q35 -95 35 -160q0 -68 -39 -101q-23 -19 -56 -19q-19 0 -41 6q-11 1 -19.5 -3t-10.5 -12z M59 550v-5q0 -9 5 -21q5 -15 27 -15q62 0 86 -2q43 0 43 32q0 13 -27 15q-45 12 -88 12q-18 0 -36 -2q-8 -2 -10 -14z" />
<glyph unicode="k" horiz-adv-x="406" d="M35 564q8 -60 29.5 -219t28.5 -212q8 -36 37 -41h2q14 0 21 11q4 6 4 15q0 7 -3 16q-4 52 -14 140q151 -97 200 -122q13 -5 25.5 -2.5t19.5 9.5q5 6 5 11q0 9 -12 20q-41 35 -187 130q75 46 149 81q23 11 23 33v5q-1 10 -19.5 13.5t-27.5 -0.5q-46 -14 -186 -94 q-15 119 -32 214q-8 26 -24 38q-11 8 -21 8q-5 0 -10 -2q-11 -4 -11 -26q0 -11 3 -26z" />
<glyph unicode="l" horiz-adv-x="209" d="M64 581q4 -183 42 -436q4 -14 16 -30q12 -15 21 -15h1q24 1 24 37v8q-34 269 -43 448q-2 43 -33 44q-10 0 -16 -7.5t-8.5 -19t-3.5 -29.5z" />
<glyph unicode="m" horiz-adv-x="621" d="M37 427q11 -123 24 -195q7 -29 24.5 -54t33.5 -25q17 0 34 28q8 14 27.5 53t37 71t34.5 54q8 -19 18.5 -46.5t22 -60.5t16.5 -47q4 -11 16.5 -19.5t23.5 -8.5q12 0 21.5 13.5t9.5 37.5q12 53 34 109.5t39 56.5q5 -2 17.5 -15.5t16.5 -22.5q19 -43 35 -170q4 -15 14 -25 q6 -5 13 -5t17 4q14 6 14 30l-1 18q-1 17 -2.5 29.5t-4.5 35t-7.5 41t-11.5 40.5t-16 39q-14 26 -42.5 46.5t-47.5 20.5q-26 0 -50 -27q-29 -33 -62 -128q-37 144 -83 144q-40 0 -130 -186q-11 68 -22 185q-3 31 -28 31q-4 0 -9 -1q-26 -7 -26 -45v-6z" />
<glyph unicode="n" horiz-adv-x="424" d="M31 488q-3 -6 -3 -13q0 -10 5 -23q24 -105 43 -273q0 -17 22 -24q8 -3 15 -3q14 0 24 11q6 13 27 60.5t37 81t30 58.5q14 26 32 27h2q13 0 25 -22q13 -24 21.5 -53t17 -61.5t12.5 -41.5q1 -7 8 -10t21 2q25 11 25 31q0 4 -1 9q-6 29 -9.5 45.5t-12 48t-18 51t-23 40.5 t-31.5 31.5t-39 10.5t-39.5 -14t-37 -44.5t-28 -49t-27.5 -57.5q-5 46 -26 149q-8 38 -43 44q-4 1 -8 1q-16 -1 -21 -12z" />
<glyph unicode="o" horiz-adv-x="404" d="M46 343q-4 -23 -4 -44q0 -55 25 -103q34 -64 111 -65q62 0 107.5 43t71.5 107q8 22 8 46q-1 33 -15 67q-24 60 -81 80q-8 3 -14 3q-10 0 -18 -7q-39 21 -74 21q-47 -1 -77.5 -44t-39.5 -104zM110 291q2 27 4 50q5 25 24.5 57.5t41.5 32.5q7 0 15.5 -5t19.5 -13.5 t16 -11.5q11 -6 25 3q28 -14 38 -46q5 -15 6 -30q0 -15 -6 -30q-16 -50 -58 -77q-31 -20 -57 -20q-8 0 -16 2q-27 9 -41 35q-12 24 -13 48q1 2 1 5z" />
<glyph unicode="p" horiz-adv-x="382" d="M-2 415q4 -8 17.5 -9t27.5 6q107 58 182 58h5q50 -1 56 -45q1 -6 1 -11q0 -64 -97 -123q-5 46 -13 97q-6 20 -23 33q-11 9 -22 9q-3 0 -7 -1q-8 -4 -12.5 -11.5t-4.5 -12.5v-5q7 -45 19 -143q-34 -20 -34 -42q0 -7 3 -13q7 -18 29 -18q4 0 9 1q7 -101 7 -165 q0 -9 10 -20.5t25 -12.5h2q10 0 18 8q9 9 10 21v29q0 75 -8 171q152 92 152 198q0 29 -11 59q-19 39 -59 55q-28 10 -58 10q-14 0 -30 -2q-46 -8 -86.5 -22t-73.5 -33q-38 -23 -38 -49q0 -9 4 -17z" />
<glyph unicode="q" horiz-adv-x="404" d="M26 276q3 -48 33 -71q23 -17 59 -17q57 0 149 43q13 -97 25 -221q4 -19 7 -27t11.5 -16t21.5 -8h2q11 0 17 8q7 9 8 22q-7 101 -25 255.5t-33 234.5q-18 32 -42 32h-1q-21 -1 -24 -17q-9 3 -19 3q-8 0 -17 -2q-79 -26 -144 -123q-28 -44 -28 -89v-7zM86 278q9 48 55 98.5 t98 59.5q6 -42 18 -128q-74 -46 -147 -55q-4 -1 -7 -1q-9 0 -13.5 6t-4.5 14q0 3 1 6z" />
<glyph unicode="r" horiz-adv-x="359" d="M34 469q19 -160 47 -279q4 -22 16.5 -39.5t29.5 -17.5q14 0 23 17.5t9 37.5q6 97 36 155q16 31 42.5 56.5t44 36.5t49.5 29q6 3 9 5q12 8 16 20q1 5 1 8q0 5 -3 8q-7 8 -25 8q-6 0 -14 -1q-71 -12 -128.5 -68t-66.5 -124q-14 68 -22 147q-3 20 -36 22h-4q-24 0 -24 -21z " />
<glyph unicode="s" horiz-adv-x="339" d="M23 103q0 -9 18.5 -24t30.5 -15q71 0 145.5 20t94.5 67q8 19 8 37q0 41 -39 76q-15 14 -36 28t-56.5 34t-44.5 26q-41 26 -41 51q0 3 1 6q2 19 40 39q26 13 49 13q11 0 21 -3q10 -4 14 -34q1 -9 10 -14.5t22 -3.5q20 4 20 34q-4 41 -32 63t-72 24q-52 0 -95.5 -41 t-41.5 -92q6 -49 55 -82q11 -7 38.5 -23.5t46 -29t39 -27.5t28.5 -27.5t3 -21.5q-15 -25 -67.5 -36.5t-109.5 -11.5q-49 0 -49 -32z" />
<glyph unicode="t" horiz-adv-x="408" d="M8 340q0 -15 14 -22t30 -7q57 5 70 7q-4 -80 -4 -129q0 -20 1 -34q1 -33 19 -53q15 -18 42 -18h8q40 3 102 34.5t97 59.5q22 22 22 46q0 5 -1 10q-2 7 -10.5 9t-18.5 -3q-136 -70 -195 -82q-2 3 -2 20q0 38 8 145q64 4 90 4q43 0 45 26q0 19 -18 30q-16 10 -36 10h-3 q-51 -2 -74 -4q6 98 14 165q0 12 -16 22q-14 9 -29 8h-3q-7 0 -13 -9t-7 -21q-13 -158 -14 -171q-50 -5 -91 -12q-27 -8 -27 -31z" />
<glyph unicode="u" horiz-adv-x="410" d="M49 209q21 -70 61 -75q6 -1 11 -1q43 0 85 40q48 45 85 110q7 -92 28 -155q7 -19 24 -19q4 0 9 1q11 4 20 18q7 11 7 19q0 3 -1 5q-28 115 -39 269q-1 16 -14 28.5t-24 10.5q-7 -1 -17.5 -9t-10.5 -15q0 -20 -10 -52q-16 -54 -64 -116q-44 -57 -74 -58q-3 0 -6 1 q-14 15 -14 57q0 54 22 153q1 4 1 8q0 11 -9 23q-12 16 -28 18h-4q-13 0 -18 -19q-27 -114 -27 -183q0 -36 7 -59z" />
<glyph unicode="v" horiz-adv-x="404" d="M22 438q40 -124 117 -253q17 -27 38 -27q19 0 35 33q74 145 165 297q2 6 2 12q0 16 -18 30q-10 8 -18 8q-9 0 -16 -9q-18 -24 -41 -61t-38.5 -64t-42 -74.5t-35.5 -62.5q-23 39 -71 147q-17 35 -43 45q-16 4 -26 -1q-9 -4 -9 -14q0 -2 1 -6z" />
<glyph unicode="w" horiz-adv-x="568" d="M30 401q35 -163 73 -226q19 -26 40 -27h4q25 0 41 25q16 27 41.5 75.5t36.5 68.5q9 -23 27 -80.5t26 -79.5q3 -9 15 -17.5t26 -9.5q23 0 36 18q99 139 140 303q1 2 1 4q0 9 -11 17q-13 10 -31 12h-2q-7 0 -11 -6q-5 -6 -9 -20q-18 -56 -51 -128t-59 -107q-4 14 -13.5 46 t-15.5 52.5t-16 48t-20 47.5q-5 8 -16 12.5t-17 0.5q-9 -6 -29.5 -39t-49.5 -83.5t-43 -72.5q-26 71 -48 179q-3 13 -17 25q-13 11 -28 11h-2q-20 -2 -20 -30q0 -8 2 -19z" />
<glyph unicode="x" horiz-adv-x="382" d="M23 452q-1 -2 -1 -4q0 -4 3 -9q4 -7 18 -7q37 -34 107 -106q-47 -51 -83 -93q-24 -34 -24 -67q0 -8 6.5 -12t17.5 -2t21 11l109 111q4 -4 88 -100q11 -11 30 -19q13 -5 20 -5q4 0 7 1q16 7 16 22q0 18 -23 46q-46 60 -87 106l83 84q18 20 18 36q0 10 -7 18q-15 7 -29 7 q-17 0 -32 -10q-42 -40 -82 -82q-46 49 -99 91q-19 11 -35 11q-20 0 -37 -17q-3 -5 -5 -11z" />
<glyph unicode="y" horiz-adv-x="406" d="M26 380q6 -30 25 -83.5t46 -88.5q24 -29 56 -29t69.5 27t65.5 62q3 -29 3 -56q0 -84 -26 -148q-34 -83 -122 -150q-24 -22 -24 -37q0 -3 1 -6q4 -11 25 -15h11q14 0 25 6q93 58 136 153q41 90 41 183v11q-3 99 -7 211q-1 13 -1 20q0 12 -13 22q-12 8 -25 8h-3 q-12 -1 -20.5 -18.5t-8.5 -30.5q0 -53 -44.5 -109t-76.5 -56q-10 0 -20 10.5t-18.5 29.5t-14.5 34.5t-13 36.5t-8 25q-8 20 -31 20q-7 0 -15 -2q-14 -3 -14 -21q0 -4 1 -9z" />
<glyph unicode="z" horiz-adv-x="466" d="M27 441q3 -11 17 -19.5t26 -8.5q126 27 186 28q-27 -30 -77 -92q-11 0 -37 -1.5t-41 -2.5q-43 -3 -43 -28q0 -13 11 -24.5t25 -12.5l34 1q-13 -17 -37 -50.5t-35 -48.5q-11 -20 -11 -35q-1 -10 5 -17q14 -17 49 -18h22q117 0 264 28q14 3 28.5 11.5t14.5 17.5 q0 11 -18 23q-16 12 -28 12h-2q-140 -21 -242 -21q17 28 71 100l187 6h8q35 0 34 24q0 19 -20 29q-18 10 -33 10q-84 0 -124 -1q45 58 52 68q11 11 11 32.5t-11 32.5q-27 25 -81 25q-38 0 -100.5 -12.5t-90.5 -21.5q-15 -6 -15 -23q0 -5 1 -11z" />
<glyph unicode="|" horiz-adv-x="242" d="M84.5 327q5.5 -168 24.5 -284q3 -18 18 -32.5t32 -10.5q21 5 12 71q-26 292 -16 528q6 55 -28 58q-16 1 -26.5 -15.5t-13.5 -34.5q-8 -112 -2.5 -280z" />
<glyph unicode="~" horiz-adv-x="550" d="M31 296q0 -22 28 -28q25 -5 32 13q12 31 32.5 51.5t44.5 20.5q29 0 42 -33q14 -35 31.5 -51.5t51.5 -18.5q35 -2 104 34.5t117 87.5q6 9 4 20.5t-11 18.5q-16 14 -39 -2q-111 -86 -165 -86q-32 0 -50 49q-22 56 -73 56t-97.5 -39t-51.5 -93z" />
<glyph unicode="&#xa1;" horiz-adv-x="302" d="M102 635q0 20 14.5 34t34.5 14t34 -14t14 -34t-14 -34.5t-34 -14.5t-34.5 14.5t-14.5 34.5zM109 -41l11 517q0 17 2.5 19.5t20.5 2.5h16q16 0 18.5 -2.5t3.5 -18.5l12 -518q0 -20 -3 -23t-22 -3h-34q-20 0 -22.5 3t-2.5 23z" />
<glyph unicode="&#xa7;" horiz-adv-x="346" d="M35 341q0 49 24 72t69 16q-71 64 -71 153q0 127 117 127q52 0 83 -28.5t31 -71.5h-55q0 74 -63 74q-31 0 -50 -20.5t-19 -57.5q0 -67 89 -151q121 -115 121 -200q0 -42 -20 -64t-58 -21q55 -61 55 -138q0 -63 -33.5 -99.5t-88.5 -36.5q-53 0 -87 29t-34 76h56 q0 -35 18 -54t46 -19q31 0 50 21t19 62q0 35 -19 72t-50 65q-40 37 -64 62.5t-45 62t-21 69.5zM84 330q8 -28 26 -50q64 -81 108 -81q31 0 41 22t2 48.5t-24 46.5q-36 46 -62.5 65t-55.5 19q-26 0 -34.5 -21t-0.5 -49z" />
<glyph unicode="&#xa8;" horiz-adv-x="540" d="M85 644q5 -23 17 -29q50 -25 79 10q9 12 9 31.5t-9 31.5q-17 17 -41.5 21t-45.5 -17q-14 -25 -9 -48zM350 644q5 -23 17 -29q50 -25 79 10q9 12 9 31.5t-9 31.5q-17 17 -41.5 21t-45.5 -17q-14 -25 -9 -48z" />
<glyph unicode="&#xad;" horiz-adv-x="410" d="M59 283v58h292v-58h-292z" />
<glyph unicode="&#xb0;" horiz-adv-x="446" d="M116 614q0 44 31.5 75.5t75.5 31.5t75.5 -31.5t31.5 -75.5t-31.5 -75.5t-75.5 -31.5t-75.5 31.5t-31.5 75.5zM146 614q0 -32 22.5 -55t54.5 -23t54.5 23t22.5 55t-22.5 55t-54.5 23t-54.5 -23t-22.5 -55z" />
<glyph unicode="&#xb1;" horiz-adv-x="437" d="M22 386q0 -16 14.5 -25t31.5 -6q2 0 42.5 6t71.5 10q2 -72 14 -127q7 -34 45 -34q8 0 13.5 8t4.5 22q-8 78 -8 139q67 8 117 11q17 1 30.5 9.5t14.5 20.5q3 26 -29 28q-52 3 -133 -2q1 45 8 107q3 27 -24 36q-12 4 -24 -1.5t-17 -26.5q-9 -39 -12 -120q-89 -8 -127 -20 q-33 -10 -33 -35zM62 107q4 -28 47 -23q49 5 139.5 16t139.5 16q15 1 22 11t5 19q-3 21 -51 26q-52 4 -130 -5t-137 -22q-39 -10 -35 -38z" />
<glyph unicode="&#xb4;" horiz-adv-x="324" d="M78 516l81 211h87l-143 -211h-25z" />
<glyph unicode="&#xb6;" horiz-adv-x="605" d="M81 523q0 85 54 138t155 53h234v-824h-54v784h-124v-784h-54v442q-102 0 -156.5 53t-54.5 138z" />
<glyph unicode="&#xb7;" horiz-adv-x="290" d="M92 323q5 -23 17 -29q50 -25 79 10q9 12 9 31.5t-9 31.5q-17 17 -41.5 21t-45.5 -17q-14 -25 -9 -48z" />
<glyph unicode="&#xbf;" horiz-adv-x="540" d="M89 116q0 61 28 107q17 29 64 79q47 48 65 82q27 46 27 101q0 11 1.5 13t11.5 2h41q10 0 11.5 -1.5t1.5 -12.5q0 -66 -28 -115q-21 -37 -62 -78q-42 -44 -64 -82q-24 -42 -24 -95q0 -59 37.5 -93t98.5 -34t135 25q16 4 16 -9l1 -41q0 -14 -13 -17q-86 -21 -143 -21 q-89 0 -143 45q-62 50 -62 145zM256 636q0 20 14.5 34t34.5 14t34 -14t14 -34t-14 -34.5t-34 -14.5t-34.5 14.5t-14.5 34.5z" />
<glyph unicode="&#xd7;" horiz-adv-x="375" d="M28 489q-22 -22 10 -48q40 -34 93 -84q-52 -69 -82 -121q-15 -27 -5 -56q3 -12 18 -9.5t27 18.5q40 58 89 120q67 -69 114 -134q8 -11 26.5 -19.5t26.5 -4.5q28 12 -5 67q-38 65 -116 148q43 52 88 103q13 15 15 31t-10 23q-32 18 -59 -12q-46 -52 -82 -95q-40 40 -85 76 q-34 26 -63 -3z" />
<glyph unicode="&#xf7;" horiz-adv-x="486" d="M26 307q1 -17 17 -26t35 -5q196 44 352 51q13 0 20.5 6.5t6.5 19.5q-4 31 -39 33q-138 12 -356 -37q-36 -8 -36 -42zM160 487.5q6 -23.5 28 -27.5q21 -3 45 12t29 36t-7 38.5t-36 23.5q-19 5 -34.5 -6.5t-21.5 -29.5q-9 -23 -3 -46.5zM223 152q3 -22 18.5 -35.5 t39.5 -10.5q48 5 43 48q-2 26 -21 46.5t-45 16.5q-21 -2 -30 -22t-5 -43z" />
<glyph unicode="&#x2000;" horiz-adv-x="400" />
<glyph unicode="&#x2001;" horiz-adv-x="800" />
<glyph unicode="&#x2002;" horiz-adv-x="400" />
<glyph unicode="&#x2003;" horiz-adv-x="800" />
<glyph unicode="&#x2004;" horiz-adv-x="266" />
<glyph unicode="&#x2005;" horiz-adv-x="200" />
<glyph unicode="&#x2006;" horiz-adv-x="133" />
<glyph unicode="&#x2007;" horiz-adv-x="133" />
<glyph unicode="&#x2008;" horiz-adv-x="100" />
<glyph unicode="&#x2009;" horiz-adv-x="160" />
<glyph unicode="&#x200a;" horiz-adv-x="44" />
<glyph unicode="&#x2010;" horiz-adv-x="370" d="M34 326q2 -11 11 -19t19 -7q127 14 240 15q9 0 19.5 5.5t10.5 9.5q3 18 -7.5 30t-22.5 15q-111 14 -255 -15q-21 -7 -15 -34z" />
<glyph unicode="&#x2011;" horiz-adv-x="370" d="M34 326q2 -11 11 -19t19 -7q127 14 240 15q9 0 19.5 5.5t10.5 9.5q3 18 -7.5 30t-22.5 15q-111 14 -255 -15q-21 -7 -15 -34z" />
<glyph unicode="&#x2012;" horiz-adv-x="370" d="M34 326q2 -11 11 -19t19 -7q127 14 240 15q9 0 19.5 5.5t10.5 9.5q3 18 -7.5 30t-22.5 15q-111 14 -255 -15q-21 -7 -15 -34z" />
<glyph unicode="&#x2013;" horiz-adv-x="566" d="M34 326q4 -11 18.5 -19t31.5 -7q210 14 397 15q15 0 32.5 5.5t17.5 9.5q5 18 -12.5 30t-37.5 15q-184 14 -422 -15q-35 -7 -25 -34z" />
<glyph unicode="&#x2014;" horiz-adv-x="1066" d="M36 326q7 -11 37 -19t63 -7q420 14 794 15q30 0 65 5.5t35 9.5q10 18 -25 30t-75 15q-367 14 -844 -15q-69 -7 -50 -34z" />
<glyph unicode="&#x2015;" horiz-adv-x="864" d="M2 286v52h860v-52h-860z" />
<glyph unicode="&#x2018;" horiz-adv-x="249" d="M76 536q-2 -38 15.5 -59.5t47.5 -17.5q13 2 21.5 15.5t7.5 36.5q-1 14 -9.5 37t-9.5 28q-2 7 0 16q14 62 62 129q12 17 -0.5 29.5t-30.5 -3.5q-43 -41 -72 -100t-32 -111z" />
<glyph unicode="&#x2019;" horiz-adv-x="250" d="M62 493q-5 -11 0.5 -20t15.5 -9t20 11q34 42 52 117t9 125q-5 31 -27 48t-47 5q-14 -7 -19.5 -25t1.5 -41q4 -13 15 -29.5t13 -22.5q4 -8 4 -16q0 -70 -37 -143z" />
<glyph unicode="&#x201c;" horiz-adv-x="371" d="M82 563q-3 -36 14 -57.5t44 -11.5q25 8 30 49q3 27 -15 55q-3 3 -3 12t1 11q13 53 68 130q7 11 3.5 19.5t-13 9t-20.5 -8.5q-35 -34 -70 -96t-39 -112zM212 558q-2 -36 16.5 -57t43.5 -12q26 10 29 50q2 29 -17 55q-3 3 -3.5 12t0.5 11q10 50 63 131q7 11 3 19.5 t-13.5 8.5t-20.5 -9q-34 -34 -66.5 -96.5t-34.5 -112.5z" />
<glyph unicode="&#x201d;" horiz-adv-x="350" d="M21 490q0 -6 3.5 -9.5t8.5 -4.5t11.5 2t11.5 9q30 39 56 105.5t23 116.5q-2 37 -22 55t-45 5q-25 -11 -23 -53q2 -28 23 -52q5 -6 5 -23q-5 -54 -49 -138q-3 -7 -3 -13zM188 476q5 -8 15.5 -6.5t18.5 13.5q27 41 48.5 111.5t13.5 119.5q-5 36 -27 53t-45 4 q-24 -15 -19 -55q5 -29 27 -51q8 -8 8 -22q0 -48 -40 -147q-5 -12 0 -20z" />
<glyph unicode="&#x2020;" horiz-adv-x="552" d="M60 382v34h198v224h36v-224h198v-34h-198v-394h-36v394h-198z" />
<glyph unicode="&#x2021;" horiz-adv-x="552" d="M60 315v34h198v130h-198v34h198v126h36v-126h198v-34h-198v-130h198v-34h-198v-328h-36v328h-198z" />
<glyph unicode="&#x2025;" d="M192 323q5 -23 17 -29q50 -25 79 10q9 12 9 31.5t-9 31.5q-17 17 -41.5 21t-45.5 -17q-14 -25 -9 -48zM641 323q5 -23 17 -29q50 -25 79 10q9 12 9 31.5t-9 31.5q-17 17 -41.5 21t-45.5 -17q-14 -25 -9 -48z" />
<glyph unicode="&#x2026;" d="M118 323q5 -23 17 -29q50 -25 79 10q9 12 9 31.5t-9 31.5q-17 17 -41.5 21t-45.5 -17q-14 -25 -9 -48zM418 323q5 -23 17 -29q50 -25 79 10q9 12 9 31.5t-9 31.5q-17 17 -41.5 21t-45.5 -17q-14 -25 -9 -48zM717 323q5 -23 17 -29q50 -25 79 10q9 12 9 31.5t-9 31.5 q-17 17 -41.5 21t-45.5 -17q-14 -25 -9 -48z" />
<glyph unicode="&#x202f;" horiz-adv-x="160" />
<glyph unicode="&#x2030;" d="M130 405q-6 -25 5.5 -49t37.5 -29q37 -6 62.5 15t31.5 47q10 44 -4 89q-8 20 -17 23l6 6q5 5 3.5 11.5t-7.5 8.5q-14 7 -35 -4q-66 -39 -83 -118zM184 403q4 33 36 70q0 -6 0.5 -21t0 -24.5t-2 -21t-8 -17.5t-16.5 -6q-12 0 -10 20zM215 71q3 -21 13 -25q23 -11 43 27 q99 239 186 410q21 37 -7 54q-20 14 -51 -34q-91 -169 -182 -399q-5 -12 -2 -33zM390 145q-6 -25 5.5 -49t37.5 -29q37 -6 62.5 15t31.5 47q10 44 -4 89q-8 20 -17 23l6 6q5 5 3.5 11.5t-7.5 8.5q-14 7 -35 -4q-66 -39 -83 -118zM444 143q4 33 36 70q0 -6 0.5 -21t0 -24.5 t-2 -21t-8 -17.5t-16.5 -6q-12 0 -10 20zM570 145q-6 -25 5.5 -49t37.5 -29q37 -6 62.5 15t31.5 47q10 44 -4 89q-8 20 -17 23l6 6q5 5 3.5 11.5t-7.5 8.5q-14 7 -35 -4q-66 -39 -83 -118zM624 143q4 33 36 70q0 -6 0.5 -21t0 -24.5t-2 -21t-8 -17.5t-16.5 -6q-12 0 -10 20z " />
<glyph unicode="&#x2032;" horiz-adv-x="459" d="M141 494l91 235h86l-153 -235h-24z" />
<glyph unicode="&#x2033;" horiz-adv-x="480" d="M80 494l91 235h84l-153 -235h-22zM225 494l91 235h84l-153 -235h-22z" />
<glyph unicode="&#x203b;" d="M159 298q0 23 17 40t40 17t40.5 -17t17.5 -40t-17.5 -40t-40.5 -17t-40 17t-17 40zM168 34l266 265l-264 264l28 31l264 -267l266 267l28 -31l-264 -264l266 -265l-31 -31l-264 267l-264 -267zM405 545q0 23 17 40t40 17t40 -17t17 -40t-17 -40t-40 -17t-40 17t-17 40z M406 43q0 24 16.5 40.5t39.5 16.5t40 -16.5t17 -40.5q0 -23 -17 -39.5t-40 -16.5t-39.5 16.5t-16.5 39.5zM666 298q0 24 17 40.5t40 16.5t40 -16.5t17 -40.5q0 -23 -17 -39.5t-40 -16.5t-40 16.5t-17 39.5z" />
<glyph unicode="&#x205f;" horiz-adv-x="200" />
<glyph unicode="&#x20ac;" d="M220 191h57q16 -112 81 -185q70 -78 176 -78q111 0 174 50v84q-19 -26 -73 -45q-41 -17 -95 -17q-67 0 -118 57q-49 58 -59 134h162l20 57h-188q-3 33 -3 41q0 9 3 45h217l23 57h-235q15 85 58 139q50 59 130 59q83 0 131 -36l39 68q-55 44 -170 44q-113 0 -183 -82 q-74 -83 -91 -192h-56v-57h49q-2 -40 0 -86h-49v-57z" />
<glyph unicode="&#x2103;" horiz-adv-x="496" d="M20 515q-6 -25 5.5 -49t37.5 -29q37 -6 62.5 15t31.5 47q10 44 -4 89q-8 20 -17 23l6 6q5 5 3.5 11.5t-7.5 8.5q-14 7 -35 -4q-66 -39 -83 -118zM74 513q4 33 36 70q0 -6 0.5 -21t0 -24.5t-2 -21t-8 -17.5t-16.5 -6q-12 0 -10 20zM151 295q2 -61 33 -107.5t94 -64.5 q48 -13 104.5 1t81.5 44q11 14 6 30q-7 15 -21 10q-108 -45 -168 -16q-24 12 -40 41t-20 65q-4 39 10 75.5t39 56.5q41 31 98 16q13 -3 18 9q10 16 -2 30q-20 24 -56.5 27.5t-73.5 -15.5q-50 -26 -77.5 -80.5t-25.5 -121.5z" />
<glyph unicode="&#x2109;" d="M140 525q-6 -25 5.5 -49t37.5 -29q37 -6 62.5 15t31.5 47q10 44 -4 89q-8 20 -17 23l6 6q5 5 3.5 11.5t-7.5 8.5q-14 7 -35 -4q-66 -39 -83 -118zM194 523q4 33 36 70q0 -6 0.5 -21t0 -24.5t-2 -21t-8 -17.5t-16.5 -6q-12 0 -10 20zM320.5 528q-3.5 -18 1.5 -24 q9 -18 44 -18h33q25 -152 47 -342q2 -14 16 -29.5t31 -15.5q9 0 14 15t3 30q-6 72 -15 138q105 5 171 16q13 2 22 10.5t9 19.5q0 8 -14.5 17t-27.5 9q-83 -6 -168 -9q-14 94 -22 140q58 -1 172 -11q8 0 20 8t14 14q-2 13 -19 23q-59 20 -150.5 30t-164.5 0q-13 -3 -16.5 -21 z" />
<glyph unicode="&#x2116;" d="M51 194q3 -22 15.5 -40.5t29.5 -18.5q16 0 16 9q-3 85 5 260q17 -16 35.5 -35.5t31 -34t33 -40.5t27 -35t28 -38.5t22.5 -31.5q12 -16 32 -25.5t31 -7.5q25 6 31 38q24 120 42 340q0 26 -28 28q-11 1 -24 -9t-12 -19q-24 -234 -35 -289q-6 8 -26 35.5t-30 41t-31 39.5 t-37.5 43t-39.5 38t-46 37q-2 31 -34 35q-10 1 -19.5 -11t-10.5 -34q-14 -211 -6 -275zM461 343q-13 -83 21 -147.5t111 -64.5q62 0 107.5 43t71.5 107q18 53 -6.5 112.5t-81.5 80.5q-19 8 -32 -4q-39 21 -74 21q-47 -1 -77.5 -44t-39.5 -104zM524.5 291q1.5 27 4.5 50 q5 25 24.5 57.5t41.5 32.5q7 0 15.5 -5t19.5 -13.5t16 -11.5q11 -6 25 3q28 -14 38.5 -45.5t-0.5 -60.5q-17 -50 -58.5 -77t-72.5 -18q-28 8 -41.5 34.5t-12 53.5zM810 212q-18 -37 2 -58q17 -21 45.5 -7t22.5 42q0 11 -10.5 22.5t-24.5 15.5q-26 -2 -35 -15z" />
<glyph unicode="&#x2121;" d="M7 489q0 -14 13.5 -23t35.5 -1q207 81 386 73q10 -1 14.5 5t6.5 17q2 9 -5 20t-16 14q-205 26 -410 -74q-18 -12 -25 -31zM231.5 477q0.5 -8 0.5 -9q6 -101 9 -334q2 -35 33 -30q11 1 18.5 10t7.5 20q6 187 -10 340q0 13 -11 23t-32 7q-8 -1 -11.5 -6t-4 -9t0 -12z M425 235q7 -75 50 -118q53 -52 127 -38q37 6 67 28.5t46 54.5q4 25 -10 30q-15 6 -34 -11q-56 -49 -111 -41q-28 4 -46 25t-19 55q100 0 181 48q32 19 16 58q-14 34 -49 53t-78 16q-69 -4 -107 -50t-33 -110zM493 278q3 22 24 38t44 20q59 10 73 -24q-21 -13 -63.5 -23.5 t-77.5 -10.5zM764 581q4 -183 42 -436q3 -14 15.5 -30t22.5 -15q27 1 24 45q-34 269 -43 448q-2 43 -33 44q-10 0 -16 -7.5t-8.5 -19t-3.5 -29.5z" />
<glyph unicode="&#x2122;" d="M67 612q0 -14 13.5 -23t35.5 -1q86 32 97 35q7 -111 8 -211q2 -35 33 -30q11 1 18.5 10t7.5 20q3 102 -9 225q51 7 116 4q10 -1 14.5 5t6.5 17q2 10 -4.5 22.5t-16.5 11.5q-92 4 -150.5 -8t-144.5 -46q-25 -17 -25 -31zM442 652q-2 -85 1 -133.5t19 -114.5 q3 -13 17.5 -23.5t27.5 -6.5q5 2 9 11t3 19q-15 105 -15 154q20 -29 55.5 -78.5t48.5 -67.5q4 -6 6.5 -15.5t5.5 -11.5t12 -2q20 0 37 35q47 90 73 169q7 -31 17.5 -72.5t16.5 -80.5q2 -16 13 -33t22 -17t20 13t7 31q-7 59 -13 92.5t-14.5 74.5t-16.5 92q-4 17 -16 30t-23 9 q-13 -4 -23 -19.5t-8 -26.5q0 -4 1 -5q-21 -42 -46 -107.5t-44 -104.5q-9 12 -52 75.5t-76 104.5v2q1 22 -10.5 34.5t-28.5 12.5q-26 0 -26 -40z" />
<glyph unicode="&#x2190;" d="M20 300l181 163l-73 -151h792v-24h-792l73 -151z" />
<glyph unicode="&#x2191;" horiz-adv-x="464" d="M69 618l163 181l163 -181l-151 73v-891h-24v891z" />
<glyph unicode="&#x2192;" d="M20 288v24h792l-73 151l181 -163l-181 -163l73 151h-792z" />
<glyph unicode="&#x2193;" horiz-adv-x="464" d="M69 -18l151 -73v891h24v-891l151 73l-163 -181z" />
<glyph unicode="&#x2194;" d="M20 300l181 163l-73 -151h684l-73 151l181 -163l-181 -163l73 151h-684l73 -151z" />
<glyph unicode="&#x2195;" horiz-adv-x="444" d="M59 161l151 -73v422l-151 -73l163 181l163 -181l-151 73v-422l151 73l-163 -181z" />
<glyph unicode="&#x2196;" d="M223 294l62 153l383 -428l17 17l-383 429l162 45l-241 27v-243z" />
<glyph unicode="&#x2197;" d="M223 36l383 429l-162 45l241 27v-243l-62 153l-383 -428z" />
<glyph unicode="&#x2198;" d="M223 520l383 -429l-162 -45l241 -27v243l-62 -153l-383 428z" />
<glyph unicode="&#x2199;" d="M223 19v243l62 -153l383 428l17 -17l-383 -429l162 -45z" />
<glyph unicode="&#x21d2;" d="M20 192v29h782l79 78l-79 78h-782v29h753l-124 123l21 21l250 -251l-250 -252l-21 21l125 124h-754z" />
<glyph unicode="&#x21d4;" d="M20 299l250 251l21 -21l-124 -123h605l-124 123l21 21l250 -251l-250 -252l-21 21l125 124h-607l125 -124l-21 -21zM59 299l79 -78h663l79 78l-79 78h-663z" />
<glyph unicode="&#x2200;" d="M163 674h71l81 -222h310l81 222h71l-270 -714h-74zM336 394l134 -366l134 366h-268z" />
<glyph unicode="&#x2202;" horiz-adv-x="496" d="M80 187q0 51 33.5 89.5t78.5 55.5t91 17q41 0 65 -13q4 10 1 33.5t-8.5 47.5t-27 42.5t-54.5 18.5q-63 0 -121 -61l-22 15q66 79 153 79q66 0 106.5 -43.5t40.5 -113.5q0 -102 -72 -178t-166 -76q-42 0 -70 23.5t-28 63.5zM141 184q0 -23 15 -37t36 -14q46 0 89 52 q47 60 65 128h1q-21 7 -46 7q-64 0 -112 -38t-48 -98z" />
<glyph unicode="&#x2203;" d="M233 18h407v284h-376v58h376v256h-400v58h466v-714h-473v58z" />
<glyph unicode="&#x2207;" d="M80 596h780l-390 -618zM179 545l291 -467l291 467h-582z" />
<glyph unicode="&#x2208;" d="M121 311q0 127 69.5 200t189.5 73h439v-38h-434q-103 0 -159.5 -59t-62.5 -157h653v-38h-653q6 -98 62.5 -157t159.5 -59h434v-38h-457q-107 0 -174 73.5t-67 199.5z" />
<glyph unicode="&#x220b;" d="M121 38v38h434q103 0 159.5 59t62.5 157h-653v38h653q-6 98 -62.5 157t-159.5 59h-434v38h439q120 0 189.5 -73t69.5 -200q0 -126 -67 -199.5t-174 -73.5h-457z" />
<glyph unicode="&#x221a;" horiz-adv-x="804" d="M16 127l77 68l86 -158l187 575h422v-39h-389l-209 -636l-110 201l-48 -32z" />
<glyph unicode="&#x221d;" horiz-adv-x="721" d="M23 314q0 83 52 132t122 49q125 0 203 -145q77 145 197 145q55 0 101 -33l-20 -32q-39 27 -81 27q-58 0 -98.5 -35t-78.5 -109q38 -74 78.5 -108.5t98.5 -34.5q37 0 70 18l19 -32q-43 -24 -89 -24q-121 0 -197 144q-35 -62 -82 -102.5t-120 -40.5q-71 0 -123 48t-52 133z M66 314q0 -65 36 -103t101 -38q106 0 179 140q-74 142 -179 142q-63 0 -100 -39t-37 -102z" />
<glyph unicode="&#x221e;" horiz-adv-x="813" d="M31 314q0 83 51.5 132t122.5 49q125 0 203 -145q78 145 196 145q75 0 126.5 -54.5t51.5 -126.5q0 -74 -50.5 -128t-126.5 -54q-119 0 -196 144q-81 -143 -203 -143q-71 0 -123 48t-52 133zM73 314q0 -65 36.5 -103t101.5 -38q106 0 178 140h1q-74 142 -178 142 q-63 0 -101 -39t-38 -102zM428 313q38 -74 78 -108.5t99 -34.5t97 41t38 103h1q0 57 -38 100t-97 43q-58 0 -99 -35t-79 -109z" />
<glyph unicode="&#x2220;" d="M167 0v25l480 559l28 -23l-455 -528h552v-33h-605z" />
<glyph unicode="&#x2225;" d="M163 -12l386 641l30 -17l-388 -643zM362 -13l385 639l30 -17l-385 -639z" />
<glyph unicode="&#x2227;" d="M155 17l295 570h40l295 -570l-34 -17l-281 543l-281 -543z" />
<glyph unicode="&#x2228;" d="M155 573l34 17l281 -543l281 543l34 -17l-295 -570h-40z" />
<glyph unicode="&#x2229;" horiz-adv-x="646" d="M50 -28v439q0 120 72.5 189.5t200.5 69.5q125 0 199 -67t74 -174v-457h-38v434q0 108 -64.5 165t-170.5 57t-170.5 -57t-64.5 -165v-434h-38z" />
<glyph unicode="&#x222a;" horiz-adv-x="646" d="M50 204v439h38v-434q0 -108 64.5 -165t170.5 -57t170.5 57t64.5 165v434h38v-457q0 -107 -74 -174t-199 -67q-128 0 -200.5 69.5t-72.5 189.5z" />
<glyph unicode="&#x222b;" horiz-adv-x="508" d="M49 -53l44 26q20 -41 51 -41q29 0 51 100.5t26 267.5q5 218 50 326q35 86 94 86q63 0 94 -63l-47 -21q-18 40 -50 40q-29 0 -50 -99t-27 -269q-6 -222 -50 -326q-35 -86 -94 -86q-60 0 -92 59z" />
<glyph unicode="&#x222c;" d="M143 -53l44 26q20 -41 51 -41q29 0 51 100.5t26 267.5q5 218 50 326q35 86 94 86q63 0 94 -63l-47 -21q-18 40 -50 40q-29 0 -50 -99t-27 -269q-6 -222 -50 -326q-35 -86 -94 -86q-60 0 -92 59zM387 -53l44 26q20 -41 51 -41q29 0 51 100.5t26 267.5q5 218 50 326 q35 86 94 86q63 0 94 -63l-47 -21q-18 40 -50 40q-29 0 -50 -99t-27 -269q-6 -222 -50 -326q-35 -86 -94 -86q-60 0 -92 59z" />
<glyph unicode="&#x2234;" d="M176 133q0 21 15 36t36 15t36 -15t15 -36t-15 -36t-36 -15t-36 15t-15 36zM419 538q0 21 15 36t36 15t36 -15t15 -36t-15 -36t-36 -15t-36 15t-15 36zM662 133q0 21 15 36t36 15t36 -15t15 -36t-15 -36t-36 -15t-36 15t-15 36z" />
<glyph unicode="&#x2235;" d="M176 525q0 21 15 36t36 15t36 -15t15 -36t-15 -36t-36 -15t-36 15t-15 36zM419 120q0 21 15 36t36 15t36 -15t15 -36t-15 -36t-36 -15t-36 15t-15 36zM662 525q0 21 15 36t36 15t36 -15t15 -36t-15 -36t-36 -15t-36 15t-15 36z" />
<glyph unicode="&#x223c;" d="M247 312q-3 38 18 66.5t49 39.5q73 27 120 -20q9 -10 31.5 -33t34 -34.5t27 -26.5t25 -21t14.5 -5q50 4 26 136q-2 20 23 12q14 -5 27 -16q15 -12 19 -46q5 -56 -16.5 -98t-53.5 -52q-12 -5 -32.5 -0.5t-31.5 15.5q-17 14 -45.5 40.5t-48.5 46.5l-20 20q-27 25 -40 29 q-26 8 -45.5 -5t-16.5 -44q1 -11 6.5 -22t9 -16t16 -18.5t14.5 -15.5q13 -15 -1 -32q-5 -6 -14.5 -8t-16.5 2q-71 34 -78 106z" />
<glyph unicode="&#x223d;" horiz-adv-x="793" d="M21 314q0 83 51.5 132t122.5 49q59 0 109 -33l-19 -31q-38 24 -83 24q-63 0 -101 -39t-38 -102q0 -64 36.5 -102.5t101.5 -38.5q37 0 67.5 14t55.5 45t35.5 48t29.5 54q3 6 5 9q76 152 200 152q76 0 127 -54t51 -127q0 -74 -50.5 -128t-126.5 -54q-60 0 -107 35l18 30 q38 -27 89 -27q60 0 98 41t38 103q0 57 -38 100t-97 43q-58 0 -98.5 -35.5t-79.5 -110.5q-15 -28 -23.5 -43t-30.5 -45t-43 -46t-54.5 -30t-70.5 -14q-71 0 -123 48t-52 133z" />
<glyph unicode="&#x2252;" horiz-adv-x="748" d="M50 210v38h648v-38h-648zM50 376v38h648v-38h-648zM132 540q0 23 16 39t39 16t39 -16t16 -39t-16 -39t-39 -16t-39 16t-16 39zM506 82q0 23 16 39t39 16t39 -16t16 -39t-16 -39t-39 -16t-39 16t-16 39z" />
<glyph unicode="&#x2260;" horiz-adv-x="647" d="M144 257q2 -11 10.5 -20.5t19.5 -9.5q30 -2 70 -1q-19 -61 -25 -89q-10 -44 12 -48q17 -5 29 13t21 49q22 70 24 77q112 6 174 24q47 14 47 35q-2 29 -71 21q-60 -9 -128 -14q5 15 15.5 47.5t15.5 47.5q20 1 55.5 2t40.5 1q9 0 19.5 5t10.5 10q3 18 -7.5 30t-22.5 15 q-29 4 -73 4q12 36 26 72q7 18 -2 42q-10 17 -24.5 15.5t-21.5 -14.5q-4 -12 -10.5 -29t-15.5 -43.5t-15 -43.5q-90 -5 -159 -18q-21 -7 -15 -34q2 -11 11 -19t19 -7q78 7 121 9q-4 -14 -9.5 -30.5t-12 -35.5t-9.5 -30q-59 -3 -90 -3q-10 0 -16 -1.5t-11 -8.5t-3 -20z" />
<glyph unicode="&#x2261;" horiz-adv-x="748" d="M50 131v40h648v-40h-648zM50 292v40h648v-40h-648zM50 453v39h648v-39h-648z" />
<glyph unicode="&#x2264;" horiz-adv-x="672" d="M30 0h612v-37h-612v37zM41 347v29l569 289l18 -33l-530 -271l530 -285l-19 -35z" />
<glyph unicode="&#x2265;" horiz-adv-x="672" d="M30 0h612v-37h-612v37zM44 76l530 285l-530 271l18 33l569 -289v-29l-568 -306z" />
<glyph unicode="&#x226a;" d="M111 285v32l474 329l22 -30l-457 -316l462 -304l-20 -30zM328 285v32l476 325l21 -29l-458 -313l462 -300l-18 -30z" />
<glyph unicode="&#x226b;" d="M111 0l462 300l-458 313l21 29l476 -325v-32l-483 -315zM328 -4l462 304l-457 316l22 30l474 -329v-32l-481 -319z" />
<glyph unicode="&#x2282;" d="M121 311q0 127 69.5 200t189.5 73h439v-38h-434q-108 0 -165 -64.5t-57 -170.5t57 -170.5t165 -64.5h434v-38h-457q-107 0 -174 73.5t-67 199.5z" />
<glyph unicode="&#x2283;" d="M121 38v38h434q108 0 165 64.5t57 170.5t-57 170.5t-165 64.5h-434v38h439q120 0 189.5 -73t69.5 -200q0 -126 -67 -199.5t-174 -73.5h-457z" />
<glyph unicode="&#x2286;" d="M118 377q0 120 68.5 179t191.5 59h439v-36h-434q-225 0 -225 -202t225 -202h434v-36h-457q-111 0 -176.5 59.5t-65.5 178.5zM121 -4v36h701v-36h-701z" />
<glyph unicode="&#x2287;" d="M118 -4v36h701v-36h-701zM123 139v36h434q225 0 225 202t-225 202h-434v36h439q123 0 191.5 -59t68.5 -179q0 -119 -65.5 -178.5t-176.5 -59.5h-457z" />
<glyph unicode="&#x2299;" d="M80 299q0 161 115 275.5t275 114.5q162 0 276 -114t114 -276t-114 -276t-276 -114q-160 0 -275 114.5t-115 275.5zM120 299q0 -144 103 -247t247 -103t247.5 103t103.5 247t-103.5 247.5t-247.5 103.5t-247 -103.5t-103 -247.5zM315 299q0 64 46 109.5t109 45.5 q64 0 109.5 -45t45.5 -110t-45.5 -110t-109.5 -45q-63 0 -109 45.5t-46 109.5z" />
<glyph unicode="&#x22a5;" d="M153 0v35h298v533h38v-533h298v-35h-634z" />
<glyph unicode="&#x2312;" d="M214 512q82 154 255 154q174 0 256 -154h-57q-66 115 -198 115q-134 0 -199 -115h-57z" />
<glyph unicode="&#x2592;" d="M98 -74v743h744v-743h-744zM131 -41h678v677h-678v-677zM164 19q0 11 7.5 18t18.5 7q24 0 24 -25q0 -26 -24 -26q-11 0 -18.5 7.5t-7.5 18.5zM164 113q0 10 7.5 17t18.5 7t17.5 -7t6.5 -17q0 -26 -24 -26q-11 0 -18.5 7.5t-7.5 18.5zM164 206q0 11 7.5 18.5t18.5 7.5 q24 0 24 -26t-24 -26q-11 0 -18.5 7.5t-7.5 18.5zM164 300q0 11 7.5 18t18.5 7q24 0 24 -25q0 -10 -6.5 -17.5t-17.5 -7.5t-18.5 7.5t-7.5 17.5zM164 394q0 11 7.5 18.5t18.5 7.5q24 0 24 -26t-24 -26q-11 0 -18.5 7.5t-7.5 18.5zM164 487q0 11 7.5 18.5t18.5 7.5 q24 0 24 -26q0 -10 -6.5 -17t-17.5 -7t-18.5 7t-7.5 17zM164 581q0 11 7.5 18.5t18.5 7.5q24 0 24 -26q0 -25 -24 -25q-11 0 -18.5 7t-7.5 18zM257 19q0 11 7.5 18t18.5 7q10 0 17.5 -7t7.5 -18t-7.5 -18.5t-17.5 -7.5q-11 0 -18.5 7.5t-7.5 18.5zM257 113q0 10 7.5 17 t18.5 7q10 0 17.5 -7t7.5 -17q0 -11 -7.5 -18.5t-17.5 -7.5q-11 0 -18.5 7.5t-7.5 18.5zM257 206q0 11 7.5 18.5t18.5 7.5q10 0 17.5 -7.5t7.5 -18.5t-7.5 -18.5t-17.5 -7.5q-11 0 -18.5 7.5t-7.5 18.5zM257 300q0 11 7.5 18t18.5 7q10 0 17.5 -7t7.5 -18q0 -10 -7.5 -17.5 t-17.5 -7.5q-11 0 -18.5 7.5t-7.5 17.5zM257 394q0 11 7.5 18.5t18.5 7.5q10 0 17.5 -7.5t7.5 -18.5t-7.5 -18.5t-17.5 -7.5q-11 0 -18.5 7.5t-7.5 18.5zM257 487q0 11 7.5 18.5t18.5 7.5q10 0 17.5 -7.5t7.5 -18.5q0 -10 -7.5 -17t-17.5 -7q-11 0 -18.5 7t-7.5 17zM257 581 q0 11 7.5 18.5t18.5 7.5q10 0 17.5 -7.5t7.5 -18.5t-7.5 -18t-17.5 -7q-11 0 -18.5 7t-7.5 18zM351 19q0 25 25 25q11 0 18.5 -7t7.5 -18t-7.5 -18.5t-18.5 -7.5t-18 7.5t-7 18.5zM351 113q0 10 7 17t18 7t18.5 -7t7.5 -17q0 -11 -7.5 -18.5t-18.5 -7.5t-18 7.5t-7 18.5z M351 206q0 11 7 18.5t18 7.5t18.5 -7.5t7.5 -18.5t-7.5 -18.5t-18.5 -7.5t-18 7.5t-7 18.5zM351 300q0 25 25 25q11 0 18.5 -7t7.5 -18q0 -10 -7.5 -17.5t-18.5 -7.5t-18 7.5t-7 17.5zM351 394q0 11 7 18.5t18 7.5t18.5 -7.5t7.5 -18.5t-7.5 -18.5t-18.5 -7.5t-18 7.5 t-7 18.5zM351 487q0 11 7 18.5t18 7.5t18.5 -7.5t7.5 -18.5q0 -10 -7.5 -17t-18.5 -7t-18 7t-7 17zM351 581q0 11 7 18.5t18 7.5t18.5 -7.5t7.5 -18.5t-7.5 -18t-18.5 -7q-25 0 -25 25zM445 19q0 11 7.5 18t17.5 7q25 0 25 -25q0 -11 -7 -18.5t-18 -7.5q-10 0 -17.5 7.5 t-7.5 18.5zM445 113q0 10 7.5 17t17.5 7q11 0 18 -7t7 -17q0 -11 -7 -18.5t-18 -7.5q-10 0 -17.5 7.5t-7.5 18.5zM445 206q0 11 7.5 18.5t17.5 7.5q11 0 18 -7.5t7 -18.5t-7 -18.5t-18 -7.5q-10 0 -17.5 7.5t-7.5 18.5zM445 300q0 11 7.5 18t17.5 7q25 0 25 -25 q0 -10 -7 -17.5t-18 -7.5q-10 0 -17.5 7.5t-7.5 17.5zM445 394q0 11 7.5 18.5t17.5 7.5q11 0 18 -7.5t7 -18.5t-7 -18.5t-18 -7.5q-10 0 -17.5 7.5t-7.5 18.5zM445 487q0 11 7.5 18.5t17.5 7.5q11 0 18 -7.5t7 -18.5q0 -10 -7 -17t-18 -7q-10 0 -17.5 7t-7.5 17zM445 581 q0 11 7.5 18.5t17.5 7.5q11 0 18 -7.5t7 -18.5q0 -25 -25 -25q-10 0 -17.5 7t-7.5 18zM538 19q0 11 7.5 18t18.5 7t18.5 -7t7.5 -18t-7.5 -18.5t-18.5 -7.5t-18.5 7.5t-7.5 18.5zM538 113q0 10 7.5 17t18.5 7t18.5 -7t7.5 -17q0 -11 -7.5 -18.5t-18.5 -7.5t-18.5 7.5 t-7.5 18.5zM538 206q0 11 7.5 18.5t18.5 7.5t18.5 -7.5t7.5 -18.5t-7.5 -18.5t-18.5 -7.5t-18.5 7.5t-7.5 18.5zM538 300q0 11 7.5 18t18.5 7t18.5 -7t7.5 -18q0 -10 -7.5 -17.5t-18.5 -7.5t-18.5 7.5t-7.5 17.5zM538 394q0 11 7.5 18.5t18.5 7.5t18.5 -7.5t7.5 -18.5 t-7.5 -18.5t-18.5 -7.5t-18.5 7.5t-7.5 18.5zM538 487q0 11 7.5 18.5t18.5 7.5t18.5 -7.5t7.5 -18.5q0 -10 -7.5 -17t-18.5 -7t-18.5 7t-7.5 17zM538 581q0 11 7.5 18.5t18.5 7.5t18.5 -7.5t7.5 -18.5t-7.5 -18t-18.5 -7t-18.5 7t-7.5 18zM633 19q0 25 25 25t25 -25 q0 -11 -7 -18.5t-18 -7.5t-18 7.5t-7 18.5zM633 113q0 10 7 17t18 7t18 -7t7 -17q0 -11 -7 -18.5t-18 -7.5t-18 7.5t-7 18.5zM633 206q0 11 7 18.5t18 7.5t18 -7.5t7 -18.5t-7 -18.5t-18 -7.5t-18 7.5t-7 18.5zM633 300q0 25 25 25t25 -25q0 -10 -7 -17.5t-18 -7.5t-18 7.5 t-7 17.5zM633 394q0 11 7 18.5t18 7.5t18 -7.5t7 -18.5t-7 -18.5t-18 -7.5t-18 7.5t-7 18.5zM633 487q0 11 7 18.5t18 7.5t18 -7.5t7 -18.5q0 -10 -7 -17t-18 -7t-18 7t-7 17zM633 581q0 11 7 18.5t18 7.5t18 -7.5t7 -18.5q0 -25 -25 -25t-25 25zM726 19q0 25 25 25 q11 0 18.5 -7t7.5 -18t-7.5 -18.5t-18.5 -7.5t-18 7.5t-7 18.5zM726 113q0 10 7 17t18 7t18.5 -7t7.5 -17q0 -11 -7.5 -18.5t-18.5 -7.5t-18 7.5t-7 18.5zM726 206q0 11 7 18.5t18 7.5t18.5 -7.5t7.5 -18.5t-7.5 -18.5t-18.5 -7.5t-18 7.5t-7 18.5zM726 300q0 25 25 25 q11 0 18.5 -7t7.5 -18q0 -10 -7.5 -17.5t-18.5 -7.5t-18 7.5t-7 17.5zM726 394q0 11 7 18.5t18 7.5t18.5 -7.5t7.5 -18.5t-7.5 -18.5t-18.5 -7.5t-18 7.5t-7 18.5zM726 487q0 11 7 18.5t18 7.5t18.5 -7.5t7.5 -18.5q0 -10 -7.5 -17t-18.5 -7t-18 7t-7 17zM726 581 q0 11 7 18.5t18 7.5t18.5 -7.5t7.5 -18.5t-7.5 -18t-18.5 -7q-25 0 -25 25z" />
<glyph unicode="&#x25a0;" d="M130 -38v680h680v-680h-680z" />
<glyph unicode="&#x25a1;" d="M130 -39v680h680v-680h-680zM168 -1h604v604h-604v-604z" />
<glyph unicode="&#x25a3;" d="M98 -74v743h744v-743h-744zM136 -36h668v667h-668v-667zM240 67v460h460v-460h-460z" />
<glyph unicode="&#x25a4;" d="M98 -74v743h744v-743h-744zM131 26v-67h678v67h-678zM131 58h678v68h-678v-68zM131 158h678v72h-678v-72zM131 262h678v71h-678v-71zM131 365h678v66h-678v-66zM131 463h678v73h-678v-73zM131 568h678v68h-678v-68z" />
<glyph unicode="&#x25a5;" d="M98 -74v743h744v-743h-744zM131 -41h68v677h-68v-677zM231 -41h73v677h-73v-677zM336 -41h66v677h-66v-677zM434 -41h71v677h-71v-677zM537 -41h72v677h-72v-677zM641 -41h68v677h-68v-677zM741 -41h68v677h-68v-677z" />
<glyph unicode="&#x25a6;" d="M98 -74v743h744v-743h-744zM131 30v-71h71v71h-71zM131 60h71v71h-71v-71zM131 161h71v71h-71v-71zM131 262h71v71h-71v-71zM131 363h71v71h-71v-71zM131 464h71v71h-71v-71zM131 565h71v71h-71v-71zM232 30v-71h71v71h-71zM232 60h71v71h-71v-71zM232 161h71v71h-71v-71 zM232 262h71v71h-71v-71zM232 363h71v71h-71v-71zM232 464h71v71h-71v-71zM232 565h71v71h-71v-71zM333 30v-71h71v71h-71zM333 60h71v71h-71v-71zM333 161h71v71h-71v-71zM333 262h71v71h-71v-71zM333 363h71v71h-71v-71zM333 464h71v71h-71v-71zM333 565h71v71h-71v-71z M434 30v-71h71v71h-71zM434 60h71v71h-71v-71zM434 161h71v71h-71v-71zM434 262h71v71h-71v-71zM434 363h71v71h-71v-71zM434 464h71v71h-71v-71zM434 565h71v71h-71v-71zM535 30v-71h71v71h-71zM535 60h71v71h-71v-71zM535 161h71v71h-71v-71zM535 262h71v71h-71v-71z M535 363h71v71h-71v-71zM535 464h71v71h-71v-71zM535 565h71v71h-71v-71zM636 30v-71h71v71h-71zM636 60h71v71h-71v-71zM636 161h71v71h-71v-71zM636 262h71v71h-71v-71zM636 363h71v71h-71v-71zM636 464h71v71h-71v-71zM636 565h71v71h-71v-71zM738 30v-71h71v71h-71z M738 60h71v71h-71v-71zM738 161h71v71h-71v-71zM738 262h71v71h-71v-71zM738 363h71v71h-71v-71zM738 464h71v71h-71v-71zM738 565h71v71h-71v-71z" />
<glyph unicode="&#x25a7;" d="M98 -74v743h744v-743h-744zM131 -41h156l-156 156v-156zM131 163l204 -204h118l-322 322v-118zM131 329l370 -370h118l-488 488v-118zM131 495l536 -536h118l-654 654v-118zM156 636l653 -653v118l-536 535h-117zM321 636l488 -487v118l-370 369h-118zM487 636l322 -321 v119l-203 202h-119zM654 636l155 -154v154h-155z" />
<glyph unicode="&#x25a8;" d="M98 -74v743h744v-743h-744zM131 -17l653 653h-117l-536 -535v-118zM131 149l488 487h-118l-370 -369v-118zM131 315l322 321h-119l-203 -202v-119zM131 482l155 154h-155v-154zM155 -41h118l536 536v118zM321 -41h118l370 370v118zM487 -41h118l204 204v118zM653 -41h156 v156z" />
<glyph unicode="&#x25a9;" d="M98 -74v743h744v-743h-744zM131 -13l64 64l-64 64v-128zM131 164l59 58l-59 59v-117zM131 329l59 59l-59 59v-118zM131 495l59 59l-59 59v-118zM152 -41h135l-68 68zM155 139l64 -64l59 59l-64 64zM155 305l59 -59l59 59l-59 59zM155 471l59 -59l59 59l-59 59zM156 636 l58 -58l59 58h-117zM238 222l64 -64l59 59l-64 64zM238 388l59 -59l59 59l-59 59zM238 554l59 -59l59 58l-60 60zM243 51l68 -68l58 60l-67 67zM321 305l65 -64l58 58l-64 65zM321 471l60 -60l58 59l-60 59zM321 636l59 -59l59 59h-118zM326 134l67 -68l60 59l-67 68z M334 -41h119l-59 59zM404 553l59 -59l60 59l-60 59zM405 387l64 -64l58 59l-64 64zM410 216l66 -66l60 58l-67 68zM418 42l59 -59l59 59l-59 59zM487 470l65 -64l59 59l-65 63zM487 636l60 -60l60 60h-120zM493 299l66 -66l60 58l-68 67zM501 -41h118l-59 59zM501 125 l59 -59l59 59l-59 59zM570 553l65 -65l59 60l-64 64zM576 382l66 -67l59 60l-66 66zM584 42l59 -59l59 59l-59 59zM584 209l59 -60l59 59l-60 59zM654 636l64 -64l65 64h-129zM658 465l67 -67l60 60l-66 67zM666 291l60 -59l59 59l-60 59zM667 -41h118l-59 59zM667 125 l59 -59l59 59l-59 59zM742 548l67 -66v133zM749 374l60 -60v120zM750 42l59 -59v118zM750 208l59 -59v118z" />
<glyph unicode="&#x25b2;" d="M81 0l388 618l390 -618h-778z" />
<glyph unicode="&#x25b3;" d="M81 0l388 618l390 -618h-778zM142 31h656l-329 523z" />
<glyph unicode="&#x25b6;" d="M204 -76v667l531 -334z" />
<glyph unicode="&#x25b7;" d="M204 -76v667l531 -334zM232 -24l448 281l-448 283v-564z" />
<glyph unicode="&#x25bc;" d="M81 596h778l-390 -618z" />
<glyph unicode="&#x25bd;" d="M81 596h778l-390 -618zM142 565l327 -523l329 523h-656z" />
<glyph unicode="&#x25c0;" d="M204 257l531 334v-667z" />
<glyph unicode="&#x25c1;" d="M205 256l529 334v-665zM260 256l446 -279v561z" />
<glyph unicode="&#x25c6;" d="M28 299l442 442l442 -442l-442 -442z" />
<glyph unicode="&#x25c7;" d="M28 299l442 442l442 -442l-442 -442zM85 299l385 -385l384 385l-384 384z" />
<glyph unicode="&#x25c8;" d="M36 297l434 435l434 -434l-435 -434zM85 297l384 -384l385 385l-384 383zM201 297l269 268l268 -268l-268 -268z" />
<glyph unicode="&#x25cb;" d="M96 300q1 155 110 263.5t264 110.5q155 -2 264 -110.5t109 -263.5q0 -154 -109.5 -263t-263.5 -109q-155 0 -264.5 109t-109.5 263zM133 300q0 -140 98 -239.5t239 -99.5q139 0 238 100t99 239q0 141 -98.5 239t-238.5 98q-142 0 -239.5 -98t-97.5 -239z" />
<glyph unicode="&#x25ce;" d="M76 300q0 163 115.5 278.5t278.5 115.5t278.5 -115.5t115.5 -278.5t-115.5 -278.5t-278.5 -115.5t-278.5 115.5t-115.5 278.5zM110 300q0 -150 105 -255t255 -105q148 0 255 105.5t107 254.5q0 148 -107 255t-255 107q-149 0 -254.5 -107t-105.5 -255zM217 300 q0 105 74.5 179.5t178.5 74.5q105 0 179.5 -74.5t74.5 -179.5q0 -104 -74.5 -178.5t-179.5 -74.5q-104 0 -178.5 74.5t-74.5 178.5zM250 300q0 -91 65 -156t155 -65q92 0 156 64.5t64 156.5t-64 156t-156 64q-91 0 -155.5 -64t-64.5 -156z" />
<glyph unicode="&#x25cf;" d="M96 300q1 155 110 263.5t264 110.5q155 -2 264 -110.5t109 -263.5q0 -154 -109.5 -263t-263.5 -109q-155 0 -264.5 109t-109.5 263z" />
<glyph unicode="&#x25d0;" d="M80 299q0 161 115 275.5t275 114.5q162 0 276 -114t114 -276t-114 -276t-276 -114q-160 0 -275 114.5t-115 275.5zM470 -51q144 0 247.5 103t103.5 247t-103.5 247.5t-247.5 103.5v-701z" />
<glyph unicode="&#x25d1;" d="M80 299q0 162 114 276t276 114q160 0 275 -114.5t115 -275.5t-115 -275.5t-275 -114.5q-162 0 -276 114t-114 276zM119 299q0 -144 103.5 -247t247.5 -103v701q-144 0 -247.5 -103.5t-103.5 -247.5z" />
<glyph unicode="&#x2605;" d="M61 411h311l98 283l98 -283h311l-249 -186l103 -298l-263 184l-263 -184l103 298z" />
<glyph unicode="&#x2606;" d="M61 411h311l98 283l98 -283h311l-249 -186l103 -298l-263 184l-263 -184l103 298zM154 380l194 -146l-80 -223l202 139l202 -139l-80 223l194 146h-245l-71 217l-71 -217h-245z" />
<glyph unicode="&#x260e;" d="M41 398q8 53 34 86q46 59 156.5 90t238.5 31t238.5 -31t156.5 -90q26 -33 34 -86t-6 -70q-17 -29 -131 3q-79 23 -85 54q-3 11 7 41t9 38q-5 29 -55 37q-8 -63 11 -127q12 -46 33 -72.5t59 -57.5q70 -59 70 -169q14 -5 19 -30.5t2 -49.5q-1 -16 -34 -16h-656 q-33 0 -34 16q-3 24 2 49.5t19 30.5q0 110 70 169q26 21 39.5 34.5t28.5 38.5t24 57q19 69 11 127q-50 -8 -55 -37q-2 -9 8.5 -39t7.5 -40q-6 -31 -85 -54q-114 -32 -131 -3q-14 17 -6 70zM323 208q0 -61 43 -103.5t104 -42.5t104 42.5t43 103.5t-43 104t-104 43t-104 -43 t-43 -104zM392 439h156v65q-38 -10 -78 -10t-78 10v-65z" />
<glyph unicode="&#x260f;" d="M41 398q8 53 34 86q46 59 156.5 90t238.5 31t238.5 -31t156.5 -90q26 -33 34 -86t-6 -70q-17 -29 -131 3q-79 23 -85 54q-3 11 7 41t9 38q-5 29 -55 37q-8 -63 11 -127q12 -46 33 -72.5t59 -57.5q70 -59 70 -169q14 -5 19 -30.5t2 -49.5q-1 -16 -34 -16h-656 q-33 0 -34 16q-3 24 2 49.5t19 30.5q0 110 70 169q26 21 39.5 34.5t28.5 38.5t24 57q19 69 11 127q-50 -8 -55 -37q-2 -9 8.5 -39t7.5 -40q-6 -31 -85 -54q-114 -32 -131 -3q-14 17 -6 70zM61.5 367.5q2.5 -27.5 11.5 -29.5q35 -4 84 9.5t78 31.5q7 4 2 22.5t-10 38t2 40.5 q18 45 132 45q21 0 46 -5q37 -8 63 -8t63 8q25 5 46 5q63 0 91.5 -11.5t40.5 -33.5q7 -16 2 -40.5t-10 -38t2 -22.5q29 -18 78 -31.5t84 -9.5q10 2 12 29.5t-13.5 68t-49.5 68.5q-42 34 -151 58t-195 24q-104 0 -203 -23t-143 -59q-35 -28 -50 -68.5t-12.5 -68zM131 13 q2 -13 6 -13h666q4 0 6 13t-2.5 29t-14.5 22q0 35 -10.5 76.5t-34.5 63.5q-68 65 -83 86q-14 19 -23 43q-33 91 -26 171h-47v-84h-196v84h-47q7 -80 -26 -171q-12 -31 -30 -53t-62 -63q-9 -8 -14 -13q-24 -22 -34.5 -63.5t-10.5 -76.5q-10 -6 -14.5 -22t-2.5 -29zM300 208 q0 70 50 120t120 50t120 -50t50 -120t-50 -120t-120 -50t-120 50t-50 120zM323 208q0 -61 43 -103.5t104 -42.5t104 42.5t43 103.5t-43 104t-104 43t-104 -43t-43 -104zM392 439h156v65q-38 -10 -78 -10t-78 10v-65z" />
<glyph unicode="&#x261c;" d="M113 399q0 5 1.5 9.5t5 8t7.5 5.5t11 4t12.5 3t15 2t16.5 1.5t18.5 1t19.5 1.5q45 4 261 4h14q49 0 76 -1.5t66 -14.5t67 -38q28 -7 54 -5v29h68v-214h-69v19h-26q-61 -36 -153 -50q-38 -5 -89.5 -4.5t-85.5 4.5q-45 6 -50 30q-4 18 13 29q-13 0 -23 8t-11 22 q-1 16 10 27q-33 6 -33 30q0 20 17.5 28t57.5 8l-3 8q-76 0 -156 6q-5 0 -17 0.5t-18 1t-16.5 1.5t-16.5 2.5t-14 3t-12.5 4.5t-9 6.5t-6.5 8.5t-2 11zM128 399q0 -13 17.5 -17t75.5 -7q118 -8 170 -8q3 6 19 29q14 22 36 29q-114 0 -225 -4q-76 -4 -87 -11q-6 -4 -6 -11z M324 310q0 -17 18 -17q58 -5 122 2q17 2 17 20q0 14 -18 15q-80 5 -122 0q-19 -5 -17 -20zM347 255q0 -14 23 -19q9 -2 104 -2q27 0 28 18q1 13 -4.5 18t-21.5 7h-108q-9 -1 -15 -7.5t-6 -14.5zM370 197q1 -13 16 -16q45 -10 104 -4q30 1 27 27q-1 16 -28 16q-74 2 -103 -1 q-9 -1 -13.5 -7.5t-2.5 -14.5zM395 356q-5 -9 7 -9q8 -1 22 5q10 3 20 12t15.5 14t7.5 3q5 -5 -3 -14q23 -8 37 -3q10 3 20 8l12 6t6 0q4 -7 -13 -21q22 -30 72 -47q20 -7 42 -9.5t32 -4t10 -6.5q-2 -6 -29 -4t-50 9q-55 17 -91 60q-7 -3 -21 -3q-28 2 -38 6l-14 -12 q53 0 59 -22q7 -23 -10 -38q25 -6 28 -25q3 -16 -13 -29q26 -8 29 -26q1 -12 -5 -22q-2 -3 -7 -8q13 -1 32 0q110 10 183 57q6 3 7 -1q0 -2 -1 -4t-1 -3h18v140q-6 -1 -19 -0.5t-21 2.5q0 -2 1 -3q1 -3 1 -4q2 -9 0.5 -10t-6.5 5q-22 24 -53 45q-26 17 -80 22.5t-88 2.5 q-34 -5 -60 -22q-10 -7 -20 -25q-7 -16 -18 -22zM772 209h40v185h-40v-185z" />
<glyph unicode="&#x261e;" d="M113 195v214h68v-29q26 -2 54 5q28 25 67 38t66 14.5t76 1.5h14q216 0 261 -4q8 -1 19.5 -1.5t18.5 -1t16.5 -1.5t15 -2t12.5 -3t11 -4t7.5 -5.5t5 -8t1.5 -9.5q0 -6 -2 -11t-6.5 -8.5t-9 -6.5t-12.5 -4.5t-14 -3t-16.5 -2.5t-16.5 -1.5t-18 -1t-17 -0.5q-82 -6 -156 -6 l-3 -8q40 0 57.5 -8t17.5 -28q0 -24 -33 -30q11 -11 10 -27q-1 -14 -11 -22t-23 -8q17 -11 13 -29q-5 -24 -50 -30q-34 -4 -86 -4.5t-89 4.5q-92 14 -153 50h-26v-19h-69zM127 209h40v185h-40v-185zM181 225h18q-1 1 -1 3.5t-1 3.5q-1 3 2 3q2 0 5 -2q73 -47 183 -57 q19 -1 32 0q-5 5 -7 8q-8 13 -5 22q3 18 29 26q-16 13 -13 29q3 19 28 25q-17 15 -10 38q6 22 59 22l-14 12q-10 -4 -38 -6q-14 0 -21 3q-36 -43 -91 -60q-23 -7 -50 -9t-29 4q0 5 10 6.5t32 4t42 9.5q50 17 72 47q-17 14 -13 21q4 1 6 0l12 -6t20 -8q14 -5 37 3q-8 9 -3 14 q2 2 7.5 -3t15.5 -14t20 -12q31 -12 30 0q0 2 -1 4q-11 6 -18 22q-10 18 -20 25q-26 17 -60 22q-34 3 -88 -2.5t-80 -22.5q-31 -21 -53 -45q-7 -7 -7 -3q0 2 1 8q1 1 1 3.5t1 3.5q-8 -2 -21 -2.5t-19 0.5v-140zM422 204q-3 -26 27 -27q59 -6 104 4q15 3 16 16q2 8 -2.5 14.5 t-13.5 7.5q-29 3 -103 1q-27 0 -28 -16zM437 252q1 -18 28 -18q95 0 104 2q23 5 23 19q0 8 -6 14.5t-15 7.5h-108q-16 -2 -21.5 -7t-4.5 -18zM458 315q0 -18 17 -20q63 -7 122 -2q18 0 18 17q2 15 -17 20q-42 5 -122 0q-18 -1 -18 -15zM493 425q22 -7 36 -29q16 -23 19 -29 q32 1 170 8q58 3 75.5 7t17.5 17q0 12 -16 15.5t-63 5.5q-9 1 -14 1q-111 4 -225 4z" />
<glyph unicode="&#x2640;" d="M180 214v38h272v132q-64 6 -108.5 55.5t-44.5 114.5q0 71 50.5 121.5t120.5 50.5t120.5 -51t50.5 -121q0 -65 -44.5 -114.5t-108.5 -55.5v-132h272v-38h-272v-332h-36v332h-272zM334 554q0 -57 39.5 -97.5t96.5 -40.5t96.5 40.5t39.5 97.5t-39.5 97.5t-96.5 40.5 t-96.5 -40.5t-39.5 -97.5z" />
<glyph unicode="&#x2642;" d="M230 425l239 303l240 -305l-30 -24l-192 250v-426q64 -6 108.5 -56t44.5 -115q0 -70 -50.5 -120.5t-120.5 -50.5q-71 0 -121 50.5t-50 120.5q0 65 44.5 115t108.5 56v426l-192 -246zM333 52q0 -57 39.5 -97.5t96.5 -40.5t96.5 40.5t39.5 97.5t-39.5 97.5t-96.5 40.5 t-96.5 -40.5t-39.5 -97.5z" />
<glyph unicode="&#x2660;" d="M189 172q0 46 47.5 128.5t98 148t135.5 169.5q63 -78 101 -127t85.5 -116t70.5 -117.5t23 -85.5q0 -56 -33 -92.5t-86 -36.5q-33 0 -105 40q1 -32 14 -79.5t30 -81.5q7 -16 -12 -19q-31 -4 -88 -4t-88 4q-20 3 -13 19q37 77 45 161q-73 -40 -105 -40q-53 0 -86.5 36.5 t-33.5 92.5z" />
<glyph unicode="&#x2661;" d="M185 388q0 68 41.5 113.5t101.5 45.5q108 0 142 -146q31 146 140 146q60 0 102 -45.5t42 -113.5q0 -56 -27 -121.5t-72.5 -129t-90 -114.5t-94.5 -100q-50 48 -95 100t-90.5 115t-72.5 128.5t-27 121.5zM221 382q0 -85 75 -197.5t174 -213.5q99 102 173 214t74 197 q0 59 -31.5 95t-92.5 36q-63 0 -93 -103q-12 -40 -30 -40q-20 0 -32 40q-12 41 -35.5 72t-57.5 31q-60 0 -92 -36t-32 -95z" />
<glyph unicode="&#x2663;" d="M145 171q0 58 38.5 101.5t95.5 43.5q37 0 99 -29q17 -10 23 2q6 7 -5 24q-41 35 -57.5 63.5t-16.5 71.5q0 59 43.5 95.5t104.5 36.5q59 0 102.5 -36.5t43.5 -95.5q0 -42 -16.5 -71t-56.5 -64q-13 -16 -6 -24q6 -12 23 -2q62 29 100 29q57 0 95.5 -43.5t38.5 -101.5 q0 -61 -39 -106t-100 -45q-67 0 -130 66q32 -74 32 -164q0 -11 -15 -13q-27 -3 -72 -3q-47 0 -74 3q-15 2 -15 13q0 43 9.5 90t23.5 74q-66 -66 -131 -66q-61 0 -99.5 45t-38.5 106z" />
<glyph unicode="&#x2664;" d="M189 172q0 46 47.5 128.5t98 148t135.5 169.5q63 -78 101 -127t85.5 -116t70.5 -117.5t23 -85.5q0 -56 -33 -92.5t-86 -36.5q-33 0 -105 40q1 -32 14 -79.5t30 -81.5q7 -16 -12 -19q-31 -4 -88 -4t-88 4q-20 3 -13 19q37 77 45 161q-73 -40 -105 -40q-53 0 -86.5 36.5 t-33.5 92.5zM227 176q0 -37 20.5 -68t61.5 -31q29 0 67 23.5t45 23.5q18 0 23.5 -9t3.5 -31q-5 -57 -30 -131q-1 -8 3 -12t15 -5q4 0 15 -0.5t19 -0.5q7 0 18 0.5t17 0.5q19 1 16 17q-26 86 -30 131q-2 22 4 31t23 9q6 0 45 -23.5t68 -23.5q40 0 60.5 31t20.5 68 q0 97 -242 387q-243 -289 -243 -387z" />
<glyph unicode="&#x2665;" d="M185 388q0 68 41.5 113.5t101.5 45.5q108 0 142 -146q31 146 140 146q60 0 102 -45.5t42 -113.5q0 -56 -27 -121.5t-72.5 -129t-90 -114.5t-94.5 -100q-50 48 -95 100t-90.5 115t-72.5 128.5t-27 121.5z" />
<glyph unicode="&#x2667;" d="M145 171q0 58 38.5 101.5t95.5 43.5q37 0 99 -29q17 -10 23 2q6 7 -5 24q-41 35 -57.5 63.5t-16.5 71.5q0 59 43.5 95.5t104.5 36.5q59 0 102.5 -36.5t43.5 -95.5q0 -42 -16.5 -71t-56.5 -64q-13 -16 -6 -24q6 -12 23 -2q62 29 100 29q57 0 95.5 -43.5t38.5 -101.5 q0 -61 -39 -106t-100 -45q-67 0 -130 66q32 -74 32 -164q0 -11 -15 -13q-27 -3 -72 -3q-47 0 -74 3q-15 2 -15 13q0 43 9.5 90t23.5 74q-66 -66 -131 -66q-61 0 -99.5 45t-38.5 106zM181 172q0 -47 28 -81.5t75 -34.5q28 0 52.5 12t38.5 26.5t29.5 26.5t27.5 12q13 0 13 -19 q0 -18 -13 -69.5t-13 -97.5q0 -9 12 -11q22 -2 39 -2q14 0 38 2q11 2 11 11q0 46 -13 97.5t-13 69.5q0 19 14 19q12 0 27 -12t29 -26.5t38.5 -26.5t52.5 -12q47 0 75 34.5t28 81.5q0 43 -27.5 78.5t-70.5 35.5q-31 0 -71 -21.5t-52 -21.5q-20 0 -31.5 12.5t-11.5 32.5 q0 16 13.5 32t30 28.5t30 39t13.5 60.5q0 46 -32.5 73t-77.5 27q-44 0 -78 -27t-34 -73q0 -34 13.5 -60.5t30 -39t30 -28.5t13.5 -32q0 -20 -11.5 -32.5t-31.5 -12.5q-11 0 -51 21.5t-71 21.5q-43 0 -71 -35.5t-28 -78.5z" />
<glyph unicode="&#x2668;" d="M71 74q0 37 23.5 69.5t61.5 53.5t66 33t57 20q11 4 13 -5t-11 -13q-12 -5 -19.5 -9t-32.5 -19t-41 -29t-30 -36.5t-14 -44.5q0 -48 100 -75t232 -27q127 0 229 34.5t102 88.5q0 37 -39 68t-76 42q-12 4 -9 11t13 5q25 -3 62 -18t73.5 -48.5t36.5 -73.5q0 -90 -116 -149.5 t-277 -59.5q-163 0 -283.5 52t-120.5 130zM301 131q9 23 15.5 56t6 79t-14.5 79q-49 118 22 250q16 28 23 60q1 5 4 7t5.5 0t4.5 -6q18 -52 -10 -150q-9 -33 14 -120.5t27 -124.5q5 -50 -55 -165q-22 -42 -24 -62q0 -5 -3 -7.5t-7 -0.5t-7 8q-20 43 -1 97zM414.5 456.5 q0.5 21.5 1 36t7.5 34.5t10.5 28t13.5 28l12 24q23 47 23 93q0 7 2.5 9.5t6.5 0t6 -7.5q12 -27 15 -68t-12 -96q-10 -28 -11 -53t4.5 -48.5t13.5 -44.5t18 -50t15 -56q10 -55 -62 -189q-28 -53 -30 -73q0 -4 -2.5 -6.5t-5 -2t-5.5 2.5t-4 5q-22 51 8 123q18 42 19 92.5 t-5.5 78.5t-14.5 46q-11 25 -17.5 48.5t-6 45zM552 72.5q1 32.5 10 54.5q59 142 26 221q-21 49 -25.5 91.5t2 72t23.5 69.5q13 33 13 69q0 10 4.5 11.5t9.5 -9.5q26 -49 12 -143q-7 -51 16.5 -110.5t28.5 -100.5q4 -45 -8 -81t-36.5 -73t-27.5 -43q-19 -37 -28 -73 q-3 -6 -7 -7t-7 7q-7 12 -6 44.5z" />
<glyph unicode="&#x2669;" horiz-adv-x="388" d="M108 75q18 39 57 63q35 21 85 29v395h38v-397q0 -45 -7 -72.5t-28 -52.5q-20 -23 -44.5 -38t-50.5 -17.5t-44 18.5q-24 33 -6 72z" />
<glyph unicode="&#x266a;" horiz-adv-x="539" d="M68 75q18 39 57 63q35 21 85 29v350q0 40 9 40q11 0 31 -24q34 -40 70 -71q89 -77 109 -103t20 -70q0 -55 -39 -115q-37 -54 -84 -82q-11 -7 -14.5 -1.5t4.5 13.5l5 5q23 23 35 37.5t24 47t12 72.5q0 21 -7.5 38t-16 27.5t-27.5 20.5t-28.5 13.5t-34.5 10.5t-30 9v-220 q0 -45 -7 -72.5t-28 -52.5q-20 -23 -44.5 -38t-50.5 -17.5t-44 18.5q-24 33 -6 72z" />
<glyph unicode="&#x266c;" horiz-adv-x="693" d="M73 12q-15 24 0 57.5t43 55.5q40 29 105 38v351l388 77v-359q0 -64 -67 -119q-18 -16 -39.5 -25.5t-44.5 -7.5t-37 20q-15 24 0 57.5t43 55.5q40 29 105 38v127l-308 -66v-168q0 -64 -67 -119q-18 -16 -39.5 -25.5t-44.5 -7.5t-37 20zM261 387l308 65v58l-308 -65v-58z " />
<glyph unicode="&#x266d;" horiz-adv-x="517" d="M121 545q-4 -213 48 -451q-2 -2 -9 -7l-10.5 -7.5t-9 -8t-7 -10.5t-1.5 -12t3 -14q6 -9 25 -12t39 4l19 12q18 12 27 18.5t30 23t34 29t30 32.5t27 38t17 41t7 46q0 51 -31.5 92t-89.5 34q-46 -7 -74 -54q-5 29 -7 67.5t-3 77t-2 51.5q-6 33 -39 36q-6 0 -10 -1t-8.5 -7 t-4.5 -18zM212 236q-2 31 17.5 60.5t47.5 32.5q21 2 36.5 -13t15.5 -46q0 -69 -103 -140q-11 57 -14 106z" />
<glyph unicode="&#x3001;" d="M55 14l201 -83v-96l-201 149v30z" />
<glyph unicode="&#x3002;" d="M47 -63q0 44 31.5 75.5t75.5 31.5t75.5 -31.5t31.5 -75.5t-31.5 -75.5t-75.5 -31.5t-75.5 31.5t-31.5 75.5zM73 -63q0 -35 23 -58.5t58 -23.5t58 23.5t23 58.5t-23 58.5t-58 23.5t-58 -23.5t-23 -58.5z" />
<glyph unicode="&#x3003;" d="M251 137l125 309h93l-193 -309h-25zM431 137l125 309h93l-193 -309h-25z" />
<glyph unicode="&#x3008;" horiz-adv-x="467" d="M50 300l323 412l29 -21l-309 -391l309 -393l-28 -21z" />
<glyph unicode="&#x3009;" horiz-adv-x="477" d="M71 -93l28 -21l324 414l-323 412l-29 -21l309 -391z" />
<glyph unicode="&#x300a;" horiz-adv-x="464" d="M39 300l249 431l28 -16l-239 -415l240 -416l-28 -16zM136 300l249 431l28 -16l-239 -415l240 -416l-28 -16z" />
<glyph unicode="&#x300b;" horiz-adv-x="464" d="M51 -116l28 -16l250 432l-249 431l-28 -16l239 -415zM148 -116l28 -16l250 432l-249 431l-28 -16l239 -415z" />
<glyph unicode="&#x300c;" horiz-adv-x="351" d="M32 304v426h287v-47h-229v-379h-58z" />
<glyph unicode="&#x300d;" horiz-adv-x="351" d="M32 -83h229v379h58v-426h-287v47z" />
<glyph unicode="&#x300e;" horiz-adv-x="356" d="M35 304v426h286v-96h-174v-330h-112zM65 331h52v330h174v42h-226v-372z" />
<glyph unicode="&#x300f;" horiz-adv-x="356" d="M35 -34h174v330h112v-426h-286v96zM65 -61v-42h226v372h-52v-330h-174z" />
<glyph unicode="&#x3010;" horiz-adv-x="374" d="M25 -82v764h324q-115 -76 -174.5 -165.5t-59.5 -217.5t59.5 -217.5t174.5 -163.5h-324z" />
<glyph unicode="&#x3011;" horiz-adv-x="382" d="M29 -82q115 74 174.5 163.5t59.5 217.5t-59.5 217.5t-174.5 165.5h324v-764h-324z" />
<glyph unicode="&#x3014;" horiz-adv-x="344" d="M45 14v572l233 130l21 -36l-209 -117v-526l209 -117l-21 -36z" />
<glyph unicode="&#x3015;" horiz-adv-x="358" d="M52 -80l209 117v526l-209 117l21 36l233 -130v-572l-233 -130z" />
<glyph unicode="&#x3131;" d="M271 358q5 -11 19.5 -17t25.5 -2q39 16 113.5 34t113.5 19q10 -88 3 -198q-1 -18 10.5 -27.5t20.5 -7.5q28 5 34 36q5 31 7.5 96.5t0.5 102.5q-2 38 -19.5 55t-56.5 16q-47 -2 -130.5 -21.5t-121.5 -40.5q-14 -7 -19.5 -20.5t-0.5 -24.5z" />
<glyph unicode="&#x3132;" d="M212.5 408q-3.5 -14 4.5 -26q17 -21 46 -6q64 31 124 22q0 -31 -2.5 -61.5t-6.5 -66t-6 -57.5q-1 -15 6 -32t23 -17q13 0 24 13t13 28q15 98 18 167q18 -5 33 6q43 31 97 43q23 4 46 -3.5t24 -26.5q3 -12 2 -36.5t-2 -32t-5 -33t-6 -39.5q-2 -13 4 -28.5t16 -17.5 q13 -2 24.5 5.5t15.5 20.5q35 102 20 190q-5 33 -27 56t-59 23q-40 0 -99 -19.5t-80 -41.5q-8 -8 -11 -12q-18 34 -65 43q-91 17 -156 -38q-12 -9 -15.5 -23z" />
<glyph unicode="&#x3133;" d="M191 376q7 -9 21.5 -10t30.5 8q53 35 108 43v-193q1 -35 30 -37q11 -1 22 8t14 29q11 114 11 198q0 33 -22.5 48.5t-54.5 15.5q-75 0 -140 -51q-37 -32 -20 -59zM443 277q-11 -26 7 -51q7 -11 27.5 -8.5t28.5 21.5q70 160 104 215q22 33 -4 54q-13 8 -26.5 3.5 t-21.5 -14.5q-73 -99 -115 -220zM582 361q-14 -19 8 -44q73 -85 100 -129q7 -12 22.5 -19t28.5 1q9 3 11.5 13.5t-0.5 16.5q-22 43 -59 95t-71 73q-23 12 -40 -7z" />
<glyph unicode="&#x3134;" d="M317.5 326.5q-1.5 -83.5 17.5 -136.5q22 -49 79 -43q48 5 108 25t102 45q52 31 39 59q-11 24 -51 6q-97 -41 -210 -64q-8 37 -7 107.5t8 113.5q7 41 -29 45q-26 3 -43 -41q-12 -33 -13.5 -116.5z" />
<glyph unicode="&#x3135;" d="M187 248q-1 -37 18 -52.5t55 -10.5q85 12 138 49q27 20 39 43t1 37q-13 18 -39 -2q-33 -26 -62 -34.5t-70 -9.5q8 83 32 187q2 18 -10 28t-27 10q-20 0 -36 -39q-34 -96 -39 -206zM403 432q-10 -18 8 -31.5t43 -3.5q17 7 37 21.5t39 22.5t50 8q-53 -68 -79 -121.5 t-35 -117.5q-7 -44 22 -44q5 0 8.5 1t6.5 3.5t5 5t4.5 7.5t3.5 7.5t3 9.5t3 10q37 106 123 231q13 16 8 39t-27 27q-90 18 -163 -18q-41 -19 -60 -57zM602.5 297.5q4.5 -31.5 11.5 -56t14 -38.5q40 -93 93 -127q20 -12 28.5 1t2.5 27q-9 19 -30 48q-40 70 -61 170 q-5 16 -18 23t-35 0q-10 -16 -5.5 -47.5z" />
<glyph unicode="&#x3136;" d="M220 236q-3 -65 70 -60q106 8 175 61q32 25 43 52t-1 41q-10 14 -33 -4q-38 -30 -87.5 -49t-88.5 -21q7 84 30 183q2 16 -9.5 25.5t-25.5 9.5q-20 0 -35 -36q-32 -87 -38 -202zM429 386q7 -26 57 -12q16 5 37.5 13.5t38 13.5t32.5 8q-96 -153 -44 -211q28 -30 93 -6 q38 16 60 43.5t16 63.5q-4 23 -28 40.5t-48 21.5l32 50q13 25 1 46.5t-40 21.5h-14q7 12 -6 27q-22 18 -34 27t-34.5 21t-45.5 16t-32 -13q-9 -9 -5 -20.5t18 -18.5q66 -26 92 -45v-1q-68 -14 -117 -39q-36 -19 -29 -47zM595 248q8 41 27 74l4 -2q4 -2 6.5 -3.5t6.5 -4.5 t7 -6t6 -7t4 -7.5t0.5 -8.5t-3.5 -10q-9 -21 -58 -25z" />
<glyph unicode="&#x3137;" d="M288 463q0 -12 12.5 -24t30.5 -12q1 0 4 -0.5t5 -0.5q-24 -105 -20 -231q1 -31 20 -50.5t59 -14.5q45 6 118.5 22.5t98.5 27.5q36 16 36 38q0 12 -14 19.5t-36 1.5q-68 -18 -199 -35q-6 88 7 220q117 -4 158 -10q14 -3 26.5 4.5t16.5 21.5q2 8 -7 19.5t-25 15.5 q-93 25 -252 21q-19 -1 -29 -12t-10 -21z" />
<glyph unicode="&#x3138;" d="M178 478q-2 -15 15.5 -30.5t40.5 -14.5q66 8 199 16q16 0 24 4q5 -11 20.5 -17t35.5 -2q-2 -4 -5 -16q0 -2 -11 -42.5t-16 -66.5q-1 0 -3 -1q-105 -51 -175 -68q0 10 4 34t10.5 59t9.5 51q3 15 -5.5 28t-25.5 12q-8 -1 -16.5 -12t-12.5 -22q-40 -97 -45 -175 q-2 -35 18.5 -48.5t49.5 -6.5q101 29 180 77v-28q1 -59 52 -67q44 -8 110.5 10.5t107.5 53.5q12 10 17.5 21.5t5 18t-2.5 8.5q-10 12 -43 0q-86 -33 -169 -40q2 39 36 193q3 22 -12 39q56 9 93 11q24 3 40.5 12t9.5 29q-3 8 -11 11t-23 3.5t-19 1.5q-23 4 -79.5 -2 t-85.5 -14q-16 -4 -29 -17q-15 18 -68 28q-91 14 -186 -3q-34 -6 -36 -28z" />
<glyph unicode="&#x3139;" d="M290 278q12 -26 41 -18q57 12 82 14l-32 -34q-32 -35 -48 -63.5t-9 -49.5q10 -24 31 -31t55 -6q44 1 105 14.5t92 26.5q40 18 46 31q3 8 -1 16q-12 28 -49 20q-96 -30 -192 -36q8 11 91 120q18 26 8 47t-32 21q-48 0 -86 -16q23 20 53.5 56.5t37.5 62.5q8 30 -11.5 50.5 t-49 28.5t-64.5 8q-16 0 -32 -11t-18 -24q-3 -14 9 -23.5t24 -10.5q37 -2 49 -5q26 -6 5 -35q-8 -12 -19.5 -25.5t-20 -22.5t-26.5 -26.5t-25 -25.5q-26 -27 -14 -53z" />
<glyph unicode="&#x313a;" d="M248 463q3 22 35 28q78 15 109 13q34 -2 51.5 -19t17.5 -43q0 -33 -53 -84q45 -6 60.5 -25.5t0.5 -47.5q-16 -26 -44 -50q-24 -20 -45 -50q92 14 125 26q4 2 11.5 5.5t11 4.5t9 2.5t8 1t6.5 -3t7 -6.5q8 -11 2 -26.5t-19 -22.5q-77 -50 -208 -57q-29 -1 -41.5 20.5 t1.5 46.5q18 30 50 59q36 36 52 58q-5 0 -42 -7q-36 -8 -47 -11q-28 -6 -42 24q-6 22 21 37q79 48 100 87q5 7 1.5 12t-15.5 4q-15 -2 -41.5 -7.5t-35.5 -7.5q-16 -2 -31.5 9.5t-14.5 29.5zM500 448q-3 20 27 46q57 35 86 39q35 2 57.5 -13.5t20.5 -47.5q-7 -163 -4 -291 q1 -11 -7.5 -15t-19.5 1q-9 2 -24 20q-20 33 -21 48q-6 98 3 235q-18 -4 -64 -33q-14 -11 -31.5 -8.5t-22.5 19.5z" />
<glyph unicode="&#x313b;" d="M178 464q1 -16 15.5 -23.5t27.5 0.5q16 8 48.5 15.5t52.5 7.5q-17 -24 -50.5 -54t-63.5 -46q-10 -6 -15.5 -16.5t-1.5 -20.5q14 -29 43 -19q8 2 28 8.5t35.5 10.5t23.5 4q-16 -18 -48 -71.5t-41 -65.5q-21 -36 -2 -63q22 -23 78 -11q11 2 25 5t19 4t13.5 3.5t17 6 t22.5 10.5q32 15 46.5 34.5t9.5 33.5q-7 24 -41 8q-65 -31 -112 -40q36 68 97 152q23 29 7.5 49.5t-62.5 17.5q43 32 44 72q1 23 -19.5 37.5t-54.5 13.5q-28 0 -63 -8t-52 -19q-28 -15 -27 -36zM437 432.5q0 -73.5 20 -108.5q15 -25 32 -25q19 0 17 21q-5 50 -5 133 q7 -1 17 2q7 2 30 17t41 15q14 -1 10 -31q-3 -25 -23.5 -82t-38.5 -86q-12 -20 1 -35.5t36 -11.5q46 6 115 44t73 64q2 10 -6 16.5t-18 1.5q-19 -11 -46.5 -23.5t-45.5 -19.5t-21 -8q27 48 35 122t-21 104q-39 31 -137 -24q0 10 1 15q0 12 -7.5 20t-17.5 8q-18 0 -29 -20 q-12 -35 -12 -108.5z" />
<glyph unicode="&#x313c;" d="M222 478q1 -17 16.5 -24.5t30.5 -1.5q47 14 63 17q12 1 16 -5t-1 -14q-29 -46 -81 -77q-21 -14 -20 -37q1 -15 13.5 -21.5t27.5 -3.5q61 13 67 13q-37 -49 -78 -120q-15 -26 -2.5 -44.5t40.5 -19.5q33 -1 81.5 11.5t80.5 32.5q14 8 20 23.5t-2 23.5q-17 15 -49 2 q-39 -17 -91 -23q18 36 64 103q6 12 7 26.5t-14.5 27t-43.5 12.5q53 49 52 89q-1 26 -19.5 43.5t-48.5 18.5q-43 3 -101 -18q-32 -12 -28 -34zM466 542q-5 -114 15 -220q3 -20 14.5 -32t21.5 -11q18 2 22 11t2 27q-10 122 -10 214q0 21 -13.5 32t-26.5 11q-10 0 -17 -9.5 t-8 -22.5zM559 371q3 -53 31 -109t66 -54q22 2 38 43t22 118.5t-5 188.5q-6 54 -42 55q-13 0 -22 -13t-6 -38q3 -26 7 -78q-47 -19 -69 -42t-20 -71zM617 375q-2 28 35 40q2 -95 -14 -121q-5 6 -12.5 32.5t-8.5 48.5z" />
<glyph unicode="&#x313d;" d="M184 487q1 -17 17.5 -25t32.5 -3q39 15 64 19q11 1 15 -5.5t-1 -14.5q-27 -47 -81 -78q-22 -14 -21 -39q1 -15 14 -22.5t28 -3.5q59 14 69 15q-48 -65 -81 -124q-15 -27 -2.5 -46t42.5 -20q33 -1 82.5 12t83.5 33q14 8 20.5 24t-1.5 24q-19 15 -50 2q-43 -17 -94 -24 q20 45 66 106q5 12 6.5 27t-14.5 28t-45 13q56 52 55 92q-2 27 -21.5 44.5t-50.5 18.5q-47 3 -104 -18q-12 -4 -21 -14t-8 -21zM443 324q-11 -25 6 -51q8 -11 28.5 -8.5t28.5 21.5q74 166 105 215q23 34 -4 54q-13 8 -26 4t-22 -14q-72 -95 -116 -221zM583 408 q-14 -19 8 -45q4 -5 22 -25.5t26.5 -31t23.5 -31t28 -41.5q9 -12 24 -18.5t27 0.5q9 3 12 13t0 16q-24 46 -60 97.5t-71 73.5q-24 10 -40 -8z" />
<glyph unicode="&#x313e;" d="M205 473q0 -17 13 -24t28 -4q78 12 95 11q-21 -29 -104 -81q-27 -16 -21 -33q10 -30 41 -22q80 17 93 16q-33 -51 -67 -115q-16 -37 2 -60q23 -26 64 -17q65 16 147 49q33 17 29 44q-3 27 -36 17q-27 -9 -72.5 -21.5t-56.5 -15.5q3 7 61 108q16 24 2.5 48.5t-56.5 27.5 q44 32 49 65q2 22 -17 38t-52 18q-26 2 -61 -3.5t-52 -14.5q-28 -14 -29 -31zM451 537q0 -20 34 -24q4 -1 12 -1q-2 -8 -2 -11q-10 -67 -6 -148q2 -34 14 -49.5t37 -15.5q29 -1 77.5 11t73.5 23q53 24 42 52q-15 12 -42 5q-56 -20 -140 -28q-2 19 -2 48q20 2 53.5 10 t45.5 10q38 3 38 20q2 15 -12 22.5t-33 7.5q-35 0 -91 -13q2 30 4 42q0 8 -1 12q14 1 42.5 2.5t41.5 1.5q39 2 41 20q5 16 -8.5 25t-35.5 12q-102 12 -154 -4q-29 -5 -29 -30z" />
<glyph unicode="&#x313f;" d="M152 467q0 -15 12 -22.5t26 -4.5q66 13 95 11q-25 -31 -104 -79q-26 -14 -19 -32q8 -28 40 -22q80 17 91 16q-35 -51 -65 -112q-17 -37 2 -59q19 -25 62 -16q74 18 145 56q16 9 23 22t4 23q-5 24 -37 13q-84 -33 -125 -43q8 17 18 34.5t22.5 38.5t18.5 32q16 22 2.5 47 t-54.5 27q43 30 47 64q2 22 -16 37.5t-50 16.5q-71 4 -110 -17q-27 -12 -28 -31zM394 503q2 -10 17 -17t27 -5q109 23 183 29q16 2 31.5 10.5t15.5 22.5q0 26 -54 26q-98 0 -181 -26q-18 -5 -30 -16.5t-9 -23.5zM436 443q5 -97 23 -156q8 -27 34 -21q22 6 19 33 q-15 114 -16 144q0 17 -10.5 25.5t-24.5 8.5q-27 0 -25 -34zM539 279q-4 -38 20 -53q18 -12 65 2q58 18 134 55q13 6 22 18t5 24q-10 31 -53 14q-62 -30 -125 -49q8 50 36 103q17 26 -9 44q-24 16 -41 -8q-45 -61 -54 -150z" />
<glyph unicode="&#x3140;" d="M233 332q14 -22 33 -20q60 10 83 8q-25 -42 -99 -125q-21 -25 -12 -50q3 -11 17.5 -18.5t32.5 -7.5q27 0 76 11t81 24q13 5 22.5 21t5.5 28q-2 5 -12.5 9t-22.5 1q-59 -17 -110 -27q6 8 23.5 29t27.5 34t20 34t12 40q1 12 -1.5 21t-8.5 15t-10.5 10t-15.5 6t-15 3t-17 2 t-15 1q1 1 7.5 7t8.5 8.5t9 10t10.5 11.5t9.5 11.5t9.5 13t8 13t6.5 13.5t3.5 13.5t1.5 13.5q-3 51 -56 55q-45 5 -87 -11q-25 -14 -24 -31q1 -10 11 -15.5t24 -3.5q35 3 67 3q-4 -11 -11 -23.5t-13.5 -21.5t-18 -22t-17 -19.5t-18.5 -19.5l-16 -16q-19 -19 -10 -39z M431 429q-1 -20 14 -27t32 0q70 23 131 26q-6 -13 -23 -45t-27.5 -57t-17.5 -53q-9 -33 0 -63.5t37 -38.5t70 16q76 48 60 118q-4 17 -20 33t-40 24q17 32 33 68q14 34 -21 52q-8 101 -44 161q-5 9 -16 12.5t-18 0.5q-12 -6 -15 -24.5t2 -28.5l35 -113q-74 -4 -121 -20 q-51 -16 -51 -41zM599 236q10 48 30 91q24 -15 24 -32q0 -38 -54 -59z" />
<glyph unicode="&#x3141;" d="M272 178q4 -54 40 -54q13 0 23 16t10 28q6 187 33 311q2 15 -11 31t-31 19q-25 2 -35 -31q-34 -207 -29 -320zM382 425q-1 -12 7 -19q7 -9 37 -4q73 17 99 6q8 -3 6 -10q-8 -28 -25 -57t-43.5 -65.5t-37.5 -54.5q-20 -32 -0.5 -54t56.5 -20q92 7 151 27q15 5 26 17.5 t10 21.5q-1 14 -10 23t-27 4q-50 -15 -123 -23q0 1 50 76t56 110q5 29 -11 47.5t-47 23.5q-41 7 -89.5 -0.5t-73.5 -28.5q-10 -8 -11 -20z" />
<glyph unicode="&#x3142;" d="M304 186q3 -21 16.5 -43.5t32.5 -21.5q15 0 20.5 16.5t3.5 32.5q-10 104 8 280q4 19 -2.5 35.5t-31.5 15.5q-13 0 -21.5 -10t-10.5 -22q-26 -137 -15 -283zM430 250q-6 -33 9.5 -70t46.5 -46q27 -9 51 3.5t38 42.5q53 112 64 308q0 26 -4 39t-18 13q-17 2 -33 -12 t-19 -49q-7 -66 -13 -106q-53 -14 -83 -47.5t-39 -75.5zM482 229q3 47 60 78q-13 -61 -27 -91q-8 -21 -20 -18q-8 1 -11.5 11.5t-1.5 19.5z" />
<glyph unicode="&#x3143;" d="M200 447q3 43 23 43q19 0 31 -14t13 -37q0 -143 8 -215q2 -21 -5.5 -32t-16.5 -12q-18 -1 -29.5 12.5t-14.5 34.5q-16 115 -9 220zM296 187.5q-4 38.5 1 71.5q5 35 29.5 54.5t58.5 21.5q4 94 2 195q-1 18 10.5 32t26.5 14q26 -1 32 -36q5 -65 2 -192q-4 -141 -21 -203 q-7 -31 -20 -46t-32 -14q-36 1 -60.5 32.5t-28.5 70zM342 228q-2 -29 5 -50.5t18 -21.5q8 0 11.5 25.5t4.5 56t2 33.5q-18 0 -29 -13.5t-12 -29.5zM492.5 299.5q2.5 79.5 10.5 133.5q0 1 1 5.5t1.5 6.5t1.5 6.5t1.5 6t2 5t3.5 5t4 3.5t5 2.5t6 0.5q19 -2 30.5 -17t10.5 -37 q-1 -13 -4 -56t-4.5 -75t-1.5 -70t4 -59q3 -21 -6 -31t-19 -11q-33 1 -41 50q-8 52 -5.5 131.5zM585 205q0 39 22 72t63 45q4 60 0 155q0 15 10.5 27t25.5 12q27 -1 33 -31q6 -51 0.5 -174.5t-19.5 -169.5q-17 -53 -52 -53q-42 0 -62.5 35.5t-20.5 81.5zM637 180 q2 -17 13 -17q5 0 8 15q10 48 10 77q-12 0 -25 -27q-8 -18 -6 -48z" />
<glyph unicode="&#x3144;" d="M175 248q14 -65 51 -65q6 0 10 3.5t4.5 10t0.5 12.5t-0.5 14.5t-0.5 12.5q-2 73 2 114.5t18 123.5q4 14 -7.5 27.5t-32.5 13.5q-22 0 -31 -37q-30 -143 -14 -230zM272 242q0 -47 19 -94t49 -47q34 -2 49 28q50 87 50 359q0 15 -6.5 23.5t-14 10.5t-20.5 3t-22.5 -7.5 t-9.5 -22.5q-2 -92 -5 -116q-89 0 -89 -137zM320 243q0 27 10 50t27 23q-7 -103 -25 -147q-12 34 -12 74zM460 277q-10 -77 27 -79q9 0 16 8.5t9.5 17t6.5 21.5q52 146 132 255q8 11 1 27.5t-25 24.5q-18 6 -42 -25q-36 -39 -75.5 -115.5t-49.5 -134.5zM599 351 q46 -108 122 -162q8 -6 19.5 -5.5t18.5 7.5q10 11 10 23.5t-8 19.5q-47 44 -99 136q-14 27 -43 20q-13 -4 -19.5 -14.5t-0.5 -24.5z" />
<glyph unicode="&#x3145;" d="M281 202q-3 -22 4.5 -48.5t26.5 -27.5q14 0 18.5 6.5t8.5 23.5q14 85 59 174q5 -15 15 -20q148 -104 192 -160q8 -9 23.5 -17t23.5 -3q8 6 7.5 26t-11.5 36q-24 37 -86.5 91.5t-121.5 85.5q-12 6 -17 7q14 26 46 71q9 15 7 30.5t-9 20.5q-13 7 -26 4.5t-18 -10.5 q-124 -141 -142 -290z" />
<glyph unicode="&#x3146;" d="M184 227.5q6 -15.5 19 -16.5q36 -2 50 31q24 49 57 106q38 -22 99 -70q-26 -48 -34 -85q-11 -43 16 -51q30 -8 46 26q37 73 88 151q3 -5 9 -8q128 -83 181 -129q4 -5 14 -7t18 3q7 4 10 15.5t-4 26.5q-31 42 -84 80.5t-115 60.5q41 57 86 108q12 13 15 35t-12 34 q-12 8 -34 -5q-33 -27 -81.5 -85t-87.5 -119q-43 37 -102 62q33 48 73 98q8 14 4.5 25.5t-12.5 17.5q-13 6 -34 -9q-53 -39 -108.5 -118t-76.5 -142q-6 -20 0 -35.5z" />
<glyph unicode="&#x3147;" d="M365 249q5 -41 28.5 -65t61.5 -20q49 6 85.5 53.5t36.5 98.5q0 63 -75 105q2 3 6 7q21 25 3 38q-27 18 -57 -7q-42 -36 -68.5 -94.5t-20.5 -115.5zM442 227q-18 70 28 148q41 -32 39 -64q-2 -28 -21.5 -51.5t-45.5 -32.5z" />
<glyph unicode="&#x3148;" d="M265 421q11 -23 43 -9q80 29 128 35q-33 -58 -64.5 -134.5t-40.5 -134.5q-1 -3 0.5 -9.5t6.5 -13.5t14 -9q28 -6 38 29q20 64 50 132q4 -10 13 -15q61 -32 164 -112q11 -7 25 -8t29 10q9 5 4 21t-27 35q-101 86 -157 106q-22 4 -32 4q20 40 49 86q9 15 10 33t-12 33 t-40 16q-44 -1 -99 -15t-85 -35q-27 -20 -17 -45z" />
<glyph unicode="&#x3149;" d="M220 294q-3 -16 9 -24q19 -15 51 23q109 127 174 222q23 34 5.5 61t-61.5 29q-56 3 -128 -20q-19 -6 -33 -19.5t-9 -30.5q4 -13 21 -18t36 0q65 24 104 22q-20 -30 -43 -61.5t-55 -72.5t-50 -66q-5 -5 -11.5 -17t-9.5 -28zM363 355q8 -109 26 -194q10 -43 31 -43 q18 0 25 18t5 41q-3 43 -30 187q-2 11 -13.5 18t-24.5 4q-7 -1 -13 -9t-6 -22zM486 464q6 -12 24 -14t34 6q72 30 99 35q-69 -106 -137 -198q-8 -11 -12 -26t7 -29q9 -7 23 -4t25 15q38 48 158 221q21 34 0 60.5t-64 23.5q-44 -3 -118 -35q-18 -8 -32 -23.5t-7 -31.5z M654 333q-6 -130 7 -241q4 -45 29 -46q18 -1 23.5 13t6.5 40q2 37 -7 234q-1 11 -11.5 19.5t-23.5 7.5q-7 0 -14.5 -7t-9.5 -20z" />
<glyph unicode="&#x314a;" d="M260 420q5 -11 17.5 -17t27.5 -1q17 6 38.5 12t44.5 11t38.5 5t15.5 -7q-86 -149 -125 -246q-6 -16 1.5 -33t18.5 -20q9 -2 19 4.5t15 16.5q12 25 77 150q119 -63 184 -106q10 -6 24 -5t21 10q17 23 -9 47q-82 55 -189 110q4 8 9 17t11 20t9 18q14 27 0.5 55t-43.5 33 q2 34 2 88t1 76q1 11 -7 22t-21 13q-12 2 -21.5 -11t-10.5 -35q-5 -71 2 -153q-76 -10 -130 -35q-30 -17 -20 -39z" />
<glyph unicode="&#x314b;" d="M312 432q5 -11 20.5 -15.5t35.5 1.5q26 11 94 31t91 24q3 -37 5 -108q-62 -15 -172 -37q-16 -3 -22.5 -13.5t-5.5 -20.5q3 -30 38 -28q43 2 165 33q1 -56 4 -103q1 -18 14.5 -25t25.5 -6q24 4 25 36q2 31 -0.5 133.5t-5.5 139.5q-1 32 -20 52.5t-59 15.5q-29 -3 -105 -25 t-105 -36q-36 -21 -23 -49z" />
<glyph unicode="&#x314c;" d="M274 513q1 -12 14.5 -23t32.5 -12q39 -2 138 -9t115 -8q15 -1 27.5 5.5t12.5 19.5q1 8 -6 20t-24 18q-41 12 -133.5 19t-142.5 5q-20 -1 -27.5 -12.5t-6.5 -22.5zM294 308q1 -11 15.5 -20t33.5 -11q0 -69 6 -115q7 -51 79 -44q38 3 108 18.5t99 28.5q38 18 29 42 q-7 22 -55 12q-117 -25 -190 -32q-4 33 -4 96q74 6 124 8q32 2 48 16.5t16 25.5q-2 18 -66 20q-67 0 -122 -4q0 39 2 79q0 11 -11.5 22.5t-25.5 10.5q-11 -1 -20.5 -9.5t-10.5 -19.5q-4 -51 -5 -90q-3 0 -10 -0.5t-10 -1.5q-17 -2 -25 -11t-5 -21z" />
<glyph unicode="&#x314d;" d="M275 455q11 -31 47 -26q26 6 40 8q-41 -90 -28 -171q5 -35 34 -53q-16 -8 -31 -14q-9 -2 -15 -8t-5 -12q1 -14 14 -22t27.5 -8.5t25.5 0.5q19 3 72 13.5t94.5 17t76.5 6.5q17 0 27.5 7t10.5 19q-1 12 -11 20t-26.5 10.5t-34.5 3t-39 -2t-36 -5t-30 -5.5t-16 -3 q63 45 88 130q12 39 -14 51q-25 11 -41 -23q-48 -103 -99 -147l-3 7q-12 31 9 147q5 23 -13 49q28 5 80 12t72 10q25 4 45.5 13.5t19.5 23.5q-1 8 -18 14.5t-35 7.5q-71 1 -254 -29q-38 -9 -34 -41z" />
<glyph unicode="&#x314e;" d="M323 375q2 -12 14.5 -19.5t26.5 -5.5q99 19 117 19q-18 -18 -37 -46t-35 -63t-13.5 -67.5t29.5 -49.5q29 -17 77 -8t75 35q23 23 34.5 57.5t0.5 67.5q-4 12 -14 20t-22 4q-12 -3 -13 -15t3 -20q5 -34 -34.5 -60.5t-61.5 -18.5q-3 27 15 59.5t42 62.5t29 42q9 18 2 34 t-27 23q-38 7 -90 2.5t-87 -17.5q-35 -14 -31 -36zM386 629q-14 -16 1 -33q50 -51 74 -124q3 -10 15.5 -16.5t25.5 3.5q18 17 13 37q-14 74 -58 115q-15 15 -36 21.5t-35 -3.5z" />
<glyph unicode="&#x314f;" d="M332.5 405.5q-0.5 -128.5 15.5 -238.5q1 -13 13 -26t23 -15q14 -2 22.5 12t7.5 29q-11 146 -11 205q0 10 2 11q3 2 12.5 -5t23.5 -3q46 15 137 15q15 0 27 21q8 23 -16 31q-34 13 -87 10t-100 -21q0 109 12 179q2 15 -16 30q-10 8 -30 5t-21 -14q-14 -97 -14.5 -225.5z " />
<glyph unicode="&#x3150;" d="M324 501q-15 -114 8 -195q6 -21 19.5 -43.5t27.5 -22.5q25 0 16 57q-8 34 -11 64q25 -5 39 1q17 6 56 25t61 28q0 -108 10 -178q3 -28 13.5 -50.5t26.5 -22.5q32 0 32 34q-20 220 -4 342q6 18 1.5 35.5t-26.5 20.5q-32 -1 -44 -53q-7 -32 -8 -58q-115 -42 -161 -76 q-1 41 7 94q3 19 -2.5 37t-20.5 18t-26.5 -17.5t-13.5 -39.5z" />
<glyph unicode="&#x3151;" d="M264 582q-3 -207 14 -385q2 -19 13 -39t28 -23q11 -1 19 5.5t8 17.5q-16 178 -16 426q0 14 -8 29.5t-19 16.5q-16 3 -27 -11t-12 -37zM358 466q16 -18 38 -6q60 31 115 35q19 3 32 10.5t11 20.5q0 5 -5 11.5t-12 8.5q-49 15 -95 4t-76 -35q-29 -22 -8 -49zM379 308 q3 -10 10.5 -19t17.5 -8q110 8 243 86q43 24 17 52q-18 19 -68 -2q-168 -69 -210 -83q-17 -6 -10 -26z" />
<glyph unicode="&#x3152;" d="M282.5 397.5q4.5 -68.5 15.5 -111.5q6 -21 18.5 -38t27.5 -17q14 0 17 19t-2 37q-12 66 -12 144q11 0 28 7q77 29 120 36q35 4 40 19q4 11 -8 20.5t-32 10.5q-60 4 -136 -23q-6 -2 -8 -3q0 4 2 16q2 20 -5.5 37.5t-22.5 17.5q-32 0 -40 -57q-7 -46 -2.5 -114.5z M374.5 335.5q-6.5 -16.5 6.5 -34.5q19 -21 54 0q65 37 121 57q-2 -58 0 -75q7 -58 29 -58q35 0 35 38q0 60 10.5 155t24.5 141q6 21 -4 36t-30 15q-27 0 -37 -40q-15 -56 -24 -158q-106 -14 -160 -48q-19 -12 -25.5 -28.5z" />
<glyph unicode="&#x3153;" d="M294 285q-3 15 0 25q2 16 23 22q182 60 261 99q0 7 -1.5 46t-1.5 58q1 17 10 29.5t24 13.5q14 1 23 -14t11 -31q4 -59 4 -145q0 -87 -4 -136q-3 -29 -16 -37q-8 -6 -23 -6q-25 2 -24 37q0 17 -0.5 55.5t-0.5 59.5q-62 -33 -110 -52q-43 -17 -127 -45q-17 -6 -30 0.5 t-18 20.5z" />
<glyph unicode="&#x3154;" d="M248 320q1 -22 22 -26q8 -2 18 1q98 31 164 87q0 -41 2 -125q1 -27 11 -48.5t27 -21.5q13 0 23.5 12.5t10.5 35.5q-4 144 4 261q0 14 -10 28t-24 14q-16 0 -29 -19t-13 -42q0 -3 -0.5 -8t-0.5 -7q-83 -65 -163 -97q-43 -16 -42 -45zM618 230q2 -27 12.5 -51.5t27.5 -24.5 q28 0 26 45q-3 102 6 255q1 22 -10.5 43t-26.5 27q-13 3 -22 -9.5t-11 -31.5q-12 -136 -2 -253z" />
<glyph unicode="&#x3155;" d="M286 438.5q-1 -12.5 11 -23.5q20 -20 46 -4q32 18 44.5 23.5t37.5 11.5t54 6q35 4 35 30q0 14 -18 24.5t-41 10.5q-85 0 -156 -57q-12 -9 -13 -21.5zM347.5 293.5q-3.5 -9.5 0.5 -16.5q7 -14 28.5 -17t40.5 8q87 50 160 123q-1 -59 -5 -226q0 -26 14.5 -42t26.5 -16 q24 0 28 36q5 92 12 323q3 83 -47 83q-13 -1 -20 -14.5t-7 -27.5v-10q-15 -25 -41 -51q-57 -56 -179 -138q-8 -5 -11.5 -14.5z" />
<glyph unicode="&#x3156;" d="M217 240q8 -30 64 -18q151 34 212 91q-3 -53 -10 -134q-2 -20 4 -31.5t21 -10.5q33 2 42 55q9 52 14.5 137.5t3.5 130.5q-2 50 -36 50q-33 0 -32 -42q0 -34 -3 -91q-69 -47 -242 -94q-13 -2 -27.5 -13.5t-10.5 -29.5zM230 402q2 -15 21 -19.5t32 1.5q85 21 143 21 q12 -1 18.5 7.5t7.5 18.5q-2 21 -39 30q-71 15 -154 -18q-13 -4 -22 -17t-7 -24zM641 201q-1 -11 7 -24.5t18 -14.5q18 -1 28 9.5t12 25.5q30 205 3 325q-5 28 -34 28q-13 0 -21 -11.5t-8 -20.5q0 -233 -5 -317z" />
<glyph unicode="&#x3157;" d="M228 84.5q-4 -13.5 1 -25.5q4 -12 23 -20t52 -1q129 23 299 49q61 8 104 46q5 4 6.5 11.5t-4 13.5t-17.5 6q-36 -2 -81 -7.5t-101.5 -13t-90.5 -11.5q19 48 35.5 163.5t17.5 121.5q5 15 -1 28t-21 17q-10 2 -18 -6.5t-15 -27.5q-21 -48 -33.5 -144.5t-25.5 -135.5 q-7 -22 -27 -26q-83 -17 -89 -20q-10 -4 -14 -17.5z" />
<glyph unicode="&#x3158;" d="M118 81q3 -11 17 -18t33 -5q39 5 132 38.5t150 62.5q40 22 32 59q-2 10 -8 13t-13.5 1t-16.5 -6q-3 -1 -4 -2q-20 -7 -72 -26.5t-78 -29.5q0 159 -4 210q-2 18 -14 28t-25 8q-16 -1 -25 -17.5t-7 -35.5q-1 -14 1 -93q0 -85 -1 -127q-16 -6 -44.5 -15.5l-34.5 -11.5 q-11 -4 -15.5 -13.5t-2.5 -19.5zM517 165q0 -13 9.5 -28t20.5 -18q14 -4 25 10t11 30q-2 100 8 208q0 5 2 5t6 -3t10.5 -6t15 -4.5t18.5 0.5q49 10 122 39q25 9 40 22.5t17 21.5q2 9 -4 14t-19 4q-103 -9 -201 -43q4 46 22 121q6 24 -9 43q-13 19 -26 19q-22 0 -46 -112 q-31 -165 -22 -323z" />
<glyph unicode="&#x3159;" d="M115 85q4 -15 23.5 -19t38.5 4q35 10 245 64q53 12 56 44q2 12 -13.5 15.5t-36.5 1.5q-45 -2 -156 -30q12 20 9 44q-10 72 -27 157q-2 12 -11 20t-22 5q-15 -4 -22 -16t-5 -25q22 -128 24 -166q0 -19 -39 -45q-4 -1 -10 -3q-31 -12 -44 -26t-10 -25zM498 176 q2 -24 13.5 -42.5t30.5 -15.5q11 1 17.5 22.5t5.5 35.5q-2 43 -2 151q117 49 182 69q-3 -83 3 -156q1 -24 13.5 -50.5t30.5 -26.5q7 0 15.5 8.5t7.5 26.5q-6 191 8 344q2 31 -1.5 44.5t-17.5 15.5q-11 2 -29 -15t-20 -32q-4 -58 -6 -89q-68 -20 -184 -62q1 79 7 157 q0 49 -21 53q-18 3 -33.5 -5.5t-16.5 -25.5q-15 -208 -3 -407z" />
<glyph unicode="&#x315a;" d="M211 82q-6 15 4.5 28t27.5 16q30 6 72 20q-1 16 -5 57q-10 84 -10 93q-2 19 5.5 37t22.5 20q13 3 22 -6t12 -28q12 -65 19 -150q52 18 166 66q20 9 32 10q19 0 26 -13q6 -12 0 -25.5t-17 -19.5q-74 -39 -151 -71q-101 -43 -154 -52q-31 -3 -40 -1q-26 2 -32 19zM650 428 q-5 107 1 191q3 21 14.5 30t25.5 7q11 -1 21 -12.5t10 -29.5q-2 -87 0 -197q2 -109 8 -193q0 -16 -11.5 -26t-22.5 -7q-16 2 -25 16.5t-9 29.5q-5 67 -12 191z" />
<glyph unicode="&#x315b;" d="M306 453q-12 -134 4 -248q9 -56 40 -56q29 0 25 40q-10 80 -2 252q-3 12 -11.5 23.5t-19.5 12.5q-33 1 -36 -24zM355.5 59.5q-0.5 -3.5 1.5 -7.5t5 -8q21 -28 62 -19q187 67 296 100q15 7 22 12t15 16.5t0 25.5q-3 6 -28 7.5t-45 -3.5q-57 -13 -212 -66q50 79 91 211 q8 14 6 28.5t-21 26.5q-20 7 -32 0.5t-17 -20.5q-61 -179 -109 -274q-1 -1 -5.5 -2.5t-6.5 -3t-6 -3.5t-6.5 -4t-5 -4.5t-3.5 -5.5t-1.5 -6.5z" />
<glyph unicode="&#x315c;" d="M236 347q4 -20 21.5 -28t36.5 -3q88 25 194 45q17 -98 13 -191q-1 -21 8 -35.5t26 -14.5q13 0 19 11t12 34q7 30 7 88t-10 122q54 9 109 15q15 2 24.5 13t7.5 23q-3 36 -61 33q-85 -4 -202 -29t-177 -48q-35 -14 -28 -35z" />
<glyph unicode="&#x315d;" d="M175 304q13 -33 58 -20q57 23 110 31q-3 -29 -8.5 -67.5t-14.5 -91t-13 -82.5q-2 -15 4 -28.5t18 -14.5q20 -1 31.5 16.5t14.5 37.5q5 23 21 112q18 -8 52 3q157 69 242 134l2 2q2 1 3 2q2 -74 8 -133q2 -19 10 -33t21 -13q34 5 30 84q-2 83 2 240q-2 26 -18 42 q-15 14 -32 5.5t-18 -24.5q-3 -51 -3 -100q-20 -9 -36 -20q-119 -71 -246 -130q-1 -1 -4 -2.5l-5 -2.5q2 13 5 34l4 28q5 37 -12.5 58t-54.5 17q-31 -3 -80 -19t-76 -29q-23 -13 -15 -36z" />
<glyph unicode="&#x315e;" d="M134 254q3 -18 17.5 -24.5t33.5 1.5q84 26 144 38q-32 -93 -45 -181q-8 -57 23 -62q12 -2 26.5 6.5t18.5 27.5q30 138 58 206q17 35 3.5 58.5t-54.5 19.5q-45 -4 -102 -16.5t-81 -23.5q-47 -17 -42 -50zM425 177q1 -17 16 -22t31 3q50 24 103 41v-69q0 -16 7 -32.5 t22 -16.5q14 0 25 11t12 25q13 176 -5 350q-2 19 -17 29t-28 9q-29 -2 -27 -38q6 -104 9 -196q-86 -26 -120 -50q-30 -20 -28 -44zM721 515q19 -243 12 -397q-1 -15 7 -33t23 -18q16 -1 26 11.5t12 28.5q18 217 -9 411q-5 37 -43 37q-13 0 -21 -11.5t-7 -28.5z" />
<glyph unicode="&#x315f;" d="M185.5 281.5q1.5 15.5 20.5 26.5l72 36q47 23 76 35q70 24 99 25q28 2 46 -16q20 -21 7 -60q-66 -157 -90 -236q-3 -12 -19.5 -15.5t-22.5 0.5q-24 12 -17 47q26 98 68 203q-25 -5 -85 -31q-36 -15 -90 -41q-13 -7 -31 -5.5t-27 11.5q-8 5 -6.5 20.5zM614 274 q-13 162 0 317q3 18 10 28.5t24 8.5q36 -4 33 -46q-11 -180 3 -314q0 -18 -5 -34q-11 -26 -29 -26t-27 23q-7 14 -9 43z" />
<glyph unicode="&#x3160;" d="M186 329q8 -29 80 -11q133 32 137 33q-1 -1 -2 -4t-2 -5q-60 -150 -16 -250q10 -23 28 -36.5t38 -13.5q14 0 19.5 13t-2.5 20q-24 35 -26.5 102.5t9.5 114.5q3 9 0.5 32t-9.5 36q149 34 274 65q17 4 29 17t11 27q-1 17 -20.5 20t-32.5 -1q-69 -10 -232.5 -49.5 t-235.5 -62.5q-21 -5 -35.5 -19t-11.5 -28zM588 370q-38 -146 12 -272q8 -17 28.5 -22t32.5 5q10 8 -8 66q-20 79 -9 197q2 35 -23 43q-11 4 -20.5 -1.5t-12.5 -15.5z" />
<glyph unicode="&#x3161;" d="M253 232q2 -18 25 -24t47 -4q96 11 208.5 46.5t137.5 51.5q19 12 16 35q-2 35 -68 17q-11 -3 -78.5 -22.5t-131 -36t-109.5 -23.5q-21 -3 -34.5 -14.5t-12.5 -25.5z" />
<glyph unicode="&#x3162;" d="M176 154q-1 9 11.5 20t37.5 14q174 31 328 93q32 14 37 0q11 -28 -39 -59q-78 -40 -155 -65q-75 -25 -157 -38q-22 -3 -41 6t-22 29zM688 172q-17 205 8 435q2 19 9 30q8 16 29 14q13 -2 22 -15.5t8 -30.5q-17 -195 -12 -433q2 -14 -7.5 -28t-23.5 -14q-12 0 -22 14 t-11 28z" />
<glyph unicode="&#x3163;" d="M418.5 387q0.5 -64 8.5 -130.5t26 -130.5q4 -14 17.5 -25.5t29.5 -7.5q10 4 16.5 18.5t3.5 31.5q-13 64 -19.5 134.5t-7.5 118.5t-1 144q0 11 -15.5 23t-29.5 8q-28 -10 -28 -39q-1 -81 -0.5 -145z" />
<glyph unicode="&#x321c;" d="M71 325q-5 -95 28.5 -180t96.5 -129q6 -4 14 -7t18 -2t15 9q5 10 6 18t-4 17.5t-9.5 15t-15.5 18t-17 19.5q-79 93 -60 242q9 73 39 141t74 114q6 3 4.5 14.5t-10.5 17.5q-8 6 -21 7t-19 -4q-57 -41 -95 -127.5t-44 -183.5zM246 571q-14 -19 6 -37q16 -14 43 1 q76 46 121 52q-3 -6 -23 -40.5t-26 -48.5t-18 -43t-15 -53.5t0 -50.5q3 -31 27 -33q11 -1 21.5 6t11.5 21q6 85 37 133q5 -6 11.5 -9t11.5 -3h13h12q85 -3 138.5 -16.5t82.5 -11.5q11 1 16 9q2 6 -1 15q-18 26 -84 45t-126 21q-33 1 -51 -7q26 46 32 63q13 41 -21 56.5 t-74 6.5q-38 -9 -83 -33t-62 -43zM347 222q8 -28 61 -15l93 30q-1 -66 6 -151.5t22 -117.5q4 -7 14.5 -10t18.5 -1q18 5 15 30q-5 40 -9.5 120.5t-3.5 117.5q-2 17 -11 28q82 23 160 42q24 6 24 22q0 7 -8 12.5t-19 5.5q-126 2 -323 -69q-19 -7 -31.5 -19.5t-8.5 -24.5z M679.5 615.5q-1.5 -11.5 4.5 -14.5q44 -46 74 -114t39 -141q19 -149 -60 -242q-6 -7 -17 -19.5t-15.5 -18t-9.5 -15t-4 -17.5t6 -18q5 -8 15 -9t18 2t14 7q63 44 96.5 129t28.5 180q-6 97 -44 183.5t-95 127.5q-6 5 -19 4t-21 -7q-9 -6 -10.5 -17.5z" />
<glyph unicode="&#x327f;" d="M45 280v21q0 175 124 299t300 125q137 0 246 -79q107 -76 153 -204h-79q-41 95 -125 152q-92 61 -195 61q-130 1 -232 -87q-98 -86 -119 -216h124v-72h-197zM55 207l78 1q30 -114 122 -187q92 -74 214 -74q143 0 243 96q102 97 110 237h-195v72h265q3 -26 3 -51 q0 -176 -125 -301q-125 -124 -301 -124q-147 0 -266 95q-115 92 -148 236zM320 84v453h84v-171l144 167h104l-188 -210l220 -239h-111l-165 190l-4 -5v-185h-84z" />
<glyph unicode="&#x33c2;" d="M23 343q-16 -22 1 -41q20 -20 40 -1q12 11 30.5 30t30.5 28t26 14q31 10 35 -17q8 -45 8 -150q-34 35 -69 24q-62 -19 -87 -66.5t-6 -96.5q28 -73 92 -63q16 3 34 11t26.5 13.5t30.5 21.5t26 19q46 -25 57 8q12 34 -40 69q4 137 -11 239q-9 59 -77 58q-13 0 -25 -3 t-24.5 -10t-20 -11.5t-21 -17.5t-18 -17t-20.5 -21t-18 -20zM90 80q-10 33 2.5 59t38.5 31q15 1 34.5 -21.5t20.5 -35.5q-40 -37 -73 -43q-20 -4 -23 10zM329 127q-18 -37 2 -58q17 -21 45.5 -7t22.5 42q0 11 -10.5 22.5t-24.5 15.5q-26 -2 -35 -15zM394 377 q21 -228 24 -245q7 -29 24.5 -54t33.5 -25q17 0 34 28q12 22 22.5 54t23.5 82.5t23 81.5q1 -12 4 -43.5t4.5 -46.5t4 -37.5t6 -38.5t8.5 -28q4 -11 16.5 -19.5t23.5 -8.5q12 0 21.5 13.5t9.5 37.5q4 17 11.5 62.5t15.5 83.5t18 60q3 6 8.5 -5t8.5 -23q7 -25 30 -200 q3 -15 13.5 -25t30.5 -1q14 6 14 30q0 1 -1.5 26.5t-4 49.5t-6.5 56t-12 61.5t-19 49.5q-16 29 -35.5 47t-34.5 10q-27 -14 -44 -57q-9 -22 -21 -77.5t-17 -70.5q-1 11 -2.5 32.5t-3 37t-4 36t-6 34.5t-8.5 27.5t-12.5 20t-16.5 6.5q-18 0 -36 -44t-36 -107.5t-28 -84.5 q-4 24 -8.5 71t-8.5 100.5t-5 63.5q-3 36 -37 30q-28 -8 -26 -51zM858 127q-18 -37 2 -58q17 -21 45.5 -7t22.5 42q0 11 -10.5 22.5t-24.5 15.5q-26 -2 -35 -15z" />
<glyph unicode="&#x33c7;" d="M131 284q19 -123 117 -152q43 -12 95 0.5t77 39.5q10 13 5 26q-3 8 -8.5 14.5t-10.5 4.5q-97 -37 -149 -16q-55 23 -60 95q-3 55 10 88t54 60q35 23 110 4q7 -2 16 16q1 1 1 2q7 12 -2 25q-17 22 -61 28.5t-79 -6.5q-67 -24 -96 -92.5t-19 -136.5zM461 343 q-13 -83 21 -147.5t111 -64.5q62 0 107.5 43t71.5 107q18 53 -6.5 112.5t-81.5 80.5q-19 8 -32 -4q-39 21 -74 21q-47 -1 -77.5 -44t-39.5 -104zM524.5 291q1.5 27 4.5 50q5 25 24.5 57.5t41.5 32.5q7 0 15.5 -5t19.5 -13.5t16 -11.5q11 -6 25 3q28 -14 38.5 -45.5 t-0.5 -60.5q-17 -50 -58.5 -77t-72.5 -18q-28 8 -41.5 34.5t-12 53.5zM810 212q-18 -37 2 -58q17 -21 45.5 -7t22.5 42q0 11 -10.5 22.5t-24.5 15.5q-26 -2 -35 -15z" />
<glyph unicode="&#x33d8;" d="M16 288q4 -8 17.5 -9t27.5 6q5 3 25.5 14.5t26.5 14t22.5 10.5t27 10t26 4t31.5 2q50 -1 56 -45q9 -70 -96 -134q-5 46 -13 97q-6 20 -22.5 33t-29.5 8q-8 -4 -12.5 -11.5t-4.5 -12.5v-5q7 -45 19 -143q-43 -26 -31 -55q8 -21 38 -17q7 -101 7 -165q0 -9 10 -20.5 t25 -12.5q11 -1 20 8t10 21q2 85 -8 200q194 117 141 257q-19 40 -54.5 55.5t-77.5 8.5t-77.5 -20.5t-69.5 -32.5q-50 -31 -34 -66zM329 127q-18 -37 2 -58q17 -21 45.5 -7t22.5 42q0 11 -10.5 22.5t-24.5 15.5q-26 -2 -35 -15zM394 377q21 -228 24 -245q7 -29 24.5 -54 t33.5 -25q17 0 34 28q12 22 22.5 54t23.5 82.5t23 81.5q1 -12 4 -43.5t4.5 -46.5t4 -37.5t6 -38.5t8.5 -28q4 -11 16.5 -19.5t23.5 -8.5q12 0 21.5 13.5t9.5 37.5q4 17 11.5 62.5t15.5 83.5t18 60q3 6 8.5 -5t8.5 -23q7 -25 30 -200q3 -15 13.5 -25t30.5 -1q14 6 14 30 q0 1 -1.5 26.5t-4 49.5t-6.5 56t-12 61.5t-19 49.5q-16 29 -35.5 47t-34.5 10q-27 -14 -44 -57q-9 -22 -21 -77.5t-17 -70.5q-1 11 -2.5 32.5t-3 37t-4 36t-6 34.5t-8.5 27.5t-12.5 20t-16.5 6.5q-18 0 -36 -44t-36 -107.5t-28 -84.5q-4 24 -8.5 71t-8.5 100.5t-5 63.5 q-3 36 -37 30q-28 -8 -26 -51zM858 127q-18 -37 2 -58q17 -21 45.5 -7t22.5 42q0 11 -10.5 22.5t-24.5 15.5q-26 -2 -35 -15z" />
<glyph unicode="&#xac00;" horiz-adv-x="665" d="M32 397q5 -10 16 -17.5t22 -2.5q87 42 131 51q-13 -46 -21.5 -133t-3.5 -123q8 -42 29 -46q12 -3 23.5 4.5t9.5 26.5q-5 46 5 134.5t21 131.5q8 30 -8.5 49t-52.5 19q-35 -1 -83 -21t-78 -39q-21 -13 -10 -34zM398.5 397q7.5 -103 25.5 -170q9 -38 33 -32q9 2 18 18.5 t7 31.5q-9 55 -16 123q58 21 137 26q19 1 36 7.5t17 17.5q0 12 -14.5 20t-34.5 10q-70 5 -145 -14q-5 91 -1 164q1 14 -12 31t-27 14q-20 -5 -23 -34q-8 -110 -0.5 -213z" />
<glyph unicode="&#xac01;" horiz-adv-x="620" d="M15 407q12 -28 47 -14q79 32 99 37q8 2 9.5 1t-2.5 -11q-43 -96 -43 -221q0 -21 25 -24q12 -1 23 5.5t11 18.5q1 97 54 244q11 34 -9 48q-13 10 -37 7q-31 -3 -84.5 -21.5t-81.5 -36.5q-19 -12 -11 -33zM274 193q5 -11 20 -14t28 3q71 34 104 37q-13 -95 -29 -144 q-11 -34 12 -46q11 -6 25.5 -0.5t20.5 21.5q21 49 32 152q3 35 -18.5 55.5t-44.5 20.5q-64 0 -137 -47q-8 -5 -13 -17t0 -21zM365 512q1 -93 11 -147q2 -9 9.5 -18.5t18.5 -12.5q16 -4 23.5 5.5t6.5 23.5q-6 70 -7 121q75 19 149 17q32 -2 36 8q4 8 -2.5 19.5t-18.5 17.5 q-49 23 -165 0q2 53 7 91q2 15 -10 31t-26 16q-17 0 -23 -29q-10 -50 -9 -143z" />
<glyph unicode="&#xac04;" horiz-adv-x="610" d="M18 426q-2 -12 1 -19q14 -27 48 -11q55 28 81 35q6 1 7 -0.5t-1 -7.5q-36 -155 -37 -220q0 -11 7 -19.5t15 -9.5q12 -2 24.5 7.5t13.5 21.5q17 135 46 246q7 29 -6.5 44.5t-41.5 10.5q-33 -6 -77 -23t-71 -37q-7 -6 -9 -18zM265 84q0 -64 72 -50q89 19 180 79 q20 15 30.5 37t5.5 35q-6 8 -13.5 5.5t-22.5 -11.5q-4 -3 -6 -4q-74 -44 -179 -75q-2 51 12 137q5 31 -23 31q-10 0 -19.5 -8.5t-12.5 -17.5q-24 -63 -24 -158zM356.5 472.5q5.5 -106.5 16.5 -162.5q2 -9 9.5 -18.5t18.5 -12.5q16 -4 23.5 7t6.5 25q-10 104 -13 161 q95 27 152 27q32 2 35 11q3 8 -4 17.5t-20 14.5q-57 23 -166 -7q-2 55 1 90q1 16 -10.5 31.5t-25.5 15.5q-8 0 -15 -8t-8 -21q-6 -64 -0.5 -170.5z" />
<glyph unicode="&#xac07;" horiz-adv-x="560" d="M24 419q12 -28 47 -14q67 27 79 29q7 1 9 -1t-2 -12q-43 -96 -43 -221q0 -11 8 -17t17 -7q12 -1 23 5.5t11 18.5q1 97 54 244q11 34 -9 48q-13 10 -37 7q-33 -3 -76 -16.5t-70 -30.5q-19 -12 -11 -33zM262 230q2 -10 13 -16.5t25 -5.5v-1q-14 -63 -10 -127q3 -43 37 -53 q12 -4 30 0q36 7 88 29.5t79 39.5q28 18 20 33q-10 23 -46 10q-100 -37 -151 -46q1 17 6 52.5t6 54.5q0 12 -7 19q9 2 46.5 12.5t63.5 16.5q20 5 20 25t-35 19q-77 -3 -163 -32q-25 -9 -22 -30zM338 508.5q1 -96.5 11 -150.5q2 -9 9.5 -18.5t18.5 -12.5q16 -4 23.5 6.5 t6.5 24.5q-5 49 -7 127q44 11 123 16q30 0 34 13q8 23 -24 34q-46 14 -133 -2q0 49 6 91q2 15 -10 31t-26 16q-17 0 -23 -29q-10 -50 -9 -146.5z" />
<glyph unicode="&#xac08;" horiz-adv-x="650" d="M25 522q6 -10 20.5 -11.5t31.5 7.5q82 46 113 56q-35 -98 -43 -215q-3 -47 17 -50q11 -2 25 11.5t17 32.5q18 123 46 214q10 33 -8 53t-56 15q-32 -4 -79 -26.5t-67 -39.5q-33 -26 -17 -47zM275 323q-2 -17 6 -27.5t22 -8.5q84 10 115 8q-15 -17 -95 -76 q-13 -9 -16.5 -24.5t1.5 -23.5q10 -19 32 -17q50 11 93 11q-29 -60 -92 -134q-22 -27 -23 -50q0 -27 20 -41t54 -10q101 11 224 47q17 4 29.5 14t9.5 22t-19.5 19t-33.5 4q-155 -32 -203 -35q83 96 96 155q8 31 -15 49t-67 16q9 3 30 22.5t31 34.5q19 29 8 52t-49 28 q-69 10 -130 -8q-27 -9 -28 -27zM386.5 589q0.5 -84 12.5 -136q2 -15 12.5 -24t23.5 -9q12 0 17.5 6t5.5 22q-4 29 -6 87q59 36 149 58q22 5 28 19q5 11 -10 17q-55 20 -167 -22q0 54 5 92q2 13 -7 28.5t-24 16.5q-12 1 -20.5 -7.5t-8.5 -17.5q-11 -46 -10.5 -130z" />
<glyph unicode="&#xac09;" horiz-adv-x="660" d="M25 459q6 -10 20.5 -11.5t31.5 7.5q82 46 113 56q-33 -94 -46 -199q-5 -46 17 -50q11 -2 25 11.5t17 32.5q11 72 49 198q10 33 -8 53t-56 15q-32 -4 -79 -26.5t-67 -39.5q-33 -26 -17 -47zM207 100q14 -23 41 -10q75 36 87 40q-7 -16 -30.5 -54t-40.5 -70t-14 -47 q10 -46 68 -29q109 32 126 36q40 10 34 42q-4 17 -22 22t-24 -1q-16 -4 -49.5 -13.5t-52.5 -14.5q52 79 65 121q9 14 1.5 36t-37.5 23q48 82 11 108q-45 33 -119 0q-37 -17 -26 -45q12 -25 43 -11q3 1 12.5 5t15.5 6t13 3t11 -2t3 -11q-1 -17 -20 -36.5t-35 -30t-49 -30.5 q-24 -13 -12 -37zM400.5 568q0.5 -81 12.5 -134q2 -15 12.5 -24t23.5 -9q12 0 17.5 6t5.5 22q-4 29 -6 87q59 36 149 58q22 5 28 19q5 11 -10 17q-55 20 -167 -22q0 50 5 88q2 13 -7 28.5t-24 16.5q-12 1 -20.5 -7.5t-8.5 -17.5q-11 -47 -10.5 -128zM407 273q-2 -13 5 -20 q5 -9 17.5 -10.5t22.5 4.5q6 3 20 11.5t22 13t19.5 9t20.5 5.5q-8 -134 4 -193q7 -34 30 -36q14 0 23 7.5t7 22.5q-12 89 0 197q4 34 -18 49.5t-60 10.5q-54 -8 -99 -47q-12 -11 -14 -24z" />
<glyph unicode="&#xac0a;" horiz-adv-x="660" d="M25 483q6 -10 20.5 -11.5t31.5 7.5q96 54 117 60q-37 -110 -42 -182q-2 -41 18 -44q12 -2 25.5 8.5t16.5 29.5q13 89 40 177q10 33 -8 53t-56 15q-32 -4 -79 -26.5t-67 -39.5q-33 -26 -17 -47zM182.5 251q-4.5 -12 3.5 -25q14 -17 39 -9q2 1 27 8.5t38 9.5q17 3 20.5 -2 t-0.5 -12q-12 -35 -86 -90q-22 -15 -16 -34q3 -13 17.5 -19t29.5 1q30 18 73 24q-87 -98 -87 -137q0 -24 18 -39t49 -7q81 21 151 73q15 10 23 26t2 25q-15 23 -50 0q-49 -33 -121 -53q40 59 73 94q25 29 21 51q-2 14 -23.5 20.5t-54.5 0.5q40 38 50 71q8 21 -9 40t-47 22 q-69 6 -126 -23q-10 -4 -14.5 -16zM403.5 572q0.5 -81 12.5 -134q2 -15 12.5 -24t23.5 -9q12 0 17.5 6t5.5 22q-6 40 -6 125q79 18 145 17q31 -2 36 9q4 10 -2.5 21.5t-18.5 15.5q-52 19 -160 -1q1 31 5 60q2 13 -7 28.5t-24 16.5q-12 1 -20.5 -7.5t-8.5 -17.5 q-11 -47 -10.5 -128zM427.5 227.5q0.5 -64.5 8.5 -102.5q3 -13 12 -22t20 -7q23 4 20 40q-5 46 -3 102q8 -3 21 1q9 3 30.5 18.5t31.5 17.5q-16 -108 -45 -173q-12 -26 6.5 -44.5t45.5 -10.5q61 17 94 40q13 10 22.5 27t0.5 28q-11 11 -31 1q-8 -4 -26 -13.5t-29 -14 t-20 -6.5q3 13 15.5 50t21.5 70.5t10 55.5q1 24 -17.5 37t-42.5 9q-37 -6 -80 -34q-2 -1 -4 -3q0 6 1 9q2 15 -5.5 26.5t-22.5 14.5q-22 4 -29 -28q-6 -24 -5.5 -88.5z" />
<glyph unicode="&#xac10;" horiz-adv-x="633" d="M31 443q20 -33 63 -12q45 23 79 28q-53 -115 -70 -185q-11 -60 15 -74q12 -7 23 0t13 21q30 99 88 242q24 64 -36 64q-42 -2 -90.5 -17.5t-79.5 -39.5q-15 -10 -5 -27zM274.5 181.5q-3.5 -59.5 8.5 -102.5q5 -16 29 -16q7 0 13.5 5.5t7.5 14.5q1 8 1 26.5t1.5 37.5 t4.5 39q6 -13 25 -11q5 1 21 6q32 12 32 3q-1 -8 -6.5 -20t-16 -27t-18 -25t-20.5 -25.5t-14 -17.5q-16 -22 -1.5 -41t46.5 -19q88 18 190 76q15 7 25 23.5t11 28t-1 16.5q-9 8 -23 2q-87 -41 -154 -61q62 66 54 120q-9 59 -140 23l4 21q0 18 -24 23t-32 -7 q-20 -33 -23.5 -92.5zM388 354q3 -21 19.5 -34t25.5 -11q7 1 10 18.5t2 33.5q-5 63 -4 110q60 39 157 63q22 5 28 19q5 11 -10 17q-58 21 -173 -24q4 67 15 136q2 9 -8 25t-19 17q-16 1 -23 -9.5t-12 -31.5q-31 -148 -8 -329z" />
<glyph unicode="&#xac11;" horiz-adv-x="660" d="M25 445q6 -10 20.5 -11.5t31.5 7.5q96 54 117 60q-46 -135 -52 -228q-2 -41 18 -44q12 -2 24.5 8.5t15.5 29.5q15 102 52 223q10 33 -8 53t-56 15q-32 -4 -79 -26.5t-67 -39.5q-33 -26 -17 -47zM326 84q3 -22 14.5 -43t30.5 -20q5 0 8 4t3.5 10.5t0.5 13t-1 14.5t-1 12 q-3 19 -0.5 60t3 50.5t4.5 49.5t6 56q2 12 -8 23.5t-28 10.5q-19 0 -26 -33q-23 -119 -6 -208zM403.5 554q0.5 -81 12.5 -134q2 -15 12.5 -24t23.5 -9q12 0 17.5 6t5.5 22q-6 41 -6 127q72 17 145 15q31 -2 36 9q4 10 -2.5 21.5t-18.5 15.5q-52 19 -160 -1q1 31 5 60 q2 13 -7 28.5t-24 16.5q-12 1 -20.5 -7.5t-8.5 -17.5q-11 -47 -10.5 -128zM429 118q-3 -31 10 -67t34 -55q21 -18 37 -18q29 -2 43 25q29 53 32 181q4 2 12.5 6.5t12.5 6.5q8 4 11 11.5t-0.5 13.5t-12.5 7q-14 2 -22 0v104q-4 38 -37 40q-12 1 -19.5 -4t-6.5 -16 q0 -111 -1 -133q-33 -9 -61 -37t-32 -65zM473 102q3 20 16.5 40.5t30.5 27.5q-2 -82 -27 -134q-25 29 -20 66z" />
<glyph unicode="&#xac12;" horiz-adv-x="727" d="M23 479q6 -10 20.5 -11.5t31.5 7.5q80 45 118 57q-39 -109 -49 -214q-5 -46 17 -50q11 -2 25 11.5t17 32.5q12 82 52 213q10 33 -8 53t-56 15q-32 -4 -81.5 -27.5t-69.5 -39.5q-33 -26 -17 -47zM226 58q11 -56 44 -56q5 0 8 3t4 8.5t0.5 10.5t-1 12.5t-0.5 11.5 q-1 99 19 206q2 12 -7.5 23.5t-27.5 11.5q-21 0 -27 -32q-27 -123 -12 -199zM311 53q0 -40 17 -81t42 -41q29 -2 44 24q10 17 17 45t11 52.5t7 64.5t4 61.5t2 64t1 52.5q-3 37 -36 41q-27 2 -27 -19q-2 -104 -5 -145q-77 0 -77 -119zM354 54q0 24 8 43.5t23 19.5 q-4 -84 -22 -127q-9 34 -9 64zM440.5 577q0.5 -84 12.5 -136q2 -15 12.5 -24t23.5 -9q12 0 17.5 6t5.5 22q-6 36 -6 113q17 -11 44 -8q21 2 74.5 9.5t64.5 8.5q17 2 27.5 9.5t9.5 17.5q-1 11 -16 20t-31 10q-75 2 -173 -31q0 60 5 102q2 13 -7 28.5t-24 16.5 q-12 1 -20.5 -7.5t-8.5 -17.5q-11 -46 -10.5 -130zM474 77q-3 -66 28 -66q4 0 7.5 2t6 5t4.5 8.5t3 8.5t2.5 9.5t1.5 8.5q28 116 96 229q6 11 -0.5 24.5t-23.5 18.5q-16 4 -35 -23q-28 -38 -57 -106.5t-33 -118.5zM586.5 186.5q-3.5 -9.5 3.5 -21.5q57 -86 128 -120 q7 -4 17 -2t14 9q16 24 -4 37q-48 32 -104 101q-18 23 -41 11q-10 -5 -13.5 -14.5z" />
<glyph unicode="&#xac13;" horiz-adv-x="681" d="M25 440q6 -10 20.5 -11.5t31.5 7.5q82 46 113 56q-39 -109 -49 -214q-5 -46 17 -50q11 -2 25 11.5t17 32.5q12 82 52 213q10 33 -8 53t-56 15q-32 -4 -79 -26.5t-67 -39.5q-33 -26 -17 -47zM254 60q-11 -34 7 -57q9 -11 24 -6q17 6 23 36q20 43 70 124q48 -52 140 -171 q17 -20 28.5 -21.5t18.5 6.5q21 14 -3 56q-86 149 -158 171q5 9 15.5 24t14.5 21q8 15 4 28.5t-8.5 20t-9.5 9.5q-17 11 -34 -9q-32 -39 -76 -115.5t-56 -116.5zM396.5 527q0.5 -84 12.5 -136q2 -15 12.5 -24t23.5 -9q12 0 17.5 6t5.5 22q-6 45 -6 143q17 -11 44 -8 q21 2 74.5 9.5t64.5 8.5q17 2 27.5 9.5t9.5 17.5q-1 11 -16 20t-31 10q-75 2 -173 -31q0 40 5 72q2 13 -7 28.5t-24 16.5q-12 1 -20.5 -7.5t-8.5 -17.5q-11 -46 -10.5 -130z" />
<glyph unicode="&#xac14;" horiz-adv-x="631" d="M25 440q6 -10 20.5 -11.5t31.5 7.5q82 46 113 56q-39 -109 -49 -214q-5 -46 17 -50q11 -2 25 11.5t17 32.5q12 82 52 213q10 33 -8 53t-56 15q-32 -4 -79 -26.5t-67 -39.5q-33 -26 -17 -47zM215 49q3 -18 15 -22q11 -4 24 1t18 20q21 64 38 105q49 -32 89 -34 q-18 -46 -26 -66q-16 -42 2 -63q9 -10 24 -6t22 18q9 17 21.5 53.5t20.5 53.5q25 -10 65 -51t71 -84q23 -26 47 -7q13 13 3 33q-25 50 -77.5 102.5t-92.5 43.5l25 50t21 41q9 16 9 31t-13 20q-26 14 -46 -14q-28 -49 -50 -98q-44 -1 -96 23q4 11 12.5 27t11.5 24 q10 33 -10 37q-19 6 -41 -19q-23 -29 -47.5 -83.5t-36.5 -102.5q-6 -15 -3 -33zM404.5 506q0.5 -84 12.5 -136q2 -15 12.5 -24t23.5 -9q12 0 17.5 6t5.5 22q-6 39 -6 124q51 17 126 25q28 2 32 22q4 24 -20 27q-65 4 -138 -13q1 35 5 66q2 13 -7 28.5t-24 16.5 q-12 1 -20.5 -7.5t-8.5 -17.5q-11 -46 -10.5 -130z" />
<glyph unicode="&#xac15;" horiz-adv-x="620" d="M19 424q6 -31 42 -22q10 2 57.5 17t63.5 18q-42 -200 -45 -240q0 -13 6.5 -25.5t18.5 -15.5q29 -7 38 30q10 68 46 259q7 34 -11 50t-48 9q-27 -5 -78 -20t-68 -22q-27 -11 -22 -38zM328 67q2 -23 20 -36t45 -9q65 11 113 72q13 17 16.5 39t0 38t-10.5 27q-8 13 -21 21.5 t-24 2.5q-2 8 -9 14q-12 8 -44 -14q-43 -29 -67.5 -70t-18.5 -85zM381 294q2 -27 27 -27q10 0 18.5 10.5t9.5 27.5q4 101 7 155q60 18 136 28q12 2 16 3t12 4t10.5 7.5t2.5 10.5q0 8 -13 16t-30 9q-58 4 -131 -19q0 13 1 38.5t2 38.5q0 53 -22 58q-14 4 -24.5 -6.5 t-11.5 -23.5q-19 -207 -10 -330zM389 80q-1 38 66 105l2 2q9 -22 6 -36q-4 -18 -25.5 -40t-48.5 -31z" />
<glyph unicode="&#xac16;" horiz-adv-x="650" d="M25 487q6 -10 20.5 -11.5t31.5 7.5q82 46 113 56q-35 -98 -43 -215q-3 -47 17 -50q11 -2 25 11.5t17 32.5q18 123 46 214q10 33 -8 53t-56 15q-32 -4 -79 -26.5t-67 -39.5q-33 -26 -17 -47zM251 215q4 -9 19.5 -11.5t32.5 5.5q73 37 120 49q-32 -44 -64 -105t-44 -97 q-16 -47 10 -58q4 -1 10.5 0t16 8t14.5 20q21 52 60 122q57 -64 110 -160q11 -18 26.5 -25t25.5 -1q17 10 11 28q-13 43 -45 92.5t-64 75.5q-20 16 -46 21q22 37 50 77q11 18 5.5 35.5t-20.5 23.5q-34 13 -102.5 -9t-107.5 -48q-26 -18 -18 -43zM386.5 554 q0.5 -84 12.5 -136q2 -15 12.5 -24t23.5 -9q12 0 17.5 6t5.5 22q-6 40 -6 128q84 21 154 18q32 -2 36 8q4 8 -2.5 19.5t-18.5 17.5q-48 24 -169 -1q1 32 5 61q2 13 -7 28.5t-24 16.5q-12 1 -20.5 -7.5t-8.5 -17.5q-11 -46 -10.5 -130z" />
<glyph unicode="&#xac17;" horiz-adv-x="701" d="M22 547q4 -35 57 -26q9 1 47 14t56 14q-31 -158 -28 -216q5 -46 29 -46q11 0 20 11.5t9 25.5q0 31 6 71t15 91t12 67q6 53 -58 56q-38 2 -135 -32q-30 -12 -30 -30zM249 213q2 -13 12.5 -17.5t26.5 2.5q106 45 145 55q-104 -132 -136 -213q-12 -33 11 -38q22 -5 41 27 q60 103 146 220q12 14 7 34.5t-25 23.5q-30 4 -92 -12q0 43 3 77q1 12 -7.5 21t-22.5 11q-23 3 -25 -16q-6 -37 -4 -110q-27 -10 -45 -19q-38 -22 -35 -46zM409 707q-23 -201 12 -285q13 -33 31 -33q16 0 19 23q0 17 -3.5 79t-3 105.5t6.5 85.5q9 58 -29 60q-13 1 -22 -9.5 t-11 -25.5zM448 115q12 -54 43 -104.5t71 -81.5q19 -14 37 2q17 15 1 32q-28 31 -48 62t-29 50.5t-27 64.5q-4 11 -17.5 15.5t-24.5 -3.5q-12 -9 -6 -37zM485 592q0 -14 12 -25t33 -4q70 24 135 29q30 2 30 22q-3 28 -65 28q-70 0 -124 -19q-25 -9 -21 -31z" />
<glyph unicode="&#xac19;" horiz-adv-x="671" d="M22 470q4 -35 57 -26q77 13 95 14q-24 -122 -20 -202q5 -46 29 -46q11 0 20 11.5t9 25.5q1 61 25 215q6 53 -58 56q-49 3 -127 -18q-11 -3 -20.5 -11t-9.5 -19zM315 283q-2 -10 7 -20t24 -9q9 1 27 5q-11 -50 -19 -129.5t-7 -124.5q0 -17 19 -28.5t46 -1.5q112 40 180 84 q35 32 22 48q-15 14 -50 -2q-103 -48 -155 -58q0 35 5 72q112 37 138 51q33 17 31 35q-4 27 -36 18q-2 -1 -52.5 -16.5t-72.5 -20.5l4 38q5 38 5 39v6q70 9 127 8q12 -2 19 8t5 22q-6 26 -47 30q-40 3 -97 -4t-84 -16q-36 -14 -39 -34zM380 690q-22 -186 12 -285 q10 -33 31 -33q16 0 19 23q0 17 -3.5 79t-3 105.5t6.5 85.5q9 58 -29 60q-13 1 -22 -9.5t-11 -25.5zM457 575q0 -14 12 -25t33 -4q70 24 135 29q30 2 30 22q-3 28 -65 28q-70 0 -124 -19q-25 -9 -21 -31z" />
<glyph unicode="&#xac1a;" horiz-adv-x="671" d="M22 470q4 -35 57 -26q77 13 95 14q-24 -122 -20 -202q5 -46 29 -46q11 0 20 11.5t9 25.5q1 61 25 215q6 53 -58 56q-49 3 -127 -18q-11 -3 -20.5 -11t-9.5 -19zM284 275q8 -29 46 -16l30 10q-3 -6 -6 -15q-20 -62 -20 -129q2 -49 29 -51q13 -1 17.5 10t8.5 35 q11 72 25 123q2 9 -3 20t-14 17q78 19 149 23q23 2 28 22q2 12 -10.5 20.5t-29.5 9.5q-115 5 -230 -41q-28 -11 -20 -38zM352 -2q5 -10 20 -16.5t33 -2.5q173 35 244 44q11 1 19.5 11.5t8.5 21.5t-8.5 19t-21.5 8q-74 -9 -182 -29q77 95 77 152q0 23 -20 25q-18 2 -30 -19 q-69 -115 -124 -173q-24 -25 -16 -41zM373.5 549q2.5 -89 18.5 -144q10 -33 31 -33q16 0 19 23q0 17 -3.5 79t-3 106t6.5 85q9 54 -29 60q-13 2 -22 -8.5t-11 -26.5q-9 -52 -6.5 -141zM457 575q0 -14 12 -25t33 -4q70 24 135 29q30 2 30 22q-3 28 -65 28q-70 0 -124 -19 q-25 -9 -21 -31z" />
<glyph unicode="&#xac1b;" horiz-adv-x="681" d="M22 518q3 -35 56 -22q7 2 26.5 6.5t37 8t31.5 5.5q-26 -123 -24 -204q1 -11 3.5 -19.5t9 -16.5t15.5 -8q11 1 20.5 13t9.5 26q2 55 29 217q4 25 -10.5 39t-45.5 13q-48 0 -128 -26q-11 -3 -20.5 -12t-9.5 -20zM300 159q2 -13 15 -17.5t26 2.5q62 28 98 26 q-47 -87 -63 -123q-24 -54 6.5 -79.5t82.5 -0.5q43 20 69.5 50.5t23.5 65.5q-2 19 -19.5 39t-44.5 26q6 10 10 16q12 16 5.5 35.5t-32.5 25.5q-12 3 -27 3q4 16 -2 35q-6 14 -33 49.5t-39 46.5q-28 26 -48 5q-20 -20 5 -44q35 -33 70 -82q3 -5 9 -13q-37 -4 -74 -20 q-43 -19 -38 -46zM428 534q1 -62 6 -95q8 -50 22 -60q5 -4 12 -4q27 0 26 38t-3 108q1 1 4 1.5t4 0.5q82 22 156 18q9 0 16.5 6t8.5 11q5 19 -15 28q-25 13 -82 10.5t-92 -23.5h-1q2 44 4 68q2 22 -6.5 37.5t-24.5 16.5q-12 1 -20 -9.5t-10 -30.5q-6 -59 -5 -121zM432 19 q27 64 41 89q25 -13 24 -34q-1 -14 -24 -32.5t-41 -22.5z" />
<glyph unicode="&#xac1c;" horiz-adv-x="670" d="M22 408q8 -19 25.5 -22t25.5 4q60 30 100 36q-35 -127 -16 -218q4 -11 18.5 -21t25.5 -7q9 2 13.5 10t4.5 15.5t-1.5 18.5t-1.5 14q1 94 28 189q9 30 -8 48t-53 20q-29 1 -74 -18.5t-68 -34.5q-25 -16 -19 -34zM353 524q-17 -132 7 -245q5 -24 17.5 -44t28.5 -20 q15 0 14 20q-8 68 -11 112q67 37 137 66q1 -71 14 -150q4 -26 14.5 -48.5t26.5 -22.5q7 0 15 9t6 25q-19 195 -12 291q1 22 -9 44t-34 22q-16 0 -19 -42q-1 -10 -1.5 -21.5t-1 -25.5t-0.5 -21q-85 -30 -137 -53q0 33 7 84q4 18 -6.5 34.5t-25.5 22.5q-14 4 -20.5 -6.5 t-9.5 -30.5z" />
<glyph unicode="&#xac1d;" horiz-adv-x="680" d="M21.5 445q-2.5 -12 2.5 -21q13 -24 43 -9q22 11 60.5 23t62.5 13q-27 -129 -37 -235q2 -40 13 -49q5 -4 13 -6q14 -2 22.5 6t10.5 22q20 155 48 271q5 24 -11.5 43t-47.5 19q-29 0 -83.5 -16.5t-83.5 -40.5q-10 -8 -12.5 -20zM356 364q0 -39 25 -51q12 -5 25.5 3t12.5 21 q-3 68 0 122q13 -13 35 -6q46 13 110 41q0 -26 -1 -70t-1 -66q0 -39 22 -44q11 -3 22.5 7t12.5 29q5 134 2 248q-1 20 -11 31.5t-19 11.5q-26 0 -26 -48l-1 -39q-64 -27 -142 -48q4 48 7 76q5 44 -19 46q-16 1 -28 -12t-16 -33q-13 -137 -10 -219zM376 180q5 -11 20 -14 t28 3q85 35 105 40q-11 -81 -31 -173q-9 -34 16 -44q13 -5 25.5 1.5t18.5 23.5q18 54 31 172q4 45 -20 66q-18 14 -43 13q-30 -2 -72 -18.5t-65 -31.5q-8 -5 -13 -17t0 -21z" />
<glyph unicode="&#xac20;" horiz-adv-x="669" d="M16 413q4 -17 23 -19.5t28 3.5q92 37 127 42q-39 -123 -31 -216q2 -15 13.5 -26t27.5 -7q9 2 14.5 10.5t6.5 15t1 19v13.5q7 98 40 192q10 30 -5.5 48t-51.5 20q-31 1 -92.5 -20t-80.5 -36q-25 -21 -20 -39zM364 349q6 -56 36 -56q21 0 21 20q-3 64 -2 109q79 43 118 58 q-3 -85 5 -149q7 -42 36 -42q22 0 22 33q0 171 9 263q2 20 -4 41t-25 24q-12 2 -20 -10.5t-11 -30.5q-6 -31 -9 -69q-59 -20 -117 -45q3 41 9 86q3 21 -4 37t-23 16q-32 0 -37 -36q-18 -126 -4 -249zM375 99q-4 -34 12.5 -49t59.5 -13t107 24t104 47q55 33 51 57 q-2 25 -55 3q-129 -52 -210 -62q1 15 27 118q4 14 -2 25t-19 12q-20 3 -39 -36q-28 -59 -36 -126z" />
<glyph unicode="&#xac24;" horiz-adv-x="680" d="M21 537q3 -13 15 -19.5t26 -1.5q101 34 140 38q-19 -147 -24 -275q-1 -18 6 -28t19 -10q13 0 25 9.5t13 23.5q1 17 4.5 63t5.5 72t7.5 69.5t12.5 84.5q5 30 -15 43.5t-50 11.5q-27 -1 -79.5 -15t-79.5 -27q-31 -16 -26 -39zM348 336q-1 -14 13 -22t33 -6q79 9 106 7 q24 -2 24 -13q0 -13 -39 -46t-84 -58q-18 -10 -25 -18.5t-5 -24.5q6 -34 57 -25q80 14 112 13q-40 -64 -158 -179q-14 -13 -14 -29.5t11 -25.5q22 -17 59 -16q82 3 216 28q24 5 35.5 15t9.5 27q-4 27 -44 21q-154 -22 -187 -24q142 138 142 190q0 28 -27.5 43.5t-72.5 8.5 q32 19 55 48.5t25 53.5t-14.5 45t-42.5 26q-63 13 -141 -7q-43 -10 -44 -32zM381 488q5 -58 35 -58q25 0 25 62q0 33 1 59q33 23 115 66q-5 -80 1 -136q2 -16 10 -26t24 -9q26 2 26 36q-1 86 12 236q5 49 -24 52q-32 3 -39 -46q-4 -24 -5 -47q-79 -31 -117 -52q2 56 4 76 q1 14 -6 26t-17 15q-17 4 -27 -5.5t-12 -23.5q-15 -110 -6 -225z" />
<glyph unicode="&#xac2c;" horiz-adv-x="700" d="M26.5 455q-2.5 -12 2.5 -21q13 -24 43 -9q22 11 60.5 23t62.5 13q-27 -129 -37 -235q2 -40 13 -49q5 -4 13 -6q14 -2 22.5 6t10.5 22q20 155 48 271q5 24 -11.5 43t-47.5 19q-29 0 -83.5 -16.5t-83.5 -40.5q-10 -8 -12.5 -20zM365 181q-4 -57 4 -119q2 -14 10.5 -24 t19.5 -7q24 6 24 38q-2 69 4 122q5 0 13 3q76 30 114 37q-9 -30 -23 -63.5t-33.5 -74t-21.5 -45.5q-10 -27 10.5 -40t48.5 -3q30 10 72.5 30.5t62.5 35.5q13 10 20.5 27.5t-1.5 31.5q-9 9 -33 -3q-78 -40 -102 -49q57 95 63 168q2 24 -15.5 37.5t-44.5 8.5q-76 -14 -122 -36 q4 33 -25 42q-22 4 -31 -27q-10 -33 -14 -90zM379 402q0 -39 25 -51q12 -5 25.5 3t12.5 21q-3 70 0 126q13 -3 25 0q46 13 110 41q0 -26 -1 -70t-1 -66q0 -44 22 -44q11 0 24 12t13 24q6 124 0 248q-1 20 -11 31.5t-19 11.5q-27 0 -27 -48v-39q-61 -26 -131 -45q1 28 6 63 q5 44 -19 46q-16 1 -28 -12t-16 -33q-13 -137 -10 -219z" />
<glyph unicode="&#xac2d;" horiz-adv-x="680" d="M22 523q5 -17 24.5 -19.5t27.5 3.5q88 36 128 42q-24 -121 -17 -216q1 -15 12.5 -26t27.5 -7q15 3 17 39q6 132 28 211q9 30 -8 48t-53 20q-31 1 -91 -20t-78 -36q-24 -20 -18 -39zM341 60q3 -17 14 -25.5t23 -7.5q13 2 19 10t6 18.5t-1 21.5q-5 50 3 188q3 43 -30 55 q-10 4 -17.5 -5.5t-9.5 -21.5q-25 -133 -7 -233zM390 683q-17 -128 1 -249q9 -57 38 -58q20 0 21 19q-5 65 -5 110q72 38 117 53q0 -75 9 -123q7 -42 35 -43q22 0 21 31q-8 137 4 257q2 17 -5.5 38.5t-23.5 26.5q-14 4 -21.5 -6t-10.5 -33q-6 -42 -7 -87q-66 -21 -116 -42 q1 28 7 86q2 54 -28 54q-33 2 -36 -34zM439 77q-7 -38 4.5 -77.5t41.5 -49.5q28 -8 52.5 8.5t35.5 50.5q37 107 43 280q0 45 -27 45q-8 -1 -15 -5t-14.5 -18.5t-8.5 -38.5q-1 -23 -3 -46q-93 -39 -109 -149zM485 59q3 69 56 97q-9 -56 -28 -116q-8 -19 -20 -16q-11 1 -8 35z " />
<glyph unicode="&#xac2f;" horiz-adv-x="691" d="M21.5 465q-2.5 -12 2.5 -21q13 -24 43 -9q22 11 60.5 23t62.5 13q-27 -129 -37 -235q2 -40 13 -49q5 -4 13 -6q14 -2 22.5 6t10.5 22q20 155 48 271q5 24 -11.5 43t-47.5 19q-29 0 -83.5 -16.5t-83.5 -40.5q-10 -8 -12.5 -20zM326.5 44q-4.5 9 2.5 23q18 58 78 138 t112 115q22 15 42 3q23 -13 -5 -41q-25 -23 -63 -71q12 1 27 -5q69 -33 144 -178q22 -41 5 -49q-26 -11 -54 26q-6 8 -38 52t-55.5 73.5t-43.5 49.5l-5 5q-69 -90 -87 -134q-7 -15 -19 -21t-21 -3q-8 3 -11.5 5.5t-8 11.5zM364 392q0 -39 25 -51q12 -5 25.5 3t12.5 21 q-3 68 0 122q13 -13 35 -6q46 13 110 41v-126q0 -41 20 -44q13 -1 25 11t12 25q5 106 0 248q-1 20 -11 31.5t-19 11.5q-26 0 -26 -48l-1 -49q-64 -27 -142 -48q4 48 7 76q5 44 -19 46q-16 1 -28 -12t-16 -33q-13 -137 -10 -219z" />
<glyph unicode="&#xac30;" horiz-adv-x="700" d="M26.5 520q-2.5 -12 2.5 -21q13 -24 43 -9q22 11 60.5 23t62.5 13q-27 -129 -37 -235q2 -40 13 -49q5 -4 13 -6q14 -2 22.5 6t10.5 22q20 155 48 271q5 24 -11.5 43t-47.5 19q-29 0 -83.5 -16.5t-83.5 -40.5q-10 -8 -12.5 -20zM273 49q4 -13 15 -15q33 -5 46 28 q23 57 48 99q32 -43 104 -36q-48 -83 -59 -127q-6 -22 15 -29q16 -5 29 3t19 22q27 66 60 117q17 -12 32 -24t31 -28t23 -23.5t24 -27t19 -21.5q21 -24 48 -8q22 13 10 37q-14 26 -61 77t-74 54q-14 2 -21 5t-3 8q30 44 56 77q10 15 8.5 29t-10.5 18q-21 10 -44 -17 q-36 -41 -61 -73q-8 -11 -20 -14q-30 -6 -55.5 3.5t-39.5 27.5q8 15 49 69q10 14 6.5 28.5t-17.5 17.5q-20 5 -52 -30q-88 -98 -124 -218q-5 -16 -1 -29zM369 427q0 -39 25 -51q12 -5 25.5 3t12.5 21q-2 70 -2 103q15 -9 32 -3q46 13 110 41v-126q0 -41 20 -44q13 -1 25 11 t12 25q5 111 0 261q-1 20 -11 31.5t-19 11.5q-26 0 -26 -48l-1 -62q-54 -22 -141 -48q1 54 8 117q5 42 -15 46q-16 3 -28 -10.5t-16 -34.5q-17 -99 -11 -244z" />
<glyph unicode="&#xac31;" horiz-adv-x="670" d="M22 422q5 -17 24.5 -19.5t27.5 3.5q89 37 125 42q-32 -119 -17 -216q3 -15 15 -26t28 -7q9 2 14 10.5t5.5 15t-0.5 19t-1 13.5q1 101 27 192q9 30 -8 48t-53 20q-31 1 -91 -20t-78 -36q-24 -20 -18 -39zM364 607q-10 -128 12 -249q11 -56 40 -56q21 0 20 20q-6 61 -9 109 q72 41 114 58q2 -91 15 -156q8 -42 38 -42q23 0 20 33q-1 14 -3.5 52t-4 57t-2.5 50t-0.5 57.5t2.5 53.5q1 22 -9 44t-34 22q-16 0 -19 -42q-3 -34 -3 -69q-64 -22 -115 -45q0 42 3 86q1 21 -6.5 37t-23.5 16q-32 0 -35 -36zM378 82q0 -32 17.5 -47.5t48.5 -9.5 q40 10 75.5 37.5t48.5 53.5q7 14 9.5 29.5t0.5 31t-13.5 29.5t-31.5 21q1 19 -12 26.5t-33 0.5q-46 -20 -77 -69.5t-33 -102.5zM446 98q4 25 23.5 55t39.5 45q16 -3 20 -19t-3 -25q-28 -45 -80 -56z" />
<glyph unicode="&#xac38;" horiz-adv-x="707" d="M20 407q5 -9 16.5 -17t22.5 -3q73 30 113 35q-21 -136 -21 -200q0 -42 25 -48q11 -3 22 4t12 26q13 159 25 213q6 31 -9 49.5t-50 18.5q-37 -1 -79.5 -15t-66.5 -29q-21 -13 -10 -34zM372 571q-10 -224 19 -350q9 -38 33 -32q9 2 17 17t6 30q-14 102 -14 216 q83 22 157 19q32 -2 36 8q4 8 -2.5 19.5t-18.5 17.5q-51 24 -171 -1q0 34 1 52q0 13 -14 27.5t-27 11.5q-20 -5 -22 -35zM453 333q1 -15 16 -23t33 -7q77 5 158 24q46 14 43 34q-3 28 -48 24q-98 -3 -170 -24q-14 -3 -23.5 -9t-8.5 -19z" />
<glyph unicode="&#xac39;" horiz-adv-x="682" d="M26.5 465q-2.5 -12 2.5 -21q13 -24 43 -9q22 11 60.5 23t62.5 13q-27 -129 -37 -235q2 -40 13 -49q5 -4 13 -6q14 -2 22.5 6t10.5 22q20 155 48 271q5 24 -11.5 43t-47.5 19q-29 0 -83.5 -16.5t-83.5 -40.5q-10 -8 -12.5 -20zM305 182q5 -11 20 -14t28 3q9 4 31.5 16 t43 21t38.5 10q-8 -85 -27 -163q-9 -35 15 -45q12 -5 25 1.5t18 22.5q22 65 30 177q3 34 -17 51.5t-43 17.5q-55 0 -149 -60q-8 -5 -13 -17t0 -21zM412 655q-4 -53 2.5 -152.5t18.5 -140.5q5 -17 15 -25.5t19 -8.5q8 0 15 6t6 17q-5 49 -7 71q9 -3 40 -3q58 0 114 14 q13 3 24 14.5t10 19.5q-3 23 -38 21q-99 -6 -154 -29q-11 125 -11 196q1 11 -11 20.5t-23 9.5q-17 0 -20 -30zM494 548q15 -17 37 -8q36 12 110 20q31 4 35 21q2 10 -5 17t-17 8q-89 9 -151 -19q-30 -14 -9 -39z" />
<glyph unicode="&#xac3c;" horiz-adv-x="730" d="M22 423q5 -17 24.5 -19.5t27.5 3.5q89 37 125 42q-32 -119 -17 -216q3 -15 15 -26t28 -7q9 2 14 10.5t5.5 15t-0.5 19t-1 13.5q1 101 27 192q9 30 -8 48t-53 20q-31 1 -91 -20t-78 -36q-24 -20 -18 -39zM321 74q0 -70 78 -59q46 6 108 23.5t97 35.5q53 27 48 54 q-1 5 -3 7.5t-5.5 3.5t-7 1.5t-8.5 -0.5t-8 -2t-9 -2.5t-8 -2.5q-114 -36 -211 -44q1 20 17 112q3 14 -4 26t-20 13q-20 4 -36 -34q-26 -67 -28 -132zM402 657q-5 -70 1 -176.5t18 -162.5q4 -17 18.5 -27.5t26.5 -7.5t14 17.5t-1 33.5q-2 16 -3 23q27 -14 49 -8 q98 24 149 36q23 7 39.5 18t15.5 25q-1 13 -64 8q-78 -6 -193 -37q-12 133 -7 260q1 10 -11.5 20.5t-27.5 8.5q-7 0 -15 -8t-9 -23zM488 517q4 -7 15.5 -9.5t21.5 1.5q73 23 125 23q30 0 37 19q2 5 0 10t-5 7l-4 3q-70 30 -181 -12q-31 -12 -9 -42z" />
<glyph unicode="&#xac40;" horiz-adv-x="660" d="M25 507q6 -10 20.5 -11.5t31.5 7.5q82 46 113 56q-35 -98 -43 -215q-3 -47 17 -50q11 -2 25 11.5t17 32.5q18 123 46 214q10 33 -8 53t-56 15q-32 -4 -79 -26.5t-67 -39.5q-33 -26 -17 -47zM287 297q-2 -17 6 -27t22 -8q96 8 116 7q-13 -15 -95 -76q-13 -10 -17 -25 t2 -23q10 -20 32 -18q49 11 94 11q-32 -62 -93 -136q-22 -23 -23 -50q0 -27 20 -41t54 -10q103 11 226 47q17 4 30 14.5t10 22.5q-3 11 -20 18.5t-34 4.5q-8 -2 -39 -8.5t-53 -11t-54.5 -9.5t-57.5 -7q85 108 97 157q7 32 -16 50t-68 16q10 3 31 22.5t31 34.5q19 30 8 52.5 t-49 28.5q-70 10 -132 -9q-27 -8 -28 -27zM386.5 574q0.5 -84 12.5 -136q2 -15 12.5 -24t23.5 -9q12 0 17.5 6t5.5 22q-4 23 -5 55q11 -4 52 -4q58 0 114 14q12 3 22.5 14t11.5 20q1 11 -10 16.5t-28 4.5q-93 -5 -163 -30q-3 97 5 161q2 13 -7 28.5t-24 16.5 q-12 1 -20.5 -7.5t-8.5 -17.5q-11 -46 -10.5 -130zM475 611q12 -13 37 -8q64 15 114 20q25 3 31 17q3 9 -4.5 16.5t-17.5 8.5q-89 9 -151 -19q-27 -13 -9 -35z" />
<glyph unicode="&#xac4b;" horiz-adv-x="688" d="M24 444q6 -10 20.5 -11.5t31.5 7.5q82 46 113 56q-39 -109 -49 -214q-5 -46 17 -50q11 -2 25 11.5t17 32.5q12 82 52 213q10 33 -8 53t-56 15q-32 -4 -79 -26.5t-67 -39.5q-33 -26 -17 -47zM260 59q-12 -33 3 -57q11 -12 24 -7q19 6 25 35q28 52 76 122q47 -39 170 -162 q17 -17 28 -18t17 7q7 8 4 24t-15 31q-110 138 -179 156q7 10 22.5 31.5t22.5 30.5q9 25 3.5 39t-13.5 18q-15 13 -34 -6q-33 -37 -86 -121t-68 -123zM403.5 527.5q3.5 -94.5 16.5 -149.5q2 -15 12.5 -24t23.5 -9q12 0 17.5 6t5.5 22q-9 61 -11 183q18 -10 42 -7 q22 3 73.5 10t61.5 8q17 2 27.5 9.5t9.5 17.5q-1 11 -16 20t-31 10q-72 2 -167 -31q0 35 3 58q2 13 -7 28.5t-24 16.5q-12 1 -20.5 -7.5t-8.5 -17.5q-11 -49 -7.5 -143.5zM487.5 444q-3.5 -11 7.5 -25q15 -17 37 -8q55 17 110 23q31 4 35 21q2 10 -5 17t-17 8 q-89 9 -151 -19q-13 -6 -16.5 -17z" />
<glyph unicode="&#xac4d;" horiz-adv-x="730" d="M19 422q6 -31 42 -22q10 2 50 14.5t56 15.5q-42 -200 -45 -240q0 -13 6.5 -25.5t18.5 -15.5q29 -7 38 30q10 68 46 259q7 34 -11 50t-48 9q-80 -15 -131 -37q-27 -11 -22 -38zM346 82q2 -23 20 -36t45 -9q65 11 113 72q13 17 16.5 39t0 38t-10.5 27q-8 13 -21 21.5 t-24 2.5q-2 8 -9 14q-12 8 -44 -14q-43 -29 -67.5 -70t-18.5 -85zM368 292q2 -27 27 -27q10 0 18.5 10.5t9.5 27.5q6 134 9 202q58 14 159 22q43 4 43 22q0 8 -12 17t-29 11q-63 8 -158 -15q0 21 1 32q0 53 -22 58q-14 4 -24.5 -6.5t-11.5 -23.5q-19 -207 -10 -330zM407 95 q-1 38 66 105l2 2q9 -22 6 -36q-4 -18 -25.5 -40t-48.5 -31zM445 407.5q2 -9.5 14 -17.5q28 -23 58 -15q98 24 149 36q23 7 39.5 18t15.5 25q-1 13 -64 8q-76 -6 -198 -38q-16 -7 -14 -16.5z" />
<glyph unicode="&#xac54;" horiz-adv-x="718" d="M22 408q8 -19 25.5 -22t25.5 4q60 30 100 36q-14 -52 -19.5 -114t4.5 -127q4 -11 18 -21t25 -7q9 2 13.5 10t4.5 15.5t-1.5 18.5t-1.5 14q2 118 28 212q9 30 -8 48t-53 20q-29 1 -74 -18.5t-68 -34.5q-25 -16 -19 -34zM344 398q0 -73 8 -124q9 -61 39 -61q10 0 16 5t5 15 q-5 85 -2 179q8 -3 20 2q51 26 112 40q27 6 28 30q0 22 -46 20q-55 -3 -111 -33q1 6 2 19t2 20q1 19 -9 35t-24 22q-12 3 -20.5 -8t-10.5 -29q-9 -59 -9 -132zM434 331q3 -12 18 -18.5t26 -5.5q52 7 105 41q2 -47 6 -84q9 -74 37 -74q7 0 15.5 8.5t7.5 24.5q-5 230 6 332 q6 63 -38 68q-17 3 -22 -40q-12 -91 -12 -187q-42 -19 -124 -34q-32 -7 -25 -31z" />
<glyph unicode="&#xac58;" horiz-adv-x="690" d="M22 443q5 -17 24.5 -19.5t27.5 3.5q89 37 125 42q-32 -119 -17 -216q3 -15 15 -26t28 -7q9 2 14 10.5t5.5 15t-0.5 19t-1 13.5q1 101 27 192q9 30 -8 48t-53 20q-31 1 -91 -20t-78 -36q-24 -20 -18 -39zM364 598q-10 -128 12 -249q11 -56 40 -56q21 0 20 20 q-10 81 -10 158q61 37 135 69q-2 -49 1 -89q-5 -2 -96 -30q-27 -8 -22 -34q3 -13 15.5 -18t23.5 -4q42 8 82 32q6 -50 11 -74q8 -42 38 -42q23 0 20 33q-1 13 -4 52.5t-4 58t-2 50t-0.5 58t2.5 53.5q1 22 -9 44t-34 22q-16 0 -19 -42q0 -2 -0.5 -5t-0.5 -5 q-101 -40 -136 -56q0 11 2 37q1 21 -6.5 37t-23.5 16q-32 0 -35 -36zM415 99q0 -36 17 -51.5t61 -7.5q90 16 172 55q54 27 48 55q-1 6 -4.5 9.5t-10.5 3t-10.5 -1t-13 -4t-10.5 -3.5q-101 -34 -179 -44q1 27 16 112q3 14 -4 26t-20 13q-20 4 -36 -35q-22 -53 -26 -127z" />
<glyph unicode="&#xac5c;" horiz-adv-x="670" d="M24 549q3 -13 15 -19.5t26 -1.5q63 21 107 26q-19 -147 -24 -275q-1 -18 6 -28t19 -10q13 0 25 9.5t13 23.5q1 17 4.5 63t5.5 72t7.5 69.5t12.5 84.5q5 31 -13 44t-52 11q-66 -4 -126 -30q-12 -5 -20.5 -16t-5.5 -23zM336 294q2 -32 42 -24q15 3 26 5.5t29 5.5t30.5 4.5 t25 1.5t18.5 -3.5t5 -9.5q-2 -13 -38 -42t-83 -56q-17 -10 -24.5 -20t-5.5 -27q6 -36 57 -26q87 15 113 14q-14 -33 -57.5 -83t-77.5 -80q-19 -19 -10 -39q10 -24 40 -26q79 -4 214 23q50 10 45 48q-3 26 -44 18q-131 -18 -158 -20q29 23 71 78t42 88q0 30 -25 47t-70 9 q80 44 80 103q0 25 -18.5 45t-44.5 24q-31 4 -77 -2t-76 -18t-29 -38zM343 574q-1 -80 6 -117q2 -14 5.5 -24t12 -17.5t21.5 -7.5q32 2 24 62q-2 12 -2 22q7 -3 19 2q58 23 105 34q-2 -59 4 -94q3 -16 11 -26t24 -9q27 2 26 36q-5 91 11 273q5 49 -24 52q-34 3 -39 -46 q-1 -3 -1 -11q-97 -21 -134 -35q2 16 3 23q1 14 -6.5 26t-18.5 15q-17 4 -27 -5.5t-12 -23.5q-7 -49 -8 -129zM408 537v56q49 29 132 53q-4 -38 -5 -65q-79 -15 -118 -38q-6 -3 -9 -6z" />
<glyph unicode="&#xac70;" horiz-adv-x="570" d="M17 430q9 -22 48 -9q101 32 102 32q-6 -80 -5 -167q0 -17 0.5 -24.5t3 -16.5t8.5 -11.5t16 -0.5q10 3 19.5 16t11.5 35q2 45 4 66q33 18 105 59t113 63q0 -40 4.5 -106.5t10.5 -93.5q9 -39 30 -39q9 0 18 9t8 27q-8 98 -3 247q0 12 -14 24t-31 6q-106 -54 -237 -130 q0 5 1.5 20t2.5 24q1 30 -15 42.5t-37 11.5q-67 -2 -136 -37q-12 -6 -22.5 -19t-5.5 -28z" />
<glyph unicode="&#xac71;" horiz-adv-x="610" d="M14 508q3 -13 15 -19.5t26 -1.5q66 22 103 26q-23 -179 -24 -275q-1 -12 10.5 -25t19.5 -13q11 -1 22 8t11 16q3 95 14 187q81 46 271 135q0 -104 13 -166q9 -39 30 -39q9 0 18 9t8 27q-1 13 -1 216q0 16 -15 26.5t-39 0.5q-122 -52 -276 -142q4 31 7 44q5 30 -15 43 t-50 12q-56 -2 -122 -30q-12 -5 -20.5 -16t-5.5 -23zM323 231q-10 -18 7 -30q20 -13 38 -2q60 38 105 44q0 -119 -9 -179q-2 -10 5.5 -19t17.5 -10q24 -4 32 14q8 23 13.5 91t1.5 99q-4 35 -19 49.5t-41 15.5q-34 1 -78.5 -18.5t-72.5 -54.5z" />
<glyph unicode="&#xac74;" horiz-adv-x="600" d="M16.5 458q-2.5 -12 2.5 -21q13 -24 43 -9q44 23 87 24q-27 -129 -37 -235q2 -40 13 -49q5 -4 13 -6q14 -2 22.5 6t10.5 22q20 155 48 271q5 24 -11.5 43t-47.5 19q-77 0 -131 -45q-10 -8 -12.5 -20zM246 356q12 -22 58 -4q88 36 169 90q2 -106 13 -156q12 -57 34 -57 q12 0 20 10.5t6 31.5q-16 178 -2 302q1 23 -8.5 39t-19.5 16q-26 0 -36 -55q-4 -24 -6 -60q-38 -25 -202 -112q-39 -21 -26 -45zM297 122q-9 -35 3.5 -52t51.5 -18q55 -2 137 11t109 27q36 20 36 40q0 11 -12 14.5t-25 0.5q-151 -28 -233 -28q11 32 41 102q6 13 -4.5 30 t-22.5 18q-11 1 -27 -20q-37 -56 -54 -125z" />
<glyph unicode="&#xac77;" horiz-adv-x="619" d="M14 512q3 -13 15 -19.5t26 -1.5q66 22 103 26q-23 -179 -24 -275q-1 -12 10.5 -25t19.5 -13q11 -1 22 8t11 16q3 95 14 187q81 46 271 135q0 -108 13 -170q9 -39 30 -39q9 0 18 9t8 27q-1 13 -1 220q0 16 -15 26.5t-39 0.5q-122 -52 -276 -142q4 32 7 44q5 30 -15 43 t-50 12q-56 -2 -122 -30q-12 -5 -20.5 -16t-5.5 -23zM345 232q7 -27 40 -18q0 -1 -1 -4q-15 -47 -17 -118q-1 -46 36 -55q15 -4 34 -1q39 7 90 30.5t77 43.5q25 20 19 37q-7 20 -39 6q-86 -39 -155 -53q0 46 13 100q3 18 -10 28q68 20 133 31q25 3 27 25q1 9 -7.5 17 t-26.5 8q-85 -2 -185 -36q-16 -5 -23.5 -18.5t-4.5 -22.5z" />
<glyph unicode="&#xac78;" horiz-adv-x="620" d="M14 570q3 -13 15 -19.5t26 -1.5q65 22 103 26q-23 -179 -24 -275q-1 -12 10.5 -25t19.5 -13q11 -1 22 8t11 16q6 127 15 197q13 -3 29 3q111 46 237 86q-2 -66 -2 -98q0 -40 18 -45q15 -4 26 10t14 41q13 94 6 232q-1 14 -9.5 28t-21.5 13q-14 -1 -21.5 -12t-8.5 -26v-83 q-188 -48 -256 -93q-2 -1 -4 -3q2 8 4.5 24t3.5 24q5 30 -15 43t-50 12q-56 -2 -122 -30q-12 -5 -20.5 -16t-5.5 -23zM295 332q1 -14 16.5 -20t33.5 -1q74 20 104 22q23 3 25 -9q2 -13 -31.5 -51.5t-74.5 -69.5q-30 -23 -23 -47q11 -33 60 -16q78 26 109 29 q-29 -68 -130 -200q-11 -16 -8.5 -32t13.5 -23q28 -14 61 -7q83 15 210 60q47 16 38 48q-3 11 -15.5 15t-31.5 -1q-158 -46 -181 -51q120 160 112 209q-4 27 -32.5 38t-74.5 -2q29 23 47.5 56t16.5 57q-1 24 -20.5 42t-45.5 20q-62 3 -139 -28q-16 -7 -28 -16.5t-11 -21.5z " />
<glyph unicode="&#xac7a;" horiz-adv-x="690" d="M16 519q9 -22 48 -9q101 32 102 32q-6 -80 -5 -167q0 -17 0.5 -24.5t3 -16.5t8.5 -11.5t16 -0.5q10 3 19.5 16t11.5 35q1 24 6 94q10 2 15 4q126 52 237 86q-2 -82 -2 -119q0 -40 18 -45q15 -4 26 10t14 41q13 97 6 242q-1 14 -9.5 28t-21.5 13q-14 -1 -21.5 -12 t-8.5 -26v-72q-173 -46 -249 -89q0 4 1 11t1 10q1 30 -15 42.5t-37 11.5q-67 -2 -136 -37q-12 -6 -22.5 -19t-5.5 -28zM205.5 263q-4.5 -12 3.5 -25q14 -17 39 -9q2 1 27 8.5t38 9.5q17 3 20.5 -2t-0.5 -12q-12 -35 -86 -90q-22 -15 -16 -34q3 -13 17.5 -19t29.5 1 q30 18 73 24q-87 -98 -87 -137q0 -24 18 -39t49 -7q81 21 151 73q15 10 23 26t2 25q-15 23 -50 0q-49 -33 -121 -53q40 59 73 94q25 29 21 51q-2 14 -23.5 20.5t-54.5 0.5q40 38 50 71q8 21 -9 40t-47 22q-69 6 -126 -23q-10 -4 -14.5 -16zM450.5 239.5 q0.5 -64.5 8.5 -102.5q3 -13 12 -22t20 -7q23 4 20 40q-5 46 -3 102q8 -3 21 1q9 3 30.5 18.5t31.5 17.5q-16 -108 -45 -173q-12 -26 6.5 -44.5t45.5 -10.5q61 17 94 40q13 10 22.5 27t0.5 28q-11 11 -31 1q-8 -4 -26 -13.5t-29 -14t-20 -6.5q3 13 15.5 50t21.5 70.5 t10 55.5q1 24 -17.5 37t-42.5 9q-37 -6 -80 -34q-2 -1 -4 -3q0 6 1 9q2 15 -5.5 26.5t-22.5 14.5q-22 4 -29 -28q-6 -24 -5.5 -88.5z" />
<glyph unicode="&#xac80;" horiz-adv-x="606" d="M22.5 482q-2.5 -12 2.5 -21q13 -24 43 -9q57 30 100 31q-29 -140 -39 -242q2 -40 13 -49q5 -4 13 -6q14 -2 22.5 6t10.5 22q20 155 48 271q5 24 -11.5 43t-47.5 19t-72.5 -11t-69.5 -34q-10 -8 -12.5 -20zM244 400q12 -22 58 -4q86 36 165 87q0 -37 3 -57q8 -57 30 -60 q12 -1 21.5 9t8.5 30q-4 69 12 200q3 23 -7 39t-21 16q-26 0 -36 -55q-6 -32 -7 -48q-42 -27 -201 -112q-39 -21 -26 -45zM298 262q-3 -99 23 -165q4 -10 16.5 -15.5t24.5 -0.5q18 7 12 26q-17 70 -17 108q7 -13 23 -5q55 27 89 35q-9 -37 -66 -167q-13 -27 15 -47 q16 -12 39 -8q79 14 169 58q17 10 23.5 25.5t5.5 24.5q-1 10 -16 11.5t-27 -3.5q-111 -39 -131 -44q45 93 54 155q4 29 -12.5 44t-45.5 15q-11 0 -29.5 -5.5t-32.5 -12t-35 -15.5t-25 -11q1 29 -30 36q-9 2 -15 -4t-7.5 -11.5t-3.5 -18.5q-1 -4 -1 -5z" />
<glyph unicode="&#xac81;" horiz-adv-x="580" d="M16.5 586q-2.5 -12 2.5 -21q13 -24 43 -9q49 26 97 27q-27 -129 -37 -235q2 -40 13 -49q5 -4 13 -6q14 -2 22.5 6t10.5 22q13 102 25 166q38 16 120 52.5t127 54.5q-5 -34 -8.5 -99.5t-1.5 -97.5q5 -39 27 -41q8 -1 18 7t11 26q2 113 20 240q1 12 -12 25.5t-30 9.5 q-126 -50 -258 -113q6 26 10 41q5 24 -11.5 43t-47.5 19q-30 0 -71.5 -12t-69.5 -36q-10 -8 -12.5 -20zM273.5 189q0.5 -66 11.5 -109q7 -30 32 -26q25 3 21 44q-9 73 -1 167q3 35 -32 46q-20 5 -25 -24q-7 -32 -6.5 -98zM368 89q-4 -34 9 -67t42 -39q27 -6 50 8.5t33 44.5 q32 99 27 259q-1 20 -7.5 29t-20.5 8q-34 -3 -34 -54q0 -39 -1 -57q-85 -36 -98 -132zM414 75q0 57 48 86q-6 -53 -20 -101q-7 -17 -19 -15q-9 1 -9 30z" />
<glyph unicode="&#xac83;" horiz-adv-x="630" d="M20 439q20 -27 55 -9q53 28 90 32q-27 -90 -45 -180q-7 -26 -3.5 -41.5t22.5 -16.5q10 0 22 10.5t19 32.5q13 52 30 112q10 -4 19.5 -2.5t12.5 4.5q126 73 254 117q-2 -72 5 -111q6 -41 31 -41q4 0 7.5 1t6 3.5t4 5t2.5 6.5t2 7t1 8v7v7v6q0 130 17 209q5 22 -4 35 q-22 27 -35.5 26.5t-20.5 -19.5q-9 -24 -15 -96q-157 -43 -270 -115q1 2 3.5 9t3.5 11q7 24 -6 41.5t-33 22.5q-75 19 -161 -42q-26 -20 -14 -40zM299.5 54q-1.5 -6 5 -10.5t8 -5t8.5 -2.5q10 -3 21.5 1.5t16.5 19.5q8 41 60 126q18 -23 38.5 -54t44.5 -70t31 -50 q23 -38 51 -28q19 7 -1 49l-9 20q-10 19 -12.5 23.5t-11.5 22.5t-13.5 25t-13.5 22.5t-16 23t-16 18.5t-17.5 18t-17.5 12q-1 1 -14 5q37 54 55 74q23 28 -1 41q-21 11 -41 -5q-48 -42 -96.5 -123t-58.5 -135q1 -12 -0.5 -18z" />
<glyph unicode="&#xac84;" horiz-adv-x="610" d="M19 499q3 -13 15 -19.5t26 -1.5q63 21 108 26q-23 -147 -24 -245q-1 -13 8.5 -25.5t16.5 -12.5q11 -1 22 8t11 16q5 97 16 178q13 -3 28 3q126 52 237 86q-2 -86 -2 -125q0 -41 18 -45q15 -4 26 10t14 41q14 98 6 248q-1 14 -9.5 28t-21.5 13q-14 -1 -21.5 -12t-8.5 -26 v-72q-188 -48 -256 -93l-2 -2l6 36q5 30 -15 43t-50 12q-56 -2 -122 -30q-12 -5 -20.5 -16t-5.5 -23zM227 120q-11 -44 9 -55q23 -10 42 29q30 74 41 91q39 -39 92 -42q-39 -72 -44 -106q-1 -22 16 -27q29 -6 42 25q19 42 46 90q0 -1 1 -1q64 -58 121 -133q20 -25 39 -13 q22 14 -2 61q-20 40 -59 79t-64 45q-6 1 -14 1q15 27 48 80q11 16 12.5 33.5t-8.5 22.5q-20 9 -49 -20q-23 -27 -60 -87q-21 -1 -51 11t-43 27q12 23 36 59q9 17 5 30t-13 17q-17 5 -46 -26q-61 -71 -97 -191z" />
<glyph unicode="&#xac85;" horiz-adv-x="602" d="M14 477q3 -13 15 -19.5t26 -1.5q66 22 103 26q-23 -179 -24 -275q-1 -12 10.5 -25t19.5 -13q11 -1 22 8t11 16q6 134 16 208q14 -3 28 3q126 52 237 86q0 -13 -1.5 -73.5t-1.5 -85.5q0 -41 18 -45q15 -4 26 10t14 41q6 47 8 136t-1 146q-1 14 -9.5 28t-21.5 13 q-14 -1 -21.5 -12t-8.5 -26v-21v-26.5v-24.5q-188 -48 -256 -93l-2 -1q2 11 6 35q5 30 -15 43t-50 12q-56 -2 -122 -30q-12 -5 -20.5 -16t-5.5 -23zM337 90q2 -19 14 -34t31 -19q42 -9 93.5 32t62.5 90q10 54 -28 68q-29 10 -58 -2q0 13 -12 19q-18 8 -45 -10 q-31 -20 -47.5 -61.5t-10.5 -82.5zM403 104q-4 49 31 91q26 5 38 -0.5t5 -21.5q-20 -45 -74 -69z" />
<glyph unicode="&#xac86;" horiz-adv-x="608" d="M14 496q3 -13 15 -19.5t26 -1.5q66 22 103 26q-23 -179 -24 -275q-1 -12 10.5 -25t19.5 -13q11 -1 22 8t11 16q6 134 16 208q14 -3 28 3q126 52 237 86q-2 -82 -2 -119q0 -40 18 -45q15 -4 26 10t14 41q13 97 6 242q-1 14 -9.5 28t-21.5 13q-14 -1 -21.5 -12t-8.5 -26 v-72q-188 -48 -256 -93l-2 -1q2 11 6 35q5 30 -15 43t-50 12q-56 -2 -122 -30q-12 -5 -20.5 -16t-5.5 -23zM287 190q-12 26 13 44q24 19 70.5 42.5t84.5 30.5q35 7 53 -3q14 -8 19.5 -23.5t-4.5 -35.5q-42 -65 -63 -99q25 2 50 -19q34 -31 65 -78t44 -89q6 -18 -11 -28 q-10 -6 -26 0.5t-26 25.5q-54 95 -112 158q-23 -42 -38 -80q-8 -18 -21 -23.5t-21 -2.5q-27 13 -11 58q40 105 94 172q-50 -18 -112 -56q-17 -9 -29.5 -6.5t-18.5 12.5z" />
<glyph unicode="&#xac89;" horiz-adv-x="710" d="M21 467q20 -21 51 -3q80 48 143 45q-53 -138 -59 -278q-2 -33 27 -34q15 0 28 7.5t13 23.5q14 148 59 260q26 74 -52 84q-53 7 -109.5 -11t-94.5 -46q-28 -21 -6 -48zM301 427q4 -16 21 -17.5t33 9.5q85 48 217 97q3 -53 10 -84q12 -57 34 -57q12 0 19.5 10.5t6.5 31.5 q-11 163 -1 277q1 23 -8 35.5t-20 12.5q-27 0 -36 -48q-8 -39 -8 -115q-133 -40 -241 -101q-33 -19 -27 -51zM380 258q9 -36 41 -26q126 36 212 49q18 3 27 14.5t6 19.5q-9 23 -62 21q-30 -2 -98 -16t-104 -29q-28 -11 -22 -33zM426 1.5q1 -14.5 4 -26.5q11 -42 56 -42 q34 0 89.5 22.5t102.5 54.5q28 18 44 39.5t13 31.5q-2 7 -9.5 11t-21.5 -1q-122 -70 -213 -88q0 35 13 96q43 13 146 38q18 4 28.5 14t10.5 23q0 23 -41 19q-44 -4 -129 -28q2 6 4 18q3 16 -5 28.5t-25 16.5q-10 2 -16 -5.5t-12 -25.5q0 -1 -3.5 -10.5t-6 -17.5t-7 -22 t-7.5 -26.5t-7 -28.5t-5.5 -31t-2.5 -30t0 -29.5z" />
<glyph unicode="&#xac8a;" horiz-adv-x="620" d="M22.5 511q-2.5 -12 2.5 -21q13 -24 43 -9q43 22 98 24q-27 -129 -37 -235q2 -40 13 -49q5 -4 13 -6q14 -2 22.5 6t10.5 22q20 155 48 271q5 24 -11.5 43t-47.5 19t-72.5 -11t-69.5 -34q-10 -8 -12.5 -20zM251 449q12 -22 58 -4q89 37 158 84q0 -37 3 -57q8 -57 30 -60 q12 -1 21.5 9t8.5 30q-4 69 12 200q3 23 -7 39t-21 16q-26 0 -36 -55q-6 -32 -7 -48q-44 -29 -194 -109q-39 -21 -26 -45zM291 263q8 -30 46 -15q7 2 21.5 7t22.5 7q-7 -6 -12 -22q-21 -60 -21 -129q2 -49 28 -50q13 -1 17.5 9.5t9.5 35.5q11 74 26 124q3 10 -5 23t-19 16 q92 26 158 31q23 4 29 23q2 12 -11 20.5t-29 8.5q-54 1 -121.5 -13t-119.5 -37q-27 -14 -20 -39zM358 -27q5 -11 20 -16.5t33 -1.5q176 41 241 48q11 2 20 11t10 20t-7.5 19.5t-21.5 8.5q-68 -1 -190 -32q24 23 61 85.5t43 99.5q4 22 -20 24q-20 2 -30 -20 q-52 -113 -143 -206q-25 -25 -16 -40z" />
<glyph unicode="&#xac8b;" horiz-adv-x="600" d="M22.5 546q-2.5 -12 2.5 -21q13 -24 43 -9q43 22 98 24q-27 -129 -37 -235q2 -40 13 -49q5 -4 13 -6q14 -2 22.5 6t10.5 22q20 155 48 271q5 24 -11.5 43t-47.5 19t-72.5 -11t-69.5 -34q-10 -8 -12.5 -20zM251 484q12 -22 58 -4q82 34 158 84q-4 -109 2 -144q8 -57 30 -60 q12 -1 23.5 9t10.5 30q-8 147 9 287q3 23 -7 39t-21 16q-26 0 -36 -55q-4 -20 -6 -48q-45 -29 -195 -109q-39 -21 -26 -45zM308 126q3 -14 15.5 -18.5t25.5 2.5q62 27 99 26q-43 -78 -63 -123q-25 -54 6 -80t83 -1q44 21 70.5 51.5t23.5 65.5q-2 19 -19.5 39t-44.5 26 q4 8 10 17q12 15 5 35t-33 26q-24 6 -65.5 0t-74.5 -20q-43 -19 -38 -46zM336 371q-19 -19 6 -44q42 -44 70 -83q19 -30 34 -26q10 3 13.5 17t-2.5 34q-6 14 -33 50t-39 47q-30 26 -49 5zM441 -15q27 64 41 90q25 -14 24 -34q-1 -14 -24 -33t-41 -23z" />
<glyph unicode="&#xac8c;" horiz-adv-x="720" d="M21 440q15 -27 39 -13q68 37 129 40q-28 -136 -39 -247q2 -40 13 -49q5 -4 13 -6q14 -2 22.5 6t10.5 22q10 72 16 113q37 16 108.5 52t93.5 47q-1 -73 2 -148q1 -25 10 -44t24 -19q12 0 21.5 11t9.5 32q-5 151 4 266q0 12 -9 25t-22 13q-15 0 -26.5 -17t-11.5 -38 q0 -2 -0.5 -5t-0.5 -4q-118 -59 -188 -89q10 48 17 76q5 24 -11.5 45t-47.5 21q-47 0 -96 -14.5t-78 -40.5q-15 -15 -3 -35zM598 267q2 -25 11.5 -47t24.5 -22q26 0 24 41q-3 98 5 255q1 20 -9 39t-24 24q-12 3 -20 -8t-10 -29q-12 -136 -2 -253z" />
<glyph unicode="&#xac90;" horiz-adv-x="710" d="M17 410q5 -17 24.5 -19.5t27.5 3.5q89 37 125 42q-32 -119 -17 -216q3 -15 15 -26t28 -7q9 2 14 10.5t5.5 15t-0.5 19t-1 13.5q0 66 13 136q13 -9 33 0q108 42 134 51q2 -76 13 -120q5 -23 16 -35t22 -10q14 3 20.5 15t3.5 25q-19 120 -3 292q2 28 -22 30q-31 2 -37 -28 q-9 -34 -12 -100q-76 -23 -148 -58q-4 -2 -5 -3q7 29 -10.5 46t-51.5 19q-31 1 -91 -20t-78 -36q-24 -20 -18 -39zM467 70q-6 57 13 124q13 43 31 47q32 0 30 -43q-8 -53 -8 -104q73 17 155 59q19 11 26 0q9 -15 -7 -37q-21 -30 -80 -58t-103 -30q-52 -2 -57 42zM590 322 q3 -29 30 -37q8 -3 20 0.5t12 17.5q-14 181 -2 341q0 13 -9.5 24.5t-21.5 13.5q-11 2 -19 -5.5t-10 -19.5q-19 -155 0 -335z" />
<glyph unicode="&#xac94;" horiz-adv-x="720" d="M22 515q5 -17 24.5 -19.5t27.5 3.5q89 37 125 42q-32 -119 -17 -216q3 -15 15 -26t28 -7q9 2 14 10.5t5.5 15t-0.5 19t-1 13.5q0 66 13 136q13 -9 33 0q133 50 147 55q0 -29 3 -59q1 -22 11.5 -34.5t25.5 -12.5q22 0 23 36q-2 82 6 217q0 12 -12 23.5t-25 11.5 q-23 -2 -26 -49q-4 -41 -5 -64q-79 -21 -161 -62q-4 -2 -5 -3q7 29 -10.5 46t-51.5 19q-31 1 -91 -20t-78 -36q-24 -20 -18 -39zM385 309q2 -14 15 -22t31 -2q94 32 139 42q-17 -29 -64 -79t-75 -71q-28 -20 -19 -45q10 -28 47 -15q96 32 141 38q-117 -122 -166 -199 q-18 -33 3 -56q11 -12 33 -14.5t42 5.5q36 14 116.5 46t124.5 48q12 3 17 16.5t-5 27.5q-13 17 -63 3q-115 -34 -188 -68q15 19 73 85.5t81 95.5q13 17 9 45q-3 27 -51.5 28t-78.5 -11q23 21 53.5 60t43.5 69q6 14 6 24q2 21 -20 29.5t-59 1.5q-66 -13 -154 -44 q-35 -12 -32 -38zM579 511q1 -21 11 -33.5t25 -12.5q24 0 25 36q-3 98 5 224q-2 39 -37 35q-23 -2 -26 -49q-11 -111 -3 -200z" />
<glyph unicode="&#xac9c;" horiz-adv-x="687" d="M21 514q15 -27 39 -13q68 37 129 40q-28 -136 -39 -247q2 -40 13 -49q5 -4 13 -6q14 -2 22.5 6t10.5 22q10 84 20 139q98 50 177 106q0 -29 2 -103q1 -25 10 -44t24 -19q12 0 21.5 11t9.5 32q-4 123 4 226q0 12 -9 25t-22 13q-15 0 -26.5 -17t-11.5 -38q-1 -7 -1 -19 q-78 -51 -162 -90q7 25 12 49t-11.5 45t-47.5 21q-47 0 -96 -14.5t-78 -40.5q-15 -15 -3 -35zM380 186q-4 -57 4 -119q2 -14 10.5 -24t19.5 -7q24 6 24 38q-2 69 4 122q6 0 13 3q76 30 114 37q-9 -30 -23 -63.5t-33.5 -74t-21.5 -45.5q-10 -27 10.5 -40t48.5 -3 q30 10 72.5 30.5t62.5 35.5q13 10 20.5 27.5t-1.5 31.5q-9 9 -33 -3q-78 -40 -102 -49q57 95 63 168q2 24 -15.5 37.5t-44.5 8.5q-76 -14 -122 -36q4 33 -25 42q-22 4 -31 -27q-10 -33 -14 -90zM569 425q2 -25 11.5 -47t24.5 -22q26 0 24 41q-3 82 5 230q1 20 -9 39t-24 24 q-12 3 -20 -8t-10 -29q-11 -124 -2 -228z" />
<glyph unicode="&#xac9d;" horiz-adv-x="710" d="M17 505q5 -17 24.5 -19.5t27.5 3.5q89 37 125 42q-32 -119 -17 -216q3 -15 15 -26t28 -7q9 2 14 10.5t5.5 15t-0.5 19t-1 13.5q0 53 7 96q100 50 184 109q0 -29 2 -103q1 -25 10 -44t24 -19q12 0 21.5 11t9.5 32q-4 123 4 226q0 12 -9 25t-22 13q-15 0 -26.5 -17 t-11.5 -38q-1 -7 -1 -19q-100 -66 -171 -101l6 21q9 30 -8 48t-53 20q-31 1 -91 -20t-78 -36q-24 -20 -18 -39zM392 77q3 -17 14 -25.5t23 -7.5q13 2 19 10t6 18.5t-1 21.5q-5 50 3 188q3 43 -30 55q-10 4 -17.5 -5.5t-9.5 -21.5q-25 -133 -7 -233zM490 94q-7 -38 4.5 -77.5 t41.5 -49.5q28 -8 52.5 8.5t35.5 50.5q37 107 43 280q0 45 -27 45q-8 -1 -15 -5t-14.5 -18.5t-8.5 -38.5q-1 -23 -3 -46q-93 -39 -109 -149zM536 76q3 69 56 97q-9 -56 -28 -116q-8 -19 -20 -16q-11 1 -8 35zM592 458q2 -25 11.5 -47t24.5 -22q26 0 24 41q-3 82 5 230 q1 20 -9 39t-24 24q-12 3 -20 -8t-10 -29q-11 -124 -2 -228z" />
<glyph unicode="&#xac9f;" horiz-adv-x="690" d="M21 498q15 -27 39 -13q68 37 129 40q-28 -136 -39 -247q2 -40 13 -49q5 -4 13 -6q14 -2 22.5 6t10.5 22q5 40 17 123q87 42 174 101q0 -34 2 -86q2 -63 31 -63q12 0 20.5 11t8.5 32q-2 152 2 259q-2 38 -26 38q-15 0 -25 -17t-10 -38q-2 -42 -2 -69q-79 -50 -159 -86 q6 30 15 66q5 24 -11.5 45t-47.5 21q-47 0 -96 -14.5t-78 -40.5q-15 -15 -3 -35zM348 65q-11 -33 16 -43q8 -3 22 3.5t21 21.5q19 39 73 112l4 -4q16 -16 37.5 -42t35 -44.5t36.5 -50t28 -38.5q27 -38 54 -26q19 9 -2 52q-26 52 -66.5 104.5t-80.5 70.5q-15 5 -26 5 q36 47 62 71q28 28 5 41q-23 15 -47 -3q-53 -38 -104 -107t-68 -123zM563 405q2 -25 11.5 -47t24.5 -22q26 0 24 41q-4 134 3 276q1 20 -9 39t-24 24q-12 3 -20 -8t-10 -29q-11 -135 0 -274z" />
<glyph unicode="&#xaca0;" horiz-adv-x="690" d="M21 535q15 -27 39 -13q68 37 129 40q-28 -136 -39 -247q2 -40 13 -49q5 -4 13 -6q14 -2 22.5 6t10.5 22q5 40 17 123q87 42 174 101q0 -34 2 -86q2 -63 31 -63q12 0 20.5 11t8.5 32q-2 152 2 259q-2 38 -26 38q-15 0 -25 -17t-10 -38q-2 -42 -2 -69q-79 -50 -159 -86 q6 30 15 66q5 24 -11.5 45t-47.5 21q-47 0 -96 -14.5t-78 -40.5q-15 -15 -3 -35zM276 53q3 -17 15 -23q26 -10 45 30q35 83 51 105q36 -34 101 -34q-49 -87 -56 -122q-4 -24 17 -28q29 -6 45 26q36 71 49 95q71 -66 122 -133q18 -24 38 -11q25 15 3 60q-18 38 -63.5 79.5 t-71.5 46.5h-4q36 59 59 92q12 17 14 35.5t-8 22.5q-25 9 -53 -23q-25 -27 -61 -84q-26 -2 -59.5 5.5t-46.5 22.5q3 9 8 17.5t13 19.5t12 17q18 24 -16 39q-18 5 -42 -19q-68 -78 -108 -202q-6 -17 -3 -34zM563 442q2 -25 11.5 -47t24.5 -22q26 0 24 41q-4 134 3 276 q1 20 -9 39t-24 24q-12 3 -20 -8t-10 -29q-11 -135 0 -274z" />
<glyph unicode="&#xaca1;" horiz-adv-x="684" d="M21 479q15 -27 39 -13q68 37 129 40q-28 -136 -39 -247q2 -40 13 -49q5 -4 13 -6q14 -2 22.5 6t10.5 22q10 78 19 135q86 41 172 100q0 -38 2 -120q1 -25 10 -44t24 -19q12 0 21.5 11t9.5 32q-4 130 4 236q0 12 -9 25t-22 13q-15 0 -26.5 -17t-11.5 -38q0 -2 -0.5 -6 t-0.5 -5q-87 -56 -157 -86q8 34 13 54q5 24 -11.5 45t-47.5 21q-47 0 -96 -14.5t-78 -40.5q-15 -15 -3 -35zM422 48q-20 58 16.5 128t91.5 98q19 11 35 -5q7 -6 5.5 -17.5t-9.5 -19.5l-1 -1q3 -1 9.5 -2.5t9.5 -2.5q22 -7 39 -32t17 -48q0 -46 -50.5 -87t-95.5 -43 q-56 0 -67 32zM483 72q60 17 90 67q7 12 -4.5 34t-24.5 29q-3 2 -5 5q-57 -72 -56 -135zM563 373q2 -25 11.5 -47t24.5 -22q26 0 24 41q-3 82 5 230q1 20 -9 39t-24 24q-12 3 -20 -8t-10 -29q-11 -124 -2 -228z" />
<glyph unicode="&#xaca8;" horiz-adv-x="650" d="M13 468q9 -31 41 -21q69 23 105 27q-23 -179 -24 -275q-1 -12 10.5 -25t19.5 -13q11 -1 22 8t11 16q8 168 30 298q5 30 -15 43t-50 12q-56 -2 -124 -31q-12 -5 -20.5 -16t-5.5 -23zM243 405q2 -9 10 -14q21 -8 29.5 -5.5t26.5 13.5q50 31 121 52q30 8 30 29q0 22 -30 22 q-36 0 -88.5 -17.5t-89.5 -55.5q-11 -15 -9 -24zM302 280q-3 -12 7 -23q19 -23 54 -5q98 60 164 140q4 -95 14 -150q5 -21 14.5 -32t25.5 -8q20 3 20 21l-12 286q2 23 -15 31q-14 8 -29.5 5t-15.5 -17l-2 -32q-3 -40 -73.5 -99.5t-133.5 -96.5q-15 -8 -18 -20z" />
<glyph unicode="&#xaca9;" horiz-adv-x="710" d="M18 506q6 -24 36 -27q35 -3 82 -12q26 -5 26 -35q-3 -97 -25 -214q-5 -8 -3.5 -28.5t19.5 -24.5q15 -3 29 12.5t17 29.5q26 141 26 226q0 71 -72 92q-52 15 -111 12q-12 -1 -20 -9.5t-4 -21.5zM254.5 453q-9.5 -16 0.5 -30q13 -20 48 -2q87 42 139 50q1 0 9 1t10 1.5t8 3 t7.5 5t3.5 7.5t2 12q-3 25 -65 19q-71 -7 -136 -42q-17 -9 -26.5 -25zM299 303q-6 -12 1 -23q17 -21 45 -9q71 31 138 81.5t98 93.5q0 -71 -4 -118q-3 -34 16 -39q27 -7 34 19q13 44 14 130t-3 145q-3 22 -32 24q-25 2 -25 -23v-27q-16 -29 -28.5 -47.5t-41 -50t-76.5 -65.5 t-115 -71q-15 -8 -21 -20zM455 189q6 -16 24 -20t25 1q77 26 120 34q0 -17 -11 -105q-5 -35 20 -38q7 -1 18.5 6t16.5 22q13 39 13 113q0 37 -14.5 51t-47.5 11q-71 -8 -148 -43q-22 -10 -16 -32z" />
<glyph unicode="&#xacaa;" horiz-adv-x="726" d="M13 546q6 -24 36 -27q35 -3 82 -12q26 -5 26 -35q-3 -97 -25 -214q-5 -8 -3.5 -28.5t19.5 -24.5q15 -3 29 12.5t17 29.5q26 141 26 226q0 71 -72 92q-52 15 -111 12q-12 -1 -20 -9.5t-4 -21.5zM254.5 493q-9.5 -16 0.5 -30q13 -20 48 -2q87 42 139 50q1 0 9 1t10 1.5t8 3 t7.5 5t3.5 7.5t2 12q-3 25 -65 19q-71 -7 -136 -42q-17 -9 -26.5 -25zM307.5 216.5q-4.5 -11.5 1.5 -25.5q5 -8 17 -11.5t20 1.5q6 3 27 15t35.5 17.5t26.5 4.5q8 0 11 -6t3 -25q0 -23 -8.5 -69t-8.5 -47q-1 -15 7.5 -27.5t20.5 -14.5q10 -1 19.5 6t13.5 20q12 40 15 93 q45 43 111 68q5 -36 -3 -110.5t-8 -82.5q-1 -14 9.5 -23t23.5 -9q10 -1 17.5 10t10.5 27q25 113 14 208q-9 59 -66 45q-64 -18 -110 -59v4q-1 16 -17 33.5t-39 18.5q-50 2 -128 -44q-11 -6 -15.5 -17.5zM319 344q-7 -13 1 -24q17 -21 49 -8q84 32 143.5 77.5t85.5 94.5 q-1 -48 -5 -112q-2 -12 3.5 -31t16.5 -22t21.5 6t13.5 23q16 106 10 275q-3 22 -32 24q-25 2 -25 -23v-19q-1 -3 -14 -29.5t-19 -36.5t-26.5 -36.5t-44 -44.5t-64.5 -44t-93 -51q-14 -6 -21 -19z" />
<glyph unicode="&#xacac;" horiz-adv-x="720" d="M14 491q0 -16 8.5 -23t19.5 -5q55 10 82 -5q2 -65 -29 -210q-4 -35 15 -42q9 -4 23.5 2t21.5 27q30 123 30 220q0 48 -61 64q-38 9 -79 0q-31 -7 -31 -28zM207 464q0 -8 3.5 -13.5t14.5 -8t31 7.5q11 4 59 21t69 24.5t58.5 17t67.5 13.5q35 2 39 23q7 37 -77 28 q-109 -11 -233 -73q-32 -16 -32 -40zM288 328q5 -14 25.5 -15.5t32.5 4.5q57 19 125 58.5t123 85.5q-7 -64 -10 -138q-1 -14 4.5 -28.5t16.5 -16.5t20 8t11 26q4 26 14 107t19 124q9 36 -23 43q-11 3 -23.5 -4.5t-15.5 -22.5q0 -1 -0.5 -2.5t-0.5 -2.5q-68 -90 -284 -183 q-42 -19 -34 -43zM443 147q2 -26 18.5 -39.5t38.5 -10.5q91 14 220 86q18 11 29 30.5t9 27.5q-4 14 -33 1q-143 -61 -224 -81q5 44 27 95q7 15 0 26t-15 12q-11 1 -23.5 -8t-18.5 -20q-32 -62 -28 -119z" />
<glyph unicode="&#xacaf;" horiz-adv-x="693" d="M14 489q-6 24 26 39q43 19 101.5 28.5t98.5 -5.5q23 -13 17 -45q-22 -130 -30 -298q0 -7 -11 -16t-22 -8q-8 0 -19.5 12.5t-10.5 25.5q0 41 2 76t4.5 56t8 66.5t9.5 76.5q-87 -15 -133 -29q-15 -5 -26.5 1t-14.5 20zM284 469q-11 17 1 32q16 19 70 41t91 24q61 4 65 -19 q0 -7 -2 -12t-3.5 -7.5t-7.5 -5t-8 -3t-10 -1.5t-9 -1q-52 -8 -139 -50q-36 -17 -48 2zM296.5 332q6.5 13 21.5 19q145 66 208 148q13 17 22 33.5t18 35.5t13 26v18q0 24 25 23q28 -2 32 -24q6 -168 -10 -275q-3 -14 -13.5 -23t-21.5 -6q-10 3 -16 22t-4 31q6 94 6 112 q-56 -103 -230 -172q-32 -15 -49 8q-8 11 -1.5 24zM407 203q2 -10 13 -16.5t26 -5.5v-1q-14 -67 -10 -133q2 -32 20.5 -46t48.5 -9q40 7 98 29.5t81 40.5q27 21 20 34q-9 24 -47 11q-90 -34 -158 -46q0 19 7 111q2 11 -5 19q27 6 126 29q21 5 21 26q0 9 -9.5 15t-26.5 5 q-101 -4 -183 -31q-25 -10 -22 -32z" />
<glyph unicode="&#xacb0;" horiz-adv-x="660" d="M22 564q0 -14 12.5 -24.5t24.5 -3.5q20 11 51.5 15t53.5 1q4 -28 -6 -94t-8 -87q4 -34 22 -52q8 -8 21.5 -5t13.5 14q0 42 10.5 120t4.5 116q-4 22 -27 35t-57 15q-56 3 -98 -24q-18 -11 -18 -26zM247 632q-19 -25 1 -41q21 -17 43 1q71 58 145 52q23 -3 27 7 q2 4 -1.5 13t-9.5 14q-23 19 -55 19q-100 0 -150 -65zM298 451q4 -14 23 -18t37 5q101 44 170 115q-2 -59 -7 -101q-5 -27 15 -29q28 -1 40 31q11 34 15 106t-1 118q-1 13 -14.5 27t-27.5 11q-19 -4 -19 -37v-26q-21 -42 -57 -70q-89 -68 -162 -105q-18 -9 -12 -27zM332 310 q1 -14 16.5 -20t33.5 -1q74 20 104 22q23 3 25 -9q2 -13 -31.5 -51.5t-74.5 -69.5q-30 -23 -23 -47q11 -33 60 -16q78 26 109 29q-29 -68 -130 -200q-11 -16 -8.5 -32t13.5 -23q28 -14 61 -7q83 15 210 60q47 16 38 48q-3 11 -15.5 15t-31.5 -1q-158 -46 -181 -51 q120 160 112 209q-4 27 -32.5 38t-74.5 -2q29 23 47.5 56t16.5 57q-1 24 -20.5 42t-45.5 20q-62 3 -139 -28q-16 -7 -28 -16.5t-11 -21.5z" />
<glyph unicode="&#xacb8;" horiz-adv-x="700" d="M14 509q-6 24 26 39q43 19 101.5 28.5t98.5 -5.5q23 -13 17 -45q-22 -130 -30 -298q0 -7 -11 -16t-22 -8q-8 0 -19.5 12.5t-10.5 25.5q0 41 2 76t4.5 56t8 66.5t9.5 76.5q-87 -15 -133 -29q-15 -5 -26.5 1t-14.5 20zM284 489q-11 17 1 32q16 19 70 41t91 24q61 4 65 -19 q0 -7 -2 -12t-3.5 -7.5t-7.5 -5t-8 -3t-10 -1.5t-9 -1q-52 -8 -139 -50q-36 -17 -48 2zM296.5 352q6.5 13 21.5 19q145 66 208 148q13 17 22 33.5t18 35.5t13 26v18q0 24 25 23q28 -2 32 -24q6 -168 -10 -275q-3 -14 -13.5 -23t-21.5 -6q-10 3 -16 22t-4 31q6 94 6 112 q-56 -103 -230 -172q-32 -15 -49 8q-8 11 -1.5 24zM398.5 146.5q-0.5 -58.5 11.5 -120.5q4 -14 13 -23t20 -6q24 9 21 40q-6 72 -5 127q7 -2 18 3q51 22 83 27q9 1 13 -1.5t1 -13.5q-9 -27 -50 -120q-10 -27 10.5 -40.5t48.5 -4.5q30 10 72.5 30.5t62.5 35.5 q13 10 20.5 27.5t-1.5 31.5q-9 9 -33 -3q-92 -43 -101 -47q28 55 38 102q6 27 -6.5 43t-35.5 21q-28 6 -71 -4.5t-64 -25.5l-1 -1v2q4 34 -28 42q-11 1 -18.5 -7.5t-10.5 -22.5q-7 -33 -7.5 -91.5z" />
<glyph unicode="&#xacb9;" horiz-adv-x="705" d="M14 519q3 -13 15 -19.5t26 -1.5q57 19 111 25q-23 -147 -24 -245q-1 -12 10.5 -25t19.5 -13q11 -1 22 8t11 16q6 132 30 268q5 30 -15 43t-50 12q-24 -1 -64.5 -9.5t-65.5 -19.5q-12 -5 -20.5 -16t-5.5 -23zM260 383q9 -27 45 -23q179 33 278 102q-1 -19 -1 -56 q0 -40 18 -45q15 -4 26 10t14 41q14 98 6 248q-1 14 -9.5 28t-21.5 13q-14 -1 -21.5 -12t-8.5 -26q2 -58 0 -127q-78 -57 -295 -119q-36 -10 -30 -34zM271 528q1 -20 47 -7q122 34 191 38q42 2 45 31q1 13 -18 18.5t-45 5.5q-44 0 -96 -11.5t-88 -32.5q-36 -22 -36 -42z M389 58q3 -19 16 -34t28 -14q23 0 19 43q-9 82 4 201q5 48 -27 51q-14 1 -25.5 -12.5t-13.5 -25.5q-19 -112 -1 -209zM484 78q-1 -39 23 -80t62 -42q29 -1 45.5 35.5t22.5 89.5q12 83 15 211q1 11 -5 22.5t-21 12.5t-24.5 -9.5t-11.5 -23.5q-2 -49 -6 -110 q-38 -12 -68.5 -40t-31.5 -66zM530 64q5 34 49 54q0 -8 -1 -17t-2.5 -20t-2.5 -18q-4 -39 -20 -39q-12 1 -18.5 13.5t-4.5 26.5z" />
<glyph unicode="&#xacbb;" horiz-adv-x="700" d="M24 459q20 -27 55 -9q53 28 90 32q-31 -103 -42 -200q-3 -31 2 -44t24 -12q11 1 21.5 12.5t14.5 33.5q29 143 49 205q7 24 -6 41.5t-33 22.5q-70 18 -161 -42q-27 -16 -14 -40zM281 489q-11 17 1 32q16 19 70 41t91 24q61 4 65 -19q0 -7 -2 -12t-3.5 -7.5t-7.5 -5t-8 -3 t-10 -1.5t-9 -1q-52 -8 -139 -50q-36 -17 -48 2zM293.5 352q6.5 13 21.5 19q145 66 208 148q13 17 22 33.5t18 35.5t13 26v18q0 24 25 23q28 -2 32 -24q6 -168 -10 -275q-3 -14 -13.5 -23t-21.5 -6q-10 3 -16 22t-4 31q6 94 6 112q-56 -103 -230 -172q-32 -15 -49 8 q-8 11 -1.5 24zM371 51q-5 -14 1.5 -23.5t16.5 -12.5t21.5 1.5t16.5 19.5q27 73 73 147q60 -76 114 -174q9 -16 23 -24.5t28 -3.5q17 6 -1 49q-21 52 -56.5 107t-70.5 78q-5 3 -13 5q3 5 24 34q23 28 -1 41q-11 6 -18.5 5.5t-19.5 -10.5q-86 -92 -138 -239z" />
<glyph unicode="&#xacbc;" horiz-adv-x="710" d="M24 501q20 -27 55 -9q53 28 90 32q-20 -66 -35 -199q-3 -31 1.5 -44t23.5 -12q10 1 21 12.5t16 33.5q27 157 42 204q7 24 -6 41.5t-33 22.5q-34 8 -77.5 -2.5t-83.5 -39.5q-26 -20 -14 -40zM264 55.5q2 -17.5 12 -19.5q17 -5 31 6t21 28q25 50 44 79q16 -20 53 -30.5 t69 -5.5q-48 -86 -53 -123q-2 -19 15 -24q33 -3 44 29q40 83 65 122q21 -15 42.5 -38t33 -37.5t30.5 -43t21 -30.5q16 -23 42 -12q25 10 11 37q-12 31 -62 92.5t-75 63.5q-13 1 -17.5 4t-1.5 8q14 23 49 73q10 14 10.5 28t-8.5 19q-24 13 -47 -18q-8 -9 -28.5 -37t-29.5 -38 q-6 -10 -20 -15q-68 -19 -116 31q8 14 17 26t20.5 26t17.5 23q24 30 -11 38q-14 5 -31.5 -5.5t-27.5 -23.5q-73 -86 -116 -199q-6 -16 -4 -33.5zM284 531q-11 17 1 32q16 19 70 41t91 24q61 4 65 -19q0 -7 -2 -12t-3.5 -7.5t-7.5 -5t-8 -3t-10 -1.5t-9 -1q-52 -8 -139 -50 q-36 -17 -48 2zM296.5 394q6.5 13 21.5 19q198 89 261 237v24q0 24 25 23q28 -2 32 -24q6 -168 -10 -275q-3 -14 -13.5 -22.5t-21.5 -6.5q-12 2 -17.5 18.5t-2.5 34.5q2 35 6 117q-36 -53 -96 -100t-134 -76q-35 -13 -49 7q-8 11 -1.5 24z" />
<glyph unicode="&#xacbd;" horiz-adv-x="670" d="M18 430q4 -11 16.5 -17.5t28.5 -1.5q65 26 103 35q-7 -137 -2 -224q0 -14 7.5 -26t18.5 -12q13 0 23 12.5t10 31.5q8 199 10 233q2 30 -18 41.5t-50 7.5q-42 -6 -127 -41q-29 -14 -20 -39zM278 475q24 -17 56 -2q45 21 117 34q25 5 25 26q0 23 -41 25q-93 -2 -154 -51 q-22 -18 -3 -32zM298.5 350.5q-4.5 -12.5 3.5 -25.5q15 -21 54 -2q54 28 110 69.5t88 77.5q2 -102 1 -149q-3 -19 -25 -57t-29 -59q-18 -39 -10.5 -89.5t42.5 -65.5q35 -13 73 18q46 38 51 88q4 45 -25 74q-17 17 -42 17q13 19 19 41q3 8 3 22q-2 178 -2 268q0 42 -28 42 q-11 -1 -20.5 -16t-11.5 -37q-1 -10 -6 -20.5t-16.5 -22.5t-21.5 -22.5t-29 -24t-31 -22.5t-34.5 -23.5t-33 -21t-34 -21t-29.5 -18.5q-12 -8 -16.5 -20.5zM560 122q-14 1 0 54q10 36 19 53q1 -2 4 -5.5t5 -6.5t3 -6q12 -23 3 -51q-5 -14 -15 -26.5t-19 -11.5z" />
<glyph unicode="&#xacc1;" horiz-adv-x="810" d="M18 589.5q-2 -9.5 3 -18.5q11 -20 46 -11q78 19 111 18q-29 -136 -34 -276q1 -19 12.5 -34.5t29.5 -16.5q13 -1 20 7.5t7 23.5q0 30 2 59.5t4 49.5t6 49.5t6 42.5t8 47t8 44q4 24 -12.5 45.5t-47.5 22.5q-44 2 -89.5 -7t-71.5 -31q-6 -5 -8 -14.5zM295 546q15 -20 45 -5 q42 20 101 27t99 -2q9 -1 18.5 4.5t10.5 11.5q2 15 -14 25q-46 27 -128 18t-123 -42q-23 -18 -9 -37zM326 364q3 -10 24.5 -16.5t43.5 2.5q58 27 139.5 80t134.5 101q-3 -46 7 -106q5 -15 9.5 -19t13.5 -4q11 0 22 12.5t11 31.5q0 56 16 178q2 18 -10 30.5t-27 13.5 q-12 1 -22 -16t-13 -40q-15 -15 -33.5 -30.5t-34 -27.5t-41 -28.5t-39 -25.5t-46 -27t-44 -24.5t-49 -27.5t-47.5 -26q-21 -11 -15 -31zM482 263q14 -18 32 -16l40 10q-4 -3 -6 -8q-20 -43 -36.5 -107.5t-16.5 -99.5q0 -27 23 -40.5t63 -6.5q87 15 205 73q35 17 30 41 q-4 16 -21.5 17.5t-26.5 -5.5q-142 -49 -198 -64q2 13 15 83q21 7 64 21t56 18q17 4 29.5 15t14.5 22q1 9 -11.5 13.5t-25.5 4.5q-47 -1 -113 -27q4 20 6 28q1 12 -5.5 20t-17.5 10h-1q95 28 155 56q19 9 14 21q-10 27 -71 17q-46 -6 -108.5 -32t-82.5 -38q-18 -10 -6 -26z " />
<glyph unicode="&#xacc4;" horiz-adv-x="880" d="M21 468q8 -14 20.5 -16.5t18.5 3.5q68 37 128 40q-40 -171 -42 -322q7 -49 35 -52q14 -1 24 8t9 23q-4 138 44 340q5 24 -12 45t-48 21q-47 0 -96 -14.5t-78 -40.5q-15 -15 -3 -35zM300 254q0 -10 21.5 -17.5t42.5 2.5q141 81 221 161v-86q0 -101 45 -120q7 -3 17 1 t10 14q-8 107 3 270q1 14 -10.5 28t-24.5 16t-20 -11q-28 -33 -71 -73q-3 14 -17.5 30.5t-32.5 22.5q-28 10 -69 6q-72 -6 -115 -49q-24 -27 0 -45q26 -19 60 15q28 19 71.5 20t74.5 -14q4 -3 9 -3q-84 -72 -200 -138q-15 -9 -15 -30zM761 231q1 -10 2.5 -15.5t7.5 -9.5 t15 -1q27 9 27 36q-5 146 12 328q1 18 -11.5 32.5t-26.5 16.5q-7 1 -13.5 -5t-8.5 -14q-30 -197 -4 -368z" />
<glyph unicode="&#xacc8;" horiz-adv-x="780" d="M21 471q15 -27 39 -13q68 37 129 40q-28 -136 -39 -247q2 -40 13 -49q5 -4 13 -6q14 -2 22.5 6t10.5 22q20 155 48 271q5 24 -11.5 45t-47.5 21q-47 0 -96 -14.5t-78 -40.5q-15 -15 -3 -35zM276 322q12 -13 45 4q109 62 181 128q-18 -114 -19 -143q1 -12 10.5 -23.5 t21.5 -11.5t18 7.5t7 12.5t3 18q4 31 18.5 122.5t17.5 115.5q3 18 -5.5 30t-23.5 12q-14 0 -24 -16q-40 -61 -107 -116q-31 -25 -131 -91q-35 -28 -12 -49zM283 505q9 -27 35 -20q74 22 106 18q11 -1 20 4.5t10 12.5q5 24 -25 33q-46 14 -119 -12q-13 -5 -21.5 -15t-5.5 -21 zM433 79q4 60 24 119q5 17 13 30.5t19 12.5q33 -1 25 -46q-10 -51 -14 -90q107 22 208 67q17 8 20 -3q5 -13 -10 -37q-22 -34 -102 -64.5t-129 -30.5q-25 0 -40 10t-14 32zM647 322q1 -20 8 -34t19 -13q29 3 30 41q3 84 6 119q8 90 11 122q3 17 -2.5 33t-19.5 15 q-12 1 -22.5 -11t-12.5 -28q-7 -42 -13 -124.5t-4 -119.5z" />
<glyph unicode="&#xaccc;" horiz-adv-x="800" d="M18 579q3 -13 15 -19.5t26 -1.5q64 21 107 26q-19 -147 -24 -275q-1 -18 6 -28t19 -10q13 0 25 9.5t13 23.5q1 17 4.5 63t5.5 72t7.5 69.5t12.5 84.5q5 30 -15 43t-50 12q-61 -2 -126 -30q-12 -5 -20.5 -16t-5.5 -23zM257 568q0 -13 5 -18q17 -17 40 -5q89 44 134 54 q14 3 29 5q38 4 41 24q4 19 -44 26q-45 8 -103 -14t-94 -52q-8 -7 -8 -20zM295 396q10 -9 25 -9t28 6q46 18 102.5 61t91.5 86q1 -42 5 -76q6 -62 28 -62q27 0 26 35q-6 137 -1 231q1 17 -8.5 30.5t-22.5 13.5q-19 0 -23 -34q-4 -30 -4 -48q-36 -57 -103 -109t-125 -84 q-34 -19 -19 -41zM477 319q-2 -17 6 -27t22 -8q96 8 116 7q-13 -15 -95 -76q-13 -10 -17 -25t2 -23q10 -20 32 -18q49 11 94 11q-32 -62 -93 -136q-22 -23 -23 -50q0 -27 20 -41t54 -10q103 11 226 47q17 4 30 14.5t10 22.5q-3 11 -20 18.5t-34 4.5q-8 -2 -39 -8.5t-53 -11 t-54.5 -9.5t-57.5 -7q85 108 97 157q7 32 -16 50t-68 16q10 3 31 22.5t31 34.5q19 30 8 52.5t-49 28.5q-70 10 -132 -9q-27 -8 -28 -27zM672 436q0 -40 18 -45q15 -4 26 10t14 41q14 98 6 248q-1 14 -9.5 28t-21.5 13q-14 -1 -21.5 -12t-8.5 -26q0 -7 -3 -257z" />
<glyph unicode="&#xacd5;" horiz-adv-x="800" d="M18 569q3 -13 15 -19.5t26 -1.5q64 21 107 26q-19 -147 -24 -275q-1 -18 6 -28t19 -10q13 0 25 9.5t13 23.5q1 17 4.5 63t5.5 72t7.5 69.5t12.5 84.5q5 30 -15 43t-50 12q-61 -2 -126 -30q-12 -5 -20.5 -16t-5.5 -23zM257 558q0 -13 5 -18q17 -17 40 -5q89 44 134 54 q14 3 29 5q38 4 41 24q4 19 -44 26q-45 8 -103 -14t-94 -52q-8 -7 -8 -20zM295 386q10 -9 25 -9t28 6q46 18 102.5 61t91.5 86q1 -42 5 -76q6 -62 28 -62q27 0 26 35q-6 137 -1 231q1 17 -8.5 30.5t-22.5 13.5q-19 0 -23 -34q-4 -30 -4 -48q-36 -57 -103 -109t-125 -84 q-34 -19 -19 -41zM448.5 202q0.5 -66 11.5 -109q7 -30 32 -26q25 3 21 44q-9 73 -1 167q3 35 -32 46q-20 5 -25 -24q-7 -32 -6.5 -98zM543 102q-4 -34 9 -67t42 -39q27 -6 50 8.5t33 44.5q32 99 27 259q-1 20 -7.5 29t-20.5 8q-34 -3 -34 -54q0 -39 -1 -57q-85 -36 -98 -132 zM589 88q0 57 48 86q-6 -53 -20 -101q-7 -17 -19 -15q-9 1 -9 30zM672 426q0 -40 18 -45q15 -4 26 10t14 41q14 98 6 248q-1 14 -9.5 28t-21.5 13q-14 -1 -21.5 -12t-8.5 -26q0 -7 -3 -257z" />
<glyph unicode="&#xacd7;" horiz-adv-x="780" d="M21 540q15 -27 39 -13q68 37 129 40q-28 -136 -39 -247q2 -40 13 -49q5 -4 13 -6q14 -2 22.5 6t10.5 22q20 155 48 271q5 24 -11.5 45t-47.5 21q-47 0 -96 -14.5t-78 -40.5q-15 -15 -3 -35zM276 385q12 -13 45 4q109 62 181 128q-18 -114 -19 -143q1 -12 10.5 -23.5 t21.5 -11.5t18 7.5t7 12.5t3 18q4 31 18.5 122.5t17.5 115.5q3 18 -5.5 30t-23.5 12q-14 0 -24 -16q-40 -61 -107 -116q-31 -25 -131 -91q-35 -28 -12 -49zM283 568q9 -27 35 -20q74 22 106 18q11 -1 20 4.5t10 12.5q5 24 -25 33q-46 14 -119 -12q-13 -5 -21.5 -15t-5.5 -21 zM383 45q-2 -6 4 -10.5t7.5 -5t8.5 -2.5q6 -5 19 -0.5t20 19.5q23 48 88 131l5 -5q20 -20 42.5 -48.5t56 -75t37.5 -52.5q28 -38 54 -27q20 9 -2 50q-23 46 -65.5 101.5t-80.5 75.5q-14 6 -27 6q42 50 64 70q27 27 5 40q-20 13 -44 -2q-49 -35 -109 -113t-81 -134 q0 -12 -2 -18zM647 385q1 -20 8 -34t19 -13q29 3 30 41q3 84 6 119q8 90 11 122q3 17 -2.5 33t-19.5 15q-12 1 -22.5 -11t-12.5 -28q-7 -42 -13 -124.5t-4 -119.5z" />
<glyph unicode="&#xace0;" horiz-adv-x="430" d="M26 167q3 -8 16.5 -16t29.5 -7q62 1 147 18.5t145 39.5q19 7 38 25.5t11 36.5q-3 11 -18 7q-110 -31 -230 -53q-7 104 -4 189q0 33 -21 33q-33 0 -38 -26q-11 -57 -1 -207q-18 -3 -47 -7q-35 -6 -28 -33zM40 505q5 -9 15.5 -13.5t21.5 -0.5q93 44 149 49q1 -7 10 -189 q1 -29 33 -25q22 4 25 34q4 50 1 181q-2 37 -18 52t-57 11q-101 -9 -173 -63q-17 -15 -7 -36z" />
<glyph unicode="&#xace1;" horiz-adv-x="485" d="M33 255q0 -13 17 -19t36 -3q217 56 351 74q27 4 28 13q1 5 -3 13q-11 24 -39 24q-84 0 -218 -29q-7 41 -12 157q0 10 -8.5 20.5t-24.5 11.5q-26 2 -28 -16q-8 -91 20 -185q-54 -14 -82 -21q-37 -9 -37 -40zM82 587q5 -9 15.5 -13.5t21.5 -0.5q93 44 149 49q1 -10 9 -167 q1 -29 33 -25q22 4 25 34q4 55 2 159q-2 37 -18 52t-57 11q-101 -9 -173 -63q-17 -15 -7 -36zM155 125q11 -30 53 -13q7 3 36.5 16.5t48.5 20t39 8.5q-1 -16 -2.5 -67t-2.5 -67q0 -41 22 -50q9 -3 20.5 6t15.5 27q10 52 10 149q0 63 -60 65q-59 2 -152 -49q-35 -19 -28 -46z " />
<glyph unicode="&#xace4;" horiz-adv-x="468" d="M36.5 599.5q-1.5 -12.5 7.5 -25.5q17 -19 50 7q63 49 138 54q8 -112 8 -212q0 -20 8.5 -31.5t22.5 -10.5t22.5 15.5t10.5 33.5q2 28 0 98t-6 107q-2 20 -6 31t-21 20.5t-47 9.5q-57 -3 -104 -25t-73 -50q-9 -9 -10.5 -21.5zM37 221q2 -10 13 -20.5t29 -7.5q133 22 268 37 q49 5 49 34q0 27 -52 27q-59 0 -188 -15q24 53 26 204q0 11 -12 24t-19 13q-7 1 -12.5 -5t-8 -11.5t-4.5 -12.5q-8 -25 -13.5 -103t-15.5 -120q-24 -6 -31 -8q-34 -9 -29 -36zM130 22q5 -60 74 -54q45 3 122 31t128 55q46 25 35 53q-7 18 -48 4q-95 -37 -217 -71 q-23 -7 -23 8q0 20 1.5 34.5t6 36t6.5 34.5q2 10 -6 19t-18 10q-18 2 -28 -13q-41 -61 -33 -147z" />
<glyph unicode="&#xace7;" horiz-adv-x="485" d="M33 249q1 -15 16.5 -22t34.5 -2q184 54 353 76q29 4 25 26q-5 26 -39 26q-92 -2 -219 -29q-6 38 -11 155q0 10 -8.5 20.5t-24.5 11.5q-26 2 -28 -16q-7 -85 19 -183q-28 -7 -86 -23q-34 -11 -32 -40zM82 581q5 -9 15.5 -13.5t21.5 -0.5q93 44 149 49q1 -10 9 -167 q1 -29 33 -25q22 4 25 34q4 55 2 159q-2 37 -18 52t-57 11q-101 -9 -173 -63q-17 -15 -7 -36zM162 157q1 -10 12 -17.5t26 -7.5q-1 -1 -1 -5q-10 -61 -4 -124q5 -50 40 -53q16 -2 33 6q93 46 166 65q14 3 20 15t3 20q-7 18 -38 15q-87 -10 -165 -49q-1 20 3 58t4 44 q0 10 -7 16q79 17 128 21q25 2 25 24q0 27 -39 28q-73 4 -182 -26q-16 -5 -20.5 -11.5t-3.5 -18.5z" />
<glyph unicode="&#xace8;" horiz-adv-x="460" d="M10 370q0 -12 17 -18.5t36 -3.5q224 50 351 65q26 4 28 12q1 6 -3 13q-5 9 -16 16t-23 7q-59 0 -105 -6q18 49 30.5 129.5t10.5 130.5q-2 49 -49 61q-59 16 -147 -21q-38 -17 -33 -40q3 -13 16.5 -18t33.5 1q1 0 14.5 4.5l18 6t17 4.5t19 4t16.5 2t17 0t13 -3 q0 -82 -30 -268q-26 -4 -80 -14q0 46 5 164q1 8 -7.5 19t-20.5 13q-24 2 -26 -16q-9 -108 -4 -187q0 -3 1 -4l-63 -15q-37 -9 -37 -38zM109 257q2 -14 14.5 -22.5t28.5 -6.5q3 0 18 2t24.5 3t26 2.5t27 1.5t21.5 -0.5t16.5 -3t5.5 -7.5q0 -3 -3.5 -7t-10.5 -9t-14.5 -10 t-19.5 -12.5t-20 -12t-22 -12.5t-20 -12q-22 -10 -19 -30q4 -30 44 -23q71 12 116 15q-111 -121 -147 -199q-13 -36 15 -53t63 -7q151 38 249 82q18 10 27.5 26t6.5 28q-6 23 -55 6q-129 -45 -230 -71q47 60 125 147q12 12 14 30t-5 34t-26.5 26t-48.5 7q56 33 52 79 q-2 18 -24.5 34t-60.5 19q-64 4 -132 -12q-14 -3 -25.5 -11.5t-10.5 -20.5z" />
<glyph unicode="&#xacea;" horiz-adv-x="560" d="M17 341q0 29 37 38q22 5 64 15q-7 76 4 174q2 27 27 26q16 -1 25.5 -14.5t7.5 -31.5q-8 -72 -3 -141q142 30 235 27q13 0 25 -6.5t16 -16.5q4 -11 -1 -17t-9.5 -7t-16.5 -3q-151 -19 -358 -65q-19 -4 -36 3t-17 19zM82 211q-5 24 25 35q80 29 132 26q43 -2 59 -21t7 -45 q-5 -14 -15.5 -27t-31 -30.5t-23.5 -20.5q29 2 38 -16.5t-6 -44.5q-9 -18 -21 -36t-33 -45t-26 -34q70 11 153 55q32 17 43 -6q8 -18 -19 -43q-41 -34 -165 -68q-50 -14 -79 13q-28 28 2 66q42 52 79 106q-38 -6 -59 -10q-9 -2 -17.5 2.5t-11.5 15.5q-7 24 19 38 q60 29 98 88q-14 0 -30.5 -2.5t-28 -5.5t-30 -8t-26.5 -7q-27 -6 -33 25zM97 696q-5 23 33 40q35 16 87 23t90 -2q47 -13 49 -61q6 -126 -35 -211q-42 -38 -50 -6q24 149 21 218q-45 6 -145 -18q-43 -11 -50 17zM333.5 171q0.5 -59 8.5 -97q3 -13 12 -22t20 -7q23 4 20 40 q-5 56 -3 98q10 0 16 3q7 3 21 9.5t26 11t20 6.5q-12 -83 -45 -156q-12 -26 6.5 -44.5t45.5 -10.5q51 14 90 44q37 28 24 47q-8 12 -31 2q-46 -22 -68 -27q3 9 12 34t14.5 41.5t11 39.5t5.5 40q1 24 -17.5 37t-42.5 9q-60 -10 -83 -24q0 31 -28 37q-22 4 -29 -28 q-6 -24 -5.5 -83z" />
<glyph unicode="&#xacec;" horiz-adv-x="500" d="M22 357q0 -12 17 -18.5t36 -3.5q224 50 351 65q26 4 28 12q1 6 -3 13q-5 9 -16 16t-23 7q-90 1 -224 -25q0 47 5 162q1 8 -7.5 19t-20.5 13q-24 2 -26 -16q-9 -108 -4 -187v-1q-50 -12 -76 -18q-37 -9 -37 -38zM78 700.5q-3 -10.5 1 -19.5q11 -24 37 -18q91 36 150 36 q1 -23 2 -55.5t1.5 -66.5t0.5 -46q1 -28 33 -28q22 2 26 32q6 59 6 159q-1 37 -16.5 53t-56.5 16q-44 1 -92.5 -12t-82.5 -35q-6 -5 -9 -15.5zM85 234q0 -15 12 -22.5t25 -3.5q68 19 100 14q-26 -43 -109 -84q-25 -13 -18 -31q9 -30 38 -21q53 17 85 13q-48 -70 -61 -100 q-15 -34 3 -57q17 -21 60 -15q61 9 136 46q33 16 29 39q-2 11 -10.5 16t-24.5 -1q-59 -26 -128 -37q5 10 57 103q15 22 2 41t-53 21q18 13 35 34.5t18 38.5q2 21 -15 36t-48 16q-26 2 -58.5 -3t-47.5 -13q-26 -13 -27 -30zM321 117q-9 -42 9 -57q8 -8 24.5 -3.5t20.5 19.5 q19 84 22 95q42 -28 103 -93q31 -32 49 -17q7 5 9 15.5t-3 19.5q-70 107 -145 119q3 8 11.5 32t12.5 35q6 13 4 30t-14 19q-34 6 -47 -26q-33 -83 -56 -188z" />
<glyph unicode="&#xacef;" horiz-adv-x="530" d="M20 312q0 29 37 38q26 6 76 18v1q-5 78 4 187q2 18 26 16q14 -1 24 -12.5t9 -19.5q-7 -110 -7 -160q137 26 221 23q26 0 39 -23q7 -15 -2 -20q-7 -3 -23 -5q-156 -20 -351 -65q-19 -3 -36 3.5t-17 18.5zM79 179q-5 23 23 34q82 30 124 26q39 -2 54 -21t8 -44 q-3 -9 -7.5 -17.5t-13.5 -18t-14 -14.5t-17 -15.5t-14 -12.5q29 2 37 -16t-7 -44q-16 -34 -75 -114q64 11 131 45q12 7 24 5t15 -13q3 -8 -2 -20.5t-18 -21.5q-38 -29 -138 -56q-48 -12 -74 14q-27 27 1 64q46 60 74 105q-42 -8 -55 -10q-9 -2 -16.5 2.5t-10.5 15.5 q-7 23 18 38q58 31 92 87q-18 0 -34.5 -3t-42 -10.5t-31.5 -9.5q-25 -6 -31 25zM111 707q-5 23 33 40q35 16 87 23t90 -2q47 -13 49 -61q2 -54 -11.5 -132.5t-34.5 -122.5q-42 -38 -50 -6q1 8 9.5 57t12.5 75t7.5 65.5t2.5 64.5q-49 12 -145 -18q-20 -6 -33.5 -1t-16.5 18z M306 97q-3 24 23 36q61 32 135 36q24 3 34 -18q7 -22 -6 -41l-30 -40q35 -9 40 -49q4 -34 -17.5 -60.5t-53.5 -36.5q-17 -4 -29 -3q-21 2 -32 20q-11 22 -3 52q9 49 59 114q-14 0 -41 -10q-9 -3 -23 -7.5t-17 -5.5q-35 -12 -39 13zM317.5 274.5q-1.5 9.5 5.5 17.5 q11 13 30 5q21 -9 44.5 -29.5t34.5 -39.5q10 -17 -1 -28q-18 -14 -40 6q-23 24 -62 52q-10 7 -11.5 16.5zM414 -20q23 15 29 22q11 15 9 25t-9 14q-19 -26 -29 -61z" />
<glyph unicode="&#xacf0;" horiz-adv-x="470" d="M19 285q-1 -13 15.5 -19t36.5 -4q212 54 354 72q27 4 28 13q1 5 -2 13q-11 24 -39 24q-92 0 -218 -27q-4 32 -7 157q1 10 -7 20.5t-24 11.5q-25 2 -29 -16q-11 -91 13 -185q-27 -6 -83 -20q-20 -5 -29 -17t-9 -23zM80 616q5 -9 15.5 -13.5t21.5 -0.5q96 44 151 48 q2 -35 2 -167q0 -29 32 -25q23 4 27 34q6 56 8 159q0 37 -15.5 52t-57.5 11q-44 -3 -92.5 -20t-82.5 -42q-17 -15 -9 -36zM151 171q0 -98 26 -164q4 -10 16.5 -15t25.5 0q18 8 11 26q-18 65 -19 108q6 -15 23 -5q54 29 89 38q-10 -44 -55 -146q-11 -27 12 -39t43 -9 q53 9 113 43q31 18 28 45q-2 10 -17 11t-26 -4q-54 -23 -77 -28q38 83 44 132q3 30 -13.5 44.5t-45.5 13.5q-11 0 -29 -6.5t-33 -13t-34.5 -16t-24.5 -11.5q0 51 -26 52q-17 1 -24 -14.5t-7 -41.5z" />
<glyph unicode="&#xacf1;" horiz-adv-x="406" d="M24.5 609.5q-1.5 -12.5 7.5 -25.5q17 -19 50 7q62 49 141 54q8 -90 0 -189q-1 -20 6.5 -32t21.5 -12q27 0 36 47q5 30 4.5 89.5t-5.5 96.5q-2 16 -4.5 24t-10 18t-22 14.5t-37.5 4.5q-57 -3 -104 -25t-73 -50q-9 -9 -10.5 -21.5zM25 264q2 -10 13 -20.5t29 -7.5 q133 22 268 37q56 6 56 34q0 27 -59 27t-188 -15q24 54 26 171q0 11 -12 24t-19 13q-7 1 -12.5 -5t-8 -11.5t-4.5 -12.5q-7 -25 -14 -87t-15 -103q-24 -6 -31 -8q-34 -9 -29 -36zM102 -9q3 -19 12.5 -33t28.5 -12q21 1 17 34q-7 71 3 151v20.5t-8.5 18t-25.5 7.5 q-10 0 -16.5 -10t-8.5 -22q-11 -75 -2 -154zM188 -11q3 -24 21 -44.5t40 -20.5q45 2 61 46q23 67 21 161l10 5q25 12 20 34q-5 18 -26 9l-6 -3q-2 14 -2 20q-1 16 -10.5 25.5t-25.5 7.5q-22 -3 -22 -35q0 -10 0.5 -25.5t0.5 -22.5q-40 -26 -63 -61q-27 -39 -19 -96zM244 -24 q-25 51 25 108q0 -9 -1.5 -27t-1.5 -22q-5 -53 -22 -59z" />
<glyph unicode="&#xacf3;" horiz-adv-x="459" d="M22 304q0 -12 17 -18.5t36 -3.5q224 50 351 65q26 4 28 12q1 6 -3 13q-5 9 -16 16t-23 7q-90 1 -217 -23q-8 52 -12 148q0 10 -10 21t-26 12q-24 1 -26 -21q-7 -85 17 -172q-15 -3 -43.5 -9.5t-35.5 -8.5q-37 -9 -37 -38zM55 607q5 -9 15.5 -13.5t21.5 -0.5 q113 54 172 59q2 -23 3.5 -55t2.5 -66t2 -46q1 -32 33 -27q9 2 17.5 12.5t9.5 26.5q6 80 1 156q-2 38 -18 52.5t-57 10.5q-43 -4 -103 -26t-93 -47q-17 -15 -7 -36zM128 41q-3 -17 4 -29t16 -14q9 -1 20.5 10.5t17.5 24.5q11 32 43.5 91.5t60.5 96.5q12 17 7 32 q-5 18 -17 26q-13 7 -27.5 -0.5t-23.5 -19.5q-34 -48 -64 -109.5t-37 -108.5zM255 128q0 -13 11 -24q74 -80 115 -136q6 -8 17.5 -9t20.5 5q23 24 8 47q-18 33 -51 69t-61 55q-29 19 -49 11q-11 -5 -11 -18z" />
<glyph unicode="&#xacf5;" horiz-adv-x="434" d="M21 249q2 -8 15 -16.5t29 -9.5q63 -1 149.5 10.5t145.5 29.5q20 5 40.5 22.5t13.5 36.5q-3 12 -18 8q-159 -30 -234 -37q-6 110 -4 194q0 33 -21 33q-33 0 -38 -26q-3 -14 -4 -30.5t0.5 -43t2 -38t4 -49.5t3.5 -44q-9 -1 -30.5 -3t-24.5 -2q-15 -2 -23.5 -11.5 t-5.5 -23.5zM32 597q5 -9 15.5 -13.5t21.5 -0.5q93 44 149 49q1 -10 9 -167q1 -29 33 -25q22 4 25 34q4 55 2 159q-2 37 -18 52t-57 11q-101 -9 -173 -63q-17 -15 -7 -36zM147 56q-2 -37 12.5 -56.5t46.5 -17.5q43 3 82.5 39.5t35.5 81.5q-2 22 -16.5 38.5t-44.5 18.5 q2 16 -9 22q-12 6 -29.5 -2t-29.5 -21q-44 -48 -48 -103zM201 39q10 42 49 95q20 -9 22 -30q2 -13 -7 -28q-19 -30 -57 -40q-8 -3 -7 3z" />
<glyph unicode="&#xacf6;" horiz-adv-x="470" d="M22 314q0 -12 17 -18.5t36 -3.5q224 50 351 65q26 4 28 12q1 6 -3 13q-5 9 -16 16t-23 7q-88 1 -223 -24q-7 48 -11 146q0 10 -8 20.5t-23 11.5q-24 2 -26 -16q-7 -85 17 -173q-15 -3 -43.5 -9.5t-35.5 -8.5q-37 -9 -37 -38zM71 627q5 -9 15.5 -13.5t21.5 -0.5 q93 44 149 49q1 -10 9 -167q1 -29 33 -25q22 4 25 34q4 55 2 159q-2 37 -18 52t-57 11q-101 -9 -173 -63q-17 -15 -7 -36zM120 171q4 -11 18.5 -16t32.5 1q74 32 114 37q-34 -39 -68.5 -98t-47.5 -95q-8 -16 -6 -35.5t16 -22.5q24 -6 38 23q27 54 67 114q6 -6 10 -8 q20 -16 36.5 -35.5t26 -33t24 -36t23.5 -35.5q7 -10 19 -15t22 -1q8 3 11.5 16.5t-3.5 30.5q-25 55 -63 102.5t-80 51.5q36 48 54 70q12 18 6.5 35t-19.5 26q-20 13 -53 10q-90 -7 -159 -45q-25 -14 -19 -41z" />
<glyph unicode="&#xacfc;" horiz-adv-x="690" d="M25 505q1 -12 15 -21.5t29 -6.5q93 21 141 14q-17 -96 -17 -149q0 -19 19 -25q30 -10 35 20q19 136 20 146q2 25 -13.5 45t-43.5 27q-36 6 -82.5 -0.5t-76.5 -21.5q-26 -13 -26 -28zM63 197q-1 -41 23 -53.5t58 0.5q120 33 234 140q12 11 18 25.5t4 23.5q-3 13 -11.5 15 t-15.5 -4q-146 -113 -242 -130q2 80 14 162q3 17 -5 34t-25 18q-15 -2 -17 -14q-22 -57 -35 -217zM443 354.5q-4 -123.5 4 -196.5q4 -16 17 -26t24 -8q24 2 19 50q-5 53 3 201q75 22 140 31q31 4 35 21q2 10 -5 16.5t-17 8.5q-57 10 -149 -15q2 23 4.5 59t3.5 46q1 20 -8 37 t-21 19q-15 2 -23 -12t-11 -33q-12 -75 -16 -198.5z" />
<glyph unicode="&#xacfd;" horiz-adv-x="680" d="M19 567q1 -12 15 -21.5t29 -6.5q93 21 141 14q-17 -96 -17 -149q0 -19 19 -25q30 -10 35 20q19 136 20 146q2 25 -13.5 45t-43.5 27q-36 6 -82.5 -0.5t-76.5 -21.5q-26 -13 -26 -28zM58 283q-1 -41 23 -53.5t58 0.5q120 33 234 140q12 11 18 25.5t4 23.5q-3 13 -11.5 15 t-15.5 -4q-146 -113 -242 -130q1 60 13 138q3 17 -5 34t-25 18q-15 -2 -17 -14q-23 -60 -34 -193zM303 182q7 -14 22.5 -19.5t29.5 -0.5q80 22 102 24q0 -32 -4 -156q-2 -36 21 -40q25 -4 35 33q14 60 12 168q-1 33 -20 46.5t-43 13.5q-58 0 -138 -36q-26 -13 -17 -33z M442 385q0 -17 6 -31t18 -14q32 0 36 71q1 12 3 38q65 15 147 23q32 4 30 25q-3 16 -21.5 23.5t-37.5 7.5q-34 0 -112 -15q12 95 15 113q3 25 -13 41q-14 13 -29.5 7t-17.5 -20q-23 -146 -24 -269z" />
<glyph unicode="&#xad00;" horiz-adv-x="687" d="M18 229q2 -15 22.5 -20.5t40.5 -3.5q83 10 175.5 40t115.5 45q17 11 14 31q-2 30 -59 15q-8 -2 -28 -8l-30 -9q6 35 0.5 105.5t-21.5 103.5q-34 67 -108 67q-66 0 -111 -43q-17 -17 -7 -34q5 -9 18 -12t24 1q61 22 70 24q19 3 36 -7.5t22 -25.5q29 -82 13 -199 q-5 -1 -17.5 -4.5t-19.5 -5.5q-6 84 -17 133q-4 17 -15 28t-25 10q-13 -1 -18 -18t-2 -33q11 -70 16 -136q-25 -6 -48 -9q-18 -2 -30 -12t-11 -23zM250 82q-2 -31 14 -44t47 -11q136 6 257 50q49 17 43 46q-8 25 -42 15q-109 -32 -241 -40q-3 19 4 85q6 42 -16 47 q-13 3 -26 -9t-20 -30q-18 -43 -20 -109zM420 312q0 -11 7.5 -25t21.5 -14q12 -1 21 10t10 25q1 35 3 101q11 0 21 2q105 23 139 27q41 6 42 21q1 8 -2 15t-16 14t-36 8q-57 1 -144 -17q7 136 12 179q2 14 -9.5 28.5t-26.5 11.5q-2 0 -7 -2t-11 -7.5t-7 -14.5 q-26 -173 -18 -362z" />
<glyph unicode="&#xad04;" horiz-adv-x="690" d="M19 672q1 -12 15 -21.5t29 -6.5q93 21 141 14q-17 -96 -17 -149q0 -19 19 -25q30 -10 35 20q19 136 20 146q2 25 -13.5 45t-43.5 27q-36 6 -82.5 -0.5t-76.5 -21.5q-26 -13 -26 -28zM58 388q-1 -41 23 -53.5t58 0.5q120 33 234 140q12 11 18 25.5t4 23.5q-3 13 -11.5 15 t-15.5 -4q-146 -113 -242 -130q1 60 13 138q3 17 -5 34t-25 18q-15 -2 -17 -14q-23 -60 -34 -193zM310 322q3 -32 49 -23q120 22 120 -8q0 -5 -9 -13.5t-24.5 -18.5t-30.5 -19t-35 -20.5t-29 -17.5q-24 -15 -19 -39q1 -13 9.5 -21.5t17.5 -6.5q97 13 118 13q-1 -1 -29 -30 t-46.5 -49.5t-42.5 -51.5t-34 -53q-14 -32 4 -53q17 -21 49 -20q69 2 166.5 33t115.5 66q9 18 4.5 26t-22.5 5q-10 -3 -39 -13t-45 -15t-44 -12t-58 -12t-64 -8q19 28 81 94.5t67 72.5q28 36 2 61t-69 20q73 43 73 84q0 43 -38 62q-34 17 -80.5 16.5t-83.5 -15.5 q-35 -9 -34 -34zM448 472q1 -18 7 -31.5t18 -12.5q30 0 34 72q0 6 0.5 16.5t1 19.5t1.5 17q63 15 144 21q16 2 23.5 9.5t6.5 15.5q-4 29 -58 32q-37 0 -110 -14q2 31 8 85q3 24 -14 41q-14 12 -29 6t-17 -20q-20 -149 -16 -257z" />
<glyph unicode="&#xad06;" horiz-adv-x="691" d="M24 672q1 -12 15 -21.5t29 -6.5q93 21 141 14q-17 -96 -17 -149q0 -19 19 -25q30 -10 35 20q19 136 20 146q2 25 -13.5 45t-43.5 27q-36 6 -82.5 -0.5t-76.5 -21.5q-26 -13 -26 -28zM58 358q-1 -41 23 -53.5t58 0.5q120 33 234 140q12 11 18 25.5t4 23.5q-3 13 -11.5 15 t-15.5 -4q-146 -113 -242 -130q1 60 13 138q3 17 -5 34t-25 18q-15 -2 -17 -14q-23 -60 -34 -193zM204.5 259q-4.5 -12 3.5 -25q14 -17 39 -9q2 1 27 8.5t38 9.5q17 3 20.5 -2t-0.5 -12q-12 -35 -86 -90q-22 -15 -16 -34q3 -13 17.5 -19t29.5 1q30 18 73 24 q-87 -98 -87 -137q0 -24 18 -39t49 -7q81 21 151 73q15 10 23 26t2 25q-15 23 -50 0q-49 -33 -121 -53q40 59 73 94q25 29 21 51q-2 14 -23.5 20.5t-54.5 0.5q40 38 50 71q8 21 -9 40t-47 22q-69 6 -126 -23q-10 -4 -14.5 -16zM448 442q1 -18 7 -31.5t18 -12.5q30 0 34 72 q0 6 0.5 16.5t1 19.5t1.5 17q63 15 144 21q16 2 23.5 9.5t6.5 15.5q-4 29 -58 32q-37 0 -110 -14q2 31 8 85q3 24 -14 41q-14 12 -29 6t-17 -20q-20 -149 -16 -257zM449.5 235.5q0.5 -64.5 8.5 -102.5q3 -13 12 -22t20 -7q23 4 20 40q-5 46 -3 102q8 -3 21 1q9 3 30.5 18.5 t31.5 17.5q-16 -108 -45 -173q-12 -26 6.5 -44.5t45.5 -10.5q61 17 94 40q13 10 22.5 27t0.5 28q-11 11 -31 1q-8 -4 -26 -13.5t-29 -14t-20 -6.5q3 13 15.5 50t21.5 70.5t10 55.5q1 24 -17.5 37t-42.5 9q-37 -6 -80 -34q-2 -1 -4 -3q0 6 1 9q2 15 -5.5 26.5t-22.5 14.5 q-22 4 -29 -28q-6 -24 -5.5 -88.5z" />
<glyph unicode="&#xad0c;" horiz-adv-x="701" d="M18 294q2 -15 22.5 -20.5t40.5 -3.5q84 10 182 40.5t120 44.5q17 11 14 31q-2 30 -59 15q-4 -1 -23.5 -6.5t-33.5 -9.5q5 42 7 93t-14.5 105t-48.5 76q-29 20 -69 20q-34 0 -68 -14.5t-49 -37.5q-11 -22 2 -35q8 -7 20.5 -6.5t23.5 7.5q33 22 63 22q33 0 53 -26t24 -68.5 t3 -79.5t-7 -74l-57 -15q-7 65 -21 133q-4 18 -13 28.5t-23 9.5q-13 -1 -18 -18t-2 -33q15 -92 20 -134q-25 -6 -48 -9q-18 -2 -30 -12t-11 -23zM287 64q5 -46 32 -52q12 -2 22 6.5t10 22.5q-1 59 0 120q17 -10 35 -1q68 31 81 35q-4 -24 -10 -48t-11.5 -39t-16 -42.5 t-15.5 -42.5q-13 -38 3 -54t38 -10q66 17 156 60q33 16 29 44q-5 34 -45 19q-79 -30 -100 -36q35 93 40 133l2 22q1 29 -16 44.5t-46 15.5q-34 0 -119 -44q0 -1 -1 -1t-2 -1q0 49 -30 49q-26 0 -32 -51q-9 -72 -4 -149zM420 377q0 -11 7.5 -25t21.5 -14q12 -1 21 10t10 25 q1 35 3 91q13 0 21 3q95 21 149 22q44 0 45 21q1 13 -11.5 24.5t-45.5 12.5q-61 1 -154 -19q7 124 12 171q2 14 -9.5 28.5t-26.5 11.5q-2 0 -7 -2t-11 -7.5t-7 -14.5q-25 -168 -18 -338z" />
<glyph unicode="&#xad0d;" horiz-adv-x="710" d="M18 294q2 -15 22.5 -20.5t40.5 -3.5q84 10 182 40.5t120 44.5q17 11 14 31q-2 30 -59 15q-4 -1 -23.5 -6.5t-33.5 -9.5q5 42 7 93t-14.5 105t-48.5 76q-29 20 -69 20q-34 0 -68 -14.5t-49 -37.5q-11 -22 2 -35q8 -7 20.5 -6.5t23.5 7.5q33 22 63 22q33 0 53 -26t24 -68.5 t3 -79.5t-7 -74l-57 -15q-7 65 -21 133q-4 18 -13 28.5t-23 9.5q-13 -1 -18 -18t-2 -33q15 -92 20 -134q-25 -6 -48 -9q-18 -2 -30 -12t-11 -23zM309 239q5 38 34 38q17 2 24.5 -9.5t4.5 -29.5q-14 -129 -1 -249q3 -26 -20 -30q-11 -1 -21 8t-14 23q-28 98 -7 249zM406 17 q-3 102 97 168l-3 83q0 37 26 42q17 2 26 -10t12 -31q2 -15 4 -49l15 6q11 4 19 0t11 -12q3 -11 -2.5 -24t-19.5 -18q-4 -2 -11 -5t-10 -5q0 -113 -25 -172q-12 -30 -32.5 -47.5t-40.5 -15.5q-28 1 -47 30.5t-19 59.5zM440 377q0 -11 7.5 -25t21.5 -14q12 -1 21 10t10 25 q1 36 3 94h1q95 21 149 22q44 0 45 21q1 13 -11.5 24.5t-45.5 12.5q-56 1 -134 -15q7 122 12 167q2 14 -9.5 28.5t-26.5 11.5q-2 0 -7 -2t-11 -7.5t-7 -14.5q-25 -168 -18 -338zM469 -10q25 6 32 81q0 6 1.5 22.5t1.5 24.5q-64 -57 -35 -128z" />
<glyph unicode="&#xad0f;" horiz-adv-x="710" d="M25 240v10t6.5 13.5t17.5 12.5l61 24q5 59 -13 171q-9 41 21 49q31 8 40 -33q19 -90 15 -163l203 80q33 15 40 5q14 -23 -48 -63q-43 -29 -125.5 -67t-142.5 -56q-64 -18 -75 17zM33 609q4 13 14 19q41 22 96 37t97 12q26 0 42.5 -15t21.5 -40q17 -98 -6 -198 q-4 -15 -13 -22.5t-18 -5.5q-26 7 -24 41q4 82 -3 176q-68 -3 -157 -36q-33 -11 -48 10q-6 9 -2 22zM279 28q0 3 0.5 7t1.5 8q14 51 73 136.5t107 126.5q17 15 41 -2q23 -16 0 -41q-25 -25 -58 -72q7 0 15 -2q38 -19 77.5 -67.5t63.5 -95.5q21 -40 6 -48q-16 -7 -30 -1.5 t-24 19.5q-67 98 -133 158q-49 -74 -79 -135q-5 -14 -18.5 -17t-19.5 2q-1 0 -3.5 1.5t-3.5 2t-3.5 2t-4 2.5t-3.5 2.5t-2.5 3.5t-1.5 4.5t-1 5.5zM468 369q-17 166 0 314q2 11 12 16.5t22 3.5q9 -2 17.5 -10t8.5 -15q-2 -27 -4 -87q80 25 143 28q23 1 32 -11q5 -9 -4 -23.5 t-28 -19.5q-93 -25 -142 -41v-7q0 -97 4 -162q-2 -13 -11.5 -17.5t-19.5 -1.5q-11 3 -20 13.5t-10 19.5z" />
<glyph unicode="&#xad11;" horiz-adv-x="700" d="M25 197q5 -20 31.5 -22t43.5 6q72 23 152.5 61.5t108.5 57.5q24 15 40 33.5t8 29.5q-6 9 -40 -5l-222 -87q6 78 -16 183q-9 42 -40 33q-28 -8 -21 -49q19 -116 14 -191l-35 -14q-11 -5 -17.5 -12.5t-6.5 -13.5v-10zM40 593q1 -12 11.5 -19.5t20.5 -5.5q6 1 27 4t37 4.5 t34 2.5t28 -3t10 -12q-11 -131 -4 -170q4 -22 12 -31t21 -7q30 5 27 41q-1 32 3.5 94t4.5 73q1 25 -14 43.5t-43 25.5q-37 10 -150 -6q-29 -4 -25 -34zM389 83q0 -32 17.5 -47.5t48.5 -9.5q40 10 75.5 37.5t48.5 53.5q7 14 9.5 29.5t0.5 31t-13.5 29.5t-31.5 21 q1 19 -12 26.5t-33 0.5q-46 -20 -77 -69.5t-33 -102.5zM441 322q1 -8 10 -17.5t20 -12.5q27 -8 31 16q-4 90 -4 149q127 8 170 25q24 8 30 21q4 9 -6.5 20.5t-28.5 9.5q-69 -9 -166 -13q0 43 4 111q0 7 -8.5 15.5t-17.5 9.5q-13 2 -23 -3.5t-11 -16.5q-16 -141 0 -314z M457 99q4 25 23.5 55t39.5 45q16 -3 20 -19t-3 -25q-28 -45 -80 -56z" />
<glyph unicode="&#xad18;" horiz-adv-x="680" d="M17 204q1 -16 21.5 -21.5t41.5 -2.5q85 11 163.5 36t98.5 39q17 11 14 30q-2 31 -59 16q-13 -4 -55.5 -16.5t-69.5 -20.5q-6 37 -10 137q0 11 -9 23t-24 13q-12 1 -19.5 -5.5t-8.5 -14.5q-7 -85 18 -165v-1q-29 -7 -61 -12q-18 -2 -30 -12.5t-11 -22.5zM41 509 q5 -9 15.5 -13.5t21.5 -0.5q95 45 141 49q5 -41 8 -170q1 -29 34 -25q22 4 25 34q8 75 2 162q-3 33 -19 49.5t-56 13.5q-92 -8 -165 -63q-17 -15 -7 -36zM380 268q3 -24 12.5 -44.5t25.5 -19.5q10 0 18 6t7 16q-6 75 -6 144q20 -11 44 5q40 24 69 37q-2 -104 6 -164 q9 -74 37 -74q7 0 15.5 8.5t7.5 24.5q-5 234 6 336q6 63 -38 68q-17 3 -22 -40q-6 -41 -9 -95q-64 -21 -107 -46q-6 -4 -8 -5q2 54 4 82q2 49 -31 56q-12 3 -20 -8t-10 -29q-16 -143 -1 -258z" />
<glyph unicode="&#xad1c;" horiz-adv-x="700" d="M29 184q3 -8 16.5 -13t29.5 -2q53 11 138.5 48.5t128.5 65.5q28 17 27 36q-1 16 -20.5 20t-33.5 -5q-70 -38 -177 -82q1 44 -2 113t-9 98q-7 26 -32 16q-10 -4 -16 -18t-4 -28q6 -102 5 -203l-16.5 -5.5t-14.5 -4.5q-13 -4 -19.5 -16.5t-0.5 -19.5zM32 539 q6 -13 19.5 -17.5t24.5 0.5q69 22 108 21q4 -57 -1 -169q0 -26 15 -30q10 -2 24 6.5t17 31.5q11 81 7 167q-3 52 -70 52q-62 0 -120 -25q-33 -14 -24 -37zM393 321q2 -20 13 -34t20 -14q31 0 26 53q-2 30 -2 58q45 25 121 50q2 -74 4 -108q1 -21 9.5 -31.5t25.5 -9.5 q9 0 16 11t7 29q-2 132 3 243q0 47 -24 51q-31 5 -37 -47q-3 -30 -3 -75q-69 -21 -122 -43q3 92 11 144q2 14 -6 26t-19 15q-32 8 -37 -29q-23 -157 -6 -289zM418 85q0 -60 67 -56q33 2 89 21t99 43q45 26 37 51q-8 20 -43 7q-118 -43 -179 -55q2 22 6.5 46.5t10 48.5 t6.5 32q6 36 -22 36q-24 0 -39 -34q-9 -22 -20.5 -68.5t-11.5 -71.5z" />
<glyph unicode="&#xad20;" horiz-adv-x="690" d="M31 300q3 -8 16.5 -13t29.5 -2q53 11 138.5 48.5t128.5 65.5q28 17 27 36q-1 16 -20.5 20t-33.5 -5q-70 -38 -177 -82q1 44 -2 113t-9 98q-7 26 -32 16q-10 -4 -16 -18t-4 -28q6 -102 5 -203l-16.5 -5.5t-14.5 -4.5q-13 -4 -19.5 -16.5t-0.5 -19.5zM34 655 q6 -13 19.5 -17.5t24.5 0.5q69 22 108 21q4 -57 -1 -169q0 -26 15 -30q10 -2 24 6.5t17 31.5q11 81 7 167q-3 52 -70 52q-62 0 -120 -25q-33 -14 -24 -37zM354 291q3 -14 14 -22.5t28 -4.5q3 1 56.5 14.5t76.5 17.5q-16 -25 -60 -67t-76 -67q-28 -21 -20 -42q8 -26 45 -17 q98 26 133 30q-112 -107 -165 -182q-17 -32 1 -54q26 -27 72 -13q39 13 116.5 41t119.5 41q12 2 17 14.5t-3 26.5q-12 17 -61 6q-107 -26 -184 -58q17 19 75.5 80t80.5 87q12 15 10 43q-1 26 -48 29t-75 -7q23 18 54 54.5t44 64.5q6 14 6 24q3 20 -17.5 29t-56.5 4 q-44 -6 -151 -36q-34 -9 -32 -36zM395 447q2 -20 13 -34t20 -14q31 0 26 53q-2 19 -2 79q34 19 114 49q-2 -63 3 -128q1 -21 9.5 -31.5t25.5 -9.5q10 0 18 11t8 29q0 197 3 231q0 50 -27 51q-17 1 -25.5 -11.5t-11.5 -35.5q-2 -26 -2 -43q-65 -22 -112 -42q3 75 11 122 q2 14 -6 26t-19 15q-17 4 -27.5 -6.5t-12.5 -24.5q-22 -157 -6 -286z" />
<glyph unicode="&#xad29;" horiz-adv-x="710" d="M20.5 612.5q4.5 14.5 17.5 21.5q39 21 91.5 35t94.5 12q54 -3 65 -55q18 -86 -2 -191q-3 -16 -12 -24.5t-20 -7.5q-27 4 -25 39q5 88 -2 173q-68 -3 -157 -36q-33 -11 -48 10q-7 9 -2.5 23.5zM40 254q3 -8 16.5 -13t29.5 -2q53 11 138.5 48.5t128.5 65.5q28 17 27 36 q-1 16 -20.5 20t-33.5 -5q-81 -42 -156 -73q5 133 -12 180q-9 25 -31 17q-25 -10 -24 -44v-3q8 -161 8 -174l-16.5 -5.5t-19 -6.5t-15.5 -5q-13 -4 -19.5 -16.5t-0.5 -19.5zM374 45q9 -36 38 -32q13 2 19 10t5.5 18.5t-1.5 21.5q-6 48 -2 188q2 44 -32 54q-10 4 -17.5 -5.5 t-8.5 -21.5q-21 -135 -1 -233zM405 399q-16 144 7 302q2 15 11 24.5t26 4.5q12 -3 19.5 -15t5.5 -26q-6 -38 -10 -148q18 8 54 21q17 7 67 22q0 14 3 71q3 23 11.5 35.5t25.5 11.5q27 -1 27 -51q-4 -67 -4 -248q0 -18 -8 -29t-18 -11q-17 -1 -25.5 9.5t-9.5 31.5 q-3 57 -3 118q-79 -28 -122 -51q0 -37 2 -67q1 -31 -7 -43q-6 -10 -19 -10q-9 0 -20 14t-13 34zM465 64q-6 -38 6.5 -77.5t42.5 -48.5q28 -7 52 10.5t34 51.5q35 108 36 281q-1 24 -7.5 34.5t-20.5 9.5q-7 -1 -14.5 -5t-15 -19t-7.5 -39q0 -8 -0.5 -24t-1.5 -23 q-90 -41 -104 -151zM511 47q2 69 53 99q-6 -54 -24 -117q-8 -19 -20 -16q-12 0 -9 34z" />
<glyph unicode="&#xad2c;" horiz-adv-x="690" d="M33 223q3 -8 16.5 -13t29.5 -2q53 11 138.5 48.5t128.5 65.5q28 17 27 36q-1 16 -20.5 20t-33.5 -5q-85 -44 -174 -80q0 113 -16 195q-7 26 -32 16q-10 -4 -16 -18t-4 -28q5 -81 5 -189q-5 -2 -29 -10q-13 -4 -19.5 -16.5t-0.5 -19.5zM34 578q6 -13 19.5 -17.5t24.5 0.5 q73 23 120 22q4 -57 -1 -169q0 -26 15 -30q10 -2 24 6.5t17 31.5q11 81 7 167q-3 52 -70 52q-72 0 -132 -26q-33 -14 -24 -37zM259 85q-15 -44 4 -55q23 -12 44 26q40 77 49 89q29 -35 88 -41q-41 -64 -49 -98q-3 -21 14 -28q28 -8 44 23q57 101 139 209q12 16 14 33t-8 23 q-20 11 -50 -17q-14 -12 -71 -92q-25 0 -54.5 8.5t-39.5 23.5q11 19 40 57q11 16 8 29.5t-12 18.5q-8 3 -23 -5.5t-25 -18.5q-30 -30 -61.5 -82.5t-50.5 -102.5zM396 370q3 -20 13.5 -34t19.5 -14q32 0 26 53q-2 17 -2 69q44 24 109 48q-2 -77 7 -139q3 -22 10.5 -32 t24.5 -9q10 0 18 11t8 29q-2 160 5 243q2 23 -6 36.5t-23 14.5q-17 1 -25.5 -11.5t-11.5 -35.5q-2 -15 -4 -44q-63 -20 -110 -41q3 76 11 122q2 14 -6 26t-19 15q-17 4 -27.5 -6.5t-12.5 -24.5q-23 -154 -5 -276zM535 97.5q1 -10.5 6 -17.5q64 -58 121 -133q20 -25 39 -13 q22 14 -2 61q-20 40 -59 79t-64 45q-19 4 -30.5 -3.5t-10.5 -18z" />
<glyph unicode="&#xad2d;" horiz-adv-x="700" d="M26 164q3 -8 16.5 -13t29.5 -2q53 11 138.5 48.5t128.5 65.5q28 17 27 36q-1 16 -20.5 20t-33.5 -5q-85 -44 -174 -80q1 44 -2 112.5t-9 96.5q-7 26 -32 16q-10 -4 -16 -18t-4 -28q6 -103 5 -202q-28 -9 -34 -11q-13 -4 -19.5 -16.5t-0.5 -19.5zM32 519q6 -13 19.5 -17.5 t24.5 0.5q69 22 108 21q4 -57 -1 -169q0 -26 15 -30q10 -2 24 6.5t17 31.5q11 81 7 167q-3 52 -70 52q-62 0 -120 -25q-33 -14 -24 -37zM366 45q2 -23 20 -36t45 -9q65 11 113 72q13 17 16.5 39t0 38t-10.5 27q-8 13 -21 21.5t-24 2.5q-2 8 -9 14q-12 8 -44 -14 q-43 -29 -67.5 -70t-18.5 -85zM393 301q2 -20 13 -34t20 -14q31 0 26 53q-2 26 -2 58q40 22 122 51q0 -52 3 -109q1 -21 9.5 -31.5t25.5 -9.5q10 0 18 11t8 29q0 187 3 221q0 50 -27 51q-17 1 -25.5 -11.5t-11.5 -35.5q-1 -21 -3 -53q-70 -22 -121 -43q3 118 13 177 q2 14 -6 26t-19 15q-32 8 -37 -29q-26 -186 -9 -322zM427 58q-1 38 66 105l2 2q9 -22 6 -36q-4 -18 -25.5 -40t-48.5 -31z" />
<glyph unicode="&#xad34;" horiz-adv-x="570" d="M25 505q1 -12 15 -21.5t29 -6.5q93 21 141 14q-17 -96 -17 -149q0 -19 19 -25q30 -10 35 20q19 136 20 146q2 25 -13.5 45t-43.5 27q-36 6 -82.5 -0.5t-76.5 -21.5q-26 -13 -26 -28zM63 197q-1 -41 23 -53.5t58 0.5q120 33 234 140q12 11 18 25.5t4 23.5q-3 13 -11.5 15 t-15.5 -4q-146 -113 -242 -130q2 80 14 162q3 17 -5 34t-25 18q-15 -2 -17 -14q-22 -57 -35 -217zM431 354.5q-4 -123.5 4 -196.5q4 -16 17 -26t24 -8q24 2 19 50q-6 67 15 368q1 20 -8 37t-21 19q-15 2 -23 -12t-11 -33q-12 -75 -16 -198.5z" />
<glyph unicode="&#xad35;" horiz-adv-x="560" d="M26 229q5 -21 31 -24.5t43 4.5q131 34 241 97q24 14 40 31t8 29q-4 5 -21.5 3.5t-29.5 -6.5l-185 -64q1 65 -16 145q-9 42 -40 33t-21 -49q17 -85 15 -151l-39 -13q-29 -11 -26 -35zM34 583q1 -12 11.5 -19.5t20.5 -5.5q6 1 27 4t36.5 4.5t33 2.5t28 -3t11.5 -12 q6 -60 -2 -134q-1 -22 8 -30.5t22 -5.5q26 6 32 44q12 77 7 126q-5 54 -60 69q-37 10 -150 -6q-29 -4 -25 -34zM290.5 158q4.5 11 13.5 17q22 15 59 31q41 19 78 19q23 0 43 -20q24 -24 20 -59q-12 -93 -32 -144q-8 -15 -21 -20.5t-25 -0.5q-24 11 -12 46q15 44 29 136 q-18 -1 -35.5 -7t-40.5 -17t-28 -13q-13 -6 -28 -3t-20 14q-5 10 -0.5 21zM434 330q2 -20 13 -34t20 -14q31 0 26 53q-4 45 0 133t12 138q2 14 -6 26t-19 15q-17 4 -27.5 -6.5t-12.5 -24.5q-23 -153 -6 -286z" />
<glyph unicode="&#xad38;" horiz-adv-x="593" d="M34 208q8 -22 39 -19q45 5 139 35t140 58q32 18 32 39q0 14 -11 21t-28 -1q-21 -11 -94 -33t-108 -31q7 25 6 81.5t-10 99.5q-5 25 -30 19q-22 -5 -28 -29q-2 -8 -1 -16q13 -121 -13 -173q-41 -28 -33 -51zM34 564q1 -12 13 -19.5t22 -5.5q1 0 49.5 8.5t75 8t27.5 -13.5 q6 -60 -2 -134q-1 -22 8 -30.5t22 -5.5q26 6 32 44q12 77 7 126q-5 54 -60 69q-29 7 -79 4t-82 -13q-37 -12 -33 -38zM297 45q-1 -19 20.5 -29t53.5 -8q43 3 102.5 24.5t100.5 46.5q47 28 43 55q-2 23 -47 5q-144 -56 -203 -63q9 45 27 118q4 14 -2 25t-19 12q-20 3 -39 -36 q-15 -31 -26.5 -76t-10.5 -74zM452 289q4 -40 28 -40q32 0 34 69q4 102 17 217q3 24 -14 41q-14 12 -30.5 6t-18.5 -20q-27 -156 -16 -273z" />
<glyph unicode="&#xad3c;" horiz-adv-x="580" d="M19 672q1 -12 15 -21.5t29 -6.5q93 21 141 14q-17 -96 -17 -149q0 -19 19 -25q30 -10 35 20q19 136 20 146q2 25 -13.5 45t-43.5 27q-36 6 -82.5 -0.5t-76.5 -21.5q-26 -13 -26 -28zM58 388q-1 -41 23 -53.5t58 0.5q120 33 234 140q12 11 18 25.5t4 23.5q-3 13 -11.5 15 t-15.5 -4q-146 -113 -242 -130q1 60 13 138q3 17 -5 34t-25 18q-15 -2 -17 -14q-23 -60 -34 -193zM280 322q3 -32 49 -23q120 22 120 -8q0 -5 -9 -13.5t-24.5 -18.5t-30.5 -19t-35 -20.5t-29 -17.5q-24 -15 -19 -39q1 -13 9.5 -21.5t17.5 -6.5q97 13 118 13q-1 -1 -29 -30 t-46.5 -49.5t-42.5 -51.5t-34 -53q-14 -32 4 -53q17 -21 49 -20q69 2 166.5 33t115.5 66q9 18 4.5 26t-22.5 5q-10 -3 -39 -13t-45 -15t-44 -12t-58 -12t-64 -8q19 28 81 94.5t67 72.5q28 36 2 61t-69 20q73 43 73 84q0 43 -38 62q-34 17 -80.5 16.5t-83.5 -15.5 q-35 -9 -34 -34zM448 472q1 -18 7 -31.5t18 -12.5q30 0 34 72q3 68 17 202q3 24 -14 41q-14 12 -29 6t-17 -20q-20 -149 -16 -257z" />
<glyph unicode="&#xad44;" horiz-adv-x="580" d="M26 263q5 -21 31 -24.5t43 4.5q131 34 241 97q24 14 40 31t8 29q-4 5 -21.5 3.5t-29.5 -6.5l-185 -64q1 65 -16 145q-9 42 -40 33t-21 -49q17 -85 15 -151l-39 -13q-29 -11 -26 -35zM34 617q1 -12 11.5 -19.5t20.5 -5.5q6 1 27 4t36.5 4.5t33 2.5t28 -3t11.5 -12 q6 -60 -2 -134q-1 -22 8 -30.5t22 -5.5q26 6 32 44q12 77 7 126q-5 54 -60 69q-37 10 -150 -6q-29 -4 -25 -34zM259 57q5 -46 32 -52q12 -2 22 6.5t10 22.5q-1 58 0 120q17 -10 35 -1q65 30 83 35q-4 -24 -10 -48t-11.5 -39t-16 -42.5t-15.5 -42.5q-13 -38 3 -54t38 -10 q66 17 156 60q33 16 29 44q-5 34 -45 19q-79 -30 -100 -36q35 93 40 133l2 22q1 29 -16 44.5t-46 15.5q-36 0 -121 -44l-1 -1q-1 -1 -2 -1q0 49 -30 49q-26 0 -32 -51q-9 -72 -4 -149zM434 364q2 -20 13 -34t20 -14q31 0 26 53q-4 45 0 133t12 138q2 14 -6 26t-19 15 q-17 4 -27.5 -6.5t-12.5 -24.5q-23 -153 -6 -286z" />
<glyph unicode="&#xad45;" horiz-adv-x="560" d="M26 293q5 -21 31 -24.5t43 4.5q131 34 241 97q24 14 40 31t8 29q-4 5 -21.5 3.5t-29.5 -6.5l-185 -64q1 65 -16 145q-9 42 -40 33t-21 -49q17 -85 15 -151l-39 -13q-29 -11 -26 -35zM34 647q1 -12 11.5 -19.5t20.5 -5.5q6 1 27 4t36.5 4.5t33 2.5t28 -3t11.5 -12 q6 -60 -2 -134q-1 -22 8 -30.5t22 -5.5q26 6 32 44q12 77 7 126q-5 54 -60 69q-37 10 -150 -6q-29 -4 -25 -34zM253 247q-13 -126 5 -197q3 -15 14.5 -21.5t22.5 -4.5q19 3 22.5 16.5t-1.5 27.5q-6 37 -6 157q0 38 -32 46q-10 3 -17 -5t-8 -19zM338 59q-4 -34 9 -67t42 -39 q27 -6 50 8.5t33 44.5q32 99 27 259q-1 20 -7.5 29t-20.5 8q-34 -3 -34 -54q0 -39 -1 -57q-85 -36 -98 -132zM384 45q0 57 48 86q-6 -53 -20 -101q-7 -17 -19 -15q-9 1 -9 30zM434 394q2 -20 13 -34t20 -14q31 0 26 53q-4 45 0 133t12 138q2 14 -6 26t-19 15 q-17 4 -27.5 -6.5t-12.5 -24.5q-23 -153 -6 -286z" />
<glyph unicode="&#xad47;" horiz-adv-x="570" d="M26 256q5 -21 31 -24.5t43 4.5q131 34 241 97q24 14 40 31t8 29q-4 5 -21.5 3.5t-29.5 -6.5l-185 -64q1 65 -16 145q-9 42 -40 33t-21 -49q17 -85 15 -151l-39 -13q-29 -11 -26 -35zM34 590q1 -12 11.5 -19.5t20.5 -5.5q6 1 27 4t36.5 4.5t33 2.5t28 -3t11.5 -12 q6 -60 -2 -134q-1 -22 8 -30.5t22 -5.5q26 6 32 44q12 77 7 126q-5 54 -60 69q-37 10 -150 -6q-29 -4 -25 -34zM248 23q0 3 0.5 7t1.5 8q14 51 73 136.5t107 126.5q17 15 41 -2q23 -16 0 -41q-25 -25 -58 -72q7 0 15 -2q38 -19 77.5 -67.5t63.5 -95.5q21 -40 6 -48 q-16 -7 -30 -1.5t-24 19.5q-67 98 -133 158q-49 -74 -79 -135q-5 -14 -18.5 -17t-19.5 2q-1 0 -3.5 1.5t-3.5 2t-3.5 2t-4 2.5t-3.5 2.5t-2.5 3.5t-1.5 4.5t-1 5.5zM442 387q2 -20 13 -34t20 -14q31 0 26 53q-4 45 0 133t12 138q2 14 -6 26t-19 15q-17 4 -27.5 -6.5 t-12.5 -24.5q-23 -153 -6 -286z" />
<glyph unicode="&#xad49;" horiz-adv-x="594" d="M20 557q1 -12 11.5 -19.5t20.5 -5.5q6 1 29.5 4.5t41.5 5t39 2.5t33 -2.5t12 -11.5q-10 -115 -4 -147q4 -22 12 -31t21 -7q30 5 27 41q-1 32 3.5 81.5t4.5 62.5q1 25 -14 43.5t-43 25.5q-39 10 -169 -8q-29 -4 -25 -34zM25 178q5 -20 31.5 -22t43.5 6q72 23 152.5 61.5 t108.5 57.5q24 15 40 33.5t8 29.5q-6 9 -40 -5l-222 -87q6 78 -16 183q-9 42 -40 33q-28 -8 -21 -49q19 -116 14 -191l-35 -14q-11 -5 -17.5 -12.5t-6.5 -13.5v-10zM342 67q0 -32 17.5 -47.5t48.5 -9.5q40 10 75.5 37.5t48.5 53.5q7 14 9.5 29.5t0.5 31t-13.5 29.5t-31.5 21 q1 19 -12 26.5t-33 0.5q-46 -20 -77 -69.5t-33 -102.5zM410 83q4 25 23.5 55t39.5 45q16 -3 20 -19t-3 -25q-28 -45 -80 -56zM462 302q0 -8 8.5 -17.5t19.5 -12.5q27 -5 32 17q4 201 19 323q0 7 -8 15.5t-17 9.5q-30 2 -35 -21q-25 -147 -19 -314z" />
<glyph unicode="&#xad50;" horiz-adv-x="481" d="M30 549q5 -9 15.5 -14t21.5 -2q139 41 203 32q9 -39 9 -179q0 -29 33 -25q18 3 26 34t7.5 88.5t-7.5 85.5q-14 57 -72 62q-43 5 -102.5 -4.5t-110.5 -33.5q-17 -8 -23 -22t0 -22zM49 168q3 -17 11.5 -27.5t15.5 -12.5l7 -1q29 0 27 44q-4 109 3 186q0 44 -31 46 q-29 3 -32 -28q-15 -106 -1 -207zM141 110q-7 -31 7.5 -48.5t63.5 -4.5q96 25 242 53q31 6 34 32q1 12 -8 20t-24 8q-81 -1 -236 -35q6 32 22.5 92t20.5 77q3 15 -4 30.5t-24 20.5q-9 2 -18 -6.5t-15 -22.5q-34 -85 -61 -216z" />
<glyph unicode="&#xad54;" horiz-adv-x="480" d="M25 474q5 -68 30 -148q5 -16 14.5 -24.5t16.5 -9.5h7q25 4 14 48q-17 75 -25 128q-6 40 -31 40q-30 0 -26 -34zM57 589q13 -19 50 -1q107 50 178 55q8 -112 8 -230q0 -20 8.5 -31.5t22.5 -10.5t22.5 15.5t10.5 33.5q2 29 0 108.5t-6 116.5q-2 20 -6 31t-21 20.5t-47 9.5 q-57 0 -120 -22.5t-92 -47.5q-25 -21 -8 -47zM90 231q2 -10 13 -20.5t29 -7.5q133 22 268 37q49 5 49 34q0 27 -52 27q-59 0 -188 -15q24 53 26 204q0 11 -12 24t-19 13q-7 1 -12.5 -5t-8 -11.5t-4.5 -12.5q-8 -25 -13.5 -103t-15.5 -120q-24 -6 -31 -8q-34 -9 -29 -36z M163 22q5 -60 74 -54q45 3 122 31t128 55q46 25 35 53q-7 18 -48 4q-95 -37 -217 -71q-23 -7 -23 8q0 20 1.5 34.5t6 36t6.5 34.5q2 10 -6 19t-18 10q-18 2 -28 -13q-41 -61 -33 -147z" />
<glyph unicode="&#xad58;" horiz-adv-x="480" d="M23 547q7 -56 24 -116q4 -16 13.5 -24.5t17.5 -8.5l7 -1q25 4 14 48q-8 36 -19 96q-8 40 -31 40q-30 0 -26 -34zM49 667q13 -19 50 -1q107 50 178 55q8 -112 8 -230q0 -20 8.5 -31.5t22.5 -10.5t22.5 15.5t10.5 33.5q2 29 0 108.5t-6 116.5q-2 20 -6 31t-21 20.5t-47 9.5 q-57 0 -120 -22.5t-92 -47.5q-25 -21 -8 -47zM82 343q2 -10 13 -20.5t29 -7.5q133 22 268 37q49 5 49 34q0 27 -52 27q-59 0 -188 -15q24 53 26 204q0 11 -12 24t-19 13q-7 1 -12.5 -5t-8 -11.5t-4.5 -12.5q-8 -25 -13.5 -103t-15.5 -120q-24 -6 -31 -8q-34 -9 -29 -36z M106 214q2 -14 14.5 -22.5t28.5 -6.5q3 0 18 2t24.5 3t26 2.5t27 1.5t21.5 -0.5t16.5 -3t5.5 -7.5q0 -3 -3.5 -7t-10.5 -9t-14.5 -10t-19.5 -12.5t-20 -12t-22 -12.5t-20 -12q-22 -10 -19 -30q4 -30 44 -23q71 12 116 15q-111 -121 -147 -199q-13 -36 15 -53t63 -7 q151 38 249 82q18 10 27.5 26t6.5 28q-6 23 -55 6q-129 -45 -230 -71q47 60 125 147q12 12 14 30t-5 34t-26.5 26t-48.5 7q56 33 52 79q-2 18 -24.5 34t-60.5 19q-64 4 -132 -12q-14 -3 -25.5 -11.5t-10.5 -20.5z" />
<glyph unicode="&#xad61;" horiz-adv-x="431" d="M32 284q0 20 24 27q17 6 96 21q-8 116 19 187q19 47 44 36q13 -7 14.5 -19.5t-2.5 -25.5q-6 -27 -23 -168q102 17 143 19q62 5 62 -15q0 -10 -10 -22t-28 -15q-200 -29 -281 -49q-16 -4 -37 1.5t-21 22.5zM42 638q-21 23 3 47q27 30 94 54t113 22q39 0 55 -13.5t19 -47.5 q11 -86 6 -205q-6 -48 -33 -49q-14 -1 -22.5 10.5t-8.5 31.5q0 113 -8 212q-36 -1 -88.5 -17.5t-79.5 -37.5q-33 -27 -50 -7zM45 509q4 71 34 69q21 -1 21 -45q0 -72 12 -141q7 -43 -11 -44q-19 -1 -33.5 13.5t-16.5 31.5q-9 61 -6 116zM111 171q5 34 31 37q18 1 25 -9.5 t5 -26.5q-3 -26 -4 -46t1 -42t3.5 -33t7 -41.5t8.5 -45.5q4 -25 -23 -27q-22 -3 -36 27q-32 100 -18 207zM231.5 47.5q8.5 42.5 36.5 59.5q17 12 48 12q4 41 6 99q1 15 9.5 26t24.5 9q30 -4 28 -38q-8 -200 -36 -290q-6 -21 -20 -30.5t-31 -7.5q-49 5 -64 80 q-10 38 -1.5 80.5zM275 13.5q-6 -41.5 6 -64.5q16 0 24 64q2 17 6 47q-30 -5 -36 -46.5z" />
<glyph unicode="&#xad63;" horiz-adv-x="470" d="M25 517q5 -68 30 -148q5 -16 14.5 -24.5t16.5 -8.5l7 -1q25 4 14 48q-17 75 -25 128q-6 40 -31 40q-30 0 -26 -34zM57 632q13 -19 50 -1q107 50 178 55q8 -112 8 -230q0 -20 8.5 -31.5t22.5 -10.5t22.5 15.5t10.5 33.5q2 29 0 108.5t-6 116.5q-2 20 -6 31t-21 20.5 t-47 9.5q-57 0 -120 -22.5t-92 -47.5q-25 -21 -8 -47zM90 274q2 -10 13 -20.5t29 -7.5q133 22 268 37q49 5 49 34q0 27 -52 27q-59 0 -188 -15q24 53 26 204q0 11 -12 24t-19 13q-7 1 -12.5 -5t-8 -11.5t-4.5 -12.5q-8 -25 -13.5 -103t-15.5 -120q-24 -6 -31 -8 q-34 -9 -29 -36zM159 -21q-3 -17 4 -29t16 -14q9 -1 20.5 10.5t17.5 24.5q12 39 60 118q1 -3 7 -9q74 -80 115 -136q6 -8 17.5 -9t20.5 5q20 21 3 47q-18 33 -51 69t-61 55q-22 12 -30 13q12 19 31 46q12 17 7 32q-5 18 -17 26q-13 7 -27.5 -0.5t-23.5 -19.5 q-35 -50 -68.5 -116t-40.5 -113z" />
<glyph unicode="&#xad6c;" horiz-adv-x="410" d="M14 246q8 -24 63 -11q76 18 127 28q-5 -39 -3 -113.5t12 -113.5q5 -18 12.5 -27t25.5 -6q8 2 14.5 10.5t5.5 20.5q-10 113 -6 201q0 22 -16 38q35 7 125 23q8 1 17 6.5t9 13.5q0 11 -10 20.5t-24 10.5q-131 -1 -306 -55q-22 -6 -36 -19.5t-10 -26.5zM55 532q15 -15 38 -1 q8 4 26 15.5t27.5 16.5t25 13t29.5 13t29 9q1 -43 -7 -193q-5 -45 19 -45q16 0 28 13.5t14 37.5q11 97 9 188q0 33 -15 51t-51 15q-28 -2 -83.5 -29.5t-84.5 -61.5q-20 -25 -4 -42z" />
<glyph unicode="&#xad6d;" horiz-adv-x="453" d="M21 451q0 -20 20.5 -28.5t39.5 -5.5q113 14 149 17q-24 -113 -28 -263q-18 -6 -30 -12q-50 -24 -38 -48q5 -11 21.5 -17.5t32.5 -0.5q59 21 108 25q4 -42 -4 -184q0 -16 18 -19q30 -4 42 19q19 73 13 184q0 28 -21.5 46.5t-52.5 20.5h-18q0 93 9 184q3 38 -13 67 q72 5 133 2h5q26 0 26 11q0 14 -9.5 30t-22.5 19q-39 8 -114 5q27 80 10 166q-10 49 -65 69q-34 11 -73 2t-62 -32q-12 -13 -4 -31q7 -15 23 -15q8 0 29.5 7t39 9t49.5 -6q5 -95 -15 -174q-83 -8 -163 -22q-35 -6 -35 -25z" />
<glyph unicode="&#xad70;" horiz-adv-x="430" d="M23 335q1 -13 13 -21t25.5 -8.5t24.5 1.5q92 25 154 36q2 -84 -19 -182q-5 -24 17 -26q25 -1 40 23q2 2 3 5q31 66 19 189q23 3 71 7q29 0 30 16q2 22 -16.5 31.5t-38.5 10.5q-130 9 -290 -49q-34 -12 -33 -33zM81 671q-1 -16 9.5 -25.5t25.5 -9.5q78 0 100 -4 q8 -2 12.5 -8t5.5 -17t1 -20.5t-3 -25.5t-5 -25.5t-6.5 -27.5t-6.5 -25q-3 -14 2 -27t18 -13q16 0 30.5 14.5t17.5 28.5q10 36 14.5 55.5t5 49.5t-9.5 52q-20 42 -71 53q-44 8 -106 2q-13 -2 -23 -9.5t-11 -17.5zM98 38q0 -33 17.5 -43t50.5 -5q135 20 230 55q39 15 43 39 q1 15 -11 20.5t-31 -0.5q-161 -42 -232 -51q2 22 26 99q4 14 -2 24.5t-22 12.5q-12 1 -18.5 -4t-13.5 -19q-11 -22 -24 -64.5t-13 -63.5z" />
</font>
</defs>
</svg>
